<?xml version="1.0" encoding="UTF-8"?>
<!DOCTYPE svg PUBLIC "-//W3C//DTD SVG 1.1//EN" "http://www.w3.org/Graphics/SVG/1.1/DTD/svg11.dtd">
<svg version="1.1" xmlns="http://www.w3.org/2000/svg" xmlns:xlink="http://www.w3.org/1999/xlink" x="0" y="0" width="891" height="930" viewBox="0, 0, 891, 930">
  <defs>
    <clipPath id="Clip_1">
      <path d="M0.06,0.132 L890.015,0.132 L890.015,929.94 L0.06,929.94 z"/>
    </clipPath>
  </defs>
  <g id="Layer_1">
    <g clip-path="url(#Clip_1)">
      <path d="M575.515,903.674 C575.023,906.261 574.525,908.848 574.041,911.437 C573.215,915.86 571.207,919.256 566.256,919.679 C561.132,920.117 558.287,917.346 557.031,912.614 C555.032,908.703 556.882,904.865 557.342,901.033 C558.005,895.515 557.705,894.896 552.255,893.584 C549.861,893.008 547.413,892.656 545.064,891.878 C541.063,890.75 536.946,890.105 532.96,888.926 C529.467,887.893 526.538,886.2 525.257,882.512 C524.357,877.64 525.329,872.911 526.454,868.218 C528.584,859.333 530.906,850.493 532.903,841.577 C534.677,834.258 536.638,826.984 538.304,819.636 C541.859,804.716 545.396,789.792 548.996,774.884 C549.079,774.349 549.218,773.828 549.381,773.315 C555.49,748.236 561.346,723.096 567.469,698.02 C567.792,696.695 569.287,694.604 566.186,694.295 C562.743,693.952 559.646,695.841 559.591,698.624 C559.411,707.918 556.893,716.697 553.973,725.403 C552.855,728.737 551.323,731.877 549.432,734.837 C539.33,750.651 522.862,753.642 507.788,742.409 C503.63,739.311 499.907,735.805 496.667,731.708 C492.581,726.539 492.489,726.689 488.709,731.9 C484.482,737.727 479.735,743.019 473.477,746.83 C460.312,754.848 444.513,751.114 436.572,737.909 C431.002,728.646 427.763,718.535 426.091,707.899 C425.729,705.595 425.194,703.314 424.984,700.992 C424.752,698.413 423.27,697.242 420.875,696.721 C412.376,694.875 412.498,695.806 413.29,703.118 C417.525,742.193 422.356,781.182 428.817,819.951 C433.556,848.385 439.111,876.659 446.795,904.476 C447.526,907.121 449.081,909.784 447.449,912.653 C446.547,917.463 444.01,920.639 438.797,920.597 C433.539,920.555 431.503,917.03 430.195,912.457 C419.607,875.445 413.079,837.607 407.074,799.589 C404.961,799.507 404.481,801.448 403.491,802.569 C390.227,817.58 376.354,831.92 359.446,842.944 C351.873,847.881 343.84,851.849 334.898,853.605 C315.424,857.43 300.321,849.991 288.545,834.925 C275.847,818.679 269.998,799.428 265.357,779.753 C261.261,762.389 259.024,744.732 257.423,726.984 C257.282,725.42 257.69,723.694 255.584,722.805 C237.398,715.131 225.127,700.566 213.125,685.826 C202.801,673.147 193.866,659.529 187.661,644.291 C184.726,637.084 183.054,629.625 184.722,621.859 C187.185,610.399 196.109,604.787 207.897,607.033 C212.461,607.903 216.742,609.634 220.994,611.651 C222.048,609.237 220.421,607.631 219.735,605.895 C215.882,596.146 212.081,586.411 210.909,575.857 C209.1,559.557 216.709,549.442 233.09,546.918 C235.262,546.584 235.442,546.132 234.786,544.173 C232.785,538.191 230.861,532.172 229.234,526.08 C228.385,522.897 226.039,523.704 224.087,523.586 C201.988,522.253 186.842,510.231 181.414,489.486 C178.636,478.869 178.597,468.074 179.864,457.252 C180.406,452.617 181.349,448.044 183.257,443.748 C183.992,442.094 183.824,440.657 183.097,439.036 C161.277,390.372 161.788,340.432 175.803,290.168 C190.734,236.619 217.653,189.706 256.924,150.136 C258.927,148.118 258.384,146.971 257.319,145.124 C251.592,135.186 246.081,125.121 240.185,115.286 C237.119,110.172 237.264,105.891 241.044,101.167 C261.565,75.523 287.17,56.174 315.785,40.581 C353.037,20.283 393.007,8.535 435.011,3.515 C494.433,-3.587 553.001,0.015 610.104,18.878 C652.715,32.954 690.819,54.755 722.569,86.911 C727.253,91.655 731.555,96.731 735.663,101.986 C738.823,106.029 739.07,109.941 736.42,114.393 C731.57,122.541 727.199,130.98 722.179,139.018 C720.019,142.476 720.514,144.129 723.631,146.534 C757.221,172.45 782.573,205.024 800.587,243.298 C816.093,276.247 821.817,311.353 822.401,347.472 C822.905,378.69 819.404,409.264 807.132,438.321 C805.867,441.317 807.998,441.719 809.451,442.743 C825.897,454.337 840.447,467.924 852.749,483.871 C872.687,509.718 885.483,538.667 888.983,571.206 C893.829,616.252 881.67,656.068 851.264,690.18 C836.185,707.096 819.881,722.824 804.686,739.611 C793.597,751.862 783.441,764.793 775.21,779.186 C773.692,781.84 773.521,783.448 775.925,785.878 C790.629,800.738 795.138,817.807 787.458,837.918 C778.578,861.169 764.829,880.751 745.617,896.513 C740.839,900.433 735.694,903.994 729.879,906.017 C725.668,907.482 723.691,909.866 723.234,914.067 C723.038,915.872 722.488,917.643 722.049,919.417 C719.458,929.882 718.813,931.452 706.143,928.971 C688.054,925.43 670.287,920.276 652.271,916.32 C635.586,912.656 619.259,907.505 602.408,904.572 C595.757,903.504 589.005,902.88 582.577,900.761 C579.178,899.64 576.836,900.19 575.515,903.674" fill="#6E4100"/>
      <path d="M550.227,774.657 C547.068,789.818 543.426,804.863 539.394,819.814 C533.314,818.296 528.74,820.429 526.444,825.854 C524.472,830.515 526.386,836.383 530.909,839.402 C532.009,840.136 533.286,840.607 534.179,841.643 C531.775,852.048 529.45,862.473 526.922,872.849 C526.129,876.104 525.723,879.302 526.186,882.61 C523.518,881.844 524.381,880.167 524.994,878.554 C523.314,884.605 524.697,889.678 529.017,892.782 C533.63,896.095 537.57,895.902 543.168,892.056 C543.853,891.585 544.57,891.174 545.276,890.742 C549.141,891.608 552.975,892.68 556.881,893.27 C559.733,893.701 559.82,895.149 559.423,897.416 C558.538,902.467 557.818,907.547 557.031,912.614 C555.419,911.462 553.567,911.635 551.738,911.636 C524.096,911.649 496.449,911.388 468.814,911.851 C461.72,911.97 454.578,912.502 447.449,912.653 C442.422,893.522 437.503,874.365 433.708,854.939 C426.911,820.141 421.576,785.115 417.288,749.927 C415.214,732.91 413.392,715.861 411.368,698.837 C410.93,695.146 410.726,693.015 415.946,694.28 C425.776,696.663 425.79,696.298 427.31,706.178 C428.859,716.251 431.352,726.071 436.407,735.032 C445.536,751.216 461.675,754.404 476.457,743.096 C483.046,738.055 487.523,731.29 491.983,724.148 C495.665,728.303 499.055,732.346 502.684,736.161 C506.26,739.921 510.395,743.026 515.136,745.22 C526.847,750.641 539.042,747.593 546.369,736.696 C554.54,724.541 558.533,710.978 557.546,696.218 C557.394,693.957 558.842,694.183 559.925,693.937 C563.145,693.204 566.41,692.669 570.339,691.928 C567.928,702.043 565.642,711.836 563.254,721.604 C558.996,739.023 554.676,756.427 550.381,773.838 C548.848,772.637 549.148,770.877 549.001,769.263 C548.47,763.427 545.479,759.766 540.651,759.07 C535.224,758.288 530.171,760.862 528.284,765.371 C526.302,770.108 527.856,775.724 531.976,778.712 C536.385,781.908 541.906,781.528 546.177,777.876 C547.482,776.76 547.904,774.49 550.227,774.657" fill="#FFE3E5"/>
      <path d="M0.014,358.843 C-0.44,342.113 10.53,328.353 25.173,325.795 C41.315,322.975 56.163,331.374 61.113,346.649 C72.59,382.071 83.824,417.572 95.178,453.034 C97.149,459.19 99.937,465.056 100.809,471.592 C102.012,480.6 98.759,487.262 90.653,491.254 C81.717,495.654 74.339,494.538 67.902,487.859 C65.329,485.19 63.359,482.096 61.696,478.836 C43.702,443.555 23.972,409.212 5.227,374.338 C2.343,368.973 -0.138,363.627 0.014,358.843" fill="#FF7164"/>
    </g>
    <path d="M86.19,541.153 C86.244,527.085 96.569,516.575 110.223,516.689 C124.329,516.807 135.919,529.173 135.703,543.874 C135.502,557.599 125.191,568.331 112.025,568.517 C97.898,568.718 86.133,556.256 86.19,541.153" fill="#FF7164"/>
    <path d="M575.515,903.674 C575.189,898.58 577.342,897.773 581.962,899.243 C588.664,901.375 595.582,902.829 602.408,904.572 C593.404,905.463 584.507,903.145 575.515,903.674" fill="#FCE0E1"/>
    <path d="M711.873,566.739 C697.771,594.707 678.329,618.204 653.249,637.034 C650.649,638.987 648.374,639.562 645.102,638.729 C629.318,634.712 613.451,631.02 597.616,627.205 C589.234,625.186 586.077,627.064 583.994,635.548 C581.3,646.523 578.482,657.476 576.182,668.535 C575.361,672.483 573.393,673.847 569.798,674.685 C539.633,681.716 509.044,684.438 478.139,683.786 C453.292,683.262 428.694,680.491 404.487,674.685 C403.061,674.343 401.664,673.876 399.947,673.379 C404.416,665.315 407.187,657.022 408.044,648.133 C409.129,636.878 402.321,630.288 390.991,631.319 C385.69,631.801 381.226,634.285 376.109,636.77 C377.389,627.76 378.757,619.264 379.773,610.726 C381.487,596.312 382.609,581.864 379.29,567.507 C377.571,560.069 374.454,553.344 368.354,548.387 C359.805,541.439 349.688,541.836 341.73,549.429 C335.937,554.957 332.535,562.005 329.424,569.198 C327.727,573.122 326.277,577.152 324.283,582.236 C322.049,572.377 320.053,563.575 318.058,554.772 C319.296,552.264 321.77,551.023 323.769,549.325 C335.758,539.143 344.768,527.137 347.506,511.208 C348.222,507.479 348.228,503.755 347.458,500.035 C344.397,485.084 338.483,471.677 327.796,460.377 C310.105,441.673 282.723,440.372 261.803,454.906 C252.971,461.042 246.572,469.182 241.358,478.424 C240.434,480.062 240.104,482.359 237.582,482.601 C228.943,423.956 240.226,368.414 264.784,315.296 C286.016,269.373 319.092,234.037 363.435,209.367 C366.917,207.429 368.576,207.288 371.262,210.87 C418.74,274.21 481.189,317.305 554.472,345.577 C593.233,360.531 633.349,370.347 674.351,376.712 C674.68,376.763 675.016,376.768 675.343,376.826 C681.451,377.897 686.422,378.797 689.507,386.356 C694.637,398.927 709.102,404.022 724.855,401.463 C728.499,400.871 732.954,397.813 735.494,400.094 C737.619,402.001 737.091,406.933 737.614,410.544 C741.002,433.942 740.158,457.315 737.13,480.67 C734.03,480.385 733.497,477.556 732.22,475.564 C723.747,462.35 712.872,452.037 697.186,448.402 C677.403,443.817 659.929,448.976 644.893,462.477 C629.639,476.173 621.225,493.545 619.978,513.759 C619.127,527.552 624.782,539.668 634.014,550.127 C645.198,562.796 660.082,567.396 675.888,570.367 C686.745,572.407 697.077,570.606 707.216,566.732 C708.727,566.154 710.326,565.281 711.873,566.739" fill="#FEF8EA"/>
    <path d="M269.098,166.608 C277.065,178.694 283.621,191.605 290.944,204.068 C295.297,211.477 299.172,212.707 306.296,208.161 C346.75,182.348 391.162,167.996 438.607,162.515 C498.446,155.603 557.165,159.927 614.17,180.586 C633.8,187.7 652.38,196.979 669.969,208.241 C676.583,212.477 680.893,211.455 684.77,204.704 C692.729,190.843 700.74,177.01 708.5,163.037 C710.522,159.395 711.794,158.184 715.638,161.393 C759.182,197.747 789.395,242.296 800.746,298.589 C801.072,300.21 801.658,301.803 800.775,303.723 C785.651,296.007 771.207,301.033 757.073,306.675 C734.042,315.869 713.63,329.062 697.342,348.082 C694.409,351.508 691.813,355.197 690.01,359.344 C689.024,361.61 687.575,362.07 685.281,361.713 C607.32,349.605 533.301,326.902 467.846,281.067 C432.721,256.471 402.736,226.726 377.957,191.723 C376.224,189.275 375.55,186.021 371.686,185.19 C366.917,184.165 363.442,185.225 361.28,189.597 C360.432,191.312 359.433,192.573 357.706,193.501 C296.123,226.588 257.135,278.155 235.209,343.598 C227.314,367.162 222.086,391.339 219.173,416.019 C219.019,417.329 218.581,418.604 218.275,419.896 C215.774,419.641 215.228,417.505 214.518,415.731 C207.546,398.317 203.341,380.286 201.902,361.543 C197.236,300.802 216.149,246.505 246.91,195.389 C252.149,186.683 257.893,178.324 264.174,170.34 C265.471,168.692 266.477,166.554 269.098,166.608" fill="#DCB05C"/>
    <path d="M488.001,16.917 C540.007,17.175 590.342,25.624 637.74,47.97 C667.847,62.164 694.851,80.705 717.098,105.778 C719.379,108.349 719.528,110.142 717.816,113.101 C703.66,137.569 689.671,162.133 675.687,186.7 C674.344,189.059 673.549,190.706 670.21,188.72 C626.229,162.565 578.292,149.058 527.591,144.515 C475.505,139.848 424.196,143.666 373.963,158.775 C350.307,165.89 327.711,175.55 306.534,188.324 C303.341,190.251 302.153,189.937 300.336,186.71 C286.631,162.383 272.846,138.098 258.734,114.005 C256.376,109.979 257.112,107.827 259.915,104.735 C283.811,78.377 312.712,59.143 345.057,44.9 C385.481,27.099 428.059,18.932 472.026,17.279 C474.686,17.179 477.343,16.991 480.003,16.93 C482.668,16.87 485.335,16.917 488.001,16.917" fill="#FFE3E5"/>
    <path d="M694.265,908.579 C682.589,906.802 671.275,903.429 659.818,900.699 C622.635,891.838 585.498,882.791 548.3,873.997 C544.881,873.189 544.269,872.309 545.112,868.83 C562.875,795.498 580.514,722.135 598.018,648.741 C598.813,645.411 599.81,644.85 602.912,645.669 C612.071,648.089 621.281,650.328 630.524,652.407 C632.904,652.942 633.465,653.609 632.805,656.02 C631.138,662.107 629.71,668.262 628.329,674.422 C626.729,681.556 628.944,684.99 636.147,686.727 C660.382,692.57 684.62,698.402 708.862,704.213 C716.846,706.126 720.242,703.949 722.152,695.867 C723.453,690.368 724.979,684.915 726.06,679.375 C726.618,676.514 727.238,675.481 730.533,676.377 C739.511,678.818 748.614,680.809 757.69,682.877 C760.299,683.472 761.354,684.032 760.523,687.371 C754.225,712.691 748.203,738.081 742.279,763.492 C741.502,766.825 740.202,767.648 736.915,767.155 C730.734,766.227 724.641,767.236 718.754,769.251 C703.942,774.319 697.355,787.127 702.022,802.072 C703.253,806.013 704.85,809.906 706.816,813.53 C708.578,816.778 708.871,818.02 704.463,818.847 C695.584,820.514 688.32,824.956 684.506,833.696 C682.873,837.44 682.893,841.513 682.542,845.464 C682.057,850.913 680.825,855.167 675.623,858.709 C666.214,865.115 664.346,879.223 670.737,889.217 C676.391,898.059 684.593,903.888 694.18,907.888 C694.508,908.003 694.63,908.144 694.546,908.31 C694.457,908.489 694.364,908.579 694.265,908.579" fill="#FEFEFE"/>
    <path d="M762.291,753.872 C763.75,742.816 767.153,732.192 769.586,721.352 C772.496,708.387 775.869,695.526 778.977,682.603 C781.064,673.922 778.997,670.862 770.318,668.661 C754.549,664.661 738.698,660.983 722.921,657.015 C710.878,653.986 698.745,651.052 686.528,648.661 C682.17,647.808 681.116,646.245 681.446,641.404 C681.979,633.614 687.492,629.739 691.853,625.041 C717.783,597.108 734.483,564.189 744.879,527.844 C745.784,524.679 746.985,523.706 750.215,523.587 C777.151,522.597 794.886,505.022 796.2,478.083 C796.483,472.27 796.286,466.431 796.213,460.606 C796.191,458.849 796.324,457.072 797.91,456.237 C799.284,455.513 800.339,457.045 801.338,457.779 C839.574,485.879 864.747,522.271 871.941,569.879 C872.778,575.417 873.764,581.062 873.11,586.758 C869.889,605.173 860.767,621.008 851.079,636.535 C836.852,659.337 819.136,679.478 802.043,700.088 C788.968,715.853 776.501,732.056 766.364,749.931 C765.426,751.586 764.738,753.692 762.291,753.872" fill="#DCB05C"/>
    <path d="M390.878,648.584 C389.999,657.061 386.624,664.073 381.836,670.248 C365.539,691.266 344.896,706.484 318.85,712.538 C288.443,719.606 261.127,713.321 238.96,689.931 C226.532,676.817 215.705,662.548 207.202,646.578 C204.385,641.287 201.83,635.85 201.049,629.817 C200.258,623.7 201.84,622.352 207.59,624.363 C217.505,627.831 225.893,633.867 233.519,640.871 C237.209,644.261 240.748,646.284 245.488,643.699 C249.536,641.493 250.399,637.737 248.464,631.32 C245.047,619.99 239.356,609.588 234.978,598.648 C232.008,591.228 229.132,583.79 227.784,575.876 C227.452,573.929 227.297,571.876 227.526,569.926 C228.146,564.648 232.537,562.275 237.37,564.59 C242.643,567.115 246.217,571.563 249.628,576.093 C258.191,587.468 264.116,600.319 270.131,613.112 C272.955,619.117 276.334,621.08 281.338,619.582 C285.53,618.327 287.185,614.736 286.889,608.665 C285.933,589.038 285.116,569.398 288.33,549.88 C288.765,547.234 288.383,543.131 291.301,542.613 C294.543,542.038 295.887,545.968 297.193,548.546 C302.906,559.825 304.909,572.189 307.323,584.418 C308.998,592.899 310.557,601.403 312.242,609.882 C312.595,611.662 313.2,613.403 313.814,615.117 C315.435,619.639 318.4,622.553 323.491,622.034 C328.484,621.525 330.391,618.15 331.906,613.539 C337.08,597.796 341.132,581.592 349.37,567.006 C350.876,564.34 352.289,560.369 355.732,560.704 C359.477,561.068 360.985,565.066 362.049,568.39 C365.583,579.434 364.743,590.783 363.824,602.072 C362.5,618.342 359,634.31 356.783,650.459 C356.231,654.482 356.359,658.15 359.879,660.831 C363.662,663.713 367.505,662.65 371.078,660.5 C375.206,658.017 379.145,655.22 383.158,652.548 C385.463,651.013 387.781,649.515 390.878,648.584" fill="#FEF8EA"/>
    <path d="M711.873,566.739 C706.05,568.011 700.656,570.641 694.741,571.755 C684.816,573.624 675.273,571.904 665.742,569.598 C648.32,565.381 634.379,556.323 625.398,540.38 C618.276,527.736 616.796,514.322 620.581,500.519 C626.665,478.332 639.14,461.024 660.272,450.682 C683.386,439.369 712.906,446.64 728.156,467.552 C731.276,471.83 734.145,476.292 737.13,480.67 C733.582,510.789 725.532,539.587 711.873,566.739" fill="#FFD5BA"/>
    <path d="M338.261,724.786 C339.579,737.42 340.929,750.129 342.22,762.844 C342.885,769.391 346.585,773.152 351.803,772.44 C357.088,771.719 359.602,767.374 358.872,760.734 C357.345,746.84 355.99,732.928 354.447,719.036 C354.203,716.835 355.044,715.766 356.807,714.709 C368.008,708 378.111,699.886 387.073,690.396 C388.495,688.891 389.75,688.162 391.809,688.745 C394.005,689.367 393.866,691.166 394.015,692.742 C396.533,719.414 399.688,746.012 403.284,772.559 C403.562,774.61 403.366,776.384 401.945,778.126 C388.554,794.533 374.695,810.481 357.834,823.501 C350.562,829.116 342.832,834 333.912,836.588 C323.393,839.64 314.179,837.16 306.371,829.534 C295.264,818.688 289.938,804.687 285.511,790.328 C279.707,771.499 276.842,752.083 274.793,732.531 C274.583,730.53 274.565,729.186 277.159,729.749 C297.753,734.216 317.778,731.854 337.402,724.705 C337.543,724.653 337.73,724.731 338.261,724.786" fill="#FFE3E5"/>
    <path d="M237.582,482.601 C243.489,471.323 250.445,460.934 261.297,453.681 C289.67,434.719 322.292,443.331 338.995,473.105 C343.633,481.372 347.488,490.013 348.362,499.654 C349.057,503.677 349.076,507.7 348.352,511.721 C347.809,519.723 344.441,526.668 340.035,533.133 C334.146,541.772 327.369,549.576 318.058,554.772 C315.345,548.038 313.252,541.012 308.752,535.122 C304.676,529.785 299.816,525.768 292.711,525.477 C282.622,525.064 277.365,528.678 273.885,538.244 C271.707,544.232 271.242,550.544 270.132,556.736 C267.033,558.539 264.596,556.308 261.994,555.327 C260.039,554.591 258.222,553.506 256.283,552.706 C247.176,532.175 241.847,510.588 238.343,488.493 C238.033,486.538 237.833,484.566 237.582,482.601" fill="#FFE1CC"/>
    <path d="M717.765,834.561 C719.261,834.643 720.757,834.784 722.254,834.796 C729.194,834.852 733.046,829.535 730.384,823.057 C728.434,818.311 725.814,813.84 723.479,809.253 C721.52,805.407 719.455,801.619 718.173,797.458 C716.171,790.952 718.236,786.782 724.78,784.855 C729.979,783.325 735.28,783.186 740.571,784.513 C754.341,787.967 764.966,795.569 771.656,808.27 C774.656,813.967 775.332,819.943 773.429,826.154 C765.495,852.042 750.846,873.162 728.094,888.036 C713.689,897.453 699.18,895.484 687.751,883.736 C682.222,878.054 682.514,874.008 689.045,869.63 C696.237,864.808 698.322,857.713 699.192,849.588 C700.63,836.172 703.74,833.893 717.765,834.561" fill="#FEF8EA"/>
    <path d="M269.098,166.608 C258.871,178.309 250.617,191.382 242.861,204.767 C223.662,237.903 210.242,273.175 204.709,311.185 C199.562,346.551 202.22,381.201 215.543,414.673 C216.262,416.481 216.638,418.537 218.275,419.894 C218.717,422.182 217.293,422.285 215.625,422.227 C209.532,422.014 203.642,422.987 198.292,425.991 C195.136,427.763 195.354,424.926 194.838,423.613 C187.841,405.828 184.006,387.356 183.169,368.27 C180.873,315.901 196.607,268.338 222.079,223.453 C233.946,202.543 248.035,183.216 264.76,165.872 C266.658,163.904 268.335,162.316 269.098,166.608" fill="#FEFEFE"/>
    <path d="M718.22,385.177 C704.806,385.13 699.668,376.744 705.54,365.893 C709.892,357.849 716.349,351.575 723.398,345.937 C740.186,332.509 758.423,321.816 779.729,317.305 C791.248,314.867 795.065,319.313 791.143,330.563 C787.72,340.384 781.166,348.141 773.834,355.259 C761.032,367.685 746.597,377.547 729.459,383.083 C725.477,384.37 721.409,385.116 718.22,385.177" fill="#FFE3E5"/>
    <path d="M805.074,341.667 C808.21,371.24 800.149,418.606 789.277,436.033 C787.956,436.211 787.79,434.92 787.243,434.247 C780.215,425.595 770.933,421.858 760.033,422.085 C757.132,422.146 755.921,421.566 755.557,418.586 C754.61,410.84 753.495,403.11 752.211,395.413 C751.723,392.484 753.122,391.324 755.352,390.037 C773.598,379.512 789.543,366.418 801.048,348.471 C802.283,346.546 803.383,344.534 805.074,341.667" fill="#DCB05C"/>
    <path d="M762.291,753.872 C771.701,738.616 781.473,723.624 792.704,709.601 C806.625,692.22 821.505,675.623 834.851,657.774 C850.949,636.243 865.243,613.764 872.485,587.496 C872.563,587.214 872.896,587.003 873.11,586.758 C874.633,615.411 866.354,641.125 849.869,664.392 C838.768,680.058 825.468,693.796 812.061,707.424 C792.796,727.006 774.038,746.977 760.456,771.152 C759.95,772.053 759.817,773.674 758.142,772.813 C756.9,772.174 757.626,771.093 757.856,770.185 C759.242,764.723 760.124,759.123 762.291,753.872" fill="#FEFEFE"/>
    <path d="M779.742,471.013 C779.641,476.688 779.051,482.291 777.258,487.713 C773.514,499.032 765.376,504.898 753.853,506.582 C751.307,506.954 749.883,506.888 750.58,503.379 C754.54,483.431 756.542,463.265 756.369,442.916 C756.344,439.961 757.114,438.811 760.262,438.795 C768.162,438.754 773.482,442.066 776.594,449.462 C779.504,456.376 779.78,463.67 779.742,471.013" fill="#FEF8EA"/>
    <path d="M195.794,469.895 C196.037,462.38 196.417,455.426 199.287,448.882 C202.201,442.238 207.312,439.055 214.514,438.817 C216.968,438.736 217.965,439.318 218.034,441.984 C218.269,450.947 218.284,459.911 219.095,468.869 C220.129,480.296 221.456,491.676 223.801,502.892 C224.653,506.966 223.222,506.903 220.166,506.311 C206.225,503.611 198.159,494.376 196.414,478.817 C196.063,475.685 195.971,472.523 195.794,469.895" fill="#FEF8EA"/>
    <path d="M651.642,657.506 C663.643,660.359 675.102,663.073 686.556,665.811 C693.331,667.43 700.071,669.205 706.878,670.672 C709.73,671.287 710.972,672.265 709.828,675.317 C708.497,678.868 709.308,684.234 706.429,685.811 C704.042,687.118 699.563,684.647 696.024,683.799 C680.699,680.13 665.41,676.304 650.033,672.869 C646.614,672.105 646.076,670.965 647.132,667.938 C648.056,665.289 648.624,662.498 649.135,659.73 C649.485,657.839 650.284,657.045 651.642,657.506" fill="#FEFEFE"/>
    <path d="M497.949,700.676 C511.92,700.009 525.011,699.202 538.023,697.504 C540.557,697.174 541.754,697.559 541.325,700.484 C540.117,708.726 538.604,716.867 534.438,724.231 C530.067,731.957 525.385,732.982 518.311,727.465 C509.367,720.489 503.576,711.066 497.949,700.676" fill="#FFE3E5"/>
    <path d="M483.461,700.764 C480.365,710.669 476.081,719.349 469.478,726.75 C467.956,728.456 466.049,729.915 464.091,731.115 C459.076,734.192 455.488,733.469 452.219,728.529 C446.676,720.152 445.014,710.46 443.403,700.804 C442.823,697.324 445.637,698.639 447.029,698.774 C458.919,699.927 470.836,700.533 483.461,700.764" fill="#FFE3E5"/>
    <path d="M550.227,774.657 C543.308,785.969 532.873,783.173 528.211,777.051 C525.419,773.385 525.427,766.729 528.291,762.611 C531.166,758.478 537.361,756.429 542.511,757.907 C546.847,759.153 550.23,763.909 550.305,768.863 C550.33,770.521 550.356,772.18 550.381,773.838 C550.511,774.145 550.46,774.418 550.227,774.657" fill="#FEFEFE"/>
    <path d="M534.179,841.643 C528.018,840.478 524.433,836.213 524.294,829.884 C524.188,825.067 528.552,818.849 533.176,817.959 C535.276,817.554 538.274,816.11 539.394,819.815 C538.063,827.188 536.315,834.462 534.179,841.643" fill="#FEFEFE"/>
    <path d="M545.276,890.742 C542.992,895.259 538.969,896.902 534.337,896.398 C528.651,895.779 523.863,891.114 523.291,886.486 C522.873,883.103 523.329,880.311 524.761,877.565 C525.808,879.105 524.39,881.323 526.186,882.611 C528.292,886.628 532.226,887.452 536.139,888.374 C539.201,889.096 542.232,889.948 545.276,890.742" fill="#FDFDFD"/>
    <path d="M256.283,552.706 C258.008,550.886 259.254,552.822 260.548,553.381 C263.671,554.729 266.629,556.485 270.132,556.736 C269.875,562.319 269.617,567.901 269.317,574.417 C263.96,567.148 258.535,560.916 256.283,552.706" fill="#FEF8EA"/>
    <path d="M698.261,909.653 C700.258,909.628 702.325,909.305 703.89,911.068 C702.072,910.444 699.834,911.438 698.333,909.568 L698.261,909.653" fill="#DDD4CA"/>
    <path d="M694.265,908.579 C694.104,908.365 694.075,908.134 694.18,907.888 C695.451,908.683 697.394,907.923 698.26,909.654 C698.261,909.653 698.331,909.569 698.332,909.568 C696.872,909.669 695.316,910.16 694.265,908.579" fill="#DDD5CA"/>
    <path d="M521.554,596.036 C521.75,601.439 520.649,610.495 517.843,619.288 C512.924,634.706 503.723,642.242 489.742,642.508 C475.334,642.782 464.431,634.723 459.141,619.95 C454.064,605.773 454.639,591.14 455.765,576.508 C456.249,570.225 457.041,563.914 459.25,557.934 C463.668,545.973 470.812,536.586 484.475,535.4 C497.848,534.238 506.875,541.913 513.168,552.654 C520.276,564.784 521.375,578.46 521.554,596.036" fill="#6E4100"/>
    <path d="M592.315,394.015 C605.332,383.731 616.11,386.126 622.532,400.497 C626.812,410.073 627.628,420.077 625.254,430.244 C622.598,441.617 614.108,448.351 604.038,447.434 C592.827,446.413 584.344,437.892 583.372,426.64 C582.938,421.626 583.179,416.587 584.563,411.79 C585.403,408.882 584.793,406.782 583.391,404.358 C580.205,398.85 578.255,392.843 577.264,386.566 C576.663,382.76 577.393,379.318 581.911,378.632 C586.333,377.961 588.693,380.256 589.375,384.661 C589.852,387.739 590.609,390.797 592.315,394.015" fill="#6E4100"/>
    <path d="M350.453,418.842 C350.307,415.392 350.567,411.434 351.877,407.915 C353.684,403.059 353.272,398.864 351.127,394.257 C349.467,390.691 348.588,386.698 347.802,382.806 C347.096,379.309 348.472,376.466 352.201,375.576 C356.057,374.656 358.661,376.266 359.74,380.144 C359.962,380.943 360.142,381.758 360.283,382.575 C361.03,386.921 361.367,390.493 367.986,388.141 C373.826,386.066 379.547,389.174 383.534,393.881 C392.603,404.589 395.443,417.225 393.013,430.793 C391.372,439.954 381.754,447.175 372.348,447.531 C362.711,447.895 355.415,442.285 352.328,432.045 C351.074,427.884 350.413,423.615 350.453,418.842" fill="#6E4100"/>
    <path d="M369.463,241.22 C376.166,241.465 382.294,246.59 387.061,253.544 C389.205,256.672 388.367,260.055 385.339,262.398 C382.301,264.748 379.163,264.365 376.288,261.849 C376.038,261.631 375.816,261.38 375.589,261.137 C367.496,252.472 364.208,252.828 358.185,263.068 C357.093,264.925 356.251,266.937 355.072,268.732 C353.187,271.6 350.286,272.424 347.195,271.416 C344.078,270.399 342.334,267.947 342.499,264.545 C342.993,254.368 357.023,241.12 369.463,241.22" fill="#6E4100"/>
    <path d="M497.808,444.952 C497.738,448.413 496.282,451.102 493.05,452.446 C489.543,453.904 485.992,453.592 483.505,450.585 C481.099,447.677 479.052,444.41 477.252,441.082 C475.479,437.804 476.356,434.588 478.912,431.986 C481.66,429.19 484.968,428.785 488.495,430.375 C491.924,431.92 497.847,441.271 497.808,444.952" fill="#6E4100"/>
    <path d="M348.352,511.721 C348.355,507.699 348.358,503.677 348.362,499.654 C349.865,503.678 349.876,507.7 348.352,511.721" fill="#FFE9D7"/>
    <path d="M468.163,590.881 C467.919,582.301 468.861,574.387 470.387,566.544 C471.351,561.588 473.273,557.01 476.678,553.186 C481.791,547.442 488.157,546.676 494.454,551.046 C498.805,554.066 502.093,558.027 503.796,563.036 C509.679,580.334 510.422,597.866 505.25,615.437 C502.315,625.411 497.591,629.328 489.572,629.504 C481.019,629.692 474.786,625.034 471.522,615.839 C468.591,607.584 467.747,599.025 468.163,590.881" fill="#FEFEFE"/>
  </g>
</svg>
