<?xml version="1.0" encoding="UTF-8" standalone="no"?>
<!-- Created with Inkscape (http://www.inkscape.org/) -->
<svg xmlns:rdf="http://www.w3.org/1999/02/22-rdf-syntax-ns#" xmlns="http://www.w3.org/2000/svg" xmlns:cc="http://web.resource.org/cc/" xmlns:dc="http://purl.org/dc/elements/1.1/" xmlns:svg="http://www.w3.org/2000/svg" xmlns:inkscape="http://www.inkscape.org/namespaces/inkscape" xmlns:sodipodi="http://sodipodi.sourceforge.net/DTD/sodipodi-0.dtd" xmlns:ns1="http://sozi.baierouge.fr" xmlns:xlink="http://www.w3.org/1999/xlink" id="Layer_1" xml:space="preserve" version="1.0" viewBox="0 0 494.047 534.32" inkscape:version="0.91 r13725">
<g id="g5">
	<path id="path7" style="stroke:black;stroke-width:.036;stroke-miterlimit:10;fill-rule:evenodd" d="m45.214 291.45c0 134.1 88.636 242.85 197.97 242.85 109.3 0 197.93-108.75 197.93-242.85s-88.63-242.86-197.93-242.86c-109.33 0.001-197.97 108.76-197.97 242.86h0.004z"/>
	<path id="path9" style="fill-rule:evenodd;stroke:black;stroke-width:.036;stroke-miterlimit:10;fill:#dbaf94" d="m49.426 291.88c0 131.87 87.124 238.82 194.58 238.82s194.58-106.95 194.58-238.82c0-131.9-87.12-238.86-194.58-238.86-107.47-0.001-194.58 106.96-194.58 238.86h-0.004z"/>
	<path id="path11" style="stroke:black;stroke-width:.036;stroke-miterlimit:10;fill-rule:evenodd" d="m62.602 248c-1.224-4.86-3.42-8.32-6.732-10.8-3.312-2.49-7.776-3.82-12.996-3.86-5.364-0.1-13.608-0.28-18.756 3.35-5.256 3.6-9.396 9.94-12.276 18.04-3.024 7.99-5.616 19.8-5.292 29.59 0.288 9.76 2.304 21.13 7.452 28.15 5.076 6.91 16.992 11.34 23.112 12.75 5.94 1.11 9.54-1.98 12.744-5.55 3.168-3.6 5.076-8.89 6.012-15.87l6.732-55.8z"/>
	<path id="path13" style="fill-rule:evenodd;fill:#dbaf94" d="m56.59 307.9c-0.576-1.84-1.296-2.59-2.16-2.41-0.864 0.25-1.908 1.4-3.132 3.6-1.44 2.12-2.988 6.41-5.04 8.67-2.124 2.09-3.708 3.89-6.984 3.86-3.384-0.18-8.388-1.98-12.492-4.58-4.14-2.73-9.216-6.37-12.024-11.05-2.952-4.75-4.5-10.4-5.076-17.1-0.324-1.22-0.108-4.03 0.504-8.42 0.612-4.54 1.548-12.31 3.348-18.04 1.764-5.9 3.996-12.27 6.984-16.34 2.952-4.07 6.48-6.63 10.584-7.96 3.888-1.51 9.54-0.97 13.212-0.72 3.528 0.18 6.192 0.83 8.424 1.95 2.124 1.08 3.78 2.52 4.824 4.32 1.044 1.62 0.684 4.64 1.44 5.76 0.684 1.04 1.512 1.33 2.628 0.72 1.008-0.72 2.088-1.98 3.384-4.32-2.808 20.66-5.617 41.36-8.424 62.06z"/>
	<path id="path15" style="stroke:black;stroke-width:.036;stroke-miterlimit:10;fill-rule:evenodd" d="m51.802 259.8c-0.504-1.51-3.132-4.1-5.544-5.29-2.556-1.33-6.192-2.77-9.396-1.94-3.348 0.79-7.236 2.7-9.864 6.98-2.664 4.29-5.004 11.81-5.508 18.29-0.576 6.41 0.036 15.44 2.376 19.73 2.304 4.1 7.776 5.18 11.556 5.04 3.6-0.29 9.072-4.47 10.584-6.27 1.368-1.87 0.108-4.78-1.692-4.57-1.836 0.18-6.228 5.08-8.892 5.8-2.844 0.61-5.472-0.11-7.2-2.16-1.728-2.2-2.664-5.8-2.664-10.37-0.072-4.68 0.828-12.64 2.412-17.06 1.476-4.47 4.32-8 6.732-9.62 2.376-1.76 5.22-1.33 7.704-0.5 2.376 0.83 5.076 4.86 6.732 5.29 1.511 0.22 3.096-1.87 2.664-3.35z"/>
	<path id="path17" style="stroke:black;stroke-width:.036;stroke-miterlimit:10;fill-rule:evenodd" d="m427.28 250.08c1.19-4.82 3.39-8.38 6.73-10.83 3.28-2.52 7.6-3.75 12.96-3.82 5.33-0.11 13.54-0.29 18.79 3.35 5.19 3.6 9.22 9.94 12.24 18.04 2.92 7.99 5.51 19.8 5.3 29.59-0.4 9.75-2.42 21.13-7.46 28.15-5.18 6.91-17.13 11.34-23.07 12.74-6.05 1.12-9.65-1.98-12.74-5.54-3.21-3.6-5.12-8.89-6.02-15.88l-6.73-55.8z"/>
	<path id="path19" style="fill-rule:evenodd;fill:#dbaf94" d="m433.29 309.99c0.54-1.84 1.26-2.59 2.16-2.41 0.76 0.25 1.8 1.4 3.14 3.6 1.4 2.12 2.95 6.4 5.04 8.67 2.05 2.09 3.6 3.89 6.98 3.85 3.27-0.18 8.31-1.98 12.49-4.57 4.03-2.7 9.15-6.44 12.02-11.09 2.92-4.78 4.43-10.33 5.08-17.06 0.29-1.22 0.07-4.03-0.5-8.42-0.72-4.54-1.66-12.32-3.35-18.04-1.8-5.9-4.03-12.28-6.99-16.34-3.06-4.07-6.58-6.63-10.58-7.96-4.07-1.51-9.65-0.97-13.25-0.72-3.63 0.18-6.3 0.83-8.42 1.94-2.27 1.08-3.82 2.52-4.79 4.32-1.15 1.62-0.76 4.65-1.44 5.76-0.76 1.05-1.69 1.34-2.66 0.72-1.05-0.72-2.16-1.98-3.35-4.32 2.81 20.67 5.62 41.37 8.42 62.07z"/>
	<path id="path21" style="stroke:black;stroke-width:.036;stroke-miterlimit:10;fill-rule:evenodd" d="m438.08 261.89c0.43-1.51 3.03-4.1 5.55-5.29 2.44-1.33 6.12-2.77 9.36-1.94 3.27 0.79 7.16 2.7 9.86 6.98 2.52 4.28 4.97 11.81 5.54 18.29 0.47 6.41-0.1 15.44-2.41 19.73-2.45 4.1-7.81 5.18-11.52 5.04-3.71-0.29-9.18-4.47-10.58-6.27-1.41-1.87-0.26-4.79 1.65-4.57 1.73 0.18 6.19 5.08 8.93 5.8 2.7 0.54 5.47-0.15 7.2-2.2 1.66-2.23 2.48-5.72 2.63-10.33-0.07-4.68-0.87-12.64-2.38-17.07-1.55-4.57-4.39-7.92-6.73-9.64-2.48-1.8-5.33-1.26-7.7-0.47-2.49 0.83-5.15 4.86-6.73 5.29-1.62 0.22-3.21-1.87-2.67-3.35z"/>
	<path id="path23" style="stroke:black;stroke-width:.036;stroke-miterlimit:10;fill-rule:evenodd" d="m196.16 222.36c0 10.88 5.94 19.73 13.32 19.73 7.35 0 13.32-8.85 13.32-19.73 0-10.9-5.97-19.72-13.32-19.72-7.38 0-13.32 8.82-13.32 19.72z"/>
	<path id="path25" style="fill-rule:evenodd;stroke:black;stroke-width:.036;stroke-miterlimit:10;fill:white" d="m202.86 212.46c0 1.98 1.62 3.6 3.63 3.6 2.02 0 3.64-1.62 3.64-3.6 0-2.01-1.62-3.63-3.64-3.63-2.01 0-3.63 1.62-3.63 3.63z"/>
	<path id="path27" style="stroke:black;stroke-width:.036;stroke-miterlimit:10;fill-rule:evenodd" d="m183.49 187.88c2.48-2.31 7.99-5.91 12.24-8.03 4.21-2.27 9.47-4 13-4.65 3.38-0.68 6.8 0.04 7.48 1.05 0.44 1.04-1.18 3.78-4.03 5.15-2.81 1.22-8.67 0.93-12.6 2.59-3.99 1.51-8.21 5-10.98 6.98-2.77 1.95-4.39 4.47-5.69 4.93-1.47 0.36-2.41-1.33-2.37-2.59 0-1.33 0.43-3.27 2.95-5.43z"/>
	<path id="path29" style="stroke:black;stroke-width:.036;stroke-miterlimit:10;fill-rule:evenodd" d="m292.82 226.36c0 10.91-5.94 19.76-13.32 19.76-7.34 0-13.32-8.85-13.32-19.76 0-10.87 5.98-19.73 13.32-19.73 7.38 0 13.32 8.86 13.32 19.73z"/>
	<path id="path31" style="fill-rule:evenodd;stroke:black;stroke-width:.036;stroke-miterlimit:10;fill:white" d="m282.24 216.21c0 2.01-1.62 3.63-3.64 3.63-1.98 0-3.6-1.62-3.6-3.63 0-1.98 1.62-3.6 3.6-3.6 2.02 0 3.64 1.62 3.64 3.6z"/>
	<path id="path33" style="stroke:black;stroke-width:.036;stroke-miterlimit:10;fill-rule:evenodd" d="m308.77 191.91c-2.7-2.31-7.99-5.91-12.27-8.03-4.29-2.27-9.54-4-13-4.64-3.56-0.65-6.91-0.04-7.52 1-0.51 1.05 1.11 3.75 4.03 5.19 2.77 1.22 8.6 0.93 12.63 2.59 3.96 1.51 8.14 5 11.02 6.98 2.7 1.95 4.32 4.5 5.69 4.9 1.37 0.32 2.3-1.22 2.37-2.56-0.07-1.33-0.54-3.27-2.95-5.43z"/>
	<path id="path35" style="stroke:black;stroke-width:.036;stroke-miterlimit:10;fill-rule:evenodd" d="m76.894 207.39c0.468-4.32 3.888-15.37 6.372-22.47 2.376-7.27 6.588-17.35 8.316-19.98 1.764-2.55 2.736 0.54 1.944 4.72-1.008 4.07-5.22 12.85-7.488 19.69-2.304 6.81-4.608 17.68-6.084 20.81-1.584 2.84-3.672 1.55-3.06-2.77z"/>
	<path id="path37" style="stroke:black;stroke-width:.036;stroke-miterlimit:10;fill-rule:evenodd" d="m76.065 215.7c-0.648 1.19-1.764 6.23-1.404 7.49 0.432 1.08 2.88 0.94 3.6-0.29 0.504-1.29 0.36-5.72 0-6.91-0.539-1.29-1.547-1.44-2.196-0.29z"/>
	<path id="path39" style="stroke:black;stroke-width:.036;stroke-miterlimit:10;fill-rule:evenodd" d="m96.478 154.4c-0.972 1.04-3.42 5.47-3.312 6.87 0.072 1.23 2.556 1.59 3.564 0.65 0.9-1.04 1.728-5.44 1.8-6.66-0.072-1.41-1.224-1.84-2.052-0.86z"/>
	<path id="path41" style="stroke:black;stroke-width:.036;stroke-miterlimit:10;fill-rule:evenodd" d="m325.76 91.827c3.86 1.872 13.29 8.283 19.41 12.963 6.04 4.5 14.4 11.59 16.45 14.07 1.8 2.45-1.51 2.45-5.08 0.4-3.67-2.27-10.73-8.93-16.45-13.18-5.87-4.32-15.44-9.825-17.89-12.201-2.45-2.484-0.29-3.816 3.56-2.052z"/>
	<path id="path43" style="stroke:black;stroke-width:.036;stroke-miterlimit:10;fill-rule:evenodd" d="m318.09 88.479c-1.08-1.115-5.39-3.527-6.69-3.636-1.33-0.036-1.8 2.484-0.83 3.528 0.94 0.864 5.22 2.088 6.59 2.124 1.26-0.036 1.8-1.08 0.93-2.016z"/>
	<path id="path45" style="stroke:black;stroke-width:.036;stroke-miterlimit:10;fill-rule:evenodd" d="m370.15 126.75c-0.83-1.3-4.28-4.86-5.51-5.26-1.26-0.36-2.48 1.94-1.73 3.17 0.72 1.12 4.5 3.35 5.8 3.78 1.15 0.18 2.09-0.43 1.44-1.69z"/>
	<path id="path47" style="stroke:black;stroke-width:.036;stroke-miterlimit:10;fill-rule:evenodd" d="m235.01 526.35c-4.36-0.29-15.7-2.09-23.04-3.85-7.38-1.84-18-4.61-20.74-6.09-2.7-1.55 0.22-2.88 4.46-2.45 4.18 0.4 13.29 3.78 20.38 5.3 6.98 1.44 18.04 2.55 21.35 3.78 3.06 1.18 1.83 3.31-2.41 3.31z"/>
	<path id="path49" style="stroke:black;stroke-width:.036;stroke-miterlimit:10;fill-rule:evenodd" d="m243.36 526.28c1.26 0.39 6.33 1 7.59 0.57 1.05-0.5 0.54-3.17-0.68-3.56-1.4-0.54-5.69 0.21-6.88 0.75-1.22 0.51-1.33 1.62-0.03 2.24z"/>
	<path id="path51" style="stroke:black;stroke-width:.036;stroke-miterlimit:10;fill-rule:evenodd" d="m180.18 512.7c1.15 0.8 5.87 2.67 7.2 2.56 1.22-0.36 1.37-2.77 0.29-3.64-1.19-0.86-5.62-1.26-6.88-1.04-1.3 0.11-1.73 1.33-0.61 2.12z"/>
	<path id="path53" style="stroke:black;stroke-width:.036;stroke-miterlimit:10;fill-rule:evenodd" d="m225.21 63.135c-0.79 5.616-3.74 10.872-9 15.769-5.36 4.859-14.58 7.416-22.5 13.5-7.95 6.012-13.89 9.256-24.77 22.496-11.05 13.18-27.28 39.57-40.5 56.24-13.42 16.59-27.61 32.65-38.227 42.76-10.548 9.9-15.912 13.14-24.264 16.92-8.568 3.75-17.856 6.23-25.632 5.51-7.74-0.93-14.58-5.97-20.124-10.55-5.58-4.68-9.756-11.23-13.068-16.59-3.492-5.26-7.776-9.9-7.02-15.05 0.684-5.4 4.392-9.83 11.556-16.6 7.128-6.76 22.968-12.74 31.14-23.61 7.956-11.13 11.808-25.96 17.1-41.73 5.256-15.802 5.76-37.005 14.58-52.233 8.712-15.408 23.688-30.528 37.689-38.7 14.04-8.063 30.35-9.72 45.72-9.54 15.27 0.145 34.27 4.464 45.22 10.044 10.76 5.509 16.99 12.853 19.11 22.608 6.95-11.556 16.78-20.844 29.63-28.152 12.93-7.38 30.03-13.968 47.27-15.588 17.1-1.728 38.74 0.108 54.76 6.048 15.91 5.977 26.67 14.148 40.21 29.664 13.39 15.624 30.24 43.632 39.71 62.784 9.21 19.045 9.43 36.905 16.06 50.255 6.62 13.03 16.3 20.2 23.61 28.15 7.27 7.92 16.96 10.77 19.62 19.08 2.45 8.25-0.18 20.7-4.54 30.17-4.57 9.51-12.42 20.81-21.6 26.14-9.18 5.15-24.01 11.19-32.68 4.53-8.72-7.05-13.65-30.88-19.08-45.25-5.51-14.4-2.81-24.59-13.57-39.71-11.02-15.15-28.8-34.63-51.27-50.22-22.68-15.76-63.65-34.772-82.91-42.728-19.18-7.848-24.01-1.368-31.14-4.032-7.13-2.809-10.69-6.805-11.09-12.385z"/>
	<path id="path55" style="fill-rule:evenodd;stroke:black;stroke-width:.036;stroke-miterlimit:10;fill:#49322a" d="m214.16 34.335c2.63 3.06 4.61 5.904 5.55 11.052 0.9 5.148 2.34 13.968 0 20.088-2.45 6.048-8.28 11.232-14.58 16.093-6.56 4.752-16.56 7.271-23.62 12.563-7.06 5.148-11.41 10.189-18.07 18.579-6.7 8.39-12.71 18.83-21.64 31.17-9.18 12.24-21.24 29.38-32.15 41.69-10.94 12.13-24.224 23.65-32.648 30.67-8.424 6.81-11.232 8.1-17.604 10.55-6.624 2.45-14.724 5.22-21.096 4.03-6.372-1.33-12.096-7.63-16.596-11.55-4.68-4-7.92-8.21-10.548-12.06-2.736-3.93-4.932-7.38-5.04-11.05-0.252-3.78 1.116-7.35 4.536-11.09 3.492-3.93 9.828-6.66 16.092-11.56 6.156-4.86 15.012-9.93 20.592-17.57 5.472-7.95 8.388-17.6 12.06-28.65 3.42-11.13 6.012-25.67 9.036-36.687 2.88-11.088 3.96-19.764 9.072-28.655 5.112-8.929 12.816-16.92 21.6-24.12 8.644-7.345 18.724-15.372 30.634-19.08 12.03-3.78 28.19-4.32 40.72-3.024 12.38 1.225 25.7 7.38 33.15 10.548 7.24 3.059 7.89 4.823 10.55 8.063z"/>
	<path id="path57" style="fill-rule:evenodd;stroke:black;stroke-width:.036;stroke-miterlimit:10;fill:#49322a" d="m295.09 4.167c-10.08 0.647-13.57 2.448-21.6 5.544-8.21 3.024-19.87 8.676-26.64 13.068-6.81 4.319-10.08 8.352-13.57 13.067-3.6 4.5-6.74 9.252-7.06 14.544-0.22 5.364 1.4 13.429 5.54 17.101 4.04 3.491 13.76 3.168 18.62 4.031 4.71 0.757 3.52-0.899 10.04 1.009 6.44 1.872 15.01 4.319 28.62 10.548 13.61 6.156 37.19 17.031 52.27 26.641 14.8 9.65 26.1 20.88 36.69 30.64 10.47 9.46 19.65 17.42 26.13 26.64 6.34 9.21 8.61 18.54 12.06 28.65 3.42 10.15 5.76 22.65 8.54 31.65 2.59 8.85 3.67 16.16 7.56 21.09 3.85 4.83 9.68 7.67 15.55 7.56 5.76-0.47 13.57-5.11 19.11-9.07 5.44-3.96 9.83-6.7 13.58-14.04 3.67-7.49 8.96-22.68 8.53-30.17-0.65-7.52-5.94-8.49-11.56-14.58-5.65-6.19-15.98-13.14-22.1-22.1-6.2-9.18-10.08-20.38-14.58-31.65-4.58-11.37-7.28-23.29-12.57-35.205-5.4-12.023-10.76-23.04-19.58-35.676-9.04-12.708-21.1-29.916-33.7-39.672-12.78-9.828-28.29-15.336-41.68-18.612-13.47-3.312-28.19-1.836-38.2-1.008z"/>
	<path id="path59" style="stroke:black;stroke-width:.036;stroke-miterlimit:10;fill-rule:evenodd" d="m211.17 56.943c-6.15-2.557-18.36-11.952-31.17-14.58-12.89-2.628-32.87-6.553-45.22-0.504-12.49 6.048-20.19 20.447-28.65 36.684-8.464 16.2-10.66 42.017-21.604 59.797-11.088 17.71-33.372 35.82-44.208 45.72-10.908 9.61-16.956 11.34-20.628 12.56-3.708 1.12-4.716-1.94-1.512-5 3.132-3.1 11.88-6.3 20.124-13.07 8.208-6.91 20.52-18.72 28.62-27.65 7.92-8.92 13.752-15.01 18.612-25.63 4.788-10.87 6.012-27.034 10.044-38.194s8.422-20.484 13.572-28.116c4.9-7.668 9.61-13.392 16.09-17.604 6.45-4.319 12.96-7.596 22.61-8.027 9.65-0.504 25.24 2.88 34.67 5.004 9.21 1.908 14.83 4.032 20.59 7.056 5.62 3.061 11.59 8.964 13.07 11.052 1.29 1.833 0.97 2.842-5.01 0.502z"/>
	<path id="path61" style="stroke:black;stroke-width:.036;stroke-miterlimit:10;fill-rule:evenodd" d="m206.64 65.979c-4.75-0.936-18.51-1.26-27.65 0-9.11 1.08-16.92 0.648-26.64 7.057-9.83 6.516-23.44 19.979-31.64 31.644-8.21 11.52-10.88 25.16-17.57 37.19-6.914 11.91-14.258 22.93-23.15 34.16-9.036 11.2-25.416 26.07-30.132 32.65-4.68 6.3-1.368 8.18 2.016 6.05 3.312-2.16 10.656-10.94 17.568-18.57 6.768-7.71 16.236-18 23.112-27.15 6.66-9.18 12.346-17.75 17.606-27.65 5.25-10.04 6.98-21.78 14.07-32.14 6.99-10.551 17.82-23.979 27.65-30.171 9.83-6.12 21.39-5.328 30.64-6.516 9.11-1.225 19.44-0.036 23.61-1.009 4.04-1.117 4.9-4.681 0.51-5.545z"/>
	<path id="path63" style="stroke:black;stroke-width:.036;stroke-miterlimit:10;fill-rule:evenodd" d="m251.85 34.335c3.53-2.844 13.25-8.532 23.62-12.061 10.33-3.527 25.31-9.396 37.69-8.567 12.13 0.828 23.58 6.372 35.17 13.572 11.52 7.092 24.05 16.344 33.7 29.159 9.5 12.816 16.09 30.456 23.11 47.232 6.88 16.74 10.08 38.05 18.07 52.27 7.96 13.93 19.62 22.32 29.16 31.14 9.36 8.75 22.65 16.67 26.64 21.13 3.78 4.29 2.88 9.15-3.53 5.01-6.73-4.36-25.63-21.21-35.17-30.14-9.47-8.96-15.01-11.3-21.09-23.14-6.2-12.1-10.05-32.87-15.59-47.74-5.62-14.866-11.02-28.582-17.61-40.174-6.69-11.448-12.49-20.484-22.1-28.656-9.76-8.389-23.87-17.316-35.68-21.097-12.02-3.888-22.82-4.212-35.17-1.512-12.42 2.772-31.21 15.156-38.19 17.568-6.88 2.162-6.59-1.294-3.03-3.994z"/>
	<path id="path65" style="stroke:black;stroke-width:.036;stroke-miterlimit:10;fill-rule:evenodd" d="m246.85 57.951c5.98-0.648 24.16-1.08 35.68 0.504 11.3 1.548 18.64 2.34 32.14 9.036 13.58 6.84 33.59 17.819 48.24 31.14 14.51 13.209 27.76 33.229 38.2 47.269 10.22 13.93 15.8 25.6 23.11 35.68 7.24 9.86 12.74 17.35 20.12 24.12 7.28 6.73 20.7 13.5 23.62 16.56 2.66 3.02-1.51 3.99-6.55 1.51-5.08-2.74-15.55-9.25-23.11-17.07-7.56-7.84-14.33-18.43-22.11-29.66-8.06-11.45-16.49-25.96-25.13-37.69-8.67-11.81-16.09-22.43-26.13-32.15-10.05-9.756-20.99-18.396-33.66-25.632-12.82-7.309-28.19-14.293-42.23-17.604-14.18-3.276-34.56-1.08-41.69-2.016-7.05-1.045-6.44-3.493-0.5-3.997z"/>
	<path id="path67" style="stroke:black;stroke-width:.036;stroke-miterlimit:10;fill-rule:evenodd" d="m171.03 360.03c5.87 6.69 12.64 12.56 20.7 17.75 8.07 5.14 15.77 9.64 27.15 13.06 11.3 3.24 27.03 6.66 40.1 6.52 12.96-0.29 27.11-4.72 37.15-7.6 9.76-3.02 15.41-5.36 21.68-9.79 6.3-4.43 11.44-9.94 15.84-16.67l-4.54-2.55c-4.5 6.26-10.51 11.55-18.43 16.3-8.03 4.65-18.54 9.11-28.77 11.6-10.36 2.34-20.98 3.24-32 2.55-11.05-0.93-24.05-4.32-33.3-7.23-9.22-2.99-14.94-6.05-21.64-10.15-6.8-4.14-12.96-8.93-18.75-14.51-1.73 0.21-3.46 0.47-5.19 0.72z"/>
	<path id="path69" style="stroke:black;stroke-width:.036;stroke-miterlimit:10;fill-rule:evenodd" d="m145.51 323.45c-2.7-0.29-5.4 0.36-8.39 1.8-2.99 1.41-6.12 3.75-9.39 6.88-4.5 1.15-8.03 2.48-10.98 3.99-2.96 1.52-5.12 3.21-6.48 5.08-4.94 0.68-8.79 2.74-11.956 6.16-3.204 3.45-6.3 9.46-6.768 14.14-0.468 4.54 0.396 9.58 3.852 13.03 3.42 3.32 9.682 6.3 16.162 6.88 6.34 0.47 13.47-0.86 21.67-4 6.45 0.54 12.06 0.18 17.14-1.08 5.04-1.33 9.25-3.45 12.92-6.51 9.51-1.15 16.42-2.56 21.32-4.36 4.78-1.87 7.27-3.99 7.45-6.51 6.23-1.01 10.44-2.09 12.92-3.24 2.41-1.26 2.95-2.6 1.62-4 7.09-0.58 12.17-1.55 15.52-2.92 3.27-1.43 4.68-3.2 4.21-5.43 5.87 1.33 10.26 0.9 13.57-1.44 3.17-2.45 5.76-8.1 5.83-12.67 0.04-4.72-3.09-12.14-5.5-14.87-2.52-2.77-5.66-3.21-9.4-1.44-5.76-3.17-11.48-4.86-17.75-5.08-6.26-0.21-12.63 0.9-19.4 3.64-6.59-0.43-11.67-0.22-15.52 0.36s-6.33 1.65-7.45 3.24c-7.67 0.36-13.54 1.08-17.75 2.56-4.25 1.44-6.73 3.24-7.45 5.79z"/>
	<path id="path71" style="fill-rule:evenodd;fill:#49322a" d="m147.13 326.33c-2.7-0.29-5.4 0.33-8.39 1.84-2.99 1.4-6.12 3.74-9.4 6.87-4.5 0.98-8.02 2.13-10.98 3.6-2.95 1.52-5.11 3.03-6.48 5.08-5.04 0.76-8.89 2.99-11.947 6.55-3.168 3.64-6.192 10.62-6.156 14.83 0.072 4.11 3.528 7.2 6.483 9.44 2.84 2.08 4.86 3.31 10.33 3.27 5.36-0.21 12.49-1.4 21.67-3.99 6.44 0.54 12.06 0.18 17.14-1.08 5.04-1.34 9.25-3.42 12.92-6.56 9.47-1.08 16.49-2.52 21.35-4.32 4.82-1.87 7.2-3.96 7.41-6.55 6.23-1.01 10.44-2.09 12.93-3.24 2.41-1.26 2.95-2.59 1.62-3.99 7.09-0.62 12.17-1.44 15.51-2.88 3.28-1.44 4.68-3.21 4.22-5.44 4.17 1.91 7.63 2.2 10.65 0.72 2.99-1.55 6.52-5.44 7.13-9.43 0.4-4.14-2.45-11.88-4.21-14.47-1.8-2.56-3.96-2.81-6.48-0.76-5.73-3.1-11.56-4.82-17.79-5.04-6.3-0.22-12.56 0.94-19.36 3.6-6.59-0.43-11.67-0.22-15.52 0.36-3.85 0.54-6.34 1.73-7.45 3.27-7.74 0.22-13.54 1.19-17.79 2.53-4.28 1.44-6.62 3.24-7.41 5.79z"/>
	<path id="path73" style="stroke:black;stroke-width:.036;stroke-miterlimit:10;fill-rule:evenodd" d="m338.69 326.98c2.27-0.22 4.75 0.47 7.31 2.05 2.52 1.48 5.25 3.85 8.06 7.13 3.81 1.3 7.06 2.63 9.57 4.28 2.53 1.62 4.32 3.28 5.55 5.26 4.18 0.83 7.67 2.99 10.33 6.48 2.66 3.53 5.19 9.65 5.62 14.33 0.25 4.57-0.76 9.57-3.71 12.92-3.1 3.2-8.86 6.05-14.37 6.44-5.68 0.36-11.77-1.29-18.93-4.57-5.69 0.36-10.69-0.21-15.01-1.58-4.47-1.4-8.07-3.74-11.2-6.88-8.28-1.33-14.44-3.02-18.61-4.93-4.21-1.98-6.34-4.18-6.37-6.73-5.44-1.15-9.15-2.31-11.27-3.6-2.13-1.3-2.52-2.59-1.33-4.03-6.27-0.8-10.7-1.8-13.58-3.32-2.91-1.54-3.99-3.35-3.52-5.54-5.19 1.19-9.15 0.57-11.88-1.84-2.99-2.55-4.79-8.17-4.83-12.81 0.04-4.65 2.88-12.1 5.22-14.73 2.24-2.7 4.94-3.09 8.25-1.18 5.11-2.99 10.22-4.47 15.77-4.58 5.47-0.14 10.98 1.34 16.92 4.15 5.68-0.19 10.22 0.03 13.6 0.79 3.32 0.68 5.48 1.83 6.48 3.45 6.73 0.51 11.77 1.52 15.52 3.03 3.67 1.55 5.76 3.45 6.41 6.01z"/>
	<path id="path75" style="fill-rule:evenodd;fill:#49322a" d="m337.17 329.82c2.31-0.21 4.76 0.47 7.35 2.06 2.63 1.47 5.18 3.85 8.06 7.12 3.82 1.08 7.06 2.34 9.58 3.93 2.52 1.58 4.32 3.2 5.54 5.25 4.29 0.9 7.78 3.14 10.33 6.84 2.52 3.64 5.12 10.88 5.01 15.05-0.25 4.07-3.42 7.09-5.91 9.22-2.62 2.01-4.42 3.2-9.14 2.99-4.72-0.29-10.98-1.77-18.94-4.58-5.69 0.36-10.69-0.21-15.01-1.58-4.46-1.4-8.06-3.74-11.2-6.88-8.27-1.33-14.43-3.02-18.61-4.93-4.21-2.05-6.33-4.1-6.37-6.69-5.44-1.23-9.14-2.34-11.27-3.64-2.12-1.3-2.52-2.59-1.33-4.03-6.19-0.79-10.65-1.8-13.53-3.31-2.89-1.55-4.07-3.35-3.57-5.55-3.81 1.8-6.77 1.95-9.39 0.43-2.67-1.62-5.69-5.61-6.02-9.61-0.32-4.21 2.38-11.77 4.07-14.36 1.66-2.52 3.46-2.67 5.69-0.58 5.08-2.95 10.19-4.57 15.73-4.57 5.51-0.04 11.02 1.26 16.96 4.18 5.69-0.22 10.22 0.03 13.6 0.75 3.39 0.72 5.4 1.84 6.45 3.49 6.77 0.51 11.81 1.52 15.55 3.03 3.6 1.47 5.73 3.42 6.37 5.97z"/>
	<path id="path77" style="stroke:black;stroke-width:.036;stroke-miterlimit:10;fill-rule:evenodd" d="m326.91 112.85c3.89 1.87 13.11 8.57 19.19 13.29 6.05 4.53 14.15 11.84 16.24 14.29 1.83 2.34-1.59 2.45-5.11 0.32-3.75-2.34-10.44-9.03-16.2-13.43-5.77-4.43-15.41-10.01-17.72-12.45-2.37-2.52-0.25-3.89 3.6-2.02z"/>
	<path id="path79" style="stroke:black;stroke-width:.036;stroke-miterlimit:10;fill-rule:evenodd" d="m319.28 109.4c-0.97-1.01-5.4-3.75-6.62-3.75-1.3-0.03-1.87 2.49-0.9 3.53s5.15 2.02 6.55 2.23c1.26-0.03 1.76-1.08 0.97-2.01z"/>
	<path id="path81" style="stroke:black;stroke-width:.036;stroke-miterlimit:10;fill-rule:evenodd" d="m370.76 148.46c-0.79-1.19-4.17-5.04-5.43-5.33-1.34-0.33-2.45 1.83-1.8 3.13 0.64 1.15 4.46 3.42 5.76 3.89 1.11 0.29 2.16-0.51 1.47-1.69z"/>
</g>
<metadata><rdf:RDF><cc:Work><dc:format>image/svg+xml</dc:format><dc:type rdf:resource="http://purl.org/dc/dcmitype/StillImage"/><cc:license rdf:resource="http://creativecommons.org/licenses/publicdomain/"/><dc:publisher><cc:Agent rdf:about="http://openclipart.org/"><dc:title>Openclipart</dc:title></cc:Agent></dc:publisher><dc:title>Man Face Cartoon</dc:title><dc:date>2006-10-18T10:31:21</dc:date><dc:description>Uploaded by "World Label" for conversion to SVG and publication on OCAL.</dc:description><dc:source>https://openclipart.org/detail/730/man-face-cartoon-by-gerald_g-730</dc:source><dc:creator><cc:Agent><dc:title>Gerald_G</dc:title></cc:Agent></dc:creator><dc:subject><rdf:Bag><rdf:li>cartoon</rdf:li><rdf:li>externalsource</rdf:li><rdf:li>face</rdf:li><rdf:li>man</rdf:li><rdf:li>people</rdf:li><rdf:li>remix</rdf:li><rdf:li>worldlabel</rdf:li></rdf:Bag></dc:subject></cc:Work><cc:License rdf:about="http://creativecommons.org/licenses/publicdomain/"><cc:permits rdf:resource="http://creativecommons.org/ns#Reproduction"/><cc:permits rdf:resource="http://creativecommons.org/ns#Distribution"/><cc:permits rdf:resource="http://creativecommons.org/ns#DerivativeWorks"/></cc:License></rdf:RDF></metadata></svg>
