<?xml version="1.0" encoding="UTF-8" standalone="no"?>
<svg
   xmlns:dc="http://purl.org/dc/elements/1.1/"
   xmlns:cc="http://creativecommons.org/ns#"
   xmlns:rdf="http://www.w3.org/1999/02/22-rdf-syntax-ns#"
   xmlns:svg="http://www.w3.org/2000/svg"
   xmlns="http://www.w3.org/2000/svg"
   xmlns:sodipodi="http://sodipodi.sourceforge.net/DTD/sodipodi-0.dtd"
   xmlns:inkscape="http://www.inkscape.org/namespaces/inkscape"
   version="1.1"
   id="svg23903"
   viewBox="0 0 1601 1469"
   height="414.58444mm"
   width="451.83777mm"
   sodipodi:docname="maninhospital.svg">
  <sodipodi:namedview
     pagecolor="#ffffff"
     bordercolor="#666666"
     borderopacity="1"
     objecttolerance="10"
     gridtolerance="10"
     guidetolerance="10"
     inkscape:pageopacity="0"
     inkscape:pageshadow="2"
     inkscape:window-width="640"
     inkscape:window-height="480"
     id="namedview20"
     showgrid="false" />
  <defs
     id="defs23905" />
  <metadata
     id="metadata23908">
    <rdf:RDF>
      <cc:Work
         rdf:about="">
        <dc:format>image/svg+xml</dc:format>
        <dc:type
           rdf:resource="http://purl.org/dc/dcmitype/StillImage" />
        <dc:title />
      </cc:Work>
    </rdf:RDF>
  </metadata>
  <path
     inkscape:connector-curvature="0"
     id="path24480"
     d="M 0,734.5 V 0 H 800.5 1601 V 734.5 1469 H 800.5 0 Z m 1170.2065,658.7194 c 12.9069,-6.3547 20.0641,-17.8478 20.0641,-32.2194 0,-14.3747 -7.1581,-25.8671 -20.0681,-32.2194 -6.0724,-2.9879 -7.4717,-3.2769 -15.6849,-3.2395 -7.7209,0.035 -9.8266,0.4327 -14.644,2.7642 -6.9409,3.3592 -14.1458,10.8921 -17.6719,18.4766 -2.2209,4.777 -2.6584,7.117 -2.6584,14.2181 0,7.0649 0.4413,9.4489 2.6135,14.12 2.7343,5.8797 8.1493,12.5377 13.0148,16.0022 9.5679,6.8129 23.7346,7.661 35.0349,2.0972 z m -29.834,-0.627 c -2.8201,-1.3127 -5.4398,-2.8923 -5.8216,-3.5101 -0.3818,-0.6178 0.4597,-2.4946 1.87,-4.1707 l 2.5642,-3.0474 -3.2322,-4.1821 c -1.7777,-2.3002 -3.355,-4.3753 -3.5051,-4.6113 -0.1501,-0.2361 -1.8732,0.3339 -3.829,1.2665 -1.9559,0.9327 -3.9586,1.4471 -4.4505,1.1431 -1.2325,-0.7617 -2.956,-7.2945 -2.9627,-11.2304 -0.01,-3.1715 0.1,-3.25 4.3627,-3.25 4.2864,0 4.3784,-0.07 4.9015,-3.75 0.2932,-2.0625 0.8398,-4.5093 1.2146,-5.4374 0.5173,-1.2807 -0.3163,-2.1964 -3.4593,-3.7998 l -4.1407,-2.1124 3.3078,-4.5957 c 1.8193,-2.5276 4.0904,-5.0873 5.0469,-5.6882 1.719,-1.0799 2.1304,-0.7557 5.8308,4.5947 0.3135,0.4533 2.913,-0.1963 5.7768,-1.4436 l 5.2068,-2.2676 -0.6272,-4.798 -0.6272,-4.798 6.8505,0.298 6.8504,0.298 -0.2285,4.5 c -0.2276,4.4817 -0.2085,4.5094 4.7126,6.8076 l 4.9412,2.3075 3.0539,-3.3075 3.0539,-3.3076 3.0563,3.5 c 1.6809,1.925 3.6791,4.6779 4.4405,6.1175 1.3444,2.5418 1.2696,2.6691 -2.5895,4.4094 -3.3094,1.4923 -3.8586,2.1416 -3.2839,3.8825 0.3795,1.1498 0.955,3.6656 1.2787,5.5906 0.5536,3.2917 0.8409,3.5183 4.8267,3.8075 3.4687,0.2517 4.2381,0.6705 4.2381,2.3072 0,2.9311 -2.115,10.8384 -3.0543,11.4189 -0.4446,0.2747 -2.4086,-0.2636 -4.3645,-1.1963 -1.9558,-0.9326 -3.6789,-1.5026 -3.829,-1.2665 -0.1501,0.236 -1.7783,2.3745 -3.6183,4.7522 -3.343,4.3199 -3.344,4.3245 -1.3884,6.5 3.5396,3.9376 3.4664,4.4692 -0.9713,7.0523 -2.3508,1.3683 -5.4489,2.7767 -6.8847,3.1297 -2.4196,0.5949 -2.657,0.3505 -3.2476,-3.3427 l -0.6371,-3.9844 -5.9949,-0.339 -5.9949,-0.3389 -0.7737,3.9221 c -0.4256,2.1571 -1.2164,4.065 -1.7575,4.2396 -0.5411,0.1747 -3.2912,-0.7565 -6.1113,-2.0693 z m -53.5972,-46.3424 c 0.7495,-4.1082 3.211,-10.7787 6.2894,-17.0439 8.0732,-16.4305 21.6204,-28.7102 38.3882,-34.7966 35.3828,-12.8433 73.7874,4.9009 88.2836,40.7899 1.39,3.4413 3.0209,8.8542 3.6242,12.0288 0.9527,5.0129 1.3955,5.7718 3.3681,5.7718 2.7196,0 2.7628,-0.6559 0.711,-10.7922 -0.8935,-4.4137 -3.5091,-11.747 -6.1203,-17.1591 -3.8344,-7.9476 -5.942,-10.8334 -13.2465,-18.1379 -7.5134,-7.5133 -10.0971,-9.3696 -19.1298,-13.7435 -6.3417,-3.0709 -13.4704,-5.6677 -18.151,-6.6121 -39.6183,-7.9937 -78.3881,15.1686 -87.684,52.3852 -2.8171,11.2785 -2.7847,14.0596 0.1637,14.0596 2.0166,0 2.4104,-0.7587 3.5034,-6.75 z M 373.29643,1140 H 279.14822 185 v 29.3397 c 0,16.1368 0.29578,37.5054 0.65729,47.4857 l 0.65729,18.1459 88.09799,-0.025 c 48.45389,-0.014 88.61564,-0.3453 89.24834,-0.7363 l 190.70091,-0.7095 c 3.53973,-46.2525 4.49328,-54.8519 7.64749,-92.2505 m 662.75049,46 0.2598,-47.25 H 893.50979 c -264.54613,0 -331.50791,0.2525 -331.50048,1.25 0.005,0.6875 -1.84337,21.3866 -4.10776,45.998 -2.26439,24.6114 -3.85727,45.425 -3.53973,46.2525 0.51265,1.336 38.09288,1.4763 335.35777,1.252 L 1224.5,1234.5 Z m -939.5098,-69.2483 278.72682,-0 c 4.02315,-49.997 0.53325,-3.7485 4.02315,-49.997 l -314.42717,0.1966 -120.4272,0.3051 -2.8228,2.094 c -11.52658,8.5507 -11.89958,37.3893 -0.6007,46.4428 l 2.7779,2.2258 32,-0.6296 c 17.6,-0.3463 71.9375,-0.6304 120.75,-0.6313 z m 1239.5459,-0.5713 c 7.2429,-5.0732 10.653,-24.9927 6.2652,-36.5974 -2.7682,-7.3213 -5.4179,-10.6095 -9.374,-11.6329 -2.2291,-0.5766 -3.8585,-2.0082 -5.4206,-4.7623 l -2.2336,-3.9378 -0.016,-55.7125 c -0.019,-64.63079 0.3425,-61.95089 -9.8513,-72.99368 -13.6901,-14.83026 -37.4823,-24.87166 -65.634,-27.70065 -6.1433,-0.61734 -11.4572,-1.65018 -12.0788,-2.34771 -2.7477,-3.08302 -24.5393,-44.04985 -23.7911,-44.72564 0.7799,-0.7044 53.0494,-32.98915 113.8387,-70.3136 14.3,-8.78016 26.5111,-16.59669 27.1358,-17.37007 3.5112,-4.34683 -9.1394,-29.09321 -19.9818,-39.08748 -2.5351,-2.33677 -4.7916,-4.24867 -5.0143,-4.24867 -0.4271,0 -12.0156,7.11001 -91.1397,55.91779 -26.95,16.62413 -49.3724,30.30591 -49.8275,30.40395 -0.4552,0.098 -16.5133,-28.1199 -35.6848,-62.70655 -19.1715,-34.58664 -35.2851,-63.31262 -35.808,-63.83551 -0.601,-0.60094 -2.8479,2.55815 -6.1075,8.58681 l -5.1568,9.53751 32.9462,59.54215 32.9463,59.54216 -12.654,7.84028 c -6.9596,4.31215 -36.1341,22.31754 -64.8321,40.01196 l -52.1782,32.17167 -78.0097,-0.25611 -78.0096,-0.25611 6.4488,-15.5 c 9.5546,-22.965 21.4227,-46.56753 36.958,-73.5 7.6141,-13.2 20.3245,-35.25 28.2453,-49 -1561.79682,0.88486 -144.2252,-39.78091 -217.88371,138.39348 l -4.69656,0.6015 c -21.75879,2.78668 -34.63255,6.19895 -47.19656,12.50974 -14.72384,7.39564 -23.93241,16.09559 -29.26235,27.64608 -2.22671,4.82548 -2.23905,5.14143 -2.52486,64.5992 L 844.92555,1068 H 706.46276 567.99997 v 8.7799 c 0,7.4772 -1.47268,23.2884 -3.4899,37.4686 l -0.53325,3.7485 324.76158,0.253 c 178.6189,0.1392 394.299,0.3649 479.2891,0.5015 139.0445,0.2236 154.752,0.091 156.7684,-1.3211 z M 1087.25,1068.2575 1080,1067.9124 V 991.95619 916 h 44 44 v 12.91844 12.91844 l -3.25,2.0143 c -2.6332,1.63201 -7.5165,9.76097 -25.73,42.83156 -12.364,22.44946 -23.5829,42.80666 -24.931,45.23816 -1.348,2.4315 -2.0321,4.1629 -1.52,3.8476 0.512,-0.3153 13.0287,-8.0422 27.8147,-17.1709 14.786,-9.1287 27.0485,-16.5976 27.25,-16.5976 0.2015,0 0.3663,15.075 0.3663,33.5 v 33.5 l -36.75,-0.1987 c -20.2125,-0.1093 -40.0125,-0.354 -44,-0.5438 z m 102.9888,-39.8854 0.2612,-40.64878 43.5,-26.85666 c 23.925,-14.77116 43.8407,-26.85891 44.257,-26.86166 0.4164,-0.003 0.6414,30.2575 0.5,67.245 l -0.257,67.25 -44.2612,0.2604 -44.2613,0.2604 z M 1300,994.55256 v -74.46825 l 4.3577,-2.55376 4.3576,-2.55375 39.8924,0.2616 39.8923,0.2616 v 76.5 76.5 l -44.25,0.2604 -44.25,0.2604 z m 110,-1.99354 c 0,-43.16928 0.3846,-76.67868 0.8836,-76.98709 0.486,-0.30035 5.0437,6.98559 10.1283,16.19099 5.0847,9.20539 23.362,42.23367 40.6164,73.39618 24.819,44.8245 31.3717,57.4091 31.3717,60.25 V 1069 H 1451.5 1410 Z M 867.21964,1008.75 867.5,949.5 l 2.33731,-4.74609 c 4.74939,-9.64399 16.62112,-18.43736 31.8909,-23.62156 C 907.59535,919.14042 923.1018,916 927.07022,916 c 1.71841,0 1.82602,2.76945 2.1663,55.75 0.34126,53.1339 0.45746,56.1057 2.47614,63.3291 2.91646,10.4358 6.77567,19.3417 11.39012,26.2849 2.14347,3.2251 3.89722,6.0376 3.89722,6.25 0,0.2123 -18.01366,0.386 -40.03036,0.386 h -40.03036 z m 186.42426,55.5 c 1.5102,-2.0625 3.1081,-4.1775 3.5509,-4.7 0.4429,-0.5225 0.8052,1.165 0.8052,3.75 v 4.7 h -3.5509 -3.5509 z M 1467,975.6522 c -14.025,-25.33548 -27.1958,-49.16511 -29.2685,-52.95474 l -3.7685,-6.89023 5.2685,0.71318 c 23.0521,3.12049 43.896,14.40426 50.9123,27.56119 2.2927,4.29938 2.3643,5.18612 2.6558,32.9184 0.1648,15.675 0.1648,32.1488 0,36.6084 l -0.2996,8.1083 z M 1190,921.55902 V 915 h 10.059 c 5.5325,0 9.8339,0.36426 9.5588,0.80947 -0.382,0.61794 -13.975,9.18657 -18.8678,11.89361 -0.4125,0.22822 -0.75,-2.5366 -0.75,-6.14406 z m 139.55,-19.42854 c 1.255,-1.14865 53.2422,-33.11351 54.8735,-33.73949 0.7995,-0.30682 3.9468,4.39862 8.5693,12.81205 4.0182,7.31333 8.4063,15.20946 9.7515,17.54696 l 2.4457,4.25 h -38.295 c -21.7608,0 -37.8848,-0.37542 -37.345,-0.86952 z"
     style="fill:#00d4aa"
     sodipodi:nodetypes="ccccccccccsscccsccccscccccscsccccccccccccccccccccccccsccccccccccccccccsscsccccccsccccsscccccccscscscccccccccccccccccccssccsccsscsccccccscccscccsscscccsscsscccccccccccccssscscccscccccccccccccccccscccscccsccssssccssccccsccccsccsccccsscsccscccccsc" />
  <path
     inkscape:connector-curvature="0"
     id="path24470"
     d="M 0,734.5 V 0 H 800.5 1601 V 734.5 1469 H 800.5 0 Z m 1166.4999,500.4977 -82.5119,49.7523 c -0.01,40.6881 -0.2807,50.7518 -1.4881,55.25 -1.9716,7.3456 -1.9716,13 0,13 1.2762,0 1.5,2.6111 1.5,17.5 v 17.5 h 3.0674 c 2.7274,0 2.9877,-0.2494 2.3483,-2.25 -5.9602,-18.6502 -5.5075,-34.4881 1.4765,-51.6497 8.2062,-20.1651 27.3049,-36.6579 48.1078,-41.544 8.3198,-1.9542 23.6552,-1.9578 32,-0.01 25.2595,5.9029 46.8992,28.6985 52.1733,54.96 0.9627,4.794 1.4028,5.4914 3.4648,5.4914 2.0011,0 2.3596,-0.4965 2.3471,-3.25 -0.046,-10.2087 -7.5117,-28.2796 -15.6324,-37.8408 -10.2889,-12.1139 -25.9889,-22.0178 -39.7731,-25.0898 l -5.9202,-1.3194 8.4202,-0.5 8.4203,-0.5 0.2817,-11.75 0.2818,-11.75 h -38.5318 -38.5317 v -13 -13 h 58.5 58.5 v -47.5 -47.5 h -5.5 -5.5 v -9.9906 -9.9907 l 154.4195,-0.2593 154.4196,-0.2594 2.6777,-2.5 c 3.8327,-3.5782 6.2024,-8.7237 7.5309,-16.3524 2.4793,-14.2373 -3.5199,-30.2746 -12.0237,-32.1423 -1.7922,-0.3937 -3.2524,-1.7611 -4.3594,-4.0825 -1.4896,-3.1236 -1.6646,-9.2069 -1.6646,-57.8514 0,-51.35662 -0.1093,-54.71194 -1.9786,-60.71606 -6.8714,-22.07117 -38.2586,-39.15963 -78.0167,-42.47532 l -8.0412,-0.67062 -12.4083,-22.52546 -12.4082,-22.52547 4.1765,-2.6415 c 2.2971,-1.45282 33.6515,-20.78498 69.6765,-42.96036 36.025,-22.17537 66.3503,-41.12265 67.3895,-42.10505 1.6951,-1.60232 1.7678,-2.26963 0.707,-6.48268 -3.4664,-13.76637 -20.8487,-38.55147 -26.0778,-37.18401 -0.9477,0.24782 -32.8898,19.68132 -70.9825,43.18556 -57.1042,35.23489 -69.4766,42.49757 -70.4971,41.38227 -0.6808,-0.74398 -6.191,-10.3527 -12.2449,-21.3527 -6.0539,-11 -21.6559,-39.23083 -34.6711,-62.73518 l -23.664,-42.73519 38.1378,-69.1924 c 35.7452,-64.8514 38.0216,-69.27738 36.2856,-70.54684 -3.3148,-2.4238 -47.1995,-27.31998 -52.1086,-29.56162 -3.8185,-1.74364 -6.6752,-2.18481 -14.2739,-2.20434 -8.5793,-0.0221 -10.1345,0.27626 -16.0474,3.07821 -7.5155,3.56143 -12.866,7.94134 -16.8612,13.80248 -1.5351,2.25218 -20.2417,35.81988 -41.5701,74.59488 -21.3284,38.775 -43.3998,78.825 -49.0477,89 -9.7238,17.51817 -25.6436,46.42224 -85.6329,155.47524 -14.2124,25.83638 -25.8407,46.62594 -25.8407,46.19901 0,-1.12939 7.3346,-18.1867 14.1988,-33.02073 -476.10986,-10.27929 -616.68757,-6.62893 -864.2044,-6.13413 4.332,1.13953 4.00454,1.21285 -8.49431,1.90191 -20.21652,1.11455 -27.72986,2.24224 -33.66642,5.05307 -19.12271,9.05418 -34.25547,35.56751 -38.75182,67.8951 -0.68471,4.92289 -1.08176,31.60847 -1.08176,72.70523 V 1068 h -6.2656 c -8.60112,0 -12.45517,2.2025 -16.04742,9.1707 -5.15377,9.9972 -4.685,26.8053 0.99174,35.5602 4.54171,7.0043 5.56981,7.2691 28.22557,7.2691 h 20.09571 l 0.15231,44.75 c 0.0838,24.6125 0.19628,45.425 0.25,46.25 0.0708,1.0872 1.53316,1.5829 5.31438,1.8011 l 5.21668,0.3011 0.28332,10.6989 0.28331,10.6989 c 438.23637,4.5287 490.21528,3.8584 980.99991,0.5 z M 1108,1292.5982 V 1285 l 17.25,0.055 17.25,0.055 -7.1194,1.8666 c -6.8558,1.7975 -17.3407,6.6122 -24.1306,11.0808 l -3.25,2.1389 v -7.5982 z M 1095.0186,1067.25 c 0.01,-0.4125 3.7698,-7.4575 8.3547,-15.6556 l 8.3361,-14.9056 16.8953,-10.4505 c 9.2924,-5.7478 21.9578,-13.5523 28.1453,-17.3432 l 11.25,-6.8925 V 1035.0013 1068 h -36.5 c -20.075,0 -36.4916,-0.3375 -36.4814,-0.75 z M 1190,1028.1806 v -39.81941 l 36.75,-22.65214 c 20.2125,-12.45867 40.0125,-24.68801 44,-27.1763 l 7.25,-4.52417 V 1001.0043 1068 h -44 -44 z m 110,-33.99646 v -73.81586 l 3.8862,-2.18414 c 3.8158,-2.14464 4.6116,-2.18414 44,-2.18414 H 1388 v 76 76 h -44 -44 z m 110,-2.26747 c 0,-55.02582 0.3054,-75.98155 1.1033,-75.71558 1.9839,0.6613 81.8917,146.09481 81.8943,149.04891 v 2.75 h -41.5 -41.5 v -76.08333 z m 53.75,-22.8618 C 1447.9375,940.4706 1435,916.90781 1435,916.69312 c 0,-0.69937 11.3199,1.32043 19,3.39016 16.2922,4.39063 30.3237,13.92101 35.8133,24.32495 l 2.6867,5.09177 0.3176,30.5 c 0.1747,16.775 0.1747,32.8684 0,35.7631 l -0.3176,5.2632 z m -299.0231,-28.78255 c 1.4361,-2.62478 2.7601,-4.95982 2.9421,-5.18899 0.1821,-0.22916 0.331,1.13631 0.331,3.0344 0,2.75893 -0.59,3.7996 -2.9421,5.18898 l -2.9421,1.73793 z M 1190,922.00661 V 916 h 9.6667 c 5.3166,0 9.4791,0.15241 9.25,0.3387 -0.2292,0.18628 -4.5792,2.88925 -9.6667,6.00661 l -9.25,5.66791 z m -4,-19.66051 c 0,-0.35965 1.5164,-3.39715 3.3697,-6.75 1.8533,-3.35286 15.6459,-28.3711 30.6502,-55.5961 42.5759,-77.25306 51.8474,-94.06576 63.5394,-115.22072 5.9946,-10.8464 11.2242,-19.3958 11.6213,-18.99866 0.3972,0.39714 15.1576,26.79182 32.8009,58.65484 25.7381,46.48175 31.8258,58.17156 30.7987,59.14089 -0.7041,0.66448 -29.8439,18.80663 -64.7551,40.3159 L 1230.5503,903 h -22.2752 C 1196.0238,903 1186,902.70574 1186,902.3461 Z m 145.5,-1.20075 c 1.65,-1.01594 14.4262,-8.90053 28.3916,-17.52131 13.9654,-8.62078 25.4754,-15.55037 25.5778,-15.39909 1.2242,1.80818 18.5306,33.71512 18.5306,34.16387 0,0.33615 -16.9875,0.6095 -37.75,0.60744 -37.1257,-0.004 -37.7004,-0.0343 -34.75,-1.85091 z m -160.1388,491.99755 c 25.7188,-12.6613 25.9067,-51.0438 0.3154,-64.4156 -5.8213,-3.0416 -6.7806,-3.2268 -16.6766,-3.2194 -9.1236,0.01 -11.1554,0.3303 -15.5,2.468 -6.7466,3.3196 -14.046,10.8199 -17.3118,17.7883 -2.3267,4.9645 -2.6881,7.0133 -2.6875,15.2358 7e-4,7.7609 0.4161,10.4008 2.2692,14.4203 4.6225,10.0268 11.8673,16.4993 22.877,20.4383 7.1317,2.5515 18.3268,1.4135 26.7143,-2.7157 z m -31.154,-1.1899 -6.2929,-3.1519 2.565,-3.3629 2.565,-3.3628 -3.5221,-4.6143 c -1.9372,-2.5379 -3.5291,-5.1423 -3.5375,-5.7877 -0.011,-0.8411 -0.2234,-0.859 -0.75,-0.063 -0.4041,0.6107 -2.1791,1.8504 -3.9445,2.7549 l -3.2098,1.6444 -1.5402,-5.1864 c -2.4484,-8.2447 -2.2543,-8.8234 2.9598,-8.8234 4.2287,0 4.5034,-0.1658 4.5564,-2.75 0.031,-1.5125 0.5967,-4.325 1.2569,-6.25 1.1954,-3.4855 1.1843,-3.5073 -2.6702,-5.252 l -3.8705,-1.752 1.7223,-2.6285 c 0.9472,-1.4457 2.8987,-3.9489 4.3366,-5.5627 l 2.6144,-2.9342 2.6316,3.2243 2.6315,3.2244 4.4612,-2.1597 c 2.4537,-1.1878 5.0245,-2.1596 5.7129,-2.1596 0.7061,0 1.0449,-0.7627 0.7772,-1.75 -1.8983,-7.002 -1.8706,-7.1199 1.8324,-7.8146 1.929,-0.3619 5.0856,-0.3619 7.0146,0 3.6962,0.6934 3.7196,0.7896 1.8692,7.6985 -0.3006,1.1223 0.4139,1.8477 2.282,2.3165 1.4957,0.3754 3.9479,1.5573 5.4493,2.6263 l 2.7297,1.9438 2.8938,-3.5107 2.8937,-3.5106 2.5342,2.7504 c 2.9246,3.1743 5.8408,7.3723 5.8408,8.4082 0,0.392 -1.6079,1.2942 -3.5731,2.0048 -3.1092,1.1243 -3.4961,1.6196 -2.9801,3.8147 0.3261,1.3875 0.8683,4.2102 1.2048,6.2727 0.5709,3.4999 0.8531,3.7579 4.2301,3.8684 1.9901,0.065 4.0092,0.047 4.487,-0.04 0.9402,-0.1709 0.1532,5.453 -1.4909,10.6547 l -1.022,3.2336 -3.8313,-1.9546 -3.8313,-1.9546 -2.8059,3.7211 c -1.5433,2.0465 -3.395,4.171 -4.1149,4.721 -1.034,0.79 -0.6834,1.7589 1.6691,4.6129 l 2.9782,3.613 -4.8452,2.637 c -2.6648,1.4504 -5.5859,2.6371 -6.4912,2.6371 -1.6742,0 -1.992,-0.5399 -2.965,-5.0357 -0.515,-2.3793 -0.9216,-2.5334 -6.5948,-2.5 l -6.046,0.036 -1.2387,4.3024 -1.2388,4.3024 -6.2928,-3.1518 z"
     style="fill:#43698c"
     sodipodi:nodetypes="ccccccccccccsscscccccsccscccccccccccccccccccccccsccccccscccscsscccscccscssccsssscsscscccccccccccccccccccccccccscccsscccccccccscccccccsccccccscscccccsccsccccssccccscsccccscsscccscccccccccccccccccccccsccccccccccsccccccccccsccccccccccccccscccacccc" />
  <path
     inkscape:connector-curvature="0"
     id="path24466"
     d="m 1142.5,1430.5189 c -6.7006,-1.2116 -16.7716,-4.457 -18.1698,-5.8551 -0.3649,-0.365 -1.451,-0.6636 -2.4135,-0.6636 -0.9625,0 -1.9,-0.3397 -2.0834,-0.755 -0.1833,-0.4152 -3.2583,-3.0935 -6.8333,-5.9516 -13.1016,-10.4746 -20.5239,-21.0125 -24.5064,-34.7934 -4.9259,-17.0452 -4.1722,-32.2533 2.3986,-48.3997 8.2062,-20.1651 27.3049,-36.6579 48.1078,-41.544 8.3198,-1.9542 23.6552,-1.9578 32,-0.01 20.8516,4.8728 40.1704,21.8529 48.2981,42.4514 4.578,11.6021 6.0423,20.2904 5.3152,31.5367 -0.679,10.5031 -4.1974,22.8674 -7.135,25.0735 -0.813,0.6107 -1.4783,2.0085 -1.4783,3.1062 0,2.2122 -5.1007,9.4434 -11.3976,16.1583 -4.5292,4.8299 -16.5549,13.1253 -19.0275,13.1253 -0.8662,0 -1.5749,0.3645 -1.5749,0.81 0,1.2874 -11.981,5.0519 -19.568,6.1485 -8.658,1.2514 -13.0691,1.1629 -21.932,-0.4398 z m 28.8612,-37.3758 c 25.7188,-12.6613 25.9067,-51.0438 0.3154,-64.4156 -5.8213,-3.0416 -6.7806,-3.2268 -16.6766,-3.2194 -9.1236,0.01 -11.1554,0.3303 -15.5,2.468 -6.7466,3.3196 -14.046,10.8199 -17.3118,17.7883 -2.3267,4.9645 -2.6881,7.0133 -2.6875,15.2358 7e-4,7.7609 0.4161,10.4008 2.2692,14.4203 4.6225,10.0268 11.8673,16.4993 22.877,20.4383 7.1317,2.5515 18.3268,1.4135 26.7143,-2.7157 z m -31.154,-1.1899 -6.2929,-3.1519 2.565,-3.3629 2.565,-3.3628 -3.5221,-4.6143 c -1.9372,-2.5379 -3.5291,-5.1423 -3.5375,-5.7877 -0.011,-0.8411 -0.2234,-0.859 -0.75,-0.063 -0.4041,0.6107 -2.1791,1.8504 -3.9445,2.7549 l -3.2098,1.6444 -1.5402,-5.1864 c -2.4484,-8.2447 -2.2543,-8.8234 2.9598,-8.8234 4.2287,0 4.5034,-0.1658 4.5564,-2.75 0.031,-1.5125 0.5967,-4.325 1.2569,-6.25 1.1954,-3.4855 1.1843,-3.5073 -2.6702,-5.252 l -3.8705,-1.752 1.7223,-2.6285 c 0.9472,-1.4457 2.8987,-3.9489 4.3366,-5.5627 l 2.6144,-2.9342 2.6316,3.2243 2.6315,3.2244 4.4612,-2.1597 c 2.4537,-1.1878 5.0245,-2.1596 5.7129,-2.1596 0.7061,0 1.0449,-0.7627 0.7772,-1.75 -1.8983,-7.002 -1.8706,-7.1199 1.8324,-7.8146 1.929,-0.3619 5.0856,-0.3619 7.0146,0 3.6962,0.6934 3.7196,0.7896 1.8692,7.6985 -0.3006,1.1223 0.4139,1.8477 2.282,2.3165 1.4957,0.3754 3.9479,1.5573 5.4493,2.6263 l 2.7297,1.9438 2.8938,-3.5107 2.8937,-3.5106 2.5342,2.7504 c 2.9246,3.1743 5.8408,7.3723 5.8408,8.4082 0,0.392 -1.6079,1.2942 -3.5731,2.0048 -3.1092,1.1243 -3.4961,1.6196 -2.9801,3.8147 0.3261,1.3875 0.8683,4.2102 1.2048,6.2727 0.5709,3.4999 0.8531,3.7579 4.2301,3.8684 1.9901,0.065 4.0092,0.047 4.487,-0.04 0.9402,-0.1709 0.1532,5.453 -1.4909,10.6547 l -1.022,3.2336 -3.8313,-1.9546 -3.8313,-1.9546 -2.8059,3.7211 c -1.5433,2.0465 -3.395,4.171 -4.1149,4.721 -1.034,0.79 -0.6834,1.7589 1.6691,4.6129 l 2.9782,3.613 -4.8452,2.637 c -2.6648,1.4504 -5.5859,2.6371 -6.4912,2.6371 -1.6742,0 -1.992,-0.5399 -2.965,-5.0357 -0.515,-2.3793 -0.9216,-2.5334 -6.5948,-2.5 l -6.046,0.036 -1.2387,4.3024 -1.2388,4.3024 -6.2928,-3.1518 z M 216.92431,849.25 214.5,846.5 l 2.75,2.42431 c 2.57029,2.26589 3.20859,3.07569 2.42431,3.07569 -0.17912,0 -1.41662,-1.2375 -2.75,-2.75 z m 502.34472,-36.94299 c 0.97297,-0.25354 2.32297,-0.23687 3,0.0371 0.67703,0.27393 -0.11903,0.48137 -1.76903,0.46099 -1.65,-0.0204 -2.20394,-0.2445 -1.23097,-0.49804 z m -30.50737,-2.01427 c 1.24391,-0.23919 3.04391,-0.23011 4,0.0202 0.95609,0.25029 -0.0617,0.446 -2.26166,0.4349 -2.2,-0.0111 -2.98225,-0.21589 -1.73834,-0.45508 z M 345.5,807 c 0.33992,-0.55 1.06803,-1 1.61803,-1 0.55,0 0.72189,0.45 0.38197,1 -0.33992,0.55 -1.06803,1 -1.61803,1 -0.55,0 -0.72189,-0.45 -0.38197,-1 z m 311.25,-6.66228 c 0.6875,-0.27741 1.8125,-0.27741 2.5,0 0.6875,0.27741 0.125,0.50439 -1.25,0.50439 -1.375,0 -1.9375,-0.22698 -1.25,-0.50439 z M 617.28601,793.5 c 0.18597,-6.66018 0.87844,0.21099 0.41797,2.76375 -0.23736,1.22994 -0.42542,-0.0137 -0.41792,-2.76375 z m -310.09106,-105 c 0.0204,-1.65 0.2445,-2.20394 0.49804,-1.23097 0.25354,0.97297 0.23687,2.32297 -0.0371,3 -0.27393,0.67703 -0.48137,-0.11903 -0.46099,-1.76903 z M 244,686.60699 c 0,-0.21616 0.69837,-0.661 1.55194,-0.98855 0.88992,-0.34149 1.29132,-0.17385 0.94098,0.39301 C 245.90566,686.96166 244,687.4169 244,686.60699 Z m 30,-10 c 0,-0.21616 0.69837,-0.661 1.55194,-0.98855 0.88992,-0.34149 1.29132,-0.17385 0.94098,0.39301 C 275.90566,676.96166 274,677.4169 274,676.60699 Z M 1080.5,614 c -0.3399,-0.55 -0.1415,-1 0.441,-1 0.5824,0 1.059,0.45 1.059,1 0,0.55 -0.1984,1 -0.441,1 -0.2425,0 -0.7191,-0.45 -1.059,-1 z m 63.25,-46.66228 c 0.6875,-0.27741 1.8125,-0.27741 2.5,0 0.6875,0.27741 0.125,0.50439 -1.25,0.50439 -1.375,0 -1.9375,-0.22698 -1.25,-0.50439 z M 1171,550.62244 c 0,-0.20765 0.7875,-0.99515 1.75,-1.75 1.5861,-1.24387 1.6214,-1.2085 0.3776,0.37756 -1.3064,1.66575 -2.1276,2.19548 -2.1276,1.37244 z"
     style="fill:#6b6a60"
     sodipodi:nodetypes="ccscccscccccscssscccccccccccccccccccccsccccccccccsccccccccccsccccccccccccccsccccccccccsccccccccsccssssssssscccccscccsccssccsssssssssssccs" />
  <path
     inkscape:connector-curvature="0"
     id="path24464"
     d="m 1144.6244,1420.2066 -2.8755,-0.3637 2.8434,-1.4752 c 1.5639,-0.8113 3.8428,-1.2243 5.0643,-0.9178 1.2214,0.3066 2.486,0.1284 2.8101,-0.3961 1.0281,-1.6634 -3.3146,-3.173 -7.0902,-2.4646 -2.5612,0.4804 -3.8473,0.277 -4.4707,-0.7074 -1.6002,-2.5266 -0.9499,-2.7117 4.818,-1.3709 3.148,0.7318 6.0315,1.1404 6.4076,0.9079 0.3761,-0.2325 1.738,0.039 3.0262,0.6023 2.1135,0.9248 2.0493,0.9669 -0.6576,0.4311 -2.3328,-0.4617 -2.7367,-0.3258 -1.8159,0.6111 0.7018,0.7142 4.2887,1.2383 8.8084,1.2872 4.5123,0.049 6.8863,0.3951 5.816,0.8487 -1.4233,0.6031 -1.276,0.7168 0.6915,0.5336 1.3807,-0.1286 2.5,-0.8671 2.5,-1.6495 0,-0.7791 0.6251,-1.625 1.3892,-1.8797 0.8432,-0.2811 1.1148,-0.019 0.691,0.6667 -0.384,0.6213 -0.1735,1.1297 0.4678,1.1297 0.6413,0 0.907,-0.675 0.5904,-1.5 -0.7001,-1.8243 0.4749,-1.9516 2.3088,-0.25 1.098,1.0188 1.2369,0.9358 0.7509,-0.4491 -0.4226,-1.2043 -0.1743,-1.5371 0.8528,-1.143 0.797,0.3059 1.4491,0.9834 1.4491,1.5058 0,0.5223 1.0125,0.2405 2.25,-0.6263 1.2375,-0.8667 2.25,-2.0922 2.25,-2.7233 0,-0.6311 0.5625,-1.3349 1.25,-1.5641 0.6875,-0.2292 1.2469,0.1833 1.2432,0.9167 -0.01,1.7572 -6.5863,6.2028 -7.9396,5.3664 -0.5795,-0.3581 -1.0605,-0.062 -1.0689,0.6579 -0.011,0.9654 -0.2597,0.9227 -0.9462,-0.163 -0.7983,-1.2622 -1.0245,-1.2282 -1.5875,0.2392 -0.8432,2.1972 -8.2588,4.325 -9.7782,2.8056 -0.59,-0.59 -1.9953,-1.0373 -3.1228,-0.9939 -1.1275,0.043 -1.4875,0.306 -0.8,0.5834 0.6875,0.2774 1.25,0.8165 1.25,1.1979 0,0.7261 -12.4161,0.9736 -17.3756,0.3464 z M 1150,1419 c 0,-0.55 -0.45,-1 -1,-1 -0.55,0 -1,0.45 -1,1 0,0.55 0.45,1 1,1 0.55,0 1,-0.45 1,-1 z m 6.7292,-0.6042 c -0.3323,-0.3323 -1.1948,-0.3678 -1.9167,-0.079 -0.7977,0.3192 -0.5608,0.5562 0.6042,0.6042 1.0541,0.043 1.6448,-0.193 1.3125,-0.5253 z M 1141,1417.6612 c 1.375,-0.7766 3.625,-1.7095 5,-2.0731 l 2.5,-0.6612 -2.5,1.4119 c -1.375,0.7766 -3.625,1.7095 -5,2.0731 l -2.5,0.6612 z m -5.1875,-0.3443 c 0.7219,-0.2889 1.5844,-0.2534 1.9167,0.079 0.3323,0.3323 -0.2584,0.5687 -1.3125,0.5253 -1.165,-0.048 -1.4019,-0.285 -0.6042,-0.6042 z M 1129,1415 c -1.2442,-0.8041 -1.159,-0.9746 0.5,-1 1.6929,-0.026 1.7697,-0.1963 0.5,-1.1096 -1.2475,-0.8974 -1.1917,-0.979 0.3318,-0.4847 1.0075,0.3269 2.695,0.5943 3.75,0.5943 1.055,0 1.9182,0.4359 1.9182,0.9686 0,0.5328 -0.6295,0.7271 -1.3988,0.4318 -0.7694,-0.2952 -1.696,-0.056 -2.0591,0.5314 -0.8094,1.3097 -1.5976,1.3248 -3.5421,0.068 z m 30.3333,-0.4435 c 0,-1.2884 0.072,-1.3123 5.7793,-1.9005 1.9869,-0.2049 5.1038,-1.1164 6.9265,-2.0256 1.8226,-0.9092 4.1908,-1.3748 5.2626,-1.0346 1.2378,0.3928 1.7104,0.2329 1.2955,-0.4385 -0.3593,-0.5813 0.2321,-1.5307 1.3141,-2.1098 2.6978,-1.4438 4.0288,0.7919 1.5503,2.6042 -1.2781,0.9346 -1.417,1.3483 -0.4527,1.3483 1.1079,0 1.1383,0.2528 0.1495,1.2416 -0.9889,0.9889 -1.4005,0.9846 -2.022,-0.021 -0.4291,-0.6944 -1.6479,-1.0981 -2.7083,-0.8972 -4.3467,0.8235 -7.4281,1.94 -7.4281,2.6913 0,0.4389 -0.8861,0.5662 -1.9692,0.283 -1.083,-0.2832 -3.258,-0.066 -4.8333,0.4835 -2.1354,0.7444 -2.8642,0.6872 -2.8642,-0.2248 z M 1137,1413.4167 c 0,-0.8709 0.5344,-1.4052 1.1875,-1.1875 1.8542,0.618 2.1618,2.7708 0.3958,2.7708 -0.8708,0 -1.5833,-0.7125 -1.5833,-1.5833 z m -10.4963,-0.3366 c 0.6124,-1.0548 0.4004,-1.2573 -0.8244,-0.7873 -1.075,0.4125 -2.0303,-0.08 -2.7451,-1.4157 -0.6029,-1.1266 -1.3484,-1.7962 -1.6566,-1.488 -0.8748,0.8747 -10.2776,-7.3969 -10.2776,-9.0412 0,-0.8897 -0.4913,-1.1832 -1.25,-0.7466 -0.6875,0.3956 -0.9316,0.3663 -0.5425,-0.065 0.3891,-0.4315 -0.1447,-1.5161 -1.1862,-2.4103 -3.772,-3.2387 -7.5306,-12.1259 -5.1283,-12.1259 1.2167,0 2.2473,2.9118 1.5361,4.3402 -0.3176,0.6379 0.131,0.2863 0.9967,-0.7813 1.7339,-2.1381 1.7899,-2.8781 0.4961,-6.5589 -0.7064,-2.0098 -0.7966,-1.7157 -0.46,1.5 l 0.4187,4 -1.2242,-3.7994 c -0.6734,-2.0896 -1.5465,-3.4771 -1.9404,-3.0833 -0.3938,0.3938 -0.7303,-0.1465 -0.7478,-1.2006 -0.03,-1.8215 -0.099,-1.8283 -1.3817,-0.1373 -1.1967,1.5773 -1.4189,1.5998 -1.9568,0.1981 -0.3504,-0.9131 -0.1891,-1.3232 0.3818,-0.9704 0.5562,0.3438 1.023,-0.6174 1.0674,-2.1981 0.043,-1.5449 0.306,-2.2465 0.5834,-1.559 0.2774,0.6875 1.1044,1.25 1.8377,1.25 0.7333,0 1.5603,-0.5625 1.8377,-1.25 0.2873,-0.7119 0.5384,-0.4547 0.5834,0.5973 0.089,2.0741 7.7015,17.1325 9.643,19.0739 0.8076,0.8077 0.9306,1.7574 0.3451,2.6666 -0.5744,0.8922 -1.1854,1.044 -1.6592,0.4122 -1.0645,-1.4194 -3.511,-1.7831 -3.0687,-0.4562 0.2028,0.6084 0.7359,1.0425 1.1848,0.9646 0.4488,-0.078 1.4198,0.6759 2.1576,1.675 1.0751,1.4557 1.5935,1.5682 2.609,0.5666 1.0222,-1.0082 0.9965,-1.25 -0.1327,-1.25 -1.129,0 -1.1548,-0.242 -0.1331,-1.25 1.0165,-1.003 1.8889,-0.5585 4.4155,2.25 1.7317,1.925 3.5141,3.3833 3.9609,3.2407 0.4468,-0.1426 1.072,0.4173 1.3893,1.2443 0.3173,0.8269 0.9487,1.2738 1.4031,0.9929 0.4544,-0.2808 1.1517,0.016 1.5497,0.6603 0.4519,0.7312 0.2901,0.9029 -0.4309,0.4573 -0.635,-0.3924 -1.1545,-0.242 -1.1545,0.3343 0,0.5763 1.0125,0.9932 2.25,0.9264 1.2375,-0.067 3.825,0.5957 5.75,1.4721 1.925,0.8764 2.9743,1.611 2.3318,1.6326 -0.6425,0.022 -1.9538,0.3406 -2.9141,0.709 -1.1398,0.4374 -1.5096,0.2879 -1.0654,-0.4309 0.3742,-0.6054 0.223,-1.3835 -0.336,-1.7289 -0.559,-0.3455 -1.0232,-0.039 -1.0316,0.6809 -0.012,1.004 -0.2236,0.98 -0.9093,-0.1032 -0.7574,-1.1965 -1.1423,-1.1638 -2.5204,0.2143 -0.8945,0.8946 -1.5729,1.905 -1.5074,2.2455 0.065,0.3405 -0.2156,0.9191 -0.6246,1.2857 -0.409,0.3667 -0.3727,0.028 0.081,-0.7532 z m 1.4963,-3.5839 c 0,-0.2384 -0.6571,-0.1813 -1.4602,0.1269 -1.0561,0.4053 -1.3488,-0.019 -1.0575,-1.5314 0.2216,-1.1504 -0.048,-2.0917 -0.5987,-2.0917 -0.5509,0 -0.7479,-0.4106 -0.4377,-0.9125 0.3102,-0.5019 -0.5237,-0.7931 -1.8531,-0.6471 -1.4232,0.1562 -2.2549,-0.1882 -2.0227,-0.8376 0.2169,-0.6065 -0.5035,-2.2278 -1.601,-3.6028 -1.0975,-1.375 -1.7459,-1.7896 -1.441,-0.9212 0.3501,0.9968 -0.2378,1.9323 -1.5949,2.5378 -1.9591,0.8742 -2.005,1.079 -0.5184,2.3127 1.4065,1.1673 1.5443,1.1277 1.0011,-0.2879 -0.3464,-0.9028 -0.1842,-1.6414 0.3605,-1.6414 0.5447,0 1.2412,0.9594 1.5479,2.1321 0.4195,1.6042 1.0918,1.9924 2.7155,1.5677 1.1869,-0.3103 1.8955,-0.3018 1.5747,0.019 -0.3209,0.3208 0.1971,1.2237 1.151,2.0064 0.954,0.7826 1.1737,1.1391 0.4883,0.7922 -1.9315,-0.9778 -5.611,-1.5414 -4.8058,-0.7361 0.3953,0.3952 1.0187,0.7575 1.3853,0.805 2.0532,0.266 4.0715,1.7586 3.5403,2.6182 -0.3422,0.5535 0.3258,0.4915 1.5057,-0.14 1.1664,-0.6242 2.1207,-1.33 2.1207,-1.5684 z m -15.7717,-13.9594 c 1.5906,0.2576 1.6085,0.048 0.2243,-2.6285 -0.8272,-1.5996 -1.744,-2.9083 -2.0373,-2.9083 -0.2933,0 -0.2122,0.5195 0.1802,1.1545 0.4563,0.7383 0.2727,0.8821 -0.5092,0.3989 -0.6724,-0.4157 -1.0086,-1.3135 -0.747,-1.9952 0.2616,-0.6818 0.1165,-1.8207 -0.3225,-2.531 -0.5747,-0.93 -1.0064,-0.6247 -1.5423,1.0907 -0.4092,1.3101 -1.2459,2.7384 -1.8593,3.1738 -0.677,0.4806 -0.3701,0.6771 0.7811,0.5 1.0429,-0.1604 2.093,0.2711 2.3335,0.959 0.2888,0.826 -0.1852,1.0486 -1.3962,0.6556 -1.5245,-0.4947 -1.5807,-0.4131 -0.3336,0.4841 0.825,0.5934 1.1359,1.0859 0.691,1.0943 -0.445,0.01 -0.5174,0.4872 -0.161,1.0639 0.4025,0.6513 1.0879,0.6999 1.809,0.1284 0.6386,-0.5061 1.9387,-0.7942 2.8893,-0.6402 z m -4.2283,0.086 c 0,-0.2076 0.7875,-0.9951 1.75,-1.75 1.5861,-1.2438 1.6214,-1.2085 0.3776,0.3776 -1.3064,1.6657 -2.1276,2.1955 -2.1276,1.3724 z m 79.0282,13.2644 c -1.3594,-0.5425 -2.7992,-1.5162 -3.1994,-2.1638 -0.7972,-1.29 1.8246,-4.7363 3.5762,-4.7008 0.6022,0.012 -0.03,0.8923 -1.405,1.9557 l -2.5,1.9335 3.25,1.1421 c 1.7875,0.6282 3.25,1.5481 3.25,2.0443 0,0.4962 -0.1125,0.8737 -0.25,0.8388 -0.1375,-0.035 -1.3623,-0.5073 -2.7218,-1.0498 z m 0.1607,-2.6098 c -1.0143,-0.3747 -0.9225,-0.9138 0.405,-2.3807 0.9438,-1.043 1.3429,-1.8963 0.8868,-1.8963 -0.4561,0 0.2145,-1.1111 1.4903,-2.4692 1.2759,-1.358 2.7043,-2.2315 3.1744,-1.941 0.47,0.2905 0.9109,0.052 0.9796,-0.5308 0.2624,-2.2228 0.4677,-2.6461 2.7979,-5.7697 1.3173,-1.7659 2.8037,-2.9583 3.303,-2.6497 0.4993,0.3086 0.8056,-0.047 0.6806,-0.7892 -0.125,-0.7427 0.2949,-2.6172 0.9331,-4.1655 0.6382,-1.5483 1.1604,-3.2358 1.1604,-3.75 0,-0.5142 0.7875,-0.9418 1.75,-0.9502 1.2871,-0.011 1.4104,-0.2308 0.4661,-0.83 -1.4016,-0.8893 -0.6174,-4.1547 0.9979,-4.1547 0.55,0 0.7656,0.6107 0.4792,1.3571 -0.2864,0.7463 0.3375,2.6588 1.3864,4.25 1.049,1.5911 1.9102,3.3653 1.9138,3.9427 0.012,1.9336 -5.4231,9.4502 -6.8335,9.4502 -0.9039,0 -1.2083,0.707 -0.8667,2.0131 0.3498,1.3376 -0.1238,2.361 -1.4114,3.0502 -1.0658,0.5704 -1.7162,1.3956 -1.4454,1.8338 0.2709,0.4383 -0.729,1.9314 -2.222,3.318 -2.7026,2.5101 -7.5291,3.9842 -10.0255,3.0619 z m 4.9322,-3.7702 c 1.3084,-1.9212 2.7715,-3.4962 3.2513,-3.5 0.4799,0 0.3713,0.5971 -0.2413,1.3352 -0.6126,0.7381 -0.7802,1.7103 -0.3724,2.1603 0.4077,0.4501 0.1093,0.4517 -0.6632,0 -1.0075,-0.5845 -1.1758,-0.4448 -0.5955,0.4942 0.5353,0.8662 0.4184,1.0676 -0.3455,0.5955 -0.635,-0.3924 -1.1545,-0.237 -1.1545,0.3455 0,0.5824 0.3949,1.059 0.8776,1.059 1.3113,0 3.2041,-2.585 2.4471,-3.342 -0.6028,-0.6028 1.1233,-1.0609 2.9253,-0.7764 0.4125,0.065 0.6786,-0.2191 0.5912,-0.6316 -0.2772,-1.3098 1.339,-4.2566 2.0826,-3.7971 0.3929,0.2428 0.5197,-0.8848 0.2818,-2.5057 -0.4884,-3.3276 -0.9049,-3.4892 -3.647,-1.4152 -1.9203,1.4525 -3.2462,5.011 -1.4545,3.9037 0.5107,-0.3157 0.7253,-0.9027 0.4769,-1.3046 -0.2484,-0.402 0.3701,-1.244 1.3744,-1.8712 1.56,-0.9742 1.7534,-0.8624 1.3273,0.7671 -0.6135,2.3458 -2.3274,3.838 -4.8612,4.232 -2.8084,0.4368 -4.5433,1.7349 -3.8399,2.8731 0.3379,0.5467 -0.1745,1.8656 -1.1386,2.9309 -0.9641,1.0654 -1.2912,1.937 -0.7269,1.937 0.5644,0 2.0966,-1.5719 3.405,-3.4932 z m 12.6425,-12.5693 c 0.3213,-1.1883 0.2231,-1.2012 -0.5664,-0.074 -0.8064,1.1508 -1.0305,1.1508 -1.4392,0 -0.2663,-0.7498 -0.8159,-1.0556 -1.2212,-0.6797 -1.015,0.9411 0.3926,3.0067 1.7423,2.5568 0.6028,-0.2009 1.2708,-1.0122 1.4845,-1.8028 z m 3.0637,-8.1906 c -1.1458,-2.0766 -1.2697,-2.1033 -1.6348,-0.3518 -0.2776,1.3319 -0.6208,1.5299 -1.1546,0.6662 -0.5617,-0.9088 -0.9231,-0.8028 -1.3873,0.4068 -0.3668,0.956 -0.2169,1.3819 0.3609,1.0248 0.5437,-0.336 0.9885,-0.1567 0.9885,0.3984 0,0.5551 -0.7328,1.4194 -1.6284,1.9206 -1.1085,0.6204 -1.2695,1.1331 -0.5043,1.6061 0.6543,0.4044 1.611,-0.3737 2.289,-1.8616 1.2198,-2.6772 3.5052,-3.6623 2.4507,-1.0564 -1.5366,3.7973 -1.5954,4.7605 -0.1371,2.2469 1.3149,-2.2664 1.3781,-3.1502 0.3574,-5 z m -57.4283,0 c 0.5884,-3.9945 0.4369,-4.3571 -2.5209,-6.0306 -3.0177,-1.7075 -3.1996,-1.7075 -4.4312,0 -4.2888,5.9461 -3.771,5.8144 -7.2561,1.8451 -1.7549,-1.9987 -3.1908,-4.0624 -3.1908,-4.5859 0,-0.5235 1.6312,-1.6333 3.6248,-2.4663 3.3286,-1.3908 3.5737,-1.7697 3,-4.6384 -0.3436,-1.7181 -0.6248,-3.5176 -0.6248,-3.9989 0,-0.4812 -2.025,-0.875 -4.5,-0.875 -2.9363,0 -4.4981,-0.4344 -4.4944,-1.25 0.01,-1.7783 2.0058,-8.75 2.5075,-8.75 0.2305,0 2.0304,0.7684 3.9999,1.7076 l 3.5808,1.7076 2.3699,-2.9576 2.3699,-2.9576 -2.4168,-3.1833 c -1.3292,-1.7508 -2.4168,-3.4291 -2.4168,-3.7297 0,-0.9761 8.0422,-4.679 8.9473,-4.1196 0.4833,0.2987 1.172,2.2794 1.5305,4.4015 0.6253,3.7009 0.8098,3.8584 4.5222,3.8584 3.7124,0 3.8969,-0.1575 4.5222,-3.8584 0.3585,-2.1221 0.9701,-4.0551 1.3591,-4.2955 0.8435,-0.5213 9.1187,3.0582 9.1187,3.9444 0,0.3386 -1.1432,2.1144 -2.5404,3.9462 l -2.5403,3.3306 2.4394,2.836 2.4395,2.8361 3.6348,-1.7334 c 1.9992,-0.9533 3.7912,-1.7333 3.9822,-1.7333 0.3275,0 2.5848,8.2464 2.5848,9.4428 0,0.3065 -1.932,0.5572 -4.2934,0.5572 -4.1498,0 -4.3284,0.1311 -5.3398,3.9204 -1.0459,3.9184 -1.0445,3.9212 2.7934,5.6518 2.1119,0.9524 3.8398,2.0975 3.8398,2.5449 0,0.4473 -1.4162,2.4262 -3.147,4.3976 l -3.1471,3.5842 -2.8598,-3.4694 c -2.8199,-3.4211 -2.9028,-3.4479 -5.9483,-1.9286 -2.9352,1.4643 -3.056,1.7583 -2.4319,5.9199 l 0.6566,4.3792 h -5.1748 -5.1748 z m 58.2935,-3.0966 c -0.9563,-1.4594 -1.2782,-2.6534 -0.7156,-2.6534 1.6032,0 1.1971,-3.996 -0.4712,-4.6362 -0.8218,-0.3153 -1.318,-0.8637 -1.1027,-1.2186 0.2154,-0.3549 0.6394,-4.9202 0.9422,-10.1452 0.3029,-5.225 0.197,-8.6164 -0.2353,-7.5364 -0.6289,1.5713 -0.9542,1.0717 -1.6278,-2.5 -0.4629,-2.455 -0.897,-4.9136 -0.9646,-5.4636 -0.067,-0.55 -0.9198,-2.5043 -1.8939,-4.3429 -0.9741,-1.8386 -1.532,-3.582 -1.2399,-3.8742 0.2922,-0.2921 -0.4621,-1.4096 -1.6762,-2.4832 -1.2141,-1.0737 -1.5947,-1.6351 -0.8457,-1.2478 0.7559,0.391 1.7502,0.091 2.2347,-0.6738 1.2849,-2.0285 1.0896,-3.262 -0.3465,-2.1892 -0.6875,0.5136 -1.7855,0.9062 -2.4401,0.8725 -1.5537,-0.08 -8.3942,-8.0851 -8.8241,-10.3263 -0.183,-0.9543 -0.3741,-1.9601 -0.4246,-2.2351 -0.051,-0.275 -0.5349,0.175 -1.0765,1 -0.6931,1.0559 -1.2068,1.1666 -1.7347,0.3742 -0.4125,-0.6193 -3.8358,-2.7032 -7.6072,-4.631 -4.275,-2.1851 -6.3462,-3.7404 -5.5,-4.1301 0.7464,-0.3438 0.1473,-0.3957 -1.3315,-0.1154 -1.4788,0.2803 -2.9792,0.04 -3.3342,-0.5347 -0.355,-0.5744 -1.62,-0.7796 -2.8113,-0.4559 -1.9192,0.5214 -1.9638,0.4619 -0.391,-0.5229 0.9761,-0.6112 3.8885,-1.2835 6.4721,-1.4941 3.1615,-0.2576 4.2161,-0.078 3.2253,0.5483 -0.9452,0.5977 -1.036,0.9365 -0.2536,0.9463 0.724,0.01 0.9594,0.6907 0.5801,1.6793 -0.394,1.0266 -0.2386,1.4169 0.4056,1.0188 0.5742,-0.3549 2.2489,0.4712 3.7214,1.8359 1.4725,1.3647 2.9576,2.4813 3.3001,2.4813 0.6615,0 -3.5373,-4.9854 -5.2258,-6.2049 -0.55,-0.3972 -1.0006,-1.3011 -1.0013,-2.0086 0,-1.5634 -6.5021,-1.7782 -11.3221,-0.3741 -2.5916,0.755 -3.524,0.6511 -4.2347,-0.4721 -0.7829,-1.2374 -0.9134,-1.2284 -0.9266,0.064 -0.012,1.1792 -1.4751,1.5266 -6.7653,1.6063 -4.4779,0.067 -6.0768,-0.1808 -4.75,-0.7374 1.7558,-0.7367 1.6948,-0.8078 -0.5,-0.5826 -1.4044,0.1441 -2.3835,0.8147 -2.2342,1.5302 0.1462,0.7006 -0.3038,1.1814 -1,1.0686 -1.1829,-0.1918 -2.1498,0.08 -7.2658,2.0389 -1.1,0.4212 -3.0323,0.6834 -4.2941,0.5825 -1.5485,-0.1238 -2.1275,0.2508 -1.7814,1.1527 0.4301,1.1207 -0.7996,1.9073 -1.698,1.0861 -0.1504,-0.1375 -1.3247,0.7294 -2.6097,1.9265 -1.3593,1.2664 -3.0221,1.9316 -3.9765,1.5907 -0.9022,-0.3222 -1.3057,-0.2171 -0.8968,0.2337 0.409,0.4507 -1.517,3.2097 -4.2798,6.131 -4.9358,5.2188 -6.7743,6.2799 -6.1468,3.5473 0.1743,-0.7589 -0.1122,-1.1147 -0.6367,-0.7906 -1.1171,0.6904 -3.7582,-2.144 -2.8469,-3.0553 0.3401,-0.3401 1.2791,-0.07 2.0866,0.6002 1.1915,0.9889 1.7126,0.8273 2.7647,-0.8575 1.6528,-2.6466 3.1468,-2.6956 2.3154,-0.076 -0.9291,2.9272 0.3801,2.4456 1.5229,-0.5602 0.5931,-1.56 1.4624,-2.3123 2.2252,-1.9258 0.6886,0.3489 0.3784,-0.074 -0.6892,-0.9398 -1.5324,-1.2427 -0.8193,-2.3719 0.8361,-1.3242 0.2173,0.1375 1.3895,-0.65 2.605,-1.75 1.2155,-1.1 2.3877,-1.8875 2.605,-1.75 0.2172,0.1375 0.9575,0.2431 1.645,0.2347 0.8333,-0.01 0.75,-0.3385 -0.25,-0.9847 -1.2351,-0.7982 -1.2498,-0.9721 -0.083,-0.9847 0.7791,-0.01 1.1557,-0.2763 0.8367,-0.5952 -0.3189,-0.3189 -1.8348,0.2423 -3.3685,1.2473 -2.5979,1.7022 -2.7428,1.7076 -2.1182,0.08 0.3688,-0.961 0.4485,-1.7473 0.1772,-1.7473 -0.2714,0 -0.9289,1.1455 -1.4612,2.5455 -0.616,1.6202 -1.6067,2.4381 -2.7253,2.25 -1.1993,-0.2016 -1.6641,0.2603 -1.4636,1.4545 0.2893,1.7227 -1.2278,2.464 -2.0466,1 -0.2307,-0.4125 -0.2849,-0.1944 -0.1205,0.4847 0.3313,1.3691 -3.0111,3.5476 -3.9707,2.588 -0.6154,-0.6154 6.9253,-8.7002 7.5841,-8.1315 0.1968,0.1698 2.3134,-1.3651 4.7034,-3.4109 2.3901,-2.0458 4.7306,-3.4817 5.2011,-3.191 0.4705,0.2908 0.8554,0.1244 0.8554,-0.3698 0,-1.2205 4.9214,-3.3861 6.0749,-2.6732 0.5088,0.3145 0.9251,0.095 0.9251,-0.4873 0,-0.5824 1.3234,-1.059 2.941,-1.059 1.6175,0 3.2191,-0.45 3.559,-1 0.9363,-1.515 5.2107,-1.1962 5.8368,0.4354 0.303,0.7895 0.014,1.6156 -0.643,1.8358 -0.6566,0.2202 1.2212,0.7217 4.1729,1.1145 2.9517,0.3928 5.6142,0.4667 5.9167,0.1642 0.3025,-0.3024 -0.5376,-0.5568 -1.8667,-0.5652 -1.3292,-0.01 -2.9989,-0.3847 -3.7106,-0.8362 -0.7638,-0.4845 0.7726,-0.7804 3.75,-0.7222 2.7742,0.054 5.0439,-0.2165 5.0439,-0.6017 0,-0.3852 0.7875,-0.6511 1.75,-0.591 0.9625,0.06 2.875,-0.2224 4.25,-0.6277 1.6724,-0.4929 2.0508,-0.4256 1.1432,0.2036 -1.1032,0.7647 -1.1142,1.0904 -0.059,1.7426 0.7605,0.47 1.4602,0.3147 1.6901,-0.375 0.5643,-1.6928 2.2257,-1.4518 2.2257,0.3229 0,0.825 0.45,1.5 1,1.5 0.55,0 1,-0.4482 1,-0.9959 0,-1.0332 9.9022,2.3365 10.922,3.7168 0.3179,0.4302 1.7321,1.3755 3.1426,2.1005 1.4106,0.725 5.0106,3.5892 8,6.3648 2.9895,2.7757 4.8145,4.7067 4.0557,4.2911 -0.9359,-0.5126 -1.2174,-0.3088 -0.875,0.6335 0.2776,0.7641 0.9862,1.285 1.5747,1.1575 0.5885,-0.1274 2.0253,1.1101 3.1931,2.75 1.1714,1.6451 1.6141,2.9817 0.9876,2.9817 -0.6638,0 -0.8829,0.7959 -0.5274,1.9158 0.3344,1.0538 0.2135,2.1597 -0.2686,2.4577 -0.7178,0.4436 -0.8317,2.7932 -0.2727,5.6265 0.054,0.275 0.5315,-0.175 1.0605,-1 0.529,-0.825 0.7288,-2.2496 0.444,-3.1658 -0.2848,-0.9163 -0.042,-1.9599 0.5391,-2.3191 0.5814,-0.3593 0.7981,-1.0722 0.4817,-1.5842 -0.3164,-0.512 -0.299,-0.9309 0.039,-0.9309 1.0278,0 5.5794,11.069 4.9622,12.0676 -0.3169,0.5128 0.013,0.9393 0.7328,0.9477 0.9512,0.011 0.899,0.2803 -0.191,0.9847 -0.8865,0.5729 -1.0163,0.9756 -0.3174,0.9847 1.6641,0.022 2.6063,3.5924 1.5114,5.7275 -1.061,2.0688 -2.4967,11.9239 -1.6076,11.0348 0.3272,-0.3273 1.1638,-2.9917 1.8591,-5.921 l 1.2642,-5.326 -0.036,8 c -0.026,5.7116 -0.2328,6.9988 -0.7232,4.5 l -0.6868,-3.5 -0.3145,3 c -0.173,1.65 -0.2265,4.2676 -0.1188,5.817 0.1173,1.6872 -0.2104,2.5659 -0.8171,2.191 -1.3301,-0.8221 -1.2789,2.5684 0.068,4.492 0.8221,1.1742 0.9128,1.0113 0.4173,-0.75 -0.3722,-1.3233 -0.1933,-2.25 0.4345,-2.25 1.399,0 1.2852,2.7785 -0.2622,6.4034 l -1.2394,2.9033 -1.7385,-2.6533 z m 1.2372,-11.9624 c -0.068,-2.1124 -0.1011,-2.1192 -0.9297,-0.191 -1.1828,2.7525 -1.1828,3.731 0,3 0.55,-0.3399 0.9684,-1.604 0.9297,-2.809 z m 2,-19.0558 c -0.039,-0.6244 -0.457,-0.2352 -0.9297,0.8648 -0.7964,1.8534 -0.8757,1.8168 -1.082,-0.5 -0.1225,-1.375 -0.3272,-2.95 -0.455,-3.5 -0.1277,-0.55 -0.2911,-2.125 -0.363,-3.5 -0.1043,-1.9971 -0.3256,-2.1983 -1.1,-1 -0.7299,1.1294 -0.9819,0.6352 -1.0201,-2 l -0.051,-3.5 -1.4291,2.5 c -1.5935,2.7876 -2.0213,5.354 -0.5,3 0.7533,-1.1656 1.0075,-0.8313 1.1402,1.5 0.094,1.65 0.089,3.9785 -0.011,5.1744 -0.1173,1.4053 0.5358,2.402 1.8465,2.818 1.5834,0.5025 1.9071,1.2316 1.4765,3.3256 -0.4666,2.2694 -0.3131,2.1643 0.998,-0.6828 0.8522,-1.8507 1.5179,-3.8757 1.4792,-4.5 z M 1201,1328.9581 c 0.275,-0.1072 0.7913,-0.157 1.1474,-0.1107 1.7406,0.2264 -0.5757,-3.5017 -2.8392,-4.5699 -2.6547,-1.2529 -4.3082,-0.9303 -4.3082,0.8405 0,0.55 0.5265,0.6747 1.1699,0.277 0.7988,-0.4937 0.9564,-0.1665 0.4968,1.0312 -1.1069,2.8846 0.7083,3.9452 4.3333,2.5319 z m -3.6125,-1.1206 c 0.3106,-1.5858 2.6125,-2.3451 2.6125,-0.8618 0,0.6283 -0.4116,0.888 -0.9146,0.5771 -0.503,-0.3109 -1.1443,-0.1012 -1.425,0.466 -0.2807,0.5671 -0.4035,0.4856 -0.2729,-0.1813 z m -82.9403,-1.9229 c -0.322,-0.521 -1.0116,-0.6838 -1.5326,-0.3618 -0.521,0.322 -0.6838,1.0116 -0.3618,1.5326 0.322,0.521 1.0116,0.6838 1.5326,0.3618 0.521,-0.322 0.6838,-1.0116 0.3618,-1.5326 z m 78.5432,-2.4262 c -1.0622,-1.2799 -0.9062,-1.4715 1.0173,-1.25 1.3058,0.1504 2.4942,-0.3762 2.7947,-1.2384 0.4375,-1.2553 0.2661,-1.2882 -1.0508,-0.2014 -1.2127,1.0007 -1.744,1.0226 -2.3171,0.095 -0.4449,-0.7198 -0.3219,-0.9424 0.3062,-0.5543 0.5774,0.3569 1.299,-7e-4 1.6036,-0.7945 0.3882,-1.0116 0.071,-1.2582 -1.0593,-0.8243 -1.0283,0.3946 -1.3663,0.2196 -0.9323,-0.4825 0.3744,-0.6059 -0.2556,-1.7574 -1.4,-2.559 -1.6366,-1.1463 -2.7013,-1.2231 -4.9883,-0.3599 -1.761,0.6647 -2.4616,1.3732 -1.7767,1.7965 0.622,0.3844 1.6887,0.4849 2.3705,0.2233 0.6817,-0.2616 1.5411,0.012 1.9097,0.6088 0.3687,0.5965 1.0892,0.8256 1.6012,0.5092 0.512,-0.3164 0.9309,0.1528 0.9309,1.0427 0,0.9684 -0.4635,1.3316 -1.1545,0.9045 -0.7757,-0.4794 -0.8887,-0.2526 -0.3443,0.691 1.2529,2.172 2.6922,3.9045 3.2437,3.9045 0.275,0 -0.064,-0.6802 -0.7545,-1.5116 z m -3.4833,-7.4769 c -0.3504,-0.5669 0.051,-0.7346 0.941,-0.3931 1.7324,0.6648 2.0493,1.3816 0.6109,1.3816 -0.5175,0 -1.2159,-0.4448 -1.5519,-0.9885 z m -59.9456,-3.3357 c -0.052,-1.6813 0.6383,-2.0136 4.4385,-2.1372 7.1172,-0.2316 14.0524,-4.576 8.4289,-5.2801 -1.9032,-0.2383 -1.9032,-0.2306 0,0.5751 2.8541,1.2096 0.2139,1.8316 -6.6243,1.5605 -3.9016,-0.1547 -6.0648,0.2169 -6.8633,1.179 -0.6412,0.7727 -1.5636,1.1591 -2.0496,0.8587 -0.486,-0.3003 -0.4637,0.5583 0.05,1.9082 0.5132,1.3499 0.7368,2.6506 0.497,2.8905 -0.2399,0.2399 0.154,0.4362 0.8753,0.4362 0.7213,0 1.2838,-0.8959 1.25,-1.9909 z M 1132,1309 c -0.9013,-0.5825 -1.0246,-0.9755 -0.309,-0.9847 0.655,-0.01 1.4691,0.4347 1.809,0.9847 0.7673,1.2415 0.4211,1.2415 -1.5,0 z m 3.6013,0.1639 c -0.2545,-0.4118 0.4061,-0.8142 1.468,-0.8942 2.2965,-0.173 2.4986,0.2984 0.4627,1.0796 -0.8074,0.3099 -1.6762,0.2264 -1.9307,-0.1854 z m 51.7726,4.3041 c 0.3935,-1.0256 -0.26,-1.8544 -1.9769,-2.5072 -3.4887,-1.3263 -4.9413,-0.2197 -2.8072,2.1385 2.0782,2.2964 3.9879,2.4435 4.7841,0.3687 z m -61.8474,-2.2749 c -0.3079,-0.3079 -1.1148,-6e-4 -1.7932,0.6828 -0.9802,0.9876 -0.8654,1.1025 0.5598,0.5598 0.9862,-0.3755 1.5412,-0.9347 1.2334,-1.2426 z m 54.8351,-2.6931 c -0.6271,-1.6343 -2.3616,-2.0628 -2.3616,-0.5833 0,0.759 0.7008,1.2757 2.7186,2.0044 0.1203,0.043 -0.04,-0.5961 -0.357,-1.4211 z m -15.6324,-3.1042 c -0.3323,-0.3323 -1.1948,-0.3678 -1.9167,-0.079 -0.7977,0.3192 -0.5608,0.5562 0.6042,0.6042 1.0541,0.043 1.6448,-0.193 1.3125,-0.5253 z m -67.6763,68.1146 c -0.6584,-1.6602 -0.9014,-4.5043 -0.5465,-6.396 0.3735,-1.9914 0.2054,-3.6745 -0.4047,-4.0516 -0.6067,-0.3749 -0.7931,-2.1897 -0.4451,-4.3341 0.3292,-2.0289 1.0361,-3.4186 1.5708,-3.0882 0.5977,0.3694 0.5833,-0.1256 -0.037,-1.2852 -1.231,-2.3002 0.9575,-13.5436 2.2341,-11.4779 0.4732,0.7656 1.7352,1.0484 3.1236,0.7 2.2956,-0.5762 4.008,0.5335 2.7558,1.7857 -0.3531,0.3531 -0.8103,2.2816 -1.0158,4.2856 -0.2056,2.0039 -0.8122,4.4626 -1.348,5.4638 -0.8803,1.6448 -0.6332,6.3807 0.6638,12.7236 l 0.4777,2.3361 -2.5406,-2.5406 c -1.3974,-1.3974 -2.5723,-3.5736 -2.611,-4.8361 -0.039,-1.2625 -0.487,-3.1955 -0.9962,-4.2955 -0.6256,-1.3511 -0.7252,-0.2284 -0.307,3.4601 0.3404,3.003 1.0759,6.1917 1.6343,7.0859 0.6874,1.1007 0.6862,2.5669 0,4.5399 l -1.0188,2.9141 -1.1855,-2.9896 z m 1.0596,-3.7979 c -0.8167,-0.8167 -1.1125,-0.7048 -1.1125,0.4208 0,0.8434 0.3281,1.8615 0.7292,2.2625 0.401,0.4011 0.9016,0.2117 1.1125,-0.4208 0.2108,-0.6325 -0.1173,-1.6506 -0.7292,-2.2625 z m 2.7513,-14.4625 c -0.075,-4.8125 -0.3321,-7.7308 -0.5715,-6.4852 -0.2394,1.2457 -0.8712,1.9955 -1.4039,1.6662 -0.5643,-0.3487 -0.7659,0.3756 -0.4831,1.7352 0.267,1.2836 0.7626,4.4713 1.1014,7.0838 0.3387,2.6125 0.8133,4.75 1.0546,4.75 0.2413,0 0.3774,-3.9375 0.3025,-8.75 z m 1.8292,-6.981 c -0.2536,-0.9729 -0.4777,-0.419 -0.4981,1.231 -0.02,1.65 0.1871,2.4461 0.461,1.769 0.274,-0.677 0.2906,-2.027 0.037,-3 z m -0.5351,24.731 c 0,-1.375 0.227,-1.9375 0.5044,-1.25 0.2774,0.6875 0.2774,1.8125 0,2.5 -0.2774,0.6875 -0.5044,0.125 -0.5044,-1.25 z m 110.921,-3.5833 c 0.048,-1.165 0.285,-1.4019 0.6042,-0.6042 0.2889,0.7219 0.2534,1.5844 -0.079,1.9167 -0.3323,0.3323 -0.5687,-0.2584 -0.5253,-1.3125 z M 1099.7381,1341.25 c -0.5171,-2.2153 6.1889,-15.441 7.5921,-14.9733 0.5746,0.1916 1.2438,0.9453 1.487,1.675 0.2468,0.7403 -0.021,1.0401 -0.6068,0.6783 -1.1997,-0.7414 -4.2215,1.922 -4.1882,3.6914 0.012,0.6482 0.9023,0.054 1.9778,-1.3214 1.0755,-1.375 1.9655,-2.0854 1.9778,-1.5787 0.012,0.5067 -0.7308,1.7532 -1.651,2.7701 -1.5873,1.7539 -1.5487,1.829 0.75,1.461 1.7294,-0.2768 2.3277,-0.9268 2.0896,-2.2701 -0.257,-1.4504 -0.058,-1.614 0.8695,-0.7128 0.9368,0.9107 0.9084,1.8351 -0.1286,4.1778 -0.7324,1.6547 -1.7627,2.7421 -2.2894,2.4165 -0.5463,-0.3376 -0.6835,0.123 -0.3192,1.0722 0.413,1.0763 0.131,1.664 -0.7987,1.664 -1.5702,0 -0.9572,-2.8673 0.9271,-4.3367 0.6269,-0.489 0.137,-0.6316 -1.1785,-0.3433 -1.2382,0.2714 -1.9992,0.085 -1.691,-0.4133 0.3083,-0.4987 0.084,-0.9067 -0.4986,-0.9067 -0.5824,0 -1.059,0.9266 -1.059,2.059 0,1.1325 -0.45,1.7809 -1,1.441 -0.5844,-0.3612 -0.9518,0.5493 -0.884,2.191 0.066,1.5913 0.31,2.0722 0.5636,1.1094 0.3715,-1.4106 0.8565,-1.5133 2.8527,-0.6037 1.3227,0.6026 2.154,1.5018 1.8473,1.9981 -0.3117,0.5044 -1.1799,0.3859 -1.9686,-0.2687 -1.0144,-0.8419 -1.411,-0.8555 -1.411,-0.048 0,1.8222 -2.8165,1.2804 -3.2619,-0.6276 z M 1149.5,1302 c -1.6304,-0.7006 -1.6875,-0.8724 -0.309,-0.9297 0.93,-0.039 1.9691,0.3797 2.309,0.9297 0.7107,1.1499 0.6759,1.1499 -2,0 z m 4.25,-0.6623 c 0.6875,-0.2774 1.8125,-0.2774 2.5,0 0.6875,0.2774 0.125,0.5044 -1.25,0.5044 -1.375,0 -1.9375,-0.227 -1.25,-0.5044 z"
     style="fill:#1f1d1e"
     sodipodi:nodetypes="ccccccccsccccccsccsccccscsscccccscsscssssscccccccccccccccccccccsscccccccccccssccsccccscssccscscccscccccccccsccsscccccscccsccsccccscsccccccccccccccssccsccccscccccccccccccsccccccccccccccsccsccccccsccccsccccscssccscccscccccccsccccsssccccccccccccsccccccccccccccsccccccccccsccsscscccccsccsccscccccsssccsccccccccccsccccccsccccccccccccsccccccccsscccccccsccccccccccccscccccccscccccccscccccscccscsscccsccccscccccssscccscccscccsccssccccccccccccccccsccccccccccccccccscccccccccccsccccssccsssssccccccccccccccssccsccccsccccccccccsccccccsccscccccccccscccccccccccccccsccccsccccccccssccscccccsccccccsssscccccccccccccccccccscccssccccccsccccccssss" />
  <ellipse
     style="opacity:1;fill:#ffffff;fill-opacity:0;stroke:#ffffff;stroke-width:45.75;stroke-miterlimit:4;stroke-dasharray:none;stroke-dashoffset:0;stroke-opacity:0.97368421"
     id="path4629"
     cx="305.39316"
     cy="1348.4197"
     rx="34.633469"
     ry="34.633472" />
  <path
     style="fill:#00d4aa;stroke:#00d4aa;stroke-width:0.9375px;stroke-linecap:butt;stroke-linejoin:miter;stroke-opacity:1"
     d="m 327.20596,1246.47 -0.5635,23.5 -76.4999,0.5023 10.05611,101.3426 -34.05621,1.6574 -0.012,-103.25 38.4437,-24.5745 z"
     id="path4643"
     inkscape:connector-curvature="0"
     sodipodi:nodetypes="cccccccc" />
  <path
     style="fill:none;stroke:#ffffff;stroke-width:4.6875;stroke-linecap:butt;stroke-linejoin:miter;stroke-miterlimit:4;stroke-dasharray:none;stroke-opacity:1"
     d="m 233.98659,1334.1326 c 16.3027,-47.5682 40.67292,-61.4267 71.98449,-62.9427 56.49191,-2.7352 74.26124,62.8818 74.26124,62.8818"
     id="path4637"
     inkscape:connector-curvature="0"
     sodipodi:nodetypes="csc" />
  <path
     inkscape:connector-curvature="0"
     id="path24466-6"
     d="m 319.74497,1413.1877 c 6.7006,-1.2116 16.7716,-4.457 18.1698,-5.8551 0.3649,-0.365 1.451,-0.6636 2.4135,-0.6636 0.9625,0 1.9,-0.3397 2.0834,-0.755 0.1833,-0.4152 3.2583,-3.0935 6.8333,-5.9516 13.1016,-10.4746 20.5239,-21.0125 24.5064,-34.7934 4.9259,-17.0452 4.1722,-32.2533 -2.3986,-48.3997 -8.2062,-20.1651 -27.3049,-36.6579 -48.1078,-41.544 -8.3198,-1.9542 -23.6553,-1.9578 -32,-0.01 -20.8516,4.8728 -40.1704,21.8529 -48.2982,42.4514 -4.578,11.6021 -6.0422,20.2904 -5.3151,31.5367 0.6789,10.5031 4.1974,22.8674 7.1349,25.0735 0.813,0.6107 1.4784,2.0085 1.4784,3.1062 0,2.2122 5.1006,9.4434 11.3975,16.1583 4.5293,4.8299 16.555,13.1253 19.0275,13.1253 0.8663,0 1.5749,0.3645 1.5749,0.81 0,1.2874 11.9811,5.0519 19.5681,6.1485 8.658,1.2514 13.0691,1.1629 21.932,-0.4398 z m -28.8613,-37.3758 c -25.7188,-12.6613 -25.9066,-51.0438 -0.3153,-64.4156 5.8213,-3.0416 6.7805,-3.2268 16.6766,-3.2194 9.1236,0.01 11.1554,0.3303 15.5,2.468 6.7466,3.3196 14.046,10.8199 17.3118,17.7883 2.3267,4.9645 2.6881,7.0133 2.6875,15.2358 -7e-4,7.7609 -0.4161,10.4008 -2.2692,14.4203 -4.6225,10.0268 -11.8673,16.4993 -22.877,20.4383 -7.1317,2.5515 -18.3268,1.4135 -26.7144,-2.7157 z m 31.1541,-1.1899 6.2929,-3.1519 -2.565,-3.3629 -2.565,-3.3628 3.5221,-4.6143 c 1.9372,-2.5379 3.5291,-5.1423 3.5375,-5.7877 0.011,-0.8411 0.2234,-0.859 0.75,-0.063 0.4041,0.6107 2.1791,1.8504 3.9445,2.7549 l 3.2098,1.6444 1.5402,-5.1864 c 2.4484,-8.2447 2.2543,-8.8234 -2.9598,-8.8234 -4.2287,0 -4.5034,-0.1658 -4.5564,-2.75 -0.031,-1.5125 -0.5967,-4.325 -1.2569,-6.25 -1.1954,-3.4855 -1.1843,-3.5073 2.6702,-5.252 l 3.8705,-1.752 -1.7223,-2.6285 c -0.9472,-1.4457 -2.8987,-3.9489 -4.3366,-5.5627 l -2.6144,-2.9342 -2.6316,3.2243 -2.6315,3.2244 -4.4612,-2.1597 c -2.4537,-1.1878 -5.0245,-2.1596 -5.7129,-2.1596 -0.7061,0 -1.0449,-0.7627 -0.7772,-1.75 1.8983,-7.002 1.8706,-7.1199 -1.8324,-7.8146 -1.929,-0.3619 -5.0857,-0.3619 -7.0147,0 -3.6962,0.6934 -3.7195,0.7896 -1.8692,7.6985 0.3007,1.1223 -0.4139,1.8477 -2.2819,2.3165 -1.4957,0.3754 -3.9479,1.5573 -5.4493,2.6263 l -2.7298,1.9438 -2.8937,-3.5107 -2.8937,-3.5106 -2.5342,2.7504 c -2.9246,3.1743 -5.8408,7.3723 -5.8408,8.4082 0,0.392 1.6079,1.2942 3.5731,2.0048 3.1092,1.1243 3.496,1.6196 2.98,3.8147 -0.326,1.3875 -0.8682,4.2102 -1.2048,6.2727 -0.5708,3.4999 -0.853,3.7579 -4.2301,3.8684 -1.9901,0.065 -4.0092,0.047 -4.4869,-0.04 -0.9402,-0.1709 -0.1532,5.453 1.4909,10.6547 l 1.022,3.2336 3.8312,-1.9546 3.8314,-1.9546 2.8059,3.7211 c 1.5433,2.0465 3.3949,4.171 4.1148,4.721 1.0341,0.79 0.6835,1.7589 -1.669,4.6129 l -2.9783,3.613 4.8452,2.637 c 2.6649,1.4504 5.5859,2.6371 6.4913,2.6371 1.6742,0 1.992,-0.5399 2.9649,-5.0357 0.5151,-2.3793 0.9217,-2.5334 6.5949,-2.5 l 6.046,0.036 1.2387,4.3024 1.2388,4.3024 6.2928,-3.1518 z m 923.28283,-542.7033 2.4243,-2.75 -2.75,2.4243 c -2.5703,2.2659 -3.2086,3.0757 -2.4243,3.0757 0.1791,0 1.4166,-1.2375 2.75,-2.75 z M 742.97584,794.9758 c -0.9729,-0.2536 -2.3229,-0.2369 -3,0.037 -0.677,0.2739 0.1191,0.4813 1.7691,0.461 1.65,-0.02 2.2039,-0.2445 1.2309,-0.4981 z m 30.5074,-2.0143 c -1.2439,-0.2392 -3.0439,-0.2301 -4,0.02 -0.9561,0.2503 0.062,0.446 2.2617,0.4349 2.2,-0.011 2.9822,-0.2159 1.7383,-0.4551 z m 343.26166,-3.2928 c -0.3399,-0.55 -1.068,-1 -1.618,-1 -0.55,0 -0.7219,0.45 -0.382,1 0.3399,0.55 1.0681,1 1.6181,1 0.55,0 0.7218,-0.45 0.3819,-1 z m -311.24996,-6.6622 c -0.6875,-0.2775 -1.8125,-0.2775 -2.5,0 -0.6875,0.2774 -0.125,0.5043 1.25,0.5043 1.375,0 1.9375,-0.2269 1.25,-0.5043 z m 39.464,-6.8378 c -0.186,-6.6601 -0.8784,0.211 -0.418,2.7638 0.2374,1.2299 0.4255,-0.014 0.418,-2.7638 z M 1155.05,671.16873 c -0.02,-1.65 -0.2445,-2.20393 -0.4981,-1.23097 -0.2535,0.97297 -0.2368,2.32297 0.037,3 0.274,0.67704 0.4814,-0.11903 0.461,-1.76903 z m 63.1949,-1.89301 c 0,-0.21616 -0.6983,-0.661 -1.5519,-0.98855 -0.8899,-0.34149 -1.2913,-0.17385 -0.941,0.39301 0.5873,0.95021 2.4929,1.40545 2.4929,0.59554 z m -30,-10 c 0,-0.21616 -0.6983,-0.661 -1.5519,-0.98855 -0.8899,-0.34149 -1.2913,-0.17385 -0.941,0.39301 0.5873,0.95021 2.4929,1.40545 2.4929,0.59554 z M 381.74497,596.66873 c 0.3399,-0.55 0.1415,-1 -0.441,-1 -0.5824,0 -1.059,0.45 -1.059,1 0,0.55 0.1984,1 0.441,1 0.2425,0 0.7191,-0.45 1.059,-1 z m -63.25,-46.66228 c -0.6875,-0.27741 -1.8125,-0.27741 -2.5,0 -0.6875,0.27741 -0.125,0.50439 1.25,0.50439 1.375,0 1.9375,-0.22698 1.25,-0.50439 z m -27.25,-16.71528 c 0,-0.20765 -0.7875,-0.99515 -1.7501,-1.75 -1.586,-1.24387 -1.6214,-1.2085 -0.3775,0.37756 1.3064,1.66575 2.1276,2.19548 2.1276,1.37244 z"
     style="fill:#6b6a60;stroke-width:1.00000012"
     sodipodi:nodetypes="ccscccscccccscssscccccccccccccccccccccsccccccccccsccccccccccsccccccccccccccsccccccccccsccccccccsccssssssssscccccscccsccssccsssssssssssccs" />
  <path
     inkscape:connector-curvature="0"
     id="path24464-3"
     d="m 294.94817,1405.7737 -2.8755,-0.3637 2.8434,-1.4752 c 1.5639,-0.8113 3.8428,-1.2243 5.0643,-0.9178 1.2214,0.3066 2.486,0.1284 2.8101,-0.3961 1.0281,-1.6634 -3.3146,-3.173 -7.0902,-2.4646 -2.5612,0.4804 -3.8473,0.277 -4.4707,-0.7074 -1.6002,-2.5266 -0.9499,-2.7117 4.818,-1.3709 3.148,0.7318 6.0315,1.1404 6.4076,0.9079 0.3761,-0.2325 1.738,0.039 3.0262,0.6023 2.1135,0.9248 2.0493,0.9669 -0.6576,0.4311 -2.3328,-0.4617 -2.7367,-0.3258 -1.8159,0.6111 0.7018,0.7142 4.2887,1.2383 8.8084,1.2872 4.5123,0.049 6.8863,0.3951 5.816,0.8487 -1.4233,0.6031 -1.276,0.7168 0.6915,0.5336 1.3807,-0.1286 2.5,-0.8671 2.5,-1.6495 0,-0.7791 0.6251,-1.625 1.3892,-1.8797 0.8432,-0.2811 1.1148,-0.019 0.691,0.6667 -0.384,0.6213 -0.1735,1.1297 0.4678,1.1297 0.6413,0 0.907,-0.675 0.5904,-1.5 -0.7001,-1.8243 0.4749,-1.9516 2.3088,-0.25 1.098,1.0188 1.2369,0.9358 0.7509,-0.4491 -0.4226,-1.2043 -0.1743,-1.5371 0.8528,-1.143 0.797,0.3059 1.4491,0.9834 1.4491,1.5058 0,0.5223 1.0125,0.2405 2.25,-0.6263 1.2375,-0.8667 2.25,-2.0922 2.25,-2.7233 0,-0.6311 0.5625,-1.3349 1.25,-1.5641 0.6875,-0.2292 1.2469,0.1833 1.2432,0.9167 -0.01,1.7572 -6.5863,6.2028 -7.9396,5.3664 -0.5795,-0.3581 -1.0605,-0.062 -1.0689,0.6579 -0.011,0.9654 -0.2597,0.9227 -0.9462,-0.163 -0.7983,-1.2622 -1.0245,-1.2282 -1.5875,0.2392 -0.8432,2.1972 -8.2588,4.325 -9.7782,2.8056 -0.59,-0.59 -1.9953,-1.0373 -3.1228,-0.9939 -1.1275,0.043 -1.4875,0.306 -0.8,0.5834 0.6875,0.2774 1.25,0.8165 1.25,1.1979 0,0.7261 -12.4161,0.9736 -17.3756,0.3464 z m 5.3756,-1.2066 c 0,-0.55 -0.45,-1 -1,-1 -0.55,0 -1,0.45 -1,1 0,0.55 0.45,1 1,1 0.55,0 1,-0.45 1,-1 z m 6.7292,-0.6042 c -0.3323,-0.3323 -1.1948,-0.3678 -1.9167,-0.079 -0.7977,0.3192 -0.5608,0.5562 0.6042,0.6042 1.0541,0.043 1.6448,-0.193 1.3125,-0.5253 z m -15.7292,-0.7346 c 1.375,-0.7766 3.625,-1.7095 5,-2.0731 l 2.5,-0.6612 -2.5,1.4119 c -1.375,0.7766 -3.625,1.7095 -5,2.0731 l -2.5,0.6612 z m -5.1876,-0.3443 c 0.722,-0.2889 1.5845,-0.2534 1.9168,0.079 0.3323,0.3323 -0.2584,0.5687 -1.3125,0.5253 -1.165,-0.048 -1.402,-0.285 -0.6043,-0.6042 z m -6.8124,-2.3169 c -1.2443,-0.8041 -1.1591,-0.9746 0.5,-1 1.6929,-0.026 1.7697,-0.1963 0.4999,-1.1096 -1.2474,-0.8974 -1.1916,-0.979 0.3318,-0.4847 1.0076,0.3269 2.6951,0.5943 3.75,0.5943 1.0551,0 1.9182,0.4359 1.9182,0.9686 0,0.5328 -0.6294,0.7271 -1.3987,0.4318 -0.7694,-0.2952 -1.6961,-0.056 -2.0591,0.5314 -0.8094,1.3097 -1.5976,1.3248 -3.5421,0.068 z m 30.3333,-0.4435 c 0,-1.2884 0.072,-1.3123 5.7793,-1.9005 1.9869,-0.2049 5.1038,-1.1164 6.9265,-2.0256 1.8226,-0.9092 4.1908,-1.3748 5.2626,-1.0346 1.2378,0.3928 1.7104,0.2329 1.2955,-0.4385 -0.3593,-0.5813 0.2321,-1.5307 1.3141,-2.1098 2.6978,-1.4438 4.0288,0.7919 1.5503,2.6042 -1.2781,0.9346 -1.417,1.3483 -0.4527,1.3483 1.1079,0 1.1383,0.2528 0.1495,1.2416 -0.9889,0.9889 -1.4005,0.9846 -2.022,-0.021 -0.4291,-0.6944 -1.6479,-1.0981 -2.7083,-0.8972 -4.3467,0.8235 -7.4281,1.94 -7.4281,2.6913 0,0.4389 -0.8861,0.5662 -1.9692,0.283 -1.083,-0.2832 -3.258,-0.066 -4.8333,0.4835 -2.1354,0.7444 -2.8642,0.6872 -2.8642,-0.2248 z m -22.3333,-1.1398 c 0,-0.8709 0.5344,-1.4052 1.1875,-1.1875 1.8542,0.618 2.1618,2.7708 0.3958,2.7708 -0.8708,0 -1.5833,-0.7125 -1.5833,-1.5833 z m -10.4963,-0.3366 c 0.6123,-1.0548 0.4003,-1.2573 -0.8245,-0.7873 -1.075,0.4125 -2.0303,-0.08 -2.7451,-1.4157 -0.6029,-1.1266 -1.3484,-1.7962 -1.6566,-1.488 -0.8748,0.8747 -10.2776,-7.3969 -10.2776,-9.0412 0,-0.8897 -0.4913,-1.1832 -1.25,-0.7466 -0.6875,0.3956 -0.9316,0.3663 -0.5425,-0.065 0.3891,-0.4315 -0.1447,-1.5161 -1.1862,-2.4103 -3.772,-3.2388 -7.5306,-12.126 -5.1283,-12.126 1.2167,0 2.2473,2.9118 1.5361,4.3402 -0.3176,0.6379 0.131,0.2863 0.9967,-0.7813 1.7339,-2.1381 1.7899,-2.8781 0.4961,-6.5589 -0.7064,-2.0098 -0.7966,-1.7157 -0.46,1.5 l 0.4187,4 -1.2242,-3.7994 c -0.6734,-2.0896 -1.5465,-3.4771 -1.9404,-3.0833 -0.3938,0.3938 -0.7303,-0.1465 -0.7478,-1.2006 -0.03,-1.8215 -0.099,-1.8283 -1.3817,-0.1373 -1.1967,1.5773 -1.4189,1.5998 -1.9568,0.1981 -0.3504,-0.9131 -0.1891,-1.3232 0.3818,-0.9704 0.5562,0.3438 1.023,-0.6174 1.0674,-2.1981 0.043,-1.5449 0.306,-2.2465 0.5834,-1.559 0.2774,0.6875 1.1044,1.25 1.8377,1.25 0.7333,0 1.5603,-0.5625 1.8377,-1.25 0.2873,-0.7119 0.5384,-0.4547 0.5834,0.5973 0.089,2.0741 7.7015,17.1325 9.643,19.0739 0.8076,0.8077 0.9306,1.7574 0.3451,2.6666 -0.5744,0.8922 -1.1854,1.044 -1.6592,0.4122 -1.0645,-1.4194 -3.511,-1.7831 -3.0687,-0.4562 0.2028,0.6084 0.7359,1.0425 1.1848,0.9646 0.4488,-0.078 1.4198,0.6759 2.1576,1.675 1.0751,1.4557 1.5935,1.5682 2.609,0.5666 1.0222,-1.0082 0.9965,-1.25 -0.1327,-1.25 -1.129,0 -1.1548,-0.242 -0.1331,-1.25 1.0165,-1.003 1.8889,-0.5585 4.4155,2.25 1.7317,1.925 3.5141,3.3833 3.9609,3.2407 0.4468,-0.1426 1.072,0.4173 1.3893,1.2443 0.3173,0.8269 0.9487,1.2738 1.4031,0.9929 0.4545,-0.2808 1.1517,0.016 1.5498,0.6603 0.4518,0.7312 0.2901,0.9029 -0.4309,0.4573 -0.635,-0.3924 -1.1546,-0.242 -1.1546,0.3343 0,0.5763 1.0125,0.9932 2.25,0.9264 1.2375,-0.067 3.825,0.5957 5.7501,1.4721 1.925,0.8764 2.9743,1.611 2.3318,1.6326 -0.6425,0.022 -1.9538,0.3406 -2.9141,0.709 -1.1398,0.4374 -1.5096,0.2879 -1.0654,-0.4309 0.3742,-0.6054 0.223,-1.3835 -0.336,-1.7289 -0.5591,-0.3455 -1.0232,-0.039 -1.0316,0.6809 -0.012,1.004 -0.2236,0.98 -0.9093,-0.1032 -0.7575,-1.1965 -1.1424,-1.1638 -2.5204,0.2143 -0.8945,0.8946 -1.573,1.905 -1.5074,2.2455 0.065,0.3405 -0.2157,0.9191 -0.6246,1.2857 -0.4091,0.3667 -0.3728,0.028 0.081,-0.7532 z m 1.4962,-3.5839 c 0,-0.2384 -0.6571,-0.1813 -1.4602,0.1269 -1.0561,0.4053 -1.3488,-0.019 -1.0575,-1.5314 0.2216,-1.1504 -0.048,-2.0917 -0.5987,-2.0917 -0.5509,0 -0.7479,-0.4106 -0.4377,-0.9125 0.3102,-0.5019 -0.5237,-0.7931 -1.8531,-0.6471 -1.4232,0.1562 -2.2549,-0.1882 -2.0227,-0.8376 0.2169,-0.6065 -0.5035,-2.2278 -1.601,-3.6028 -1.0975,-1.375 -1.7459,-1.7896 -1.441,-0.9212 0.3501,0.9968 -0.2378,1.9323 -1.5949,2.5378 -1.9591,0.8742 -2.005,1.079 -0.5184,2.3127 1.4065,1.1673 1.5443,1.1277 1.0011,-0.2879 -0.3464,-0.9028 -0.1842,-1.6414 0.3605,-1.6414 0.5447,0 1.2412,0.9594 1.5479,2.1321 0.4195,1.6042 1.0918,1.9924 2.7155,1.5677 1.1869,-0.3103 1.8955,-0.3018 1.5747,0.019 -0.3209,0.3208 0.1971,1.2237 1.151,2.0064 0.954,0.7826 1.1737,1.1391 0.4883,0.7922 -1.9315,-0.9778 -5.611,-1.5414 -4.8058,-0.7361 0.3953,0.3952 1.0187,0.7575 1.3853,0.805 2.0532,0.266 4.0715,1.7586 3.5403,2.6182 -0.3422,0.5535 0.3258,0.4915 1.5057,-0.14 1.1664,-0.6242 2.1207,-1.33 2.1207,-1.5684 z m -15.7717,-13.9594 c 1.5906,0.2576 1.6085,0.048 0.2243,-2.6285 -0.8272,-1.5996 -1.744,-2.9083 -2.0373,-2.9083 -0.2933,0 -0.2122,0.5195 0.1802,1.1545 0.4563,0.7383 0.2727,0.8821 -0.5092,0.3989 -0.6724,-0.4157 -1.0086,-1.3135 -0.747,-1.9952 0.2616,-0.6818 0.1165,-1.8207 -0.3225,-2.531 -0.5747,-0.93 -1.0064,-0.6247 -1.5423,1.0907 -0.4092,1.3101 -1.2459,2.7384 -1.8593,3.1738 -0.677,0.4806 -0.3701,0.6771 0.7811,0.5 1.0429,-0.1604 2.093,0.2711 2.3335,0.959 0.2888,0.826 -0.1852,1.0486 -1.3962,0.6556 -1.5245,-0.4947 -1.5807,-0.4131 -0.3336,0.4841 0.825,0.5934 1.1359,1.0859 0.691,1.0943 -0.445,0.01 -0.5174,0.4872 -0.161,1.0639 0.4025,0.6513 1.0879,0.6999 1.809,0.1284 0.6386,-0.5061 1.9387,-0.7942 2.8893,-0.6402 z m -4.2283,0.086 c 0,-0.2076 0.7875,-0.9951 1.75,-1.75 1.5861,-1.2438 1.6214,-1.2085 0.3776,0.3776 -1.3064,1.6657 -2.1276,2.1955 -2.1276,1.3724 z m 79.0283,13.2644 c -1.3594,-0.5425 -2.7992,-1.5162 -3.1994,-2.1638 -0.7972,-1.29 1.8246,-4.7363 3.5762,-4.7008 0.6022,0.012 -0.03,0.8923 -1.405,1.9557 l -2.5,1.9335 3.25,1.1421 c 1.7875,0.6282 3.2499,1.5481 3.2499,2.0443 0,0.4962 -0.1125,0.8737 -0.2499,0.8388 -0.1375,-0.035 -1.3623,-0.5073 -2.7218,-1.0498 z m 0.1607,-2.6098 c -1.0143,-0.3747 -0.9225,-0.9138 0.405,-2.3807 0.9438,-1.043 1.3429,-1.8963 0.8868,-1.8963 -0.4561,0 0.2145,-1.1111 1.4903,-2.4692 1.2759,-1.358 2.7043,-2.2315 3.1744,-1.941 0.47,0.2905 0.9108,0.052 0.9795,-0.5308 0.2625,-2.2228 0.4677,-2.6461 2.798,-5.7697 1.3173,-1.7659 2.8036,-2.9583 3.303,-2.6497 0.4993,0.3086 0.8056,-0.047 0.6805,-0.7892 -0.1249,-0.7427 0.2949,-2.6172 0.9332,-4.1655 0.6382,-1.5483 1.1604,-3.2358 1.1604,-3.75 0,-0.5142 0.7875,-0.9418 1.75,-0.9502 1.287,-0.011 1.4103,-0.2308 0.4661,-0.83 -1.4016,-0.8893 -0.6174,-4.1547 0.9979,-4.1547 0.5499,0 0.7656,0.6107 0.4791,1.3571 -0.2863,0.7463 0.3375,2.6588 1.3865,4.25 1.0489,1.5911 1.9102,3.3653 1.9138,3.9427 0.012,1.9336 -5.4231,9.4502 -6.8335,9.4502 -0.9039,0 -1.2083,0.707 -0.8667,2.0131 0.3498,1.3376 -0.1238,2.361 -1.4114,3.0502 -1.0659,0.5704 -1.7163,1.3956 -1.4454,1.8338 0.2709,0.4383 -0.729,1.9314 -2.2221,3.318 -2.7025,2.5101 -7.5291,3.9842 -10.0254,3.0619 z m 4.9322,-3.7702 c 1.3084,-1.9212 2.7715,-3.4962 3.2512,-3.5 0.48,0 0.3714,0.5971 -0.2412,1.3352 -0.6126,0.7381 -0.7803,1.7103 -0.3724,2.1603 0.4077,0.4501 0.1093,0.4517 -0.6632,0 -1.0075,-0.5845 -1.1758,-0.4448 -0.5955,0.4942 0.5352,0.8662 0.4184,1.0676 -0.3456,0.5955 -0.6349,-0.3924 -1.1544,-0.237 -1.1544,0.3455 0,0.5824 0.3948,1.059 0.8775,1.059 1.3113,0 3.2042,-2.585 2.4471,-3.342 -0.6027,-0.6028 1.1234,-1.0609 2.9253,-0.7764 0.4125,0.065 0.6786,-0.2191 0.5913,-0.6316 -0.2772,-1.3098 1.3389,-4.2566 2.0826,-3.7971 0.3929,0.2428 0.5196,-0.8848 0.2817,-2.5057 -0.4884,-3.3276 -0.9048,-3.4892 -3.6469,-1.4152 -1.9203,1.4525 -3.2462,5.011 -1.4546,3.9037 0.5108,-0.3157 0.7254,-0.9027 0.477,-1.3046 -0.2484,-0.402 0.3701,-1.244 1.3743,-1.8712 1.56,-0.9742 1.7535,-0.8624 1.3274,0.7671 -0.6135,2.3458 -2.3274,3.838 -4.8612,4.232 -2.8085,0.4368 -4.5434,1.7349 -3.8399,2.8731 0.3378,0.5467 -0.1746,1.8656 -1.1386,2.9309 -0.9641,1.0654 -1.2912,1.937 -0.7269,1.937 0.5644,0 2.0965,-1.5719 3.405,-3.4932 z m 12.6424,-12.5693 c 0.3213,-1.1883 0.2232,-1.2012 -0.5664,-0.074 -0.8064,1.1508 -1.0305,1.1508 -1.4391,0 -0.2664,-0.7498 -0.816,-1.0556 -1.2213,-0.6797 -1.0149,0.9411 0.3927,3.0067 1.7424,2.5568 0.6027,-0.2009 1.2708,-1.0122 1.4844,-1.8028 z m 3.0638,-8.1906 c -1.1459,-2.0766 -1.2698,-2.1033 -1.6349,-0.3518 -0.2775,1.3319 -0.6207,1.5299 -1.1545,0.6662 -0.5618,-0.9088 -0.9231,-0.8028 -1.3874,0.4068 -0.3667,0.956 -0.2169,1.3819 0.3609,1.0248 0.5438,-0.336 0.9885,-0.1567 0.9885,0.3984 0,0.5551 -0.7327,1.4194 -1.6284,1.9206 -1.1085,0.6204 -1.2694,1.1331 -0.5043,1.6061 0.6543,0.4044 1.611,-0.3737 2.289,-1.8616 1.2198,-2.6772 3.5052,-3.6623 2.4507,-1.0564 -1.5366,3.7973 -1.5954,4.7605 -0.1371,2.2469 1.3149,-2.2664 1.3782,-3.1502 0.3575,-5 z m -57.4283,0 c 0.5884,-3.9945 0.4369,-4.3571 -2.5209,-6.0306 -3.0177,-1.7075 -3.1996,-1.7075 -4.4312,0 -4.2888,5.9461 -3.771,5.8144 -7.2562,1.8451 -1.7548,-1.9987 -3.1908,-4.0624 -3.1908,-4.5859 0,-0.5235 1.6313,-1.6333 3.6249,-2.4663 3.3286,-1.3908 3.5737,-1.7697 3,-4.6384 -0.3436,-1.7181 -0.6248,-3.5176 -0.6248,-3.9989 0,-0.4812 -2.025,-0.875 -4.5001,-0.875 -2.9362,0 -4.498,-0.4344 -4.4943,-1.25 0.01,-1.7783 2.0058,-8.75 2.5074,-8.75 0.2306,0 2.0304,0.7684 4,1.7076 l 3.5808,1.7076 2.3699,-2.9576 2.3699,-2.9576 -2.4168,-3.1833 c -1.3292,-1.7508 -2.4168,-3.4291 -2.4168,-3.7297 0,-0.9761 8.0422,-4.679 8.9473,-4.1196 0.4833,0.2987 1.172,2.2794 1.5305,4.4015 0.6253,3.7009 0.8098,3.8584 4.5222,3.8584 3.7124,0 3.8969,-0.1575 4.5222,-3.8584 0.3585,-2.1221 0.9701,-4.0551 1.3591,-4.2955 0.8435,-0.5213 9.1187,3.0582 9.1187,3.9444 0,0.3386 -1.1432,2.1144 -2.5404,3.9462 l -2.5403,3.3306 2.4394,2.836 2.4395,2.8361 3.6348,-1.7334 c 1.9992,-0.9533 3.7912,-1.7333 3.9822,-1.7333 0.3275,0 2.5848,8.2464 2.5848,9.4428 0,0.3065 -1.932,0.5572 -4.2934,0.5572 -4.1498,0 -4.3284,0.1311 -5.3398,3.9204 -1.0459,3.9184 -1.0445,3.9212 2.7934,5.6518 2.1119,0.9524 3.8398,2.0975 3.8398,2.5449 0,0.4473 -1.4162,2.4262 -3.147,4.3976 l -3.1471,3.5842 -2.8598,-3.4694 c -2.8199,-3.4211 -2.9028,-3.4479 -5.9483,-1.9286 -2.9352,1.4643 -3.056,1.7583 -2.4319,5.9199 l 0.6566,4.3792 h -5.1748 -5.1748 z m 58.2935,-3.0966 c -0.9563,-1.4594 -1.2782,-2.6534 -0.7157,-2.6534 1.6032,0 1.1972,-3.996 -0.4711,-4.6362 -0.8219,-0.3153 -1.3181,-0.8637 -1.1027,-1.2186 0.2154,-0.3549 0.6393,-4.9202 0.9422,-10.1452 0.3028,-5.225 0.1969,-8.6164 -0.2354,-7.5364 -0.6288,1.5713 -0.9541,1.0717 -1.6278,-2.5 -0.4629,-2.455 -0.897,-4.9136 -0.9645,-5.4636 -0.067,-0.55 -0.9198,-2.5043 -1.8939,-4.3429 -0.9741,-1.8386 -1.5321,-3.582 -1.2399,-3.8742 0.2922,-0.2921 -0.4621,-1.4096 -1.6762,-2.4832 -1.2141,-1.0737 -1.5947,-1.6351 -0.8457,-1.2478 0.7558,0.391 1.7502,0.091 2.2347,-0.6738 1.2849,-2.0285 1.0896,-3.262 -0.3465,-2.1892 -0.6875,0.5136 -1.7855,0.9062 -2.4401,0.8725 -1.5537,-0.08 -8.3943,-8.0851 -8.8242,-10.3263 -0.183,-0.9543 -0.374,-1.9601 -0.4245,-2.2351 -0.051,-0.275 -0.5349,0.175 -1.0765,1 -0.6931,1.0559 -1.2068,1.1666 -1.7347,0.3742 -0.4125,-0.6193 -3.8358,-2.7032 -7.6072,-4.631 -4.275,-2.1851 -6.3462,-3.7404 -5.5,-4.1301 0.7464,-0.3438 0.1473,-0.3957 -1.3315,-0.1154 -1.4788,0.2803 -2.9792,0.04 -3.3342,-0.5347 -0.355,-0.5744 -1.62,-0.7796 -2.8113,-0.4559 -1.9192,0.5214 -1.9638,0.4619 -0.391,-0.5229 0.9761,-0.6112 3.8885,-1.2835 6.4721,-1.4941 3.1615,-0.2576 4.2161,-0.078 3.2253,0.5483 -0.9452,0.5977 -1.036,0.9365 -0.2536,0.9463 0.724,0.01 0.9594,0.6907 0.5801,1.6793 -0.394,1.0266 -0.2386,1.4169 0.4056,1.0188 0.5742,-0.3549 2.2489,0.4712 3.7214,1.8359 1.4725,1.3647 2.9576,2.4813 3.3001,2.4813 0.6615,0 -3.5373,-4.9854 -5.2258,-6.2049 -0.55,-0.3972 -1.0006,-1.3011 -1.0013,-2.0086 0,-1.5634 -6.5021,-1.7782 -11.3221,-0.3741 -2.5916,0.755 -3.524,0.6511 -4.2347,-0.4721 -0.7829,-1.2374 -0.9134,-1.2284 -0.9266,0.064 -0.012,1.1792 -1.4751,1.5266 -6.7653,1.6063 -4.4779,0.067 -6.0768,-0.1808 -4.75,-0.7374 1.7558,-0.7367 1.6948,-0.8078 -0.5,-0.5826 -1.4044,0.1441 -2.3835,0.8147 -2.2342,1.5302 0.1462,0.7006 -0.3038,1.1814 -1,1.0686 -1.1829,-0.1918 -2.1498,0.08 -7.2658,2.0389 -1.1,0.4212 -3.0323,0.6834 -4.2941,0.5825 -1.5485,-0.1238 -2.1275,0.2508 -1.7814,1.1527 0.43,1.1207 -0.7997,1.9073 -1.698,1.0861 -0.1505,-0.1375 -1.3247,0.7294 -2.6098,1.9265 -1.3593,1.2664 -3.0221,1.9316 -3.9765,1.5907 -0.9022,-0.3222 -1.3057,-0.2171 -0.8968,0.2337 0.409,0.4507 -1.517,3.2097 -4.2798,6.131 -4.9358,5.2188 -6.7743,6.2799 -6.1468,3.5473 0.1743,-0.7589 -0.1122,-1.1147 -0.6367,-0.7906 -1.1171,0.6904 -3.7582,-2.144 -2.8469,-3.0553 0.3401,-0.3401 1.2791,-0.07 2.0866,0.6002 1.1915,0.9889 1.7126,0.8273 2.7647,-0.8575 1.6528,-2.6466 3.1468,-2.6956 2.3154,-0.076 -0.9291,2.9272 0.3801,2.4456 1.5229,-0.5602 0.5931,-1.56 1.4624,-2.3123 2.2252,-1.9258 0.6886,0.3489 0.3784,-0.074 -0.6892,-0.9398 -1.5324,-1.2427 -0.8193,-2.3719 0.8361,-1.3242 0.2173,0.1375 1.3895,-0.65 2.605,-1.75 1.2155,-1.1 2.3877,-1.8875 2.605,-1.75 0.2172,0.1375 0.9575,0.2431 1.645,0.2347 0.8334,-0.01 0.75,-0.3385 -0.25,-0.9847 -1.2351,-0.7982 -1.2498,-0.9721 -0.083,-0.9847 0.7791,-0.01 1.1557,-0.2763 0.8367,-0.5952 -0.3189,-0.3189 -1.8348,0.2423 -3.3685,1.2473 -2.5979,1.7022 -2.7428,1.7076 -2.1182,0.08 0.3688,-0.961 0.4485,-1.7473 0.1772,-1.7473 -0.2714,0 -0.9289,1.1455 -1.4612,2.5455 -0.616,1.6202 -1.6067,2.4381 -2.7253,2.25 -1.1993,-0.2016 -1.6641,0.2603 -1.4636,1.4545 0.2893,1.7227 -1.2278,2.464 -2.0466,1 -0.2307,-0.4125 -0.2849,-0.1944 -0.1205,0.4847 0.3313,1.3691 -3.0111,3.5476 -3.9707,2.588 -0.6154,-0.6154 6.9253,-8.7002 7.5841,-8.1315 0.1968,0.1698 2.3134,-1.3651 4.7034,-3.4109 2.3901,-2.0458 4.7307,-3.4817 5.2011,-3.191 0.4705,0.2908 0.8554,0.1244 0.8554,-0.3698 0,-1.2205 4.9214,-3.3861 6.0749,-2.6732 0.5088,0.3145 0.9252,0.095 0.9252,-0.4873 0,-0.5824 1.3233,-1.059 2.941,-1.059 1.6175,0 3.219,-0.45 3.5589,-1 0.9363,-1.515 5.2108,-1.1962 5.8369,0.4354 0.303,0.7895 0.014,1.6156 -0.643,1.8358 -0.6566,0.2202 1.2212,0.7217 4.1729,1.1145 2.9517,0.3928 5.6142,0.4667 5.9167,0.1642 0.3025,-0.3024 -0.5376,-0.5568 -1.8667,-0.5652 -1.3292,-0.01 -2.9989,-0.3847 -3.7106,-0.8362 -0.7638,-0.4845 0.7726,-0.7804 3.75,-0.7222 2.7742,0.054 5.0439,-0.2165 5.0439,-0.6017 0,-0.3852 0.7875,-0.6511 1.75,-0.591 0.9625,0.06 2.875,-0.2224 4.25,-0.6277 1.6724,-0.4929 2.0508,-0.4256 1.1432,0.2036 -1.1032,0.7647 -1.1142,1.0904 -0.059,1.7426 0.7605,0.47 1.4602,0.3147 1.6901,-0.375 0.5643,-1.6928 2.2257,-1.4518 2.2257,0.3229 0,0.825 0.45,1.5 1,1.5 0.55,0 1,-0.4482 1,-0.9959 0,-1.0332 9.9022,2.3365 10.922,3.7168 0.3179,0.4302 1.7321,1.3755 3.1426,2.1005 1.4106,0.725 5.0106,3.5892 8,6.3648 2.9894,2.7757 4.8145,4.7067 4.0556,4.2911 -0.9358,-0.5126 -1.2174,-0.3088 -0.8749,0.6335 0.2776,0.7641 0.9862,1.285 1.5747,1.1575 0.5884,-0.1274 2.0253,1.1101 3.193,2.75 1.1715,1.6451 1.6142,2.9817 0.9876,2.9817 -0.6637,0 -0.8829,0.7959 -0.5274,1.9158 0.3345,1.0538 0.2136,2.1597 -0.2685,2.4577 -0.7179,0.4436 -0.8317,2.7932 -0.2727,5.6265 0.054,0.275 0.5315,-0.175 1.0605,-1 0.5289,-0.825 0.7287,-2.2496 0.444,-3.1658 -0.2848,-0.9163 -0.042,-1.9599 0.5391,-2.3191 0.5814,-0.3593 0.798,-1.0722 0.4817,-1.5842 -0.3164,-0.512 -0.299,-0.9309 0.039,-0.9309 1.0278,0 5.5794,11.069 4.9621,12.0676 -0.3168,0.5128 0.013,0.9393 0.7329,0.9477 0.9512,0.011 0.899,0.2803 -0.1911,0.9847 -0.8865,0.5729 -1.0162,0.9756 -0.3174,0.9847 1.6641,0.022 2.6064,3.5924 1.5114,5.7275 -1.0609,2.0688 -2.4966,11.9239 -1.6075,11.0348 0.3271,-0.3273 1.1638,-2.9917 1.8591,-5.921 l 1.2642,-5.326 -0.036,8 c -0.026,5.7116 -0.2328,6.9988 -0.7232,4.5 l -0.6868,-3.5 -0.3146,3 c -0.1729,1.65 -0.2265,4.2676 -0.1188,5.817 0.1173,1.6872 -0.2103,2.5659 -0.817,2.191 -1.3301,-0.8221 -1.2789,2.5684 0.068,4.492 0.8221,1.1742 0.9128,1.0113 0.4173,-0.75 -0.3722,-1.3233 -0.1933,-2.25 0.4345,-2.25 1.399,0 1.2852,2.7785 -0.2622,6.4034 l -1.2394,2.9033 -1.7385,-2.6533 z m 1.2372,-11.9624 c -0.068,-2.1124 -0.1011,-2.1192 -0.9297,-0.191 -1.1828,2.7525 -1.1828,3.731 0,3 0.55,-0.3399 0.9684,-1.604 0.9297,-2.809 z m 1.9999,-19.0558 c -0.039,-0.6244 -0.4569,-0.2352 -0.9297,0.8648 -0.7963,1.8534 -0.8757,1.8168 -1.0819,-0.5 -0.1226,-1.375 -0.3272,-2.95 -0.455,-3.5 -0.1278,-0.55 -0.2911,-2.125 -0.363,-3.5 -0.1044,-1.9971 -0.3256,-2.1983 -1.1001,-1 -0.7299,1.1294 -0.9819,0.6352 -1.02,-2 l -0.051,-3.5 -1.4292,2.5 c -1.5934,2.7876 -2.0212,5.354 -0.4999,3 0.7533,-1.1656 1.0075,-0.8313 1.1401,1.5 0.094,1.65 0.089,3.9785 -0.011,5.1744 -0.1173,1.4053 0.5358,2.402 1.8465,2.818 1.5834,0.5025 1.9071,1.2316 1.4765,3.3256 -0.4665,2.2694 -0.3131,2.1643 0.9981,-0.6828 0.8521,-1.8507 1.5178,-3.8757 1.4791,-4.5 z m -10.9296,-18.6744 c 0.275,-0.1072 0.7913,-0.157 1.1474,-0.1107 1.7406,0.2264 -0.5757,-3.5017 -2.8392,-4.5699 -2.6547,-1.2529 -4.3082,-0.9303 -4.3082,0.8405 0,0.55 0.5265,0.6747 1.1699,0.277 0.7987,-0.4937 0.9564,-0.1665 0.4968,1.0312 -1.1069,2.8846 0.7083,3.9452 4.3333,2.5319 z m -3.6126,-1.1206 c 0.3107,-1.5858 2.6126,-2.3451 2.6126,-0.8618 0,0.6283 -0.4116,0.888 -0.9146,0.5771 -0.5031,-0.3109 -1.1443,-0.1012 -1.425,0.466 -0.2808,0.5671 -0.4035,0.4856 -0.273,-0.1813 z m -82.9403,-1.9229 c -0.322,-0.521 -1.0116,-0.6838 -1.5326,-0.3618 -0.521,0.322 -0.6838,1.0116 -0.3618,1.5326 0.322,0.521 1.0116,0.6838 1.5326,0.3618 0.521,-0.322 0.6838,-1.0116 0.3618,-1.5326 z m 78.5432,-2.4262 c -1.0621,-1.2799 -0.9061,-1.4715 1.0173,-1.25 1.3059,0.1504 2.4942,-0.3762 2.7948,-1.2384 0.4374,-1.2553 0.2661,-1.2882 -1.0509,-0.2014 -1.2126,1.0007 -1.7439,1.0226 -2.317,0.095 -0.4449,-0.7198 -0.3219,-0.9424 0.3061,-0.5543 0.5775,0.3569 1.299,-7e-4 1.6037,-0.7945 0.3882,-1.0116 0.071,-1.2582 -1.0593,-0.8243 -1.0283,0.3946 -1.3664,0.2196 -0.9323,-0.4825 0.3744,-0.6059 -0.2556,-1.7574 -1.4001,-2.559 -1.6365,-1.1463 -2.7012,-1.2231 -4.9882,-0.3599 -1.761,0.6647 -2.4616,1.3732 -1.7767,1.7965 0.622,0.3844 1.6887,0.4849 2.3705,0.2233 0.6817,-0.2616 1.5411,0.012 1.9097,0.6088 0.3687,0.5965 1.0891,0.8256 1.6012,0.5092 0.512,-0.3164 0.9309,0.1528 0.9309,1.0427 0,0.9684 -0.4635,1.3316 -1.1545,0.9045 -0.7757,-0.4794 -0.8888,-0.2526 -0.3443,0.691 1.2528,2.172 2.6922,3.9045 3.2436,3.9045 0.2751,0 -0.064,-0.6802 -0.7545,-1.5116 z m -3.4833,-7.4769 c -0.3503,-0.5669 0.051,-0.7346 0.9411,-0.3931 1.7324,0.6648 2.0493,1.3816 0.6108,1.3816 -0.5175,0 -1.2159,-0.4448 -1.5519,-0.9885 z m -59.9455,-3.3357 c -0.052,-1.6813 0.6382,-2.0136 4.4385,-2.1372 7.1172,-0.2316 14.0524,-4.576 8.4289,-5.2801 -1.9032,-0.2383 -1.9032,-0.2306 0,0.5751 2.8541,1.2096 0.2139,1.8316 -6.6243,1.5605 -3.9016,-0.1547 -6.0648,0.2169 -6.8634,1.179 -0.6411,0.7727 -1.5636,1.1591 -2.0496,0.8587 -0.486,-0.3003 -0.4637,0.5583 0.05,1.9082 0.5132,1.3499 0.7368,2.6506 0.497,2.8905 -0.2399,0.2399 0.154,0.4362 0.8753,0.4362 0.7213,0 1.2838,-0.8959 1.25,-1.9909 z m 2.4385,-3.6758 c -0.9013,-0.5825 -1.0246,-0.9755 -0.309,-0.9847 0.6549,-0.01 1.4691,0.4347 1.809,0.9847 0.7673,1.2415 0.4211,1.2415 -1.5,0 z m 3.6012,0.1639 c -0.2544,-0.4118 0.4062,-0.8142 1.4681,-0.8942 2.2965,-0.173 2.4986,0.2984 0.4627,1.0796 -0.8074,0.3099 -1.6762,0.2264 -1.9308,-0.1854 z m 51.7727,4.3041 c 0.3935,-1.0256 -0.26,-1.8544 -1.9769,-2.5072 -3.4887,-1.3263 -4.9413,-0.2197 -2.8072,2.1385 2.0782,2.2964 3.9879,2.4435 4.7841,0.3687 z m -61.8475,-2.2749 c -0.3079,-0.3079 -1.1148,-6e-4 -1.7932,0.6828 -0.9802,0.9876 -0.8654,1.1025 0.5598,0.5598 0.9862,-0.3755 1.5412,-0.9347 1.2334,-1.2426 z m 54.8352,-2.6931 c -0.6271,-1.6343 -2.3616,-2.0628 -2.3616,-0.5833 0,0.759 0.7008,1.2757 2.7186,2.0044 0.1203,0.043 -0.04,-0.5961 -0.357,-1.4211 z m -15.6324,-3.1042 c -0.3323,-0.3323 -1.1948,-0.3678 -1.9167,-0.079 -0.7977,0.3192 -0.5608,0.5562 0.6042,0.6042 1.0541,0.043 1.6448,-0.193 1.3125,-0.5253 z m -67.6764,68.1146 c -0.65835,-1.6602 -0.90135,-4.5043 -0.5465,-6.396 0.3735,-1.9914 0.2054,-3.6745 -0.40465,-4.0516 -0.6067,-0.3749 -0.7931,-2.1897 -0.4451,-4.3341 0.3292,-2.0289 1.03605,-3.4186 1.57075,-3.0882 0.5977,0.3694 0.5833,-0.1256 -0.037,-1.2852 -1.23095,-2.3002 0.9575,-13.5436 2.2341,-11.4779 0.4732,0.7656 1.7352,1.0484 3.1236,0.7 2.2956,-0.5762 4.008,0.5335 2.7558,1.7857 -0.3531,0.3531 -0.8103,2.2816 -1.0158,4.2856 -0.2056,2.0039 -0.8122,4.4626 -1.348,5.4638 -0.8803,1.6448 -0.6332,6.3807 0.6638,12.7236 l 0.4777,2.3361 -2.5406,-2.5406 c -1.3974,-1.3974 -2.5723,-3.5736 -2.611,-4.8361 -0.039,-1.2625 -0.487,-3.1955 -0.9962,-4.2955 -0.6256,-1.3511 -0.7252,-0.2284 -0.307,3.4601 0.3404,3.003 1.0759,6.1917 1.6343,7.0859 0.6874,1.1007 0.6862,2.5669 0,4.5399 l -1.0188,2.9141 -1.1855,-2.9896 z m 1.0596,-3.7979 c -0.8167,-0.8167 -1.1125,-0.7048 -1.1125,0.4208 0,0.8434 0.3281,1.8615 0.7292,2.2625 0.401,0.4011 0.9016,0.2117 1.1125,-0.4208 0.2108,-0.6325 -0.1173,-1.6506 -0.7292,-2.2625 z m 2.7513,-14.4625 c -0.075,-4.8125 -0.3321,-7.7308 -0.5715,-6.4852 -0.2394,1.2457 -0.8712,1.9955 -1.4039,1.6662 -0.5643,-0.3487 -0.7659,0.3756 -0.4831,1.7352 0.267,1.2836 0.7626,4.4713 1.1014,7.0838 0.3387,2.6125 0.8133,4.75 1.0546,4.75 0.2413,0 0.3774,-3.9375 0.3025,-8.75 z m 1.8292,-6.981 c -0.2536,-0.9729 -0.4777,-0.419 -0.4981,1.231 -0.02,1.65 0.1871,2.4461 0.461,1.769 0.274,-0.677 0.2906,-2.027 0.037,-3 z m -0.5351,24.731 c 0,-1.375 0.227,-1.9375 0.5044,-1.25 0.2774,0.6875 0.2774,1.8125 0,2.5 -0.2774,0.6875 -0.5044,0.125 -0.5044,-1.25 z m 110.9211,-3.5833 c 0.048,-1.165 0.285,-1.4019 0.6042,-0.6042 0.2889,0.7219 0.2534,1.5844 -0.079,1.9167 -0.3323,0.3323 -0.5687,-0.2584 -0.5253,-1.3125 z m -113.3409,-28.1667 c -0.5171,-2.2153 6.1889,-15.441 7.5921,-14.9733 0.5746,0.1916 1.2438,0.9453 1.487,1.675 0.2468,0.7403 -0.021,1.0401 -0.6068,0.6783 -1.1997,-0.7414 -4.2215,1.922 -4.1882,3.6914 0.012,0.6482 0.9023,0.054 1.9778,-1.3214 1.0755,-1.375 1.9655,-2.0854 1.9778,-1.5787 0.012,0.5067 -0.7308,1.7532 -1.651,2.7701 -1.5873,1.7539 -1.5487,1.829 0.75,1.461 1.7294,-0.2768 2.3277,-0.9268 2.0896,-2.2701 -0.257,-1.4504 -0.058,-1.614 0.8695,-0.7128 0.9368,0.9107 0.9084,1.8351 -0.1286,4.1778 -0.7324,1.6547 -1.7627,2.7421 -2.2894,2.4165 -0.5463,-0.3376 -0.6835,0.123 -0.3192,1.0722 0.413,1.0763 0.131,1.664 -0.7987,1.664 -1.5702,0 -0.9572,-2.8673 0.9271,-4.3367 0.6269,-0.489 0.137,-0.6316 -1.1785,-0.3433 -1.2382,0.2714 -1.9992,0.085 -1.691,-0.4133 0.3083,-0.4987 0.084,-0.9067 -0.4986,-0.9067 -0.5824,0 -1.059,0.9266 -1.059,2.059 0,1.1325 -0.45,1.7809 -1,1.441 -0.5844,-0.3612 -0.9518,0.5493 -0.884,2.191 0.066,1.5913 0.31,2.0722 0.5636,1.1094 0.3715,-1.4106 0.8565,-1.5133 2.8527,-0.6037 1.3227,0.6026 2.154,1.5018 1.8473,1.9981 -0.3117,0.5044 -1.1799,0.3859 -1.9686,-0.2687 -1.0144,-0.8419 -1.411,-0.8555 -1.411,-0.048 0,1.8222 -2.8165,1.2804 -3.2619,-0.6276 z m 49.762,-39.25 c -1.6304,-0.7006 -1.6875,-0.8724 -0.309,-0.9297 0.93,-0.039 1.9691,0.3797 2.309,0.9297 0.7107,1.1499 0.6759,1.1499 -2,0 z m 4.25,-0.6623 c 0.6875,-0.2774 1.8125,-0.2774 2.5,0 0.6875,0.2774 0.125,0.5044 -1.25,0.5044 -1.375,0 -1.9375,-0.227 -1.25,-0.5044 z"
     style="fill:#1f1d1e;stroke-width:1.00000012"
     sodipodi:nodetypes="ccccccccsccccccsccsccccscsscccccscsscssssscccccccccccccccccccccsscccccccccccssccsccccscssccscscccscccccccccsccsscccccscccsccsccccscsccccccccccccccssccsccccscccccccccccccsccccccccccccccsccsccccccsccccsccccscssccscccscccccccsccccsssccccccccccccsccccccccccccccsccccccccccsccsscscccccsccsccscccccsssccsccccccccccsccccccsccccccccccccsccccccccsscccccccsccccccccccccscccccccscccccccscccccscccscsscccsccccscccccssscccscccscccsccssccccccccccccccccsccccccccccccccccscccccccccccsccccssccsssssccccccccccccccssccsccccsccccccccccsccccccsccscccccccccscccccccccccccccsccccsccccccccssccscccccsccccccsssscccccccccccccccccccscccssccccccsccccccssss" />
</svg>
