<?xml version="1.0" encoding="UTF-8"?>
<!DOCTYPE svg PUBLIC "-//W3C//DTD SVG 1.1//EN" "http://www.w3.org/Graphics/SVG/1.1/DTD/svg11.dtd">
<svg version="1.2" width="77.47mm" height="77.47mm" viewBox="164 178 7747 7747" preserveAspectRatio="xMidYMid" fill-rule="evenodd" stroke-width="28.222" stroke-linejoin="round" xmlns="http://www.w3.org/2000/svg" xmlns:ooo="http://xml.openoffice.org/svg/export" xmlns:xlink="http://www.w3.org/1999/xlink" xmlns:presentation="http://sun.com/xmlns/staroffice/presentation" xmlns:smil="http://www.w3.org/2001/SMIL20/" xmlns:anim="urn:oasis:names:tc:opendocument:xmlns:animation:1.0" xml:space="preserve">
 <defs class="ClipPathGroup">
  <clipPath id="presentation_clip_path" clipPathUnits="userSpaceOnUse">
   <rect x="164" y="178" width="7747" height="7747"/>
  </clipPath>
  <clipPath id="presentation_clip_path_shrink" clipPathUnits="userSpaceOnUse">
   <rect x="171" y="185" width="7732" height="7732"/>
  </clipPath>
 </defs>
 <defs class="TextShapeIndex">
  <g ooo:slide="id1" ooo:id-list="id3 id4 id5 id6 id7 id8 id9 id10 id11"/>
 </defs>
 <defs class="EmbeddedBulletChars">
  <g id="bullet-char-template-57356" transform="scale(0.00048828125,-0.00048828125)">
   <path d="M 580,1141 L 1163,571 580,0 -4,571 580,1141 Z"/>
  </g>
  <g id="bullet-char-template-57354" transform="scale(0.00048828125,-0.00048828125)">
   <path d="M 8,1128 L 1137,1128 1137,0 8,0 8,1128 Z"/>
  </g>
  <g id="bullet-char-template-10146" transform="scale(0.00048828125,-0.00048828125)">
   <path d="M 174,0 L 602,739 174,1481 1456,739 174,0 Z M 1358,739 L 309,1346 659,739 1358,739 Z"/>
  </g>
  <g id="bullet-char-template-10132" transform="scale(0.00048828125,-0.00048828125)">
   <path d="M 2015,739 L 1276,0 717,0 1260,543 174,543 174,936 1260,936 717,1481 1274,1481 2015,739 Z"/>
  </g>
  <g id="bullet-char-template-10007" transform="scale(0.00048828125,-0.00048828125)">
   <path d="M 0,-2 C -7,14 -16,27 -25,37 L 356,567 C 262,823 215,952 215,954 215,979 228,992 255,992 264,992 276,990 289,987 310,991 331,999 354,1012 L 381,999 492,748 772,1049 836,1024 860,1049 C 881,1039 901,1025 922,1006 886,937 835,863 770,784 769,783 710,716 594,584 L 774,223 C 774,196 753,168 711,139 L 727,119 C 717,90 699,76 672,76 641,76 570,178 457,381 L 164,-76 C 142,-110 111,-127 72,-127 30,-127 9,-110 8,-76 1,-67 -2,-52 -2,-32 -2,-23 -1,-13 0,-2 Z"/>
  </g>
  <g id="bullet-char-template-10004" transform="scale(0.00048828125,-0.00048828125)">
   <path d="M 285,-33 C 182,-33 111,30 74,156 52,228 41,333 41,471 41,549 55,616 82,672 116,743 169,778 240,778 293,778 328,747 346,684 L 369,508 C 377,444 397,411 428,410 L 1163,1116 C 1174,1127 1196,1133 1229,1133 1271,1133 1292,1118 1292,1087 L 1292,965 C 1292,929 1282,901 1262,881 L 442,47 C 390,-6 338,-33 285,-33 Z"/>
  </g>
  <g id="bullet-char-template-9679" transform="scale(0.00048828125,-0.00048828125)">
   <path d="M 813,0 C 632,0 489,54 383,161 276,268 223,411 223,592 223,773 276,916 383,1023 489,1130 632,1184 813,1184 992,1184 1136,1130 1245,1023 1353,916 1407,772 1407,592 1407,412 1353,268 1245,161 1136,54 992,0 813,0 Z"/>
  </g>
  <g id="bullet-char-template-8226" transform="scale(0.00048828125,-0.00048828125)">
   <path d="M 346,457 C 273,457 209,483 155,535 101,586 74,649 74,723 74,796 101,859 155,911 209,963 273,989 346,989 419,989 480,963 531,910 582,859 608,796 608,723 608,648 583,586 532,535 482,483 420,457 346,457 Z"/>
  </g>
  <g id="bullet-char-template-8211" transform="scale(0.00048828125,-0.00048828125)">
   <path d="M -4,459 L 1135,459 1135,606 -4,606 -4,459 Z"/>
  </g>
  <g id="bullet-char-template-61548" transform="scale(0.00048828125,-0.00048828125)">
   <path d="M 173,740 C 173,903 231,1043 346,1159 462,1274 601,1332 765,1332 928,1332 1067,1274 1183,1159 1299,1043 1357,903 1357,740 1357,577 1299,437 1183,322 1067,206 928,148 765,148 601,148 462,206 346,322 231,437 173,577 173,740 Z"/>
  </g>
 </defs>
 <defs class="TextEmbeddedBitmaps"/>
 <g class="SlideGroup">
  <g>
   <g id="container-id1">
    <g id="id1" class="Slide" clip-path="url(#presentation_clip_path)">
     <g class="Page">
      <g class="com.sun.star.drawing.ClosedBezierShape">
       <g id="id3">
        <rect class="BoundingBox" stroke="none" fill="none" x="163" y="178" width="7749" height="7748"/>
        <path fill="rgb(0,144,176)" stroke="none" d="M 7911,4052 C 7911,6191 6177,7925 4038,7925 1898,7925 164,6191 164,4052 164,1912 1898,178 4038,178 6177,178 7911,1912 7911,4052 Z"/>
       </g>
      </g>
      <g class="com.sun.star.drawing.ClosedBezierShape">
       <g id="id4">
        <rect class="BoundingBox" stroke="none" fill="none" x="171" y="178" width="3875" height="7748"/>
        <path fill="rgb(0,165,203)" stroke="none" d="M 4045,7925 C 1905,7925 171,6191 171,4052 171,1912 1905,178 4045,178 L 4045,7925 Z"/>
       </g>
      </g>
      <g class="com.sun.star.drawing.ClosedBezierShape">
       <g id="id5">
        <rect class="BoundingBox" stroke="none" fill="none" x="1391" y="2616" width="2337" height="3845"/>
        <path fill="rgb(255,255,255)" stroke="none" d="M 3700,3757 C 3671,3626 3625,3496 3582,3381 3584,3381 3528,3262 3522,3255 3443,3002 3287,2807 3042,2678 3120,2760 3172,2856 3197,2967 3198,2973 3201,2976 3208,2977 3285,2989 3339,3059 3329,3135 3319,3213 3250,3268 3172,3260 3104,3253 3053,3201 3045,3130 3038,3068 3079,3004 3141,2983 3144,2982 3148,2981 3152,2979 3132,2888 3093,2807 3034,2735 2997,2689 2954,2649 2903,2616 2800,2799 2698,2980 2595,3163 2497,2980 2400,2799 2302,2617 2282,2625 2263,2632 2244,2639 2238,2641 2233,2645 2228,2649 2177,2691 2138,2742 2108,2801 2076,2864 2057,2932 2049,3002 2046,3026 2045,3050 2043,3074 2046,3074 2048,3075 2050,3075 2071,3078 2090,3084 2109,3095 2150,3117 2179,3150 2202,3190 2241,3256 2258,3328 2261,3404 2261,3414 2258,3421 2250,3428 2238,3437 2227,3447 2218,3455 2219,3465 2222,3472 2221,3480 2220,3497 2208,3510 2193,3513 2177,3516 2161,3509 2153,3495 2144,3482 2146,3464 2157,3452 2168,3440 2184,3436 2200,3443 2203,3444 2206,3443 2208,3442 2217,3437 2224,3430 2233,3426 2241,3421 2243,3415 2243,3406 2242,3372 2237,3338 2229,3306 2225,3289 2220,3272 2213,3256 2207,3240 2199,3233 2188,3220 2185,3215 2181,3210 2178,3205 2169,3194 2158,3185 2148,3176 2133,3164 2109,3155 2091,3148 2024,3120 1942,3141 1888,3189 1831,3239 1818,3343 1817,3413 1817,3416 1819,3420 1821,3421 1829,3427 1838,3432 1845,3438 1850,3442 1854,3442 1859,3441 1879,3435 1899,3448 1904,3468 1908,3489 1895,3509 1875,3513 1855,3517 1835,3504 1831,3483 1829,3472 1833,3462 1839,3452 1827,3442 1815,3433 1804,3422 1801,3420 1799,3415 1799,3412 1802,3381 1803,3350 1809,3320 1820,3260 1842,3205 1880,3156 1909,3120 1944,3091 1989,3079 1995,3078 1996,3076 1996,3071 1998,3025 2004,2979 2014,2935 2036,2837 2078,2749 2151,2673 2146,2675 2143,2676 2140,2678 1987,2759 1866,2873 1778,3022 1744,3079 1717,3139 1695,3200 1611,3378 1550,3562 1497,3751 1433,3980 1226,4749 1660,4763 2031,4776 1871,4403 2056,3760 2059,3761 2061,3762 2064,3763 2064,3885 2064,4319 2064,4319 2030,4952 2015,5583 2022,6195 2023,6342 2143,6460 2290,6460 2681,6460 2500,6167 2600,4334 2698,6138 2522,6457 2908,6460 3062,6460 3177,6338 3179,6195 3185,5583 3171,4952 3137,4319 3137,4148 3105,3941 3142,3777 3169,3794 3189,3819 3209,3845 3223,3864 3237,3884 3240,3907 3246,3948 3216,3985 3189,4016 3169,4039 3148,4062 3123,4080 3054,4130 2956,4136 2900,4200 2864,4241 2853,4297 2844,4350 2826,4453 2887,4535 2991,4548 3204,4574 3417,4470 3572,4321 3647,4248 3714,4157 3724,4053 3733,3958 3721,3857 3700,3757 Z"/>
       </g>
      </g>
      <g class="com.sun.star.drawing.ClosedBezierShape">
       <g id="id6">
        <rect class="BoundingBox" stroke="none" fill="none" x="3133" y="3071" width="96" height="96"/>
        <path fill="rgb(255,255,255)" stroke="none" d="M 3133,3119 C 3133,3145 3155,3166 3181,3166 3207,3166 3228,3145 3228,3119 3228,3092 3207,3071 3181,3071 3155,3071 3133,3092 3133,3119 Z"/>
       </g>
      </g>
      <g class="com.sun.star.drawing.ClosedBezierShape">
       <g id="id7">
        <rect class="BoundingBox" stroke="none" fill="none" x="4988" y="1401" width="983" height="1091"/>
        <path fill="rgb(255,255,255)" stroke="none" d="M 5821,1566 C 5368,1065 4683,1823 5137,2326 5590,2827 6272,2070 5821,1566 Z"/>
       </g>
      </g>
      <g class="com.sun.star.drawing.ClosedBezierShape">
       <g id="id8">
        <rect class="BoundingBox" stroke="none" fill="none" x="2102" y="1408" width="959" height="1078"/>
        <path fill="rgb(255,255,255)" stroke="none" d="M 2572,2484 C 3157,2491 3240,1552 2685,1423 1986,1259 1876,2477 2572,2484 Z"/>
       </g>
      </g>
      <g class="com.sun.star.drawing.ClosedBezierShape">
       <g id="id9">
        <rect class="BoundingBox" stroke="none" fill="none" x="2208" y="3666" width="815" height="1163"/>
        <path fill="rgb(0,165,203)" stroke="none" d="M 2614,3698 C 2632,3698 2647,3712 2647,3731 2647,3749 2632,3763 2614,3763 2610,3763 2606,3763 2602,3761 2594,3758 2587,3751 2584,3743 2582,3739 2582,3735 2582,3731 2582,3726 2582,3722 2584,3718 2587,3710 2594,3704 2602,3700 2606,3699 2610,3698 2614,3698 Z M 3019,3910 C 3017,3902 3015,3895 3012,3889 3005,3873 2994,3859 2982,3848 2980,3847 2979,3846 2978,3845 2973,3840 2967,3836 2961,3833 2959,3832 2957,3831 2955,3830 2949,3827 2943,3824 2936,3822 2934,3822 2932,3821 2930,3820 2921,3818 2912,3817 2903,3817 L 2841,3817 C 2840,3811 2838,3805 2837,3800 2833,3788 2827,3778 2819,3769 2808,3755 2794,3745 2777,3738 2766,3734 2754,3732 2741,3732 L 2682,3732 C 2682,3730 2682,3729 2682,3727 2682,3693 2655,3666 2621,3666 L 2618,3666 2611,3666 2608,3666 C 2574,3666 2547,3693 2547,3727 2547,3729 2547,3730 2547,3732 L 2488,3732 C 2462,3732 2439,3741 2422,3756 2408,3768 2398,3783 2392,3800 2390,3805 2389,3811 2388,3817 L 2327,3817 C 2318,3817 2309,3818 2300,3820 2298,3821 2296,3822 2293,3822 2287,3824 2281,3827 2275,3830 2273,3831 2271,3832 2269,3833 2263,3836 2257,3840 2252,3845 2251,3846 2249,3847 2248,3848 2224,3869 2208,3901 2208,3936 L 2208,3968 2208,3992 2208,4219 2208,4709 C 2208,4758 2238,4800 2281,4818 2295,4824 2311,4828 2327,4828 L 2903,4828 C 2919,4828 2935,4824 2949,4818 2956,4815 2963,4812 2969,4807 2982,4799 2993,4788 3001,4775 3014,4756 3022,4733 3022,4709 L 3022,4219 3022,3992 3022,3968 3022,3936 C 3022,3927 3021,3918 3019,3910 Z"/>
       </g>
      </g>
      <g class="com.sun.star.drawing.ClosedBezierShape">
       <g id="id10">
        <rect class="BoundingBox" stroke="none" fill="none" x="2817" y="4085" width="321" height="456"/>
        <path fill="rgb(255,255,255)" stroke="none" d="M 3114,4103 C 3111,4097 3107,4093 3102,4089 3076,4074 3022,4105 2998,4117 2963,4134 2927,4152 2895,4176 2864,4201 2837,4233 2826,4270 2798,4361 2842,4465 2924,4508 2973,4534 3031,4540 3087,4539 3104,4539 3125,4536 3133,4520 3136,4513 3136,4505 3136,4497 3132,4390 3129,4282 3125,4175 3125,4156 3125,4124 3114,4103 Z"/>
       </g>
      </g>
      <g class="com.sun.star.drawing.ClosedBezierShape">
       <g id="id11">
        <rect class="BoundingBox" stroke="none" fill="none" x="4272" y="2663" width="2415" height="3798"/>
        <path fill="rgb(255,255,255)" stroke="none" d="M 6579,3751 C 6527,3562 6465,3378 6381,3200 6359,3139 6333,3079 6298,3022 6253,2946 6198,2876 6133,2816 6083,2770 6023,2722 5960,2691 5948,2680 5934,2671 5920,2663 5790,2962 5419,3139 5137,2827 5090,2774 5055,2719 5031,2663 4955,2692 4883,2749 4824,2804 4759,2864 4703,2934 4658,3010 4624,3067 4598,3127 4576,3188 4492,3366 4430,3550 4377,3739 4314,3968 4106,4737 4541,4751 4911,4764 4752,4391 4936,3748 4939,3749 4941,3750 4944,3751 L 4944,3819 C 4944,3820 4944,3821 4944,3823 4943,3831 4942,3839 4941,3847 4929,3996 4939,4167 4939,4319 4904,4952 4890,5583 4897,6195 4898,6338 5013,6460 5168,6460 5261,6459 5321,6440 5361,6386 5491,6232 5407,5744 5478,4381 5572,6171 5398,6460 5785,6460 5897,6460 5993,6392 6034,6295 6050,6261 6060,6223 6060,6183 6067,5571 6052,4940 6017,4307 6017,4155 6027,3984 6015,3835 6014,3827 6013,3819 6012,3811 6012,3809 6012,3808 6012,3807 L 6012,3763 C 6014,3762 6017,3761 6019,3760 6205,4403 6045,4776 6416,4763 6851,4749 6643,3980 6579,3751 Z"/>
       </g>
      </g>
     </g>
    </g>
   </g>
  </g>
 </g>
</svg>