<?xml version="1.0" encoding="UTF-8" standalone="no"?>
<!-- Created with Inkscape (http://www.inkscape.org/) -->

<svg
   xmlns:dc="http://purl.org/dc/elements/1.1/"
   xmlns:cc="http://creativecommons.org/ns#"
   xmlns:rdf="http://www.w3.org/1999/02/22-rdf-syntax-ns#"
   xmlns:svg="http://www.w3.org/2000/svg"
   xmlns="http://www.w3.org/2000/svg"
   xmlns:sodipodi="http://sodipodi.sourceforge.net/DTD/sodipodi-0.dtd"
   xmlns:inkscape="http://www.inkscape.org/namespaces/inkscape"
   width="85.080345"
   height="114.83308"
   id="svg2"
   version="1.1"
   inkscape:version="0.48.5 r10040"
   sodipodi:docname="tablet.svg">
  <defs
     id="defs4" />
  <sodipodi:namedview
     id="base"
     pagecolor="#ffffff"
     bordercolor="#666666"
     borderopacity="1.0"
     inkscape:pageopacity="0.0"
     inkscape:pageshadow="2"
     inkscape:zoom="0.35"
     inkscape:cx="-449.62523"
     inkscape:cy="-39.807769"
     inkscape:document-units="px"
     inkscape:current-layer="layer1"
     showgrid="false"
     inkscape:window-width="1366"
     inkscape:window-height="664"
     inkscape:window-x="-8"
     inkscape:window-y="-8"
     inkscape:window-maximized="1"
     fit-margin-top="0"
     fit-margin-left="0"
     fit-margin-right="0"
     fit-margin-bottom="0" />
  <metadata
     id="metadata7">
    <rdf:RDF>
      <cc:Work
         rdf:about="">
        <dc:format>image/svg+xml</dc:format>
        <dc:type
           rdf:resource="http://purl.org/dc/dcmitype/StillImage" />
        <dc:title></dc:title>
      </cc:Work>
    </rdf:RDF>
  </metadata>
  <g
     inkscape:label="Layer 1"
     inkscape:groupmode="layer"
     id="layer1"
     transform="translate(-464.51204,-636.9356)">
    <path
       inkscape:connector-curvature="0"
       id="path2997"
       d="m 468.48172,751.1997 c -3.29187,-0.87983 -3.88933,-5.00972 -3.88933,-26.88456 -0.18078,-42.42292 0,6.81249 0,-53.9059 0,-18.23549 0.37842,-28.28348 1.12707,-29.92658 0.99534,-2.18455 1.95951,-2.55161 8.25,-3.14078 3.91761,-0.36693 21.79155,-0.51246 39.71986,-0.32341 25.76722,0.2717 32.94328,0.63127 34.25,1.71616 1.50029,1.24561 1.65307,6.39274 1.65307,55.6933 l 0,54.32085 -2.22251,1.55671 c -1.92322,1.34707 -7.27597,1.54108 -39.75,1.4407 -20.64012,-0.0638 -38.25229,-0.30972 -39.13816,-0.54649 z m 42.4556,-6.29426 c 0,-2.84738 -3.12517,-4.34796 -4.73594,-1.76478 -0.85881,1.37725 -1.05224,2.8389 0.10937,3.57867 2.21128,1.40826 4.62657,0.91832 4.62657,-1.81389 z m 31.65507,-54.04325 0,-47 -35,0 -35,0 0,47 0,47 35,0 35,0 z"
       style="fill:#282728"
       sodipodi:nodetypes="sccssssscsssssssccccccccc" />
  </g>
</svg>
