<?xml version="1.0" encoding="UTF-8" standalone="no"?>
<svg
   xmlns:dc="http://purl.org/dc/elements/1.1/"
   xmlns:cc="http://creativecommons.org/ns#"
   xmlns:rdf="http://www.w3.org/1999/02/22-rdf-syntax-ns#"
   xmlns:svg="http://www.w3.org/2000/svg"
   xmlns="http://www.w3.org/2000/svg"
   version="1.1"
   id="svg68783"
   viewBox="0 0 439.37008 389.76377"
   height="110mm"
   width="124mm">
  <defs
     id="defs68785" />
  <metadata
     id="metadata68788">
    <rdf:RDF>
      <cc:Work
         rdf:about="">
        <dc:format>image/svg+xml</dc:format>
        <dc:type
           rdf:resource="http://purl.org/dc/dcmitype/StillImage" />
        <dc:title></dc:title>
      </cc:Work>
    </rdf:RDF>
  </metadata>
  <g
     transform="translate(-49.04553,-275.72261)"
     id="layer1">
    <g
       transform="translate(785.71429,45.714286)"
       id="g69342">
      <g
         transform="translate(869.81961,236.45582)"
         id="g69490">
        <g
           transform="translate(15.747196,-7.1578164)"
           id="g69501">
          <path
             id="path69475"
             d="m -1510.695,13.115745 4.1389,31.477057 -40.0178,-7.5272 18.6302,24.635772 -35.1892,3.420642 -8.9693,4.790688 40.7077,10.947838 -28.2875,16.42266 -35.1893,17.792708 31.7384,-2.05418 6.8999,0 -9.6591,15.73853 -22.7691,33.53123 58.6463,-24.63398 -16.559,21.21155 23.4588,-17.10679 26.2203,-6.84337 3.4487,-18.47474 13.1099,-28.056412 6.2101,-12.317885 -11.0405,-20.527426 -13.1082,-23.94986 z m 221.4805,2.738303 -32.43,60.901728 -5.5184,2.052383 4.1388,3.420642 14.4896,27.372289 8.9693,25.31811 13.7997,3.42243 32.4282,21.89747 -12.4184,-19.16095 7.5897,0 44.8483,19.84509 -4.8304,-13.68614 -27.5996,-30.79294 4.1408,-3.42243 33.8077,4.10656 -31.7384,-21.897471 -29.6689,-14.370277 48.9889,-14.370267 -28.979,-3.420642 -23.4589,-2.052383 21.3894,-26.004033 -19.32,2.052385 -20.6997,8.211328 z"
             style="fill:#8b8b8b;fill-opacity:1;fill-rule:evenodd;stroke:none;stroke-width:1px;stroke-linecap:butt;stroke-linejoin:miter;stroke-opacity:1" />
          <path
             id="path69488"
             d="m -1440.3182,262.8815 -13.7993,-6.1586 -6.2098,4.10574 -46.2279,10.26432 -17.9392,4.79002 -31.0486,28.05583 -6.8997,5.47431 13.7994,17.7915 28.2887,33.53013 47.6079,17.10722 41.3981,2.73715 60.7173,-0.68429 22.7689,-5.47431 32.4286,-10.26433 32.4285,-12.31718 33.1185,-23.95011 14.4893,-20.52864 -37.2583,-27.37155 -28.2887,-11.63291 -29.6686,-13.00147 -15.1794,-1.36858 -8.9695,8.21146 8.2796,52.00592 -10.3496,-3.42144 -19.3191,45.84733 -7.5896,10.26433 -34.4985,0 -18.6291,-57.48023 -15.1793,6.84288 6.2097,-30.79298 3.4498,-14.37006 z"
             style="fill:#ffffff;fill-opacity:1;fill-rule:evenodd;stroke:none;stroke-width:1px;stroke-linecap:butt;stroke-linejoin:miter;stroke-opacity:1" />
          <path
             id="path69469"
             d="m -1443.768,52.804929 -32.4285,30.792983 -17.9392,39.688738 -2.0699,11.6329 -10.3496,3.42144 -15.1793,4.10573 -9.6596,22.58152 4.1398,19.16008 11.7295,10.94862 10.3496,4.79002 11.7294,2.05286 13.7994,18.4758 28.9787,36.26728 13.1094,7.52718 24.1489,8.21145 2.7599,5.47431 10.3495,6.84289 5.5198,-2.05287 13.7993,-10.26433 2.7599,-1.36857 21.389,-9.58003 38.6383,-36.95159 10.3495,-20.52865 16.5593,-1.36858 18.6291,-13.68577 4.1398,-30.10869 -9.6595,-15.05435 -13.1094,-8.21146 -8.2797,-0.68429 -16.5592,-43.11017 -35.8784,-36.951581 -32.4285,-8.89575 -41.3981,2.052865 z"
             style="fill:#ebbea8;fill-opacity:1;fill-rule:evenodd;stroke:none;stroke-width:1px;stroke-linecap:butt;stroke-linejoin:miter;stroke-opacity:1" />
          <path
             id="path69482"
             d="m -1396.8501,112.33803 -15.1794,-17.107215 -17.2492,-5.474305 -21.389,6.842885 -13.7994,21.212945 -1.3799,21.89723 3.4498,21.21294 8.9696,20.52866 10.3496,5.4743 2.0699,-15.05434 13.7994,-23.26581 20.699,-6.84289 14.4893,0 18.6292,6.1586 12.4194,17.10721 4.8298,11.63291 3.4499,10.94861 9.6595,-4.10573 13.7994,-22.58152 2.0699,-21.89723 -0.69,-21.21294 -15.1793,-21.212945 -12.4194,-7.527174 -18.6292,3.421448 -15.1793,10.264321 -4.1398,8.89575 z"
             style="fill:#ffffff;fill-opacity:1;fill-rule:evenodd;stroke:none;stroke-width:1px;stroke-linecap:butt;stroke-linejoin:miter;stroke-opacity:1" />
          <path
             id="path69473"
             d="m -1286.4552,227.29849 38.6383,27.37155 -19.3191,2.05286 -11.7295,6.84289 -24.1489,-2.05286 -35.8784,-11.63291 -8.9696,3.42144 -8.9696,-2.05286 -11.0395,-6.84289 -7.5896,3.42144 -4.1398,0 -8.9696,-2.05286 -8.2796,-6.1586 -10.3496,2.05286 -15.8693,5.47431 -8.2796,0 -24.1489,6.1586 -14.4893,-0.68429 -15.1793,3.42145 -25.5289,4.79002 -15.8693,0 -23.459,-5.47431 26.2189,-19.84437 33.8085,-13.68577 48.2978,0 9.6596,-0.68429 11.0395,9.58004 17.9391,5.4743 12.4195,0.68429 24.8388,-12.31719 28.2888,-4.10572 31.7385,2.73715 z"
             style="fill:#8b8b8b;fill-opacity:1;fill-rule:evenodd;stroke:#000000;stroke-width:0.92074448px;stroke-linecap:butt;stroke-linejoin:miter;stroke-opacity:1" />
          <path
             id="path69484"
             d="m -1441.0081,264.25008 -11.7295,51.32163 15.8693,-6.84288 17.2492,58.16452 10.3495,8.89575 24.1489,-2.05287 8.2797,-21.21294 20.009,-43.11017 11.0395,5.4743 -11.0395,-50.63734 -6.2097,2.05286 -20.0091,4.79002 -11.7294,13.00148 -3.4499,2.73716 -6.8997,-2.73716 -5.5197,-8.21146 -3.4499,-2.05287 -15.8692,-7.52717 z"
             style="fill:#009fc5;fill-opacity:1;fill-rule:evenodd;stroke:none;stroke-width:1px;stroke-linecap:butt;stroke-linejoin:miter;stroke-opacity:1" />
          <path
             id="path69486"
             d="m -1401.6799,286.14731 -13.7994,10.26433 -0.69,23.2658 4.8298,10.26433 -5.5197,37.63587 1.3799,13.68577 26.2188,2.05287 12.4194,-4.79002 -8.9695,-34.89872 -3.4499,-18.47579 6.8997,-13.68577 -1.3799,-13.68577 -7.5897,-6.15859 -3.4498,-3.42145 -4.1399,-2.05286 z"
             style="fill:#be0000;fill-opacity:1;fill-rule:evenodd;stroke:none;stroke-width:1px;stroke-linecap:butt;stroke-linejoin:miter;stroke-opacity:1" />
          <path
             id="path69467"
             d="m -1419.8442,380.95689 c -0.06,-0.37824 -0.1955,-3.57609 -0.3005,-7.10633 -0.1049,-3.53025 -0.8215,-7.86282 -1.5923,-9.62794 -0.7709,-1.76513 -2.3567,-6.30401 -3.5242,-10.08642 -1.986,-6.43459 -2.588,-8.23486 -5.5186,-16.50503 -0.6254,-1.76513 -1.5383,-4.84357 -2.0286,-6.841 -0.4903,-1.99743 -1.2376,-4.06056 -1.6608,-4.58474 -0.4232,-0.52417 -1.0565,-2.39723 -1.4074,-4.16236 -0.8308,-4.17948 -3.1277,-9.16946 -4.2209,-9.16946 -0.4731,0 -3.1673,1.23788 -5.987,2.75084 -2.8197,1.51296 -5.7414,2.75084 -6.4927,2.75084 -1.7937,0 -1.8132,-5.57883 -0.046,-13.14523 3.1468,-13.47317 4.2663,-18.84956 5.0912,-24.44958 0.4829,-3.27809 1.3182,-7.40162 1.8562,-9.16342 1.4605,-4.78304 1.1924,-8.69893 -0.7127,-10.40882 -0.93,-0.83465 -2.1586,-1.51753 -2.7305,-1.51753 -1.1586,0 -4.8243,7.61955 -4.8243,10.02771 -0.7463,4.81472 -5.3417,9.50691 -5.518,14.32535 -0.016,1.03833 -0.6402,2.68884 -1.3868,3.66779 -0.7466,0.97895 -1.3707,2.34814 -1.3869,3.04265 -0.027,1.14891 -2.8837,7.50906 -8.906,19.82703 -3.8788,7.93347 -7.7579,14.55129 -10.5836,18.05593 -2.6899,3.33609 -3.4344,5.32621 -1.9926,5.32621 0.405,0 1.5491,0.62769 2.5425,1.39486 0.9933,0.76717 5.8027,3.98544 10.6875,7.15171 4.8849,3.16628 11.7497,7.98344 15.2552,10.7048 8.2529,6.40672 26.3154,23.91799 25.6962,24.91179 -1.2451,1.99807 -4.6169,0.24207 -10.4114,-5.42217 -13.0186,-12.72613 -27.9549,-24.04826 -44.7759,-33.94133 -4.2796,-2.51702 -6.2026,-4.43816 -6.2026,-6.19672 0,-0.18157 1.9763,-2.57635 4.3917,-5.32175 2.4154,-2.7454 5.5525,-7.20514 6.9713,-9.91053 1.4188,-2.7054 2.9532,-5.53784 3.4099,-6.29433 0.4566,-0.75648 1.655,-3.23223 2.6629,-5.50168 1.0079,-2.26944 2.6706,-5.98307 3.6949,-8.25251 4.7776,-10.58534 6.6085,-14.9801 6.6374,-15.93143 0.018,-0.56764 0.8353,-2.68259 1.8178,-4.69987 0.9825,-2.01729 1.8005,-4.36553 1.8178,-5.21833 0.018,-0.85279 0.4474,-1.80556 0.9559,-2.11725 0.5085,-0.31168 0.9245,-1.40044 0.9245,-2.41946 0,-1.74065 -0.3776,-1.81319 -6.2407,-1.19884 -3.4325,0.35965 -8.113,1.21327 -10.4013,1.89695 -13.716,3.9504 -31.8763,3.9324 -44.6727,8.69302 -4.4152,1.67571 -7.4668,4.31346 -23.2842,20.12611 -16.2928,16.2881 -18.3878,18.0832 -19.9641,17.10685 -3.9121,-2.42304 -2.2848,-4.71985 16.4398,-23.20361 10.0105,-9.88175 19.1636,-18.32984 20.3403,-18.77351 3.5431,-1.33599 2.4177,-2.68509 -2.2523,-2.70002 -5.6746,-0.0181 -6.5031,-0.62647 -6.8653,-5.04107 -0.2818,-3.43289 -0.4693,-3.64478 -3.0737,-3.47384 -1.5256,0.10012 -4.2299,0.58375 -6.0097,1.07473 -5.4332,1.49883 -14.8092,2.80572 -16.2353,2.263 -0.7409,-0.28201 -1.6108,-1.55409 -1.9329,-2.82686 -0.4768,-1.8842 0.083,-2.94148 3.0129,-5.69086 3.6576,-3.43234 23.7175,-18.40136 26.25,-19.58831 0.7628,-0.35748 2.635,-1.4424 4.1605,-2.41091 7.9441,-5.04355 23.5055,-11.97306 26.8876,-11.97306 0.6831,0 3.5687,-0.86332 6.4122,-1.91849 5.1197,-1.89973 5.1562,-1.93977 3.733,-4.094 -0.7905,-1.19653 -1.4373,-2.75332 -1.4373,-3.45953 0,-0.70622 -0.8623,-2.37124 -1.9162,-3.70005 -1.4161,-1.78541 -2.7583,-2.41602 -5.1425,-2.41602 -7.7566,0 -20.0421,-6.20105 -25.1378,-12.68818 -3.8901,-4.9523 -5.6762,-8.92767 -7.6889,-17.11259 -1.7245,-7.0128 -1.7359,-7.61089 -0.2585,-13.59292 2.0043,-8.11613 0.9697,-9.46339 -3.9563,-5.15141 -1.933,1.6921 -4.4933,3.91973 -5.6897,4.95028 -1.1964,1.03056 -3.2188,2.82489 -4.4943,3.98738 -1.6143,1.47138 -3.2009,2.02864 -5.2213,1.8339 -4.5009,-0.43385 -4.3415,-3.83218 0.4218,-8.99074 9.6674,-10.46957 10.3408,-13.14685 2.4364,-9.68648 -2.6597,1.16435 -7.7481,3.23337 -11.3077,4.59782 -7.6466,2.93115 -8.9606,3.50948 -22.0026,9.68449 -9.583,4.53723 -10.0744,4.66774 -12.2504,3.25368 -4.0112,-2.60661 -2.7758,-5.33509 7.4527,-16.45905 0.515,-0.56012 3.2087,-3.90678 5.9861,-7.43702 2.7773,-3.53025 6.16,-7.65651 7.5173,-9.16947 1.3572,-1.51296 4.452,-5.02028 6.8774,-7.79405 2.4254,-2.77376 4.7581,-5.18074 5.1836,-5.34885 0.4254,-0.16811 0.7736,-1.09652 0.7736,-2.06313 0,-2.23926 -1.5638,-2.22725 -9.9458,0.0764 -3.6701,1.00865 -8.0819,1.8339 -9.8042,1.8339 -1.7223,0 -4.9003,0.61894 -7.0622,1.37542 -2.1619,0.75648 -4.9391,1.37542 -6.1718,1.37542 -1.2326,0 -3.4181,0.6037 -4.8568,1.34154 -3.9091,2.00482 -7.4455,0.17231 -7.4553,-3.86315 1.4017,-6.16605 22.7717,-14.77052 29.3187,-18.90736 8.9475,-5.718456 31.6377,-17.082786 34.1077,-17.082786 0.707,0 1.2854,-0.562877 1.2854,-1.250844 0,-1.368121 -5.487,-3.708819 -12.0192,-5.127253 -9.4498,-2.05198 -15.6477,-3.540936 -18.599,-4.468134 -1.7205,-0.540513 -6.5953,-1.265909 -10.833,-1.611974 -6.7788,-0.553588 -7.8191,-0.877683 -8.6546,-2.69641 -0.6504,-1.415646 -0.6496,-2.59903 0,-3.75463 1.6531,-2.929507 16.9934,-4.822827 39.5479,-4.881044 10.7211,-0.02769 19.7591,-0.314357 20.0845,-0.637067 0.8979,-0.890539 -4.4199,-7.149191 -13.9207,-16.383801 -4.7037,-4.571869 -8.5522,-8.955556 -8.5522,-9.741528 0,-0.785971 0.8098,-2.155759 1.7993,-3.043974 1.8984,-1.70389 1.975,-1.69653 15.3051,1.471498 2.034,0.483408 5.9865,1.213166 8.7833,1.621685 2.7968,0.40852 6.9971,1.279211 9.3341,1.934871 6.6701,1.871356 7.2839,1.261293 5.7121,-5.67855 -2.3047,-10.176476 -2.4965,-14.908916 -0.7133,-17.607963 2.3611,-3.5737643 4.2032,-2.9372732 8.3187,2.874323 4.1036,5.794715 12.2471,18.907769 13.5123,21.758048 0.4476,1.008641 1.2211,2.452832 1.7188,3.209313 1.7948,2.728175 9.4924,16.088128 10.3021,17.880456 2.5689,5.685656 7.2917,12.878818 8.6306,13.144851 0.8695,0.172744 3.6679,-1.636236 6.3829,-4.126259 15.5871,-14.294797 29.7766,-21.373844 51.0481,-25.467648 12.597,-2.424371 31.009,-1.009742 44.8639,3.44699 14.8739,5.129429 27.8836,13.883564 39.4956,24.384454 1.684,1.556655 3.4166,2.830284 3.85,2.830284 0.7791,0 5.8242,-7.629078 7.5157,-11.365177 0.4807,-1.061796 2.3404,-4.406304 4.1325,-7.432226 4.8593,-8.487019 9.9833,-17.807141 14.6385,-25.488644 2.7064,-4.717289 5.889,-9.820279 8.8839,-13.772036 3.8322,-5.0418762 6.3806,-5.5251502 8.1562,-1.546728 1.1837,2.652081 0.5405,8.875642 -2.2981,22.23924 -0.6404,3.014322 -0.3591,3.041679 7.0706,0.68771 3.1835,-1.008641 6.711,-1.833893 7.8389,-1.833893 1.696,0 12.4493,-2.151223 21.5211,-4.30532 2.5829,-0.613308 4.8539,1.139557 4.8325,3.729885 -0.01,1.23558 -3.9258,5.940669 -10.6793,12.832764 -6.4197,6.551459 -10.5481,11.477593 -10.3741,12.378777 0.2538,1.314791 3.0429,1.574892 22.9296,2.138283 20.7447,0.587689 32.8409,1.860521 35.8157,3.768696 1.5499,0.994199 1.4642,3.863875 -0.1635,5.478261 -0.7765,0.770051 -4.2952,1.569189 -8.5522,1.942322 -3.9781,0.348678 -9.3132,1.217705 -11.8557,1.931163 -2.5425,0.713467 -8.3673,2.155814 -12.9438,3.205223 -11.0326,2.529773 -16.1798,4.448842 -16.1798,6.032427 0,0.714769 0.6146,1.299579 1.3657,1.299579 1.7185,0 31.4117,15.00546 35.153,17.764556 2.3747,1.75133 12.3302,7.69486 23.3845,13.96072 3.9403,2.23351 4.7918,5.38398 2.1605,7.9937 -1.8931,1.87739 -2.0962,1.89555 -4.9754,0.44462 -1.6509,-0.83199 -6.9541,-2.20317 -11.7849,-3.04705 -4.8309,-0.84389 -12.1934,-2.37205 -16.3611,-3.39593 -7.8145,-1.91973 -11.1512,-1.73957 -9.8089,0.52958 0.6445,1.08942 9.9876,11.65379 14.2002,16.05622 0.79,0.82558 3.6711,4.38944 6.4025,7.91969 2.7315,3.53024 5.4136,6.83125 5.9602,7.33557 3.5256,3.25268 8.1214,10.09898 8.554,12.7428 0.4188,2.55963 0.1503,3.31797 -1.4815,4.18408 -1.7006,0.90267 -3.4454,0.37192 -11.8945,-3.61836 -6.3487,-4.09937 -14.4527,-6.29697 -20.8159,-9.02005 -2.1332,-0.91942 -5.7509,-2.4081 -8.0391,-3.30818 -2.2883,-0.90007 -5.3055,-2.23478 -6.705,-2.966 -1.3994,-0.73123 -2.9671,-1.0704 -3.4839,-0.7537 -1.1544,0.70759 1.001,3.76216 7.3441,10.40844 4.7537,4.98086 5.5943,7.11771 3.5844,9.11109 -2.4394,2.41935 -5.5587,1.11913 -12.7589,-5.31829 -3.9485,-3.53024 -7.6441,-6.41862 -8.2124,-6.41862 -0.7077,0 -1.0332,3.71832 -1.0332,11.80374 0,13.14103 -1.0271,16.77173 -7.0807,25.03056 -5.6251,7.67424 -17.5929,13.59776 -27.4725,13.59776 -3.1595,0 -3.4396,0.26659 -6.0203,5.72893 -1.4886,3.15091 -2.5235,6.02263 -2.2999,6.38161 0.2237,0.35899 2.7849,1.33518 5.6915,2.16933 10.9397,3.13957 21.7419,7.642 30.2477,12.60752 7.9305,4.62966 33.3109,23.84743 34.0635,25.79249 0.7212,1.8639 -0.1626,4.02842 -2.0439,5.00593 -1.596,0.82927 -14.6899,-0.93084 -20.1013,-2.70205 -3.9157,-1.28171 -4.9841,-0.61446 -4.9841,3.11308 0,5.70045 -3.538,6.4318 -16.1797,3.34449 -7.2704,-4.06775 -12.8741,1.60579 -8.1337,1.82798 0.7571,0 2.4807,0.5582 3.8305,1.24043 1.3498,0.68224 4.9504,2.45922 8.0014,3.94886 18.2023,8.88705 20.8283,10.66224 31.5459,21.32454 10.896,10.83985 12.2328,13.24771 8.6028,15.49595 -1.7475,1.08238 -2.2575,0.79546 -5.7213,-3.21797 -5.4846,-6.35489 -15.3412,-15.62897 -19.6345,-18.47393 -2.034,-1.34787 -9.5229,-5.2802 -16.642,-8.73852 -7.1191,-3.45832 -13.5679,-6.65582 -14.3307,-7.10555 -10.8338,-2.66162 -24.6135,-12.95167 -33.969,-13.64327 -1.1993,0 -3.4156,-0.63337 -4.9249,-1.40749 -2.4698,-1.26664 -2.7992,-1.2659 -3.2919,0.007 -0.301,0.7782 0.083,2.75261 0.854,4.38756 0.7708,1.63496 2.7366,5.86103 4.3685,9.39128 1.632,3.53024 4.131,8.89438 5.5534,11.9203 1.4224,3.02592 3.9178,8.39006 5.5453,11.92031 1.6275,3.53024 3.9523,8.52157 5.1663,11.09183 1.2139,2.57027 2.2072,5.61555 2.2072,6.7673 0,1.44211 -3.5502,5.69674 -11.4029,13.66571 -6.2715,6.36441 -12.4083,12.74874 -13.6372,14.18742 -1.2289,1.43867 -3.0665,3.51853 -4.0835,4.62192 -1.017,1.10338 -4.1332,4.98096 -6.9247,8.61683 -2.7916,3.63586 -5.3919,6.61067 -5.7785,6.61067 -0.3866,0 -0.7029,0.56841 -0.7029,1.26315 0,0.69472 -0.6283,1.78033 -1.3964,2.41246 -0.7679,0.63212 -3.2962,3.98365 -5.6183,7.44784 -4.0874,6.0977 -6.3849,7.66001 -7.4014,5.03292 -0.3949,-1.02057 7.7642,-14.4245 9.8345,-16.15637 0.3014,-0.25216 3.6176,-4.33777 7.3691,-9.07912 9.6966,-12.25493 20.8996,-24.61923 30.2654,-33.40296 4.5703,-4.28619 5.9496,-7.1702 4.0005,-8.36486 -4.1568,-7.78434 -7.54,-16.39968 -10.3972,-22.5087 -1.5355,-3.27808 -3.6212,-7.81697 -4.635,-10.08641 -1.0138,-2.26944 -3.0548,-6.50489 -4.5357,-9.41211 -1.4809,-2.90721 -2.7064,-5.7956 -2.7234,-6.41862 -0.04,-1.48116 -3.2332,-5.25904 -4.445,-5.25904 -0.5187,0 -2.3959,0.92841 -4.1713,2.06313 -3.6236,2.31602 -4.8338,6.17455 -3.8481,12.26926 0.7176,4.43662 3.8693,19.60005 5.2162,25.09631 0.5561,2.26944 1.3627,6.60202 1.7924,9.62794 0.4297,3.02592 1.0543,6.83796 1.3881,8.47119 0.4694,2.29581 0.2574,3.10256 -0.9338,3.55591 -1.6531,0.62915 -7.893,-2.11233 -9.1131,-4.00382 -1.4592,-2.26196 -3.1145,-1.06572 -5.1002,3.68551 -1.1106,2.65743 -2.0192,5.54582 -2.0192,6.41863 0,0.87281 -0.3655,1.58693 -0.8121,1.58693 -0.4467,0 -1.2488,1.54735 -1.7826,3.43855 -1.4001,4.96104 -3.7446,11.43754 -4.8086,13.28328 -0.5047,0.87573 -0.9319,2.1136 -0.9491,2.75084 -0.018,0.63725 -0.8352,2.80913 -1.8178,4.82642 -0.9825,2.01728 -1.8004,4.19808 -1.8177,4.84622 -0.018,0.64815 -0.7101,2.20577 -1.5396,3.46137 -1.7721,2.6823 -1.9338,10.1247 -0.3469,15.96942 0.8628,3.1777 0.8327,4.10394 -0.1538,4.72417 -1.9389,1.21914 -2.6004,0.9542 -3.5043,-1.40371 -0.4645,-1.21181 -1.2863,-2.47404 -1.8262,-2.80496 -3.8842,-13.36039 -4.8385,-29.21739 -8.273,-40.62649 -5.8335,-5.54758 -12.0175,-3.52635 -19.7519,-3.01247 -0.3814,0.027 -0.6934,1.24278 -0.6934,2.70178 0,1.51212 -0.5964,2.87968 -1.3869,3.18054 0.1939,10.514 -4.1385,27.50143 -4.1605,37.23444 0,7.244 -0.038,7.36434 -2.3114,7.36434 -1.2713,0 -2.3607,-0.30947 -2.4209,-0.68771 z m 1.3262,-25.6745 c 0.2207,-0.37824 0.6865,-6.25816 1.0351,-13.06649 1.78,-10.9635 -3.1753,-28.18186 -3.1763,-30.7617 0,-7.48668 -0.9554,-8.90241 -4.0574,-6.01223 -4.1057,2.71687 -6.9181,3.82685 -8.8864,7.17412 0,0.9575 0.6109,2.54186 1.3575,3.52081 1.5036,4.73645 3.6156,9.9118 4.6521,14.15869 1.3646,6.41216 5.5939,15.49356 6.3868,21.10577 0.5541,4.14228 1.6301,5.69545 2.6886,3.88103 z m 42.2051,-6.58759 c 2.5968,-9.64842 7.0544,-21.33613 11.1272,-29.16308 1.017,-1.8819 1.8419,-4.45932 1.8331,-5.72759 -0.3975,-3.5056 -10.7949,-10.04761 -13.8433,-10.09999 -2.7229,0 -2.7827,0.0986 -2.7827,4.58473 -2.6741,7.17255 -7.3,14.37003 -4.2968,23.40735 0.6877,0.99478 1.5246,4.28444 1.8595,7.31037 0.5798,5.2379 3.0038,11.46183 4.4641,11.46183 0.375,0 1.1124,-0.79813 1.6388,-1.77362 z m -11.0622,-41.32287 c -0.6173,-8.06074 -5.9615,-18.27599 -13.6371,-18.33893 -3.0671,0 -4.2119,0.6884 -8.8124,5.29903 l -5.2872,5.29903 0,7.74087 c -0.9061,6.80982 0.7458,8.4883 5.2872,13.0399 4.5604,4.57057 5.7616,5.29903 8.7374,5.29903 10.8657,-1.16937 13.704,-12.6978 13.7121,-18.33893 z m -56.7323,1.37542 c 10.9304,-6.59591 19.9905,-9.66822 33.0046,-21.54825 2.2235,0 2.9643,-2.50593 1.2976,-4.38965 -0.7644,-0.86377 -1.675,-2.49891 -2.0236,-3.63363 -0.3487,-1.13472 -1.3453,-2.06313 -2.2147,-2.06313 -4.9633,-2.54827 -13.025,-7.48799 -18.4336,-8.48156 -1.382,-0.23569 -3.2311,-0.73368 -4.1092,-1.10662 -1.2089,-0.51348 -1.8541,-0.0442 -2.6577,1.93345 -2.7462,8.68161 -5.2744,18.10991 -6.0776,26.57578 -0.3158,3.46224 -1.1367,7.10889 -1.8243,8.10367 -1.9406,2.80783 -1.6071,5.98536 0.6281,5.98536 1.033,0 2.1176,-0.61894 2.4104,-1.37542 z m 92.4102,-6.60807 c -0.3494,-3.38228 -0.99,-6.58013 -1.4236,-7.10634 -1.1943,-7.97613 -4.6713,-16.14715 -4.6678,-23.8804 0,-5.93067 -0.5845,-6.15158 -7.1164,-2.6898 -2.4423,1.29438 -6.4666,2.59559 -8.9429,2.89157 -4.0461,0.48362 -5.19,1.20473 -11.2852,7.11397 l -6.7827,6.57579 5.3023,5.20378 c 2.8563,3.90331 28.8158,17.63067 33.3443,17.96863 2.1758,0.0713 2.1987,-0.017 1.5726,-6.0772 z m -43.077,-21.92397 c 5.7014,-5.10848 5.1134,-5.85346 -4.6201,-5.85346 -6.4691,0 -8.3211,0.28237 -8.3211,1.26872 0,1.39537 6.8515,7.90075 8.3211,7.90075 0.5055,0 2.5846,-1.49221 4.6201,-3.31601 z m -113.1131,-12.73056 c 1.8256,-0.75648 4.5403,-1.37542 6.0328,-1.37542 3.7638,0 11.2576,-1.92953 12.0317,-3.09795 1.9321,-2.91618 -4.2792,-4.33778 -8.4993,-1.94525 -1.2712,0.72073 -3.1913,1.32506 -4.2669,1.34292 -1.0756,0.0179 -3.0135,0.85775 -4.3064,1.86639 -1.5655,1.22133 -3.7506,1.83389 -6.542,1.83389 -6.3876,0 -6.7061,2.49932 -0.3413,2.67845 1.4147,0.0398 4.0658,-0.54655 5.8914,-1.30303 z m 128.0337,-0.0741 c 11.216,-3.27763 19.6031,-6.72942 24.1446,-9.93694 3.0856,-2.1792 3.2406,-3.28282 0.4623,-3.29037 -1.1441,-0.003 -3.2455,-0.60842 -4.6696,-1.34515 -4.7492,-2.45679 -8.6509,-3.15482 -10.0265,-1.79381 -2.8677,2.83732 -20.3674,-2.43833 -26.2752,-7.9212 -2.3737,-2.20303 -5.2064,-2.26923 -7.1367,-0.16679 -3.1127,3.3904 -14.1677,8.06167 -20.7896,8.78464 -4.0609,0.44336 -5.0455,0.25634 -5.9143,-1.12343 -1.0715,-1.70149 -2.1604,-1.47835 -8.1975,1.67988 -0.7795,0.40775 -2.7557,1.03293 -4.3917,1.3893 -1.636,0.35636 -2.9744,0.9803 -2.9744,1.38656 0,2.25879 12.88,8.24148 26.3499,12.23939 6.709,1.99126 32.7186,2.05587 39.4187,0.0979 z m -92.1962,-6.84752 c 5.195,-0.92586 6.9979,-2.17005 5.4167,-3.73817 -1.5105,-1.49802 -7.4675,-0.15087 -8.8182,1.99421 -0.7654,1.21556 -2.1656,1.79297 -4.3709,1.80251 -2.4712,0.0107 -2.914,0.23214 -1.8578,0.92888 0.7628,0.50315 2.2189,0.66907 3.2359,0.36872 1.0171,-0.30036 3.8945,-0.91062 6.3943,-1.35615 z m -38.2915,-3.33916 c 1.2713,-0.65437 3.1435,-1.20543 4.1605,-1.22457 11.2905,-1.63919 19.0028,-8.95316 28.149,-11.8968 2.873,0 4.6132,2.47924 2.3458,3.34213 -1.9689,0.74931 -1.693,3.0765 0.3647,3.0765 0.9547,0 2.2538,-0.61894 2.8869,-1.37542 0.633,-0.75648 1.6666,-1.37542 2.2969,-1.37542 1.304,0 15.2722,-6.98193 16.6103,-8.3026 1.3391,-1.32164 2.1925,-1.05226 3.3271,1.05022 1.0962,2.03135 -0.3481,7.25238 -2.0062,7.25238 -0.4468,0 -0.8124,0.61894 -0.8124,1.37542 0,1.78304 3.7022,1.80084 6.0641,0.0292 0.987,-0.74044 2.5099,-1.35937 3.3841,-1.37542 1.4573,-0.0267 7.5487,-2.64909 10.8921,-4.68905 0.7627,-0.46539 2.3229,-1.24759 3.4671,-1.73823 1.1441,-0.49063 2.0802,-1.34105 2.0802,-1.8898 0,-0.5731 1.2771,-0.87545 3.0008,-0.71041 2.5205,0.24135 3.0785,0.7276 3.4863,3.03818 0.4069,2.30484 0.8572,2.69985 2.7777,2.43637 1.2608,-0.17295 2.949,-0.89505 3.7518,-1.60466 0.8028,-0.7096 2.1404,-1.29019 2.9724,-1.29019 0.8319,0 1.9356,-0.784 2.4527,-1.74223 1.0223,-1.89448 -0.243,-2.8425 -3.7939,-2.8425 -2.1284,0 -14.6478,-7.14266 -14.6478,-8.35702 0,-0.44684 -0.7281,-0.81845 -1.618,-0.82579 -0.8898,-0.007 -3.4902,-0.69161 -5.7784,-1.52061 -6.1205,-2.21731 -49.3796,-2.19441 -55.3586,0.0294 -2.2251,0.82755 -5.37,1.50464 -6.9886,1.50464 -6.8644,1.52592 -13.3038,4.66431 -19.4762,7.47479 -2.5426,1.15438 -6.0807,3.14265 -7.8624,4.41838 -1.7818,1.27573 -3.9393,2.73213 -4.7945,3.23645 -0.8551,0.50432 -4.5811,2.98008 -8.2798,5.50168 l -6.7251,4.58473 3.374,0.2813 c 1.8557,0.15472 4.6265,-0.36106 6.1574,-1.14618 8.5677,0.10405 16.0185,-6.80353 24.2457,-6.9292 2.3481,0 2.668,0.32986 2.668,2.75084 0,1.51296 -0.4487,2.75084 -0.9971,2.75084 -1.4603,0 -8.3451,7.35569 -7.7615,8.29228 0.5185,0.83208 2.0924,0.41408 5.9849,-1.58954 z m 226.9044,0.4036 c -0.2634,-0.63041 -2.3306,-2.58846 -4.5938,-4.35125 -7.1207,-5.54625 -4.5921,-11.39679 3.1475,-7.28272 1.8385,0.97724 4.181,1.78991 5.2055,1.80595 1.0245,0.016 2.6704,0.63498 3.6574,1.37542 0.9871,0.74044 3.2755,1.36088 5.0851,1.37876 1.8097,0.0179 4.3305,0.62218 5.6018,1.34292 2.4297,1.37753 8.3243,1.86497 8.3164,0.68771 0,-0.59412 -9.1203,-7.15449 -13.6976,-9.85718 -0.8542,-0.50432 -1.761,-1.17332 -2.0153,-1.48667 -0.2542,-0.31335 -2.5425,-1.67653 -5.085,-3.02928 -2.5426,-1.35275 -5.2469,-2.8172 -6.0097,-3.25433 -8.1185,-5.59239 -17.442,-5.8478 -25.6712,-8.65907 -5.1154,-1.78995 -30.3942,-2.71512 -44.3742,-1.62404 -11.1944,0.87368 -11.3965,0.92978 -16.1798,4.49198 -5.1149,3.80923 -11.6209,7.15433 -15.4762,7.9572 -1.2712,0.26475 -3.1054,1.05733 -4.0758,1.76129 -1.6442,1.19271 -1.4007,1.45062 3.5742,3.78474 5.601,2.62789 6.6193,2.43968 7.1264,-1.31724 0.248,-1.83733 0.9059,-2.3494 3.3142,-2.5797 2.2323,-0.21345 3.0049,0.0812 3.0049,1.14619 2.6263,2.89201 8.0077,4.33161 11.5569,6.01825 2.0341,0.97442 4.3223,1.79879 5.0851,1.83194 0.7628,0.0332 2.1944,0.66609 3.1815,1.40653 2.0377,1.52855 6.0641,1.8136 6.0641,0.42931 0,-0.50432 -0.8321,-1.7422 -1.8491,-2.75084 -3.5624,-3.53295 -1.1207,-10.31641 2.5599,-7.1121 5.4881,3.20416 9.9135,6.58142 16.2769,8.02905 0.7024,0 1.795,0.61894 2.428,1.37542 1.1432,1.36614 4.6228,1.93812 4.6228,0.75991 0,-0.33853 -0.7115,-1.39528 -1.5812,-2.34835 -1.3641,-1.49487 -1.3958,-1.84914 -0.2311,-2.57976 2.0291,-1.27294 5.7787,-1.04513 7.9813,0.48492 3.6596,2.54213 14.1274,7.65426 16.9179,8.26213 1.5287,0.33299 3.0169,0.98633 3.3069,1.45185 0.2901,0.46552 1.4391,0.85248 2.5532,0.85991 1.1142,0.007 3.0658,0.58592 4.3371,1.28552 2.9992,1.65053 6.5738,1.83461 5.935,0.30563 z m -103.1533,-25.97227 c 7.8266,-3.34785 11.6157,-5.65002 15.2455,-9.26293 4.6422,-4.62068 9.8572,-11.68334 9.8572,-13.34963 0,-0.66548 0.5871,-2.04107 1.3044,-3.05688 2.9675,-4.20182 4.1902,-18.94606 2.3293,-28.08752 -1.4387,-7.06696 -7.1166,-17.74089 -12.0575,-22.66691 -2.3609,-2.35392 -7.3714,-5.80899 -11.1343,-7.67793 -6.6732,-3.31441 -7.097,-3.39807 -17.2155,-3.39807 -9.7119,0 -10.7722,0.185 -16.6171,2.89937 -6.2339,2.89507 -15.9901,11.52179 -17.8725,15.80354 -0.4664,1.06061 -1.2386,2.54732 -1.716,3.3038 -4.4505,7.05097 -6.4175,19.50791 -4.7242,29.91777 0.6335,3.89478 1.4997,7.73121 1.925,8.52541 0.4253,0.7942 1.6906,3.37493 2.8118,5.73497 3.8483,8.10057 16.7463,19.95002 21.8104,20.03727 0.9308,0.0161 2.5,0.63499 3.487,1.37542 2.5562,1.91739 18.012,1.85049 22.5665,-0.0977 z m -49.7865,-13.58757 c -3.2951,-7.88449 -7.9712,-16.27685 -8.321,-24.3103 0,-3.34755 -0.5764,-4.3271 -5.3162,-9.03373 -6.5095,-6.464 -12.4562,-16.19825 -15.0408,-24.62068 -1.0667,-3.47581 -2.3314,-7.58683 -2.8104,-9.1356 -1.4991,-4.8459 -1.0632,-25.72129 0.6575,-31.48896 2.0607,-6.90789 4.6792,-12.55032 8.104,-17.46304 3.8853,-5.573255 6.4501,-7.703276 13.4814,-11.195711 7.5044,-3.727489 16.4836,-4.595984 22.4916,-2.175446 4.4419,1.789586 10.5218,4.873952 12.5262,6.354628 3.1925,2.35835 11.2101,11.074959 11.2101,12.187399 0,1.8007 4.5706,1.49302 5.2859,-0.35584 1.7988,-4.64871 10.2695,-12.317522 17.6234,-15.954945 5.2086,-2.576299 7.4512,-3.129254 13.8583,-3.416992 5.5797,-0.250583 8.2014,0.01458 9.7079,0.981839 21.7905,11.295502 27.9139,23.799408 27.9514,49.207418 0,17.25673 -0.27,19.04346 -4.2392,28.0559 -0.4442,1.00864 -1.2502,2.86546 -1.7911,4.12626 -1.0441,2.43405 -2.1164,4.27655 -5.0699,8.71099 -2.4572,3.68947 -12.6173,13.29573 -14.0623,13.29573 -1.1284,0 -1.5999,1.34061 -2.4184,6.8771 -0.6889,4.65996 -4.561,14.20165 -6.9631,17.15859 -1.6222,1.99702 -0.6733,5.0639 1.1122,3.59429 0.7767,-0.63928 8.5332,-1.09148 21.4318,-1.24945 l 20.2144,-0.24755 2.9293,-5.96016 c 4.6686,-9.49935 9.6706,-23.8335 9.6634,-27.69289 0,-1.36228 0.6195,-4.85314 1.3823,-7.75746 1.8682,-7.11332 1.8682,-29.16871 0,-36.07148 -0.7507,-2.77376 -1.3678,-6.28108 -1.3713,-7.79405 -0.01,-3.7668 -5.4561,-19.83962 -8.0714,-23.8154 -0.6543,-0.99477 -1.1897,-2.32315 -1.1897,-2.95195 0,-1.16004 -8.7614,-16.347187 -10.5707,-18.323363 -0.5424,-0.592512 -2.6505,-3.055266 -4.6845,-5.472805 -9.792,-11.638252 -19.8943,-19.494577 -33.392,-25.96823 -12.9264,-7.155326 -27.2913,-7.71218 -36.8745,-7.745745 -28.5743,0.340015 -55.1812,10.70701 -74.0192,37.215006 -1.4927,2.181297 -2.9439,4.172318 -3.2252,4.424478 -1.1703,1.04951 -6.2763,10.014939 -8.6168,15.129619 -1.3845,3.02592 -3.1227,6.5969 -3.8626,7.93552 -0.7398,1.33861 -1.3451,3.0451 -1.3451,3.79221 -2.1593,4.04599 -3.3933,7.82644 -3.8239,13.19937 -2.0229,6.98936 -3.692,30.07318 -2.2963,43.84389 1.0658,10.51592 4.8707,24.1289 9.5222,34.06823 1.6884,3.60791 3.0699,6.99756 3.0699,7.53255 0,2.30482 4.3332,2.87372 22.3598,2.93558 10.3306,0.0354 19.6151,0.41906 20.6321,0.8525 3.1198,1.32956 4.1605,1.01004 4.1605,-1.27732 z m -60.2468,-21.08969 c 0.1831,-0.94306 -0.1051,-2.58882 -0.6405,-3.65726 -2.7517,-5.49167 -4.2004,-17.80634 -4.2469,-36.09905 l -0.047,-18.56835 -2.488,1.8e-4 c -1.3684,1e-4 -2.7166,0.3671 -2.9961,0.81555 -0.2794,0.44845 -1.6172,1.09144 -2.9727,1.42885 -3.3102,0.82397 -10.6548,8.40401 -13.0003,13.41705 -2.9394,6.28239 -3.1244,7.14917 -3.1412,14.71467 -0.013,5.68785 0.454,8.10943 2.3581,12.23797 3.887,8.42789 11.4245,14.63803 20.3911,16.80008 4.9366,1.19035 6.386,0.95752 6.7836,-1.08969 z m 204.6954,0.65206 c 1.8993,-0.29128 3.9265,-1.09503 4.5048,-1.7861 0.5783,-0.69109 1.5913,-1.25651 2.2512,-1.25651 1.3613,0 10.5901,-9.93996 10.5988,-11.41564 0,-0.52973 0.7121,-2.20102 1.5756,-3.71398 1.9186,-3.36201 2.2679,-17.33174 0.518,-20.72172 -0.6251,-1.21107 -1.579,-3.23351 -2.1199,-4.49431 -2.6118,-6.08851 -5.55,-9.13585 -12.2544,-12.70906 -9.9778,-5.31795 -11.7567,-4.69727 -10.7299,3.74388 1.5509,12.75116 0.3031,34.61674 -2.4312,42.60434 -1.678,4.90173 -1.784,10.05064 -0.2204,10.70538 0.6357,0.26617 1.9878,0.27904 3.0048,0.0286 1.0171,-0.25042 3.4032,-0.69362 5.3026,-0.98489 z m -53.1775,-16.07778 c 6.3248,-7.2159 12.0577,-15.50178 14.1056,-24.83441 0.4558,-2.11832 1.2615,-5.502 1.7905,-7.51928 2.2955,-8.75233 0.5421,-24.74127 -3.7316,-34.02745 -0.9537,-2.07252 -1.7342,-4.0502 -1.7342,-4.39485 0,-0.34463 -1.709,-2.8716 -3.7979,-5.61547 -7.9851,-10.489236 -18.0858,-14.75385 -29.336,-12.38605 -3.1224,0.657176 -6.1488,1.758392 -6.7252,2.447138 -0.5763,0.688737 -1.6296,1.252255 -2.3407,1.252255 -2.1162,0 -13.7478,12.252267 -15.9872,16.840467 -2.832,5.80187 -4.4622,5.65422 -8.3962,-0.76046 -1.2259,-1.99888 -2.9252,-4.32493 -3.7763,-5.16897 -0.851,-0.84405 -1.9063,-2.1116 -2.3451,-2.81676 -1.1444,-1.83918 -8.5916,-7.600428 -12.1241,-9.37935 -14.811,-7.458449 -32.7836,0.129363 -39.966,16.87317 -0.5409,1.2608 -1.375,3.11761 -1.8536,4.12625 -3.0442,6.41464 -4.016,22.70023 -1.9697,33.01008 2.1801,10.98379 8.5214,23.86387 15.5473,31.57872 l 2.0367,2.23641 1.0367,-2.69489 c 0.5701,-1.4822 1.5938,-4.75802 2.2747,-7.27963 1.2325,-4.5643 3.922,-10.58863 5.117,-11.46183 0.7106,-0.51928 2.7534,-4.20227 2.7534,-4.96428 0,-0.27507 -1.7683,-1.38033 -3.9294,-2.45614 -5.7894,-2.8819 -7.9665,-5.244 -9.4742,-10.27926 -1.0412,-3.47693 -1.1325,-5.47849 -0.3983,-8.72733 1.1025,-4.87923 1.868,-5.95115 6.7752,-9.48678 2.9433,-2.12054 4.5573,-2.59686 8.7833,-2.59192 8.3222,0.01 14.3845,4.97737 15.4074,12.62527 0.7613,5.69173 2.0648,6.37141 8.2348,4.2939 4.9393,-1.66317 16.9047,-1.4523 23.1405,0.40783 6.2985,1.87882 6.4138,1.83484 6.9825,-2.6619 1.0819,-8.55493 7.6822,-14.67115 15.8322,-14.67115 12.0012,0 20.1805,12.53228 14.957,22.9168 -2.0853,4.14562 -4.142,6.01467 -9.068,8.24021 -3.9068,1.76511 -5.3051,3.82013 -3.3956,4.99051 2.376,1.45639 8.4382,18.08966 8.4382,23.15255 0,2.60003 0.6013,3.96925 1.743,3.96925 0.2807,0 2.7077,-2.15219 5.3933,-4.78265 z m -189.5251,-47.93023 c 2.9348,-1.38559 6.4402,-3.08975 7.79,-3.78701 2.9247,-1.51086 7.4168,-1.65625 8.7997,-0.28482 1.3075,1.29675 -0.4835,5.24598 -2.7016,5.95734 -0.8899,0.28539 -1.618,0.90371 -1.618,1.37405 0,1.40046 2.7876,0.96934 3.3639,-0.52027 0.2928,-0.75648 1.1284,-1.37542 1.8569,-1.37542 0.7287,0 2.9558,-0.82525 4.9494,-1.83389 2.2052,-1.1158 5.4491,-1.8339 8.2842,-1.8339 l 4.6596,0 0.032,-3.43855 c 0.018,-1.8912 0.6274,-4.47011 1.3542,-5.73091 0.7267,-1.2608 1.3359,-3.07242 1.354,-4.02583 0.031,-1.60352 2.163,-6.74727 5.2326,-12.62069 3.3974,-8.026994 7.7855,-15.734991 12.5275,-21.744849 2.754,-3.475338 2.8059,-3.257976 -2.7032,-11.302229 -4.7606,-7.695109 -8.3609,-16.771381 -13.0558,-23.662126 -0.3622,0 -1.2906,-1.341034 -2.0632,-2.980076 -4.0248,-8.539348 -6.6775,-12.676753 -7.564,-11.797662 -0.6271,0.622022 -0.2826,2.423389 1.0517,5.499746 2.1139,4.873432 2.6157,10.616701 1.0133,11.598848 -1.162,0.712281 -6.6195,-1.718635 -8.2603,-3.679354 -5.5645,-4.044852 -11.4497,-3.291458 -16.9759,-5.518601 -3.1756,-1.315928 -9.8505,-1.91409 -9.8505,-0.882741 0,0.270974 1.7855,2.230948 3.9678,4.355497 2.1822,2.124549 5.1986,5.513321 6.703,7.530603 1.5045,2.017283 3.6714,4.695132 4.8156,5.95078 2.4767,2.718132 2.6111,4.32642 0.5501,6.585033 -1.2838,1.406899 -2.9867,1.676857 -10.5779,1.676857 -4.9762,0 -9.2793,0.371657 -9.5623,0.825894 -0.2831,0.454237 -2.0758,0.623368 -3.9839,0.375838 -8.9612,-1.162514 -16.166,-1.355155 -17.0721,-0.456483 -0.6753,0.669682 0.1181,1.127275 2.6187,1.510467 1.9732,0.302354 4.8576,0.947316 6.4098,1.433234 1.5522,0.485926 4.6725,1.276637 6.9342,1.757126 7.4263,1.577781 12.3942,3.010693 14.887,4.293988 1.3498,0.694807 3.751,1.263295 5.336,1.263295 2.1882,0 3.1394,0.56008 3.9508,2.326239 1.4235,3.098647 0.088,4.325705 -7.4106,6.805907 -3.2119,1.062448 -6.5403,2.27003 -7.3964,2.6835 -0.8562,0.413478 -3.0128,1.37939 -4.7926,2.146471 -5.0316,2.16863 -18.3665,8.821498 -24.5007,12.223648 -3.0511,1.69213 -6.4835,3.497 -7.6276,4.01081 -1.1442,0.51382 -2.0803,1.41453 -2.0803,2.00158 0,1.23437 8.7466,0.5056 10.4992,-0.8748 1.4379,-1.13262 12.1229,-3.158 17.2375,-3.26745 3.7941,-0.0812 4.1847,0.11594 4.4341,2.23764 0.1891,1.60796 -0.5884,3.16584 -2.5168,5.04321 -1.5348,1.49409 -2.8084,3.12915 -2.8303,3.63347 -0.022,0.50432 -2.7378,3.7149 -6.0353,7.13463 -3.2975,3.41972 -5.9955,6.34685 -5.9955,6.50473 0,0.15788 -2.0802,2.43886 -4.6228,5.06885 -2.5425,2.62997 -4.6228,5.06973 -4.6228,5.42166 0,0.35194 -1.8656,2.70027 -4.146,5.21852 -2.2803,2.51825 -4.1525,4.8881 -4.1605,5.26635 15.9429,-3.52076 30.5625,-11.54651 44.1141,-18.09815 z m 316.4498,18.29648 c 0,-0.26916 -1.1442,-1.61144 -2.5426,-2.98284 -1.3984,-1.3714 -4.8308,-5.37007 -7.6276,-8.88591 -2.7968,-3.51585 -6.3332,-7.68557 -7.8587,-9.26603 -5.895,-6.10728 -12.0791,-13.0256 -13.4061,-14.99766 -0.7628,-1.13355 -2.0901,-2.88246 -2.9495,-3.88648 -1.28,-1.49512 -1.3705,-2.24406 -0.5002,-4.13838 0.9535,-2.0754 1.4462,-2.25666 4.7986,-1.76519 11.1838,1.6395 14.5868,2.35351 15.7398,3.30248 22.9046,5.73506 3.8788,-3.66678 -1.208,-6.31889 -1.361,-0.70871 -2.6133,-1.63712 -2.7828,-2.06313 -0.1695,-0.426 -0.8993,-0.77455 -1.6217,-0.77455 -1.1245,0 -5.7198,-2.121549 -17.1662,-7.925184 -1.3497,-0.684354 -3.0671,-1.244278 -3.8162,-1.244278 -0.7491,0 -1.88,-0.618939 -2.5131,-1.37542 -0.633,-0.756481 -1.9587,-1.37542 -2.9461,-1.37542 -2.2244,0 -11.8468,-4.292851 -11.8468,-5.285225 0,-1.922489 3.0999,-4.801188 5.17,-4.801188 1.2603,0 3.213,-0.57421 4.3393,-1.276023 1.1262,-0.701812 4.0142,-1.550905 6.4178,-1.886874 2.4036,-0.335969 4.6123,-0.999628 4.9085,-1.474817 0.2961,-0.47518 1.5062,-0.863965 2.689,-0.863965 1.1829,0 4.1747,-0.599454 6.6485,-1.332122 2.4738,-0.732668 6.058,-1.576616 7.9649,-1.87544 8.0354,-1.259197 2.248,-2.013367 -15.885,-2.070034 -10.6437,-0.03328 -20.1669,-0.316952 -21.1628,-0.630419 -2.5498,-0.802604 -3.0748,-4.659804 -0.963,-7.074702 0.947,-1.082969 1.7222,-2.215361 1.7227,-2.51644 0,-0.691149 5.1944,-6.567476 10.8164,-12.238476 l 4.3178,-4.355496 -3.8989,0 c -6.92,-0.150663 -14.5387,4.247402 -20.5799,5.472518 -0.8167,0.01604 -3.3457,1.438256 -5.62,3.16048 -4.1908,3.17357 -5.4837,3.227643 -6.5829,0.275304 -0.6847,-1.838965 0.9575,-10.729827 2.2297,-12.071768 1.1384,-1.200698 1.0501,-5.334786 -0.099,-4.63058 -0.5085,0.311688 -0.9246,1.367604 -0.9246,2.346482 0,0.978878 -0.3813,1.779778 -0.8475,1.779778 -0.4662,0 -2.1634,2.578912 -3.7717,5.730916 -6.8956,12.587534 -13.573,25.838 -20.4565,35.723788 -2.1073,3.015049 -2.1016,2.768903 -0.1185,5.083744 2.9613,3.456733 5.605,7.621202 7.565,11.916891 0.5178,1.134722 1.3677,2.06313 1.8888,2.06313 0.5212,0 0.9475,0.981041 0.9475,2.180095 0,1.199045 0.6241,2.693765 1.3868,3.321585 0.7628,0.62782 1.3869,1.73704 1.3869,2.46493 0,0.72788 0.4976,2.2247 1.1057,3.32627 1.6896,3.06046 5.3576,13.71347 5.3621,15.57334 0,0.90761 0.6124,2.81685 1.3559,4.24278 1.2151,2.33048 1.9235,2.6336 7.0077,2.99832 3.1106,0.22316 5.9693,0.90886 6.3525,1.52378 0.3832,0.61494 1.8852,1.20518 3.3379,1.31165 2.3507,0.17231 2.6472,-0.10868 2.6968,-2.55725 0.048,-2.36031 0.4496,-2.79531 2.8295,-3.064 11.3855,-0.0525 24.2235,13.30363 34.2087,14.5651 0.5085,0.0127 2.5887,0.8202 4.6228,1.79462 2.3019,0.79469 19.5467,8.9049 19.878,6.8462 z m -118.7771,217.6374 c -0.5151,-2.1895 0.4537,-10.65053 2.3692,-20.69222 0.9788,-5.13164 1.3246,-5.73092 3.306,-5.73092 1.2171,0 2.3499,0.51579 2.5173,1.14619 0.1674,0.6304 0.9885,3.20931 1.8247,5.73091 0.8767,2.64379 1.5183,7.54713 1.5156,11.58222 l 0,6.99748 -4.3916,1.21522 c -2.4154,0.66836 -4.8968,1.36371 -5.5143,1.54519 -0.6175,0.18149 -1.3475,-0.62583 -1.6224,-1.79407 z m 17.1671,-9.68886 c 0.1774,-10.23033 1.1483,-15.04951 3.3186,-16.4729 1.9223,-1.26067 2.1246,-1.12999 4.0523,2.61743 2.5125,4.88455 3.5481,14.82437 1.6685,16.01493 -1.414,0.89563 -7.3544,3.07762 -8.4374,3.09917 -0.3814,0.007 -0.6523,-2.35879 -0.602,-5.25863 z"
             style="fill:#000000" />
          <path
             id="path69471"
             d="m -1387.1906,152.71106 -8.2796,10.26432 6.8997,3.42145 3.4499,2.73715 8.9695,10.26433 0,0.68429 6.8997,-7.52718 -1.3799,-7.52717 -4.8298,-4.10573 -4.8298,-5.47431 -2.0699,-2.73716 z"
             style="fill:#f3dbcd;fill-opacity:1;fill-rule:evenodd;stroke:none;stroke-width:1px;stroke-linecap:butt;stroke-linejoin:miter;stroke-opacity:1" />
        </g>
      </g>
    </g>
  </g>
</svg>
