<?xml version="1.0" encoding="UTF-8" standalone="no"?>
<!-- Created with Inkscape (http://www.inkscape.org/) -->
<svg xmlns:rdf="http://www.w3.org/1999/02/22-rdf-syntax-ns#" xmlns="http://www.w3.org/2000/svg" xmlns:cc="http://web.resource.org/cc/" xmlns:dc="http://purl.org/dc/elements/1.1/" xmlns:svg="http://www.w3.org/2000/svg" xmlns:inkscape="http://www.inkscape.org/namespaces/inkscape" xmlns:sodipodi="http://sodipodi.sourceforge.net/DTD/sodipodi-0.dtd" xmlns:ns1="http://sozi.baierouge.fr" xmlns:xlink="http://www.w3.org/1999/xlink" id="Layer_1" xml:space="preserve" version="1.0" viewBox="0 0 558.291 501.177" inkscape:version="0.91 r13725">
<g id="g5">
	<path id="path7" style="stroke:black;stroke-width:.036;stroke-miterlimit:10;fill-rule:evenodd" d="m81.336 242.87c0 134.1 88.634 242.86 197.96 242.86 109.3 0 197.93-108.76 197.93-242.86s-88.63-242.85-197.93-242.85c-109.33-0.002-197.96 108.75-197.96 242.85h-0.004z"/>
	<path id="path9" style="fill-rule:evenodd;stroke:black;stroke-width:.036;stroke-miterlimit:10;fill:#e8ccba" d="m85.548 243.31c0 131.86 87.122 238.82 194.58 238.82s194.58-106.96 194.58-238.82c0-131.91-87.12-238.86-194.58-238.86-107.46-0.004-194.58 106.95-194.58 238.86h-0.002z"/>
	<path id="path11" style="stroke:black;stroke-width:.036;stroke-miterlimit:10;fill-rule:evenodd" d="m98.724 199.42c-1.224-4.86-3.42-8.31-6.732-10.8-3.312-2.48-7.776-3.81-12.996-3.85-5.364-0.11-13.608-0.29-18.756 3.35-5.256 3.6-9.396 9.93-12.276 18.03-3.024 8-5.616 19.8-5.292 29.6 0.288 9.75 2.304 21.13 7.452 28.15 5.076 6.91 16.992 11.34 23.112 12.74 5.94 1.12 9.54-1.98 12.744-5.54 3.168-3.6 5.076-8.9 6.012-15.88l6.732-55.8z"/>
	<path id="path13" style="fill-rule:evenodd;fill:#e8ccba" d="m92.712 259.33c-0.576-1.84-1.296-2.6-2.16-2.42-0.864 0.26-1.908 1.41-3.132 3.6-1.44 2.13-2.988 6.41-5.04 8.68-2.124 2.09-3.708 3.89-6.984 3.85-3.384-0.18-8.388-1.98-12.492-4.57-4.14-2.73-9.216-6.37-12.024-11.05-2.952-4.75-4.5-10.4-5.076-17.1-0.324-1.22-0.108-4.03 0.504-8.42 0.612-4.54 1.548-12.32 3.348-18.04 1.764-5.9 3.996-12.28 6.984-16.34 2.952-4.07 6.48-6.63 10.584-7.96 3.888-1.51 9.54-0.97 13.212-0.72 3.528 0.18 6.192 0.83 8.424 1.94 2.124 1.08 3.78 2.52 4.824 4.32 1.044 1.62 0.684 4.65 1.44 5.76 0.684 1.05 1.512 1.34 2.628 0.72 1.008-0.72 2.088-1.98 3.388-4.32-2.812 20.67-5.62 41.37-8.428 62.07z"/>
	<path id="path15" style="stroke:black;stroke-width:.036;stroke-miterlimit:10;fill-rule:evenodd" d="m87.924 211.23c-0.504-1.51-3.132-4.1-5.544-5.29-2.556-1.33-6.192-2.77-9.396-1.95-3.348 0.8-7.236 2.7-9.864 6.99-2.664 4.28-5.004 11.81-5.508 18.29-0.576 6.4 0.036 15.44 2.376 19.72 2.304 4.11 7.776 5.19 11.556 5.05 3.6-0.29 9.072-4.47 10.584-6.27 1.368-1.87 0.108-4.79-1.692-4.57-1.836 0.18-6.228 5.08-8.892 5.8-2.844 0.61-5.472-0.11-7.2-2.16-1.728-2.2-2.664-5.8-2.664-10.37-0.072-4.68 0.828-12.64 2.412-17.07 1.476-4.46 4.32-7.99 6.732-9.61 2.376-1.76 5.22-1.33 7.704-0.5 2.376 0.83 5.076 4.86 6.732 5.29 1.512 0.21 3.096-1.87 2.664-3.35z"/>
	<path id="path17" style="stroke:black;stroke-width:.036;stroke-miterlimit:10;fill-rule:evenodd" d="m463.4 201.51c1.19-4.82 3.39-8.39 6.74-10.84 3.27-2.52 7.59-3.74 12.96-3.81 5.32-0.11 13.53-0.29 18.79 3.35 5.18 3.6 9.21 9.93 12.24 18.03 2.91 7.99 5.51 19.8 5.29 29.59-0.4 9.76-2.41 21.14-7.45 28.16-5.19 6.91-17.14 11.34-23.08 12.74-6.05 1.11-9.65-1.98-12.74-5.55-3.21-3.6-5.11-8.89-6.01-15.87l-6.74-55.8z"/>
	<path id="path19" style="fill-rule:evenodd;fill:#e8ccba" d="m469.42 261.41c0.54-1.83 1.26-2.59 2.16-2.41 0.75 0.25 1.8 1.41 3.13 3.6 1.4 2.13 2.95 6.41 5.04 8.68 2.05 2.09 3.6 3.89 6.98 3.85 3.28-0.18 8.32-1.98 12.49-4.57 4.04-2.7 9.15-6.44 12.03-11.09 2.91-4.79 4.43-10.33 5.07-17.06 0.29-1.23 0.08-4.03-0.5-8.43-0.72-4.53-1.66-12.31-3.35-18.03-1.8-5.91-4.03-12.28-6.98-16.35-3.06-4.06-6.59-6.62-10.59-7.95-4.06-1.51-9.64-0.97-13.24-0.72-3.64 0.18-6.3 0.83-8.43 1.94-2.27 1.08-3.81 2.52-4.79 4.32-1.15 1.62-0.75 4.65-1.44 5.76-0.75 1.05-1.69 1.33-2.66 0.72-1.04-0.72-2.16-1.98-3.35-4.32 2.81 20.66 5.62 41.36 8.43 62.06z"/>
	<path id="path21" style="stroke:black;stroke-width:.036;stroke-miterlimit:10;fill-rule:evenodd" d="m474.2 213.32c0.44-1.51 3.03-4.11 5.55-5.29 2.45-1.34 6.12-2.78 9.36-1.95 3.27 0.79 7.16 2.7 9.86 6.99 2.52 4.28 4.97 11.8 5.55 18.28 0.46 6.41-0.11 15.45-2.42 19.73-2.44 4.11-7.81 5.19-11.52 5.04-3.7-0.29-9.18-4.46-10.58-6.26-1.4-1.87-0.25-4.79 1.66-4.57 1.72 0.18 6.19 5.07 8.92 5.79 2.7 0.54 5.48-0.14 7.2-2.19 1.66-2.24 2.49-5.73 2.63-10.34-0.07-4.68-0.86-12.63-2.37-17.06-1.55-4.57-4.4-7.92-6.74-9.65-2.48-1.8-5.32-1.26-7.7-0.47-2.48 0.83-5.15 4.86-6.73 5.3-1.62 0.21-3.21-1.88-2.67-3.35z"/>
	<path id="path23" style="stroke:black;stroke-width:.036;stroke-miterlimit:10;fill-rule:evenodd" d="m167.3 428.27c-3.42-2.73-10.98-11.44-15.73-17.24-4.93-5.94-11.27-14.76-12.63-17.57-1.26-2.81 1.94-2.16 5.04 0.83 3.02 2.95 8.13 11.12 12.81 16.74 4.47 5.4 12.71 13.18 14.47 16.09 1.7 2.85-0.64 3.78-3.96 1.15z"/>
	<path id="path25" style="stroke:black;stroke-width:.036;stroke-miterlimit:10;fill-rule:evenodd" d="m173.96 433.35c0.65 1.19 4.32 4.65 5.62 5.11 1.19 0.22 2.3-2.05 1.69-3.2-0.75-1.23-4.71-3.31-5.9-3.64-1.26-0.36-2.2 0.54-1.41 1.73z"/>
	<path id="path27" style="stroke:black;stroke-width:.036;stroke-miterlimit:10;fill-rule:evenodd" d="m132.53 383.78c0.32 1.26 2.99 5.76 4.1 6.4 1.08 0.54 2.74-1.36 2.45-2.66-0.47-1.44-3.67-4.43-4.75-5.07-1.23-0.62-2.2-0.04-1.8 1.33z"/>
	<path id="path29" style="stroke:black;stroke-width:.036;stroke-miterlimit:10;fill-rule:evenodd" d="m401.27 421.22c3.27-2.77 10.98-11.38 15.77-17.21 4.71-5.94 11.23-14.76 12.6-17.57 1.15-2.81-2.02-2.16-5.04 0.83-3.1 3.02-8.25 11.05-12.82 16.7-4.57 5.51-12.81 13.11-14.47 16.13-1.77 2.88 0.57 3.71 3.96 1.12z"/>
	<path id="path31" style="stroke:black;stroke-width:.036;stroke-miterlimit:10;fill-rule:evenodd" d="m394.64 426.33c-0.82 1.19-4.42 4.64-5.65 5.11-1.26 0.25-2.41-2.12-1.65-3.24 0.64-1.22 4.6-3.31 5.9-3.64 1.15-0.25 2.09 0.47 1.4 1.77z"/>
	<path id="path33" style="stroke:black;stroke-width:.036;stroke-miterlimit:10;fill-rule:evenodd" d="m436.04 376.72c-0.43 1.26-3.09 5.76-4.1 6.41-1.15 0.54-2.88-1.37-2.41-2.66 0.43-1.37 3.49-4.4 4.71-5.04 1.12-0.69 2.09-0.08 1.8 1.29z"/>
	<path id="path35" style="fill-rule:evenodd" d="m279.16 316.89c-3.46-3.31-8.86-5.22-16.49-6.01-7.81-0.76-17.14 4.93-29.23 1.51-12.21-3.56-30.1-11.88-42.7-22.46-12.64-10.8-22.54-27.18-32.22-41.22-9.68-14.19-18.07-28.05-25.45-42.7 2.16-9.18 2.52-16.63 1.47-22.5-1.15-5.94-3.85-10.04-8.24-12.71 3.06-1.73 4.43-4.1 4.5-7.52-0.07-3.46-1.44-7.56-4.5-12.71 7.45-7.85 11.7-16.67 12.74-27 1.01-10.48-0.14-27-6.66-34.452-6.73-7.488-17.56-10.548-33.044-9.72-8.856-8.748-15.66-13.608-20.952-15.012-5.292-1.332-8.748 0.828-10.512 6.768-6.624-8.532-12.888-13.536-19.476-15.012-6.66-1.512-15.552 2.952-19.476 6.012-3.852 3.06-5.148 6.876-3.744 11.988-13.212 5.112-21.024 11.556-23.976 19.476-2.844 7.992-0.648 16.952 6.732 27.722-6.012 5.65-8.46 11.55-7.488 18 0.972 6.44 5.472 12.99 13.5 20.19-4.032 9.94-4.536 18.8-1.512 27 3.024 8.14 12.204 17.46 19.476 21.71 7.164 4.18 14.76 5.04 23.22 2.99 3.348 5.4 7.848 8.35 13.5 9 5.652 0.54 12.348-1.08 20.232-5.26-2.304 6.2-3.06 10.77-2.268 14.26 0.792 3.38 2.916 5.33 6.768 5.98-11.412 13.82-17.856 28.83-19.476 45.72-1.656 16.92 1.584 34.77 9.72 54.68-11.016 19.08-13.212 36.36-6.732 53.21 6.624 16.74 21.528 31.89 45.688 46.44 4.28 10.55 9.9 20.16 17.24 29.23 7.27 9.07 15.08 19.8 26.21 24.69 11.12 4.69 24.08 5.98 39.71 3.75 10.72 5.65 20.44 8.35 29.98 8.24 9.4-0.25 15.2-7.45 26.28-8.96 11.13-1.55 29.42-1.55 39.71 0 10.15 1.51 12.31 8.71 20.92 8.96 8.57 0.11 18.32-2.59 29.95-8.24 15.59 2.23 28.55 0.94 39.71-3.75 11.05-4.89 18.83-15.62 26.24-24.69 7.35-9.07 12.85-18.69 17.21-29.23 24.08-14.55 39.1-29.7 45.72-46.44 6.48-16.85 4.28-34.13-6.73-53.21 8.06-19.91 11.3-37.76 9.72-54.68-1.66-16.89-8.1-31.9-19.48-45.72 3.75-0.65 5.94-2.6 6.73-5.98 0.76-3.49-0.03-8.06-2.23-14.26 7.96 4.18 14.51 5.8 20.23 5.26 5.66-0.65 10.05-3.6 13.47-9 8.39 2.05 16.09 1.19 23.25-2.99 7.17-4.25 16.38-13.57 19.48-21.71 2.99-8.2 2.48-17.06-1.51-27 7.99-7.2 12.49-13.75 13.5-20.19 0.93-6.45-1.51-12.35-7.49-18 7.34-10.77 9.54-19.73 6.73-27.722-2.99-7.92-10.83-14.364-23.97-19.476 1.36-5.112 0.07-8.928-3.75-11.988-4.03-3.06-12.89-7.524-19.47-6.012-6.63 1.476-12.89 6.48-19.48 15.012-1.8-5.94-5.26-8.1-10.51-6.768-5.33 1.404-12.17 6.264-20.95 15.012-15.48-1.872-26.18 0.828-32.91 8.244-6.62 7.416-7.92 25.268-6.8 35.928 1.04 10.55 5.14 19.37 12.71 27-3.03 5.15-4.47 9.25-4.47 12.71 0 3.42 1.44 5.79 4.47 7.52-4.43 2.67-7.13 6.77-8.25 12.71-1.15 5.87-0.65 13.32 1.51 22.5-7.41 14.65-15.8 28.51-25.45 42.7-9.68 14.04-19.73 30.42-32.22 41.22-12.63 10.58-30.67 18.9-42.73 22.46-12.06 3.42-21.6-2.27-29.2-1.51-7.66 0.79-13.06 2.7-16.48 6.01z"/>
	<path id="path37" style="fill-rule:evenodd;fill:#49322a" d="m278.47 322.87c-3.45-3.21-8.85-5.3-16.49-5.98-7.81-0.72-17.13 4.86-29.23 1.48-12.2-3.57-30.09-11.88-42.69-22.47-12.53-10.8-21.6-26.03-32.22-41.22-10.73-15.26-20.99-31.46-31.47-49.43 2.09-9.14 2.59-16.63 1.51-22.46-1.15-5.91-3.85-10.15-8.24-12.75 3.06-1.65 4.43-4.1 4.5-7.48-0.07-3.42-1.44-7.67-4.5-12.75 7.34-8.13 11.59-16.85 12.74-26.96 1.12-10.08-0.28-26.713-6.01-32.977-5.9-6.336-15.12-7.704-28.474-4.5-7.38-8.172-13.572-12.78-18.72-14.22-5.148-1.368-9.144 0.576-11.988 5.976-5.292-8.603-10.692-13.895-16.488-15.731-5.904-1.98-15.408 2.016-17.964 4.5-2.52 2.556-1.476 5.868 2.988 10.476-15.444 5.292-24.84 11.7-28.476 19.512-3.6 7.774-1.44 16.664 6.768 26.964-5.868 4.79-8.424 9.94-7.524 15.73 0.936 5.73 5.004 11.92 12.744 18.72-4.572 10.73-4.932 19.69-1.476 27.72 3.456 7.89 15.48 16.09 22.464 19.48 6.876 3.2 13.068 3.2 18.72 0 3.24 7.34 7.74 11.09 13.5 11.23 5.832 0.11 12.636-3.38 20.988-10.48-1.908 8.21-2.16 14.48-0.756 19.48 1.332 4.9 4.32 8.1 8.964 9.76-15.012 16.09-22.968 32.29-24.696 49.42-1.62 17.1 3.276 34.31 14.976 52.46-12.744 17.96-16.236 34.41-10.476 50.18 5.868 15.7 20.516 29.99 44.926 43.45 2.81 8.32 7.85 16.63 14.98 25.49 7.13 8.85 17.03 21.78 27.75 26.96 10.73 5.04 22.43 5.91 35.93 2.99 10.12 6.12 19.59 9.07 29.23 9 9.54-0.25 16.74-8.14 27.72-9.76 10.95-1.65 27.18-1.65 37.48 0 10.08 1.62 14.44 9.51 23.22 9.76 8.75 0.07 18.43-2.88 29.2-9 13.42 2.92 25.23 2.05 35.96-2.99 10.69-5.18 20.45-18.1 27.72-26.96 7.2-8.86 12.02-17.17 15.01-25.49 24.91-15.08 40.21-30.38 46.44-46.44 6.09-16.2 2.88-32.36-9.75-49.46 10.72-19.8 15.22-37.66 13.5-54.69-1.88-16.95-9.69-32.29-23.98-46.44 4.75-0.5 7.7-2.95 9-7.48 1.15-4.61 0.79-10.91-1.51-19.48 9.32 6.41 17.06 9.25 23.22 8.96 6.08-0.46 10.58-4.06 13.5-11.23 5.61 3.21 11.81 3.21 18.72 0 6.87-3.38 18.86-11.59 22.5-19.47 3.45-8.03 2.95-17-1.51-27.72 7.66-6.81 11.77-13 12.74-18.72 0.83-5.8-1.62-10.95-7.49-15.74 8.1-10.29 10.3-19.18 6.73-26.96-3.67-7.848-13.06-14.148-28.47-19.476 4.43-4.536 5.47-7.992 2.99-10.512-2.56-2.556-11.88-6.516-17.97-4.5-6.15 2.016-12.35 7.416-18.72 16.488-1.26-5.94-4.46-8.136-9.76-6.732-5.36 1.404-12.42 6.3-21.74 14.976-13.32-3.204-22.61-1.836-28.44 4.5-5.79 6.264-7.2 22.896-6.01 32.976 1.08 10.12 5.33 18.83 12.74 26.96-3.09 5.08-4.46 9.33-4.5 12.75 0.04 3.38 1.41 5.83 4.5 7.49-4.43 2.59-7.13 6.84-8.24 12.74-1.15 5.83-0.65 13.32 1.51 22.46-9.94 20.02-20.09 37.37-30.74 53.18-10.69 15.73-20.38 30.24-32.94 40.46-12.85 9.97-30.6 16.42-42.7 19.48-12.2 2.88-21.49-2.2-29.23-1.48-7.67 0.68-13.07 2.77-16.49 5.98z"/>
	<path id="path39" style="fill-rule:evenodd" d="m211.8 245.72c-12.24 4.68-28.51 13.03-38.95 21.71-10.37 8.49-21.06 19.4-22.5 29.23-1.37 9.83 4.17 21.92 14.25 29.19 10.12 7.17 29.74 14.58 45.69 13.5 15.87-1.4 36.5-13.68 48.71-20.98 11.98-7.42 19.87-16.03 23.22-22.47 3.16-6.44-3.96-10.76-3.75-15.73 0.22-5.04 6.41-8.68 5.26-14.22-1.37-5.65-6.27-15.16-12.75-19.48-6.73-4.39-16.27-6.69-26.24-6.77-9.97-0.28-20.95 1.45-32.94 6.02z"/>
	<path id="path41" style="fill-rule:evenodd;fill:#49322a" d="m215.54 249.46c-11.12 4.5-29.01 13.36-38.95 21.71-10.01 8.32-19.94 18.72-20.23 27.72-0.25 8.86 9 19.77 18.72 25.49 9.79 5.69 25.09 9.86 38.95 8.24 13.72-1.83 32.11-12.71 42.7-18.72 10.44-6.08 16.81-11.73 19.51-17.24 2.56-5.58-4.07-10.73-3.78-15.73 0.32-5.04 6.84-8.82 5.26-14.26-1.8-5.65-9.87-14.94-15.74-18.72-5.97-3.74-11.77-4.07-19.47-3.74-7.89 0.28-15.95 0.61-26.97 5.25z"/>
	<path id="path43" style="fill-rule:evenodd" d="m344.42 247.95c12.17 4.64 28.44 13.14 38.96 21.74 10.29 8.54 20.98 19.34 22.5 29.2 1.26 9.83-4.29 21.89-14.26 29.23-10.22 7.17-29.84 14.58-45.68 13.5-15.99-1.4-36.62-13.68-48.71-20.99-12.1-7.41-19.98-16.02-23.22-22.46-3.24-6.48 3.89-10.76 3.74-15.77-0.32-5.04-6.48-8.68-5.25-14.22 1.26-5.65 6.15-15.16 12.74-19.48 6.62-4.42 16.16-6.62 26.24-6.73 9.87-0.25 20.85 1.37 32.94 5.98z"/>
	<path id="path45" style="fill-rule:evenodd;fill:#49322a" d="m340.68 251.69c11.02 4.54 28.91 13.36 38.95 21.75 9.9 8.31 19.84 18.72 20.23 27.72 0.18 8.89-9.1 19.69-18.72 25.45-9.86 5.69-25.16 9.86-38.95 8.24-13.82-1.83-32.22-12.71-42.69-18.72-10.48-6.08-16.85-11.73-19.52-17.24-2.66-5.58 3.96-10.73 3.78-15.73-0.43-5.08-6.91-8.75-5.25-14.22 1.73-5.65 9.75-14.94 15.73-18.72 5.87-3.75 11.66-4.07 19.48-3.75 7.77 0.15 15.84 0.72 26.96 5.22z"/>
	<path id="path47" style="stroke:black;stroke-width:.036;stroke-miterlimit:10;fill-rule:evenodd" d="m47.712 180.52c0.324-0.75 3.564 9.15 7.488 11.23 3.744 1.84 9.252 1.77 14.976 0.76 5.688-1.08 13.464-3.1 18.756-6.73 5.112-3.67 9.252-13.25 11.988-14.98 2.59-1.87 5.33 1.51 3.74 4.47-1.72 2.91-8.492 9.82-13.496 13.5-5.148 3.6-10.188 6.94-16.488 8.24-6.48 1.3-16.38 1.84-20.952-0.76-4.572-2.95-6.3-14.86-6.012-15.73z"/>
	<path id="path49" style="stroke:black;stroke-width:.036;stroke-miterlimit:10;fill-rule:evenodd" d="m100.16 197.77c1.7-2.34 6.88-4.86 9.72-8.25 2.85-3.53 5.48-11.59 6.77-11.99 1.12-0.36 1.26 5.8 0 9.72-1.4 3.78-5.4 9.98-8.24 12.75-3.03 2.59-7.6 3.31-9.002 2.99-1.44-0.47-1.044-2.96 0.752-5.22z"/>
	<path id="path51" style="stroke:black;stroke-width:.036;stroke-miterlimit:10;fill-rule:evenodd" d="m118.13 210.51c-0.15 2.23 5.07 13.97 9 20.2 3.85 6.19 12.67 15.44 14.25 16.48 1.41 0.76-2.98-6.22-5.25-11.23-2.27-5.22-5.29-14.33-8.25-18.72-3.06-4.25-9.64-9.03-9.75-6.73z"/>
	<path id="path53" style="stroke:black;stroke-width:.036;stroke-miterlimit:10;fill-rule:evenodd" d="m35.724 174.91c0 1.87 1.332 3.38 2.988 3.38s3.024-1.51 3.024-3.38c0-1.88-1.368-3.39-3.024-3.39s-2.988 1.51-2.988 3.39z"/>
	<path id="path55" style="stroke:black;stroke-width:.036;stroke-miterlimit:10;fill-rule:evenodd" d="m108.41 163.67c0 1.88 1.33 3.35 2.99 3.35 1.65 0 2.98-1.47 2.98-3.35 0-1.87-1.33-3.38-2.98-3.38-1.66 0-2.99 1.51-2.99 3.38z"/>
	<path id="path57" style="stroke:black;stroke-width:.036;stroke-miterlimit:10;fill-rule:evenodd" d="m144.37 253.56c0 1.88 1.33 3.39 2.99 3.39s2.99-1.51 2.99-3.39c0-1.87-1.33-3.34-2.99-3.34s-2.99 1.47-2.99 3.34z"/>
	<path id="path59" style="stroke:black;stroke-width:.036;stroke-miterlimit:10;fill-rule:evenodd" d="m510.71 180.52c-0.4-0.75-3.67 9.15-7.49 11.23-3.82 1.84-9.36 1.77-14.98 0.76-5.65-1.08-13.64-3.1-18.72-6.73-5.22-3.67-9.36-13.25-11.98-14.98-2.74-1.87-5.33 1.51-3.75 4.47 1.62 2.91 8.43 9.82 13.47 13.5 5.04 3.6 10.11 6.94 16.48 8.24 6.34 1.3 16.35 1.84 20.99-0.76 4.5-2.95 6.12-14.86 5.98-15.73z"/>
	<path id="path61" style="stroke:black;stroke-width:.036;stroke-miterlimit:10;fill-rule:evenodd" d="m458.29 197.77c-1.87-2.34-7.02-4.86-9.75-8.25-2.81-3.53-5.66-11.59-6.74-11.99-1.22-0.36-1.36 5.8 0 9.72 1.34 3.78 5.33 9.98 8.25 12.75 2.81 2.59 7.56 3.31 8.96 2.99 1.3-0.47 1.01-2.96-0.72-5.22z"/>
	<path id="path63" style="stroke:black;stroke-width:.036;stroke-miterlimit:10;fill-rule:evenodd" d="m440.29 210.51c0.07 2.23-5.15 13.97-9 20.2-3.99 6.19-12.67 15.44-14.22 16.48-1.4 0.76 2.85-6.22 5.26-11.23 2.23-5.22 5.11-14.33 8.21-18.72 2.95-4.25 9.57-9.03 9.75-6.73z"/>
	<path id="path65" style="stroke:black;stroke-width:.036;stroke-miterlimit:10;fill-rule:evenodd" d="m522.7 174.91c0 1.87-1.34 3.38-2.99 3.38-1.66 0-2.99-1.51-2.99-3.38 0-1.88 1.33-3.39 2.99-3.39 1.65 0 2.99 1.51 2.99 3.39z"/>
	<path id="path67" style="stroke:black;stroke-width:.036;stroke-miterlimit:10;fill-rule:evenodd" d="m450.05 163.67c0 1.88-1.37 3.35-3.03 3.35-1.65 0-2.98-1.47-2.98-3.35 0-1.87 1.33-3.38 2.98-3.38 1.66 0 3.03 1.51 3.03 3.38z"/>
	<path id="path69" style="stroke:black;stroke-width:.036;stroke-miterlimit:10;fill-rule:evenodd" d="m414.08 253.56c0 1.88-1.36 3.39-2.98 3.39-1.7 0-3.03-1.51-3.03-3.39 0-1.87 1.33-3.34 3.03-3.34 1.62 0 2.98 1.47 2.98 3.34z"/>
	<path id="path71" style="stroke:black;stroke-width:.036;stroke-miterlimit:10;fill-rule:evenodd" d="m146.6 325.85c1.19 2.49 5.08 8.14 11.24 11.27 6.12 2.99 20.66 6.3 24.73 6.73 3.74 0.26 2.27-2.73-1.51-4.5-3.82-1.72-15.99-3.2-20.96-5.97-5.07-3.03-6.73-9.97-9-11.27-2.34-1.37-5.65 1.22-4.5 3.74z"/>
	<path id="path73" style="stroke:black;stroke-width:.036;stroke-miterlimit:10;fill-rule:evenodd" d="m294.96 331.11c2.66 2.84 8.35 7.88 14.98 11.23 6.51 3.13 17.89 6.37 23.97 7.49 6.01 0.93 13.25-0.25 11.99-1.48-1.51-1.37-14.04-3.74-20.23-6.01-6.23-2.3-11.27-4.75-16.49-7.49-5.33-2.84-12.64-8.39-14.98-9-2.48-0.64-1.9 2.45 0.76 5.26z"/>
	<path id="path75" style="stroke:black;stroke-width:.036;stroke-miterlimit:10;fill-rule:evenodd" d="m140.63 314.26c0 1.87 1.33 3.35 2.99 3.35 1.65 0 2.98-1.48 2.98-3.35s-1.33-3.38-2.98-3.38c-1.66 0-2.99 1.51-2.99 3.38z"/>
	<path id="path77" style="stroke:black;stroke-width:.036;stroke-miterlimit:10;fill-rule:evenodd" d="m190.81 344.21c0 1.88 1.33 3.39 2.99 3.39s3.02-1.51 3.02-3.39c0-1.83-1.36-3.34-3.02-3.34s-2.99 1.51-2.99 3.34z"/>
	<path id="path79" style="stroke:black;stroke-width:.036;stroke-miterlimit:10;fill-rule:evenodd" d="m317.42 352.85c-1.22-3.96-3.24-15.91-2.98-18.75 0.36-2.92 3.2-2.41 4.5 1.51 1.11 3.93 2.37 18.76 2.23 21.74-0.36 2.74-2.63-0.57-3.75-4.5z"/>
	<path id="path81" style="stroke:black;stroke-width:.036;stroke-miterlimit:10;fill-rule:evenodd" d="m327.94 359.59c-1.26-4-3.24-15.84-3.03-18.72 0.36-2.92 3.21-2.38 4.5 1.47 1.15 3.93 2.41 18.76 2.27 21.75-0.36 2.73-2.63-0.58-3.74-4.5z"/>
	<path id="path83" style="stroke:black;stroke-width:.036;stroke-miterlimit:10;fill-rule:evenodd" d="m151.14 456.86c2.3 3.02 7.56 8.82 13.82 12.67 6.16 3.78 17.1 8.06 23.12 9.79 5.83 1.48 13.28 1.05 12.09-0.32-1.37-1.37-13.71-5.22-19.55-7.96-5.9-2.81-10.8-5.87-15.66-9.03-5.07-3.35-11.7-9.62-14.04-10.44-2.37-0.98-2.16 2.26 0.22 5.29z"/>
	<path id="path85" style="stroke:black;stroke-width:.036;stroke-miterlimit:10;fill-rule:evenodd" d="m169.82 473.45c-1.22-3.99-3.24-15.84-2.98-18.72 0.36-2.81 3.2-2.48 4.5 1.52 1.11 3.85 2.37 18.72 2.23 21.7-0.36 2.74-2.63-0.57-3.75-4.5z"/>
	<path id="path87" style="stroke:black;stroke-width:.036;stroke-miterlimit:10;fill-rule:evenodd" d="m183.32 478.71c-1.22-4-3.24-15.84-2.98-18.72 0.36-2.92 3.2-2.38 4.5 1.48 1.11 3.92 2.37 18.75 2.23 21.74-0.36 2.74-2.63-0.58-3.75-4.5z"/>
	<path id="path89" style="stroke:black;stroke-width:.036;stroke-miterlimit:10;fill-rule:evenodd" d="m292.98 473.81c2.34 2.2 7.31 6.12 12.96 8.46 5.58 2.2 15.05 4.29 20.2 4.86 5.04 0.43 10.9-0.93 9.82-1.87-1.26-1.04-11.84-2.38-17.02-3.85-5.19-1.62-9.58-3.24-14.01-5.26-4.64-2.01-10.83-6.26-12.89-6.62-1.98-0.36-1.44 2.09 0.94 4.28z"/>
	<path id="path91" style="stroke:black;stroke-width:.036;stroke-miterlimit:10;fill-rule:evenodd" d="m311.84 482.38c-1-3.27-2.66-13.1-2.44-15.48 0.18-2.37 2.66-2.01 3.7 1.23 0.94 3.17 1.98 15.55 1.88 18-0.33 2.23-2.16-0.51-3.14-3.75z"/>
	<path id="path93" style="stroke:black;stroke-width:.036;stroke-miterlimit:10;fill-rule:evenodd" d="m320.56 487.96c-0.98-3.27-2.78-13.1-2.49-15.48 0.18-2.37 2.67-2.01 3.71 1.23 0.94 3.17 1.98 15.55 1.87 18-0.29 2.23-2.19-0.51-3.09-3.75z"/>
	<path id="path95" style="stroke:black;stroke-width:.036;stroke-miterlimit:10;fill-rule:evenodd" d="m167.84 163.35c0 30.92 25.38 55.98 56.7 55.98 31.29 0 56.67-25.06 56.67-55.98s-25.38-55.98-56.67-55.98c-31.32 0-56.7 25.06-56.7 55.98z"/>
	<path id="path97" style="fill-rule:evenodd;stroke:black;stroke-width:.036;stroke-miterlimit:10;fill:#f0f0f0" d="m171.8 163.35c0 28.76 23.62 52.09 52.74 52.09 29.13 0 52.74-23.33 52.74-52.09s-23.61-52.09-52.74-52.09c-29.12 0-52.74 23.33-52.74 52.09z"/>
	<path id="path99" style="stroke:black;stroke-width:.036;stroke-miterlimit:10;fill-rule:evenodd" d="m278.26 163.35c0 30.92 25.38 55.98 56.7 55.98 31.28 0 56.66-25.06 56.66-55.98s-25.38-55.98-56.66-55.98c-31.32 0-56.7 25.06-56.7 55.98z"/>
	<path id="path101" style="fill-rule:evenodd;stroke:black;stroke-width:.036;stroke-miterlimit:10;fill:#f0f0f0" d="m282.22 163.35c0 28.76 23.61 52.09 52.74 52.09 29.12 0 52.74-23.33 52.74-52.09s-23.62-52.09-52.74-52.09c-29.13 0-52.74 23.33-52.74 52.09z"/>
	<path id="path103" style="stroke:black;stroke-width:.036;stroke-miterlimit:10;fill-rule:evenodd" d="m170.8 149.45c-8-1.65-15.3-3.06-21.93-4.21-6.69-1.22-12.71-2.19-18.03-2.91l-4.58 10c11.38 1.55 20.38 2.96 27.83 4.22 7.35 1.22 12.57 2.3 16.06 3.24 0.21-3.42 0.43-6.88 0.65-10.34z"/>
	<path id="path105" style="stroke:black;stroke-width:.036;stroke-miterlimit:10;fill-rule:evenodd" d="m387.7 149.45c7.99-1.65 15.26-3.06 21.96-4.21 6.69-1.22 12.56-2.19 18-2.91l4.6 10c-11.37 1.55-20.48 2.96-27.86 4.22-7.31 1.22-12.71 2.3-16.06 3.24-0.21-3.42-0.43-6.88-0.64-10.34z"/>
	<path id="path107" style="stroke:black;stroke-width:.036;stroke-miterlimit:10;fill-rule:evenodd" d="m334.81 174.08c0 6.48-5.97 11.77-13.32 11.77-7.38 0-13.32-5.29-13.32-11.77 0-6.52 5.94-11.77 13.32-11.77 7.35 0 13.32 5.25 13.32 11.77z"/>
	<path id="path109" style="fill-rule:evenodd;stroke:black;stroke-width:.036;stroke-miterlimit:10;fill:white" d="m324.19 171.88c0 2.02-1.62 3.64-3.6 3.64-2.01 0-3.63-1.62-3.63-3.64 0-2.01 1.62-3.63 3.63-3.63 1.98 0 3.6 1.62 3.6 3.63z"/>
	<path id="path111" style="stroke:black;stroke-width:.036;stroke-miterlimit:10;fill-rule:evenodd" d="m233.47 176.13c0 6.62 5.94 12.02 13.32 12.02 7.35 0 13.32-5.4 13.32-12.02 0-6.66-5.97-12.02-13.32-12.02-7.38 0-13.32 5.36-13.32 12.02z"/>
	<path id="path113" style="fill-rule:evenodd;stroke:black;stroke-width:.036;stroke-miterlimit:10;fill:white" d="m240.2 173.93c0 2.02 1.62 3.64 3.6 3.64 2.02 0 3.64-1.62 3.64-3.64 0-2.01-1.62-3.63-3.64-3.63-1.98 0-3.6 1.62-3.6 3.63z"/>
	<path id="path115" style="stroke:black;stroke-width:.036;stroke-miterlimit:10;fill-rule:evenodd" d="m349.18 150.82c-2.81-2.37-8.46-5.83-12.93-7.99-4.46-2.16-9.97-4.07-13.46-4.61-3.57-0.61-7.06 0.04-7.56 1.12-0.54 1.11 1.44 3.78 4.39 5.22 2.95 1.19 8.71 0.86 12.96 2.48 4.14 1.55 8.5 4.9 11.56 6.99 2.91 1.9 4.6 4.57 6.04 4.93 1.34 0.29 2.42-1.3 2.27-2.67-0.14-1.47-0.68-3.16-3.27-5.47z"/>
	<path id="path117" style="stroke:black;stroke-width:.036;stroke-miterlimit:10;fill-rule:evenodd" d="m212.3 156.76c1.95-2.77 6.38-7.38 10.08-10.33 3.5-2.99 8.36-6.01 11.52-7.27 3.21-1.33 6.52-1.51 7.46-0.54 0.68 0.9-0.33 3.96-2.74 5.87-2.48 1.87-8.21 2.66-11.63 5.14-3.6 2.38-6.77 6.48-9.07 9.11-2.27 2.56-3.2 5.15-4.36 5.98-1.29 0.57-2.62-0.76-2.88-2.05-0.36-1.41-0.28-3.24 1.62-5.91z"/>
</g>
<metadata><rdf:RDF><cc:Work><dc:format>image/svg+xml</dc:format><dc:type rdf:resource="http://purl.org/dc/dcmitype/StillImage"/><cc:license rdf:resource="http://creativecommons.org/licenses/publicdomain/"/><dc:publisher><cc:Agent rdf:about="http://openclipart.org/"><dc:title>Openclipart</dc:title></cc:Agent></dc:publisher><dc:title>Man Face Cartoon</dc:title><dc:date>2006-10-18T11:12:19</dc:date><dc:description>Uploaded by "World Label" for conversion to SVG and publication on OCAL.</dc:description><dc:source>https://openclipart.org/detail/734/man-face-cartoon-by-gerald_g-734</dc:source><dc:creator><cc:Agent><dc:title>Gerald_G</dc:title></cc:Agent></dc:creator><dc:subject><rdf:Bag><rdf:li>cartoon</rdf:li><rdf:li>externalsource</rdf:li><rdf:li>face</rdf:li><rdf:li>man</rdf:li><rdf:li>people</rdf:li><rdf:li>remix</rdf:li><rdf:li>worldlabel</rdf:li></rdf:Bag></dc:subject></cc:Work><cc:License rdf:about="http://creativecommons.org/licenses/publicdomain/"><cc:permits rdf:resource="http://creativecommons.org/ns#Reproduction"/><cc:permits rdf:resource="http://creativecommons.org/ns#Distribution"/><cc:permits rdf:resource="http://creativecommons.org/ns#DerivativeWorks"/></cc:License></rdf:RDF></metadata></svg>
