<svg width="494.00000000000006" height="534" xmlns="http://www.w3.org/2000/svg">

 <g id="imagebot_2">
  <path fill-rule="evenodd" stroke="black" stroke-width="0.036" stroke-miterlimit="10" fill="#ffd4aa" d="M 50.989186002895224 284.0673746477504 C 50.989186002895224 415.9373746477504 138.1131860028952 522.8873746477504 245.5691860028952 522.8873746477504 S 440.14918600289525 415.9373746477504 440.14918600289525 284.0673746477504 C 440.14918600289525 152.16737464775042 353.02918600289524 45.20737464775041 245.5691860028952 45.20737464775041 C 138.0991860028953 45.20637464775041 50.989186002895224 152.16737464775042 50.989186002895224 284.0673746477504 L 50.98518600289526 284.0673746477504 L 50.989186002895224 284.0673746477504 z" id="imagebot_39"/>
  <path stroke="black" stroke-width="0.036" stroke-miterlimit="10" fill-rule="evenodd" d="M 62.60268600289523 247.9998746477504 C 61.378686002895236 243.1398746477504 59.18268600289524 239.6798746477504 55.87068600289523 237.1998746477504 C 52.558686002895236 234.7098746477504 48.09468600289524 233.3798746477504 42.87468600289524 233.3398746477504 C 37.510686002895234 233.2398746477504 29.266686002895234 233.0598746477504 24.118686002895235 236.6898746477504 C 18.862686002895238 240.2898746477504 14.722686002895236 246.6298746477504 11.842686002895237 254.7298746477504 C 8.818686002895236 262.71987464775043 6.226686002895236 274.5298746477504 6.550686002895236 284.3198746477504 C 6.838686002895236 294.0798746477504 8.854686002895235 305.4498746477504 14.002686002895237 312.46987464775043 C 19.078686002895235 319.3798746477504 30.994686002895236 323.8098746477504 37.11468600289523 325.21987464775043 C 43.05468600289524 326.3298746477504 46.65468600289524 323.2398746477504 49.85868600289523 319.6698746477504 C 53.02668600289524 316.0698746477504 54.93468600289523 310.7798746477504 55.87068600289523 303.7998746477504 L 62.60268600289523 247.9998746477504 z" id="imagebot_38"/>
  <path fill-rule="evenodd" fill="#ffd4aa" d="M 56.59068600289524 307.8998746477504 C 56.01468600289524 306.0598746477504 55.29468600289523 305.3098746477504 54.430686002895236 305.4898746477504 C 53.56668600289524 305.7398746477504 52.522686002895234 306.8898746477504 51.29868600289524 309.0898746477504 C 49.85868600289523 311.2098746477504 48.31068600289524 315.4998746477504 46.25868600289524 317.7598746477504 C 44.134686002895236 319.8498746477504 42.55068600289523 321.6498746477504 39.27468600289524 321.6198746477504 C 35.89068600289524 321.4398746477504 30.886686002895235 319.6398746477504 26.782686002895236 317.0398746477504 C 22.642686002895235 314.3098746477504 17.566686002895235 310.6698746477504 14.758686002895237 305.9898746477504 C 11.806686002895237 301.2398746477504 10.258686002895235 295.5898746477504 9.682686002895236 288.8898746477504 C 9.358686002895237 287.6698746477504 9.574686002895236 284.8598746477504 10.186686002895236 280.46987464775043 C 10.798686002895236 275.9298746477504 11.734686002895236 268.1598746477504 13.534686002895237 262.4298746477504 C 15.298686002895236 256.5298746477504 17.530686002895237 250.1598746477504 20.518686002895237 246.0898746477504 C 23.470686002895235 242.0198746477504 26.998686002895237 239.4598746477504 31.102686002895236 238.1298746477504 C 34.99068600289524 236.6198746477504 40.64268600289524 237.1598746477504 44.314686002895236 237.4098746477504 C 47.842686002895235 237.5898746477504 50.506686002895236 238.2398746477504 52.738686002895236 239.35987464775042 C 54.86268600289524 240.4398746477504 56.51868600289524 241.8798746477504 57.562686002895234 243.6798746477504 C 58.60668600289524 245.2998746477504 58.24668600289524 248.3198746477504 59.00268600289524 249.4398746477504 C 59.686686002895236 250.4798746477504 60.51468600289524 250.7698746477504 61.63068600289524 250.1598746477504 C 62.638686002895234 249.4398746477504 63.71868600289524 248.1798746477504 65.01468600289523 245.8398746477504 C 62.20668600289524 266.4998746477504 59.397686002895234 287.1998746477504 56.59068600289524 307.8998746477504 z" id="imagebot_37"/>
  <path stroke="black" stroke-width="0.036" stroke-miterlimit="10" fill-rule="evenodd" d="M 51.802686002895236 259.7998746477504 C 51.29868600289524 258.2898746477504 48.67068600289524 255.6998746477504 46.25868600289524 254.5098746477504 C 43.702686002895234 253.1798746477504 40.06668600289524 251.7398746477504 36.86268600289524 252.5698746477504 C 33.51468600289524 253.35987464775042 29.626686002895237 255.2698746477504 26.998686002895237 259.5498746477504 C 24.334686002895236 263.8398746477504 21.994686002895236 271.3598746477504 21.490686002895234 277.8398746477504 C 20.914686002895237 284.2498746477504 21.526686002895236 293.2798746477504 23.866686002895236 297.5698746477504 C 26.170686002895238 301.6698746477504 31.642686002895235 302.7498746477504 35.42268600289523 302.6098746477504 C 39.022686002895234 302.3198746477504 44.494686002895236 298.1398746477504 46.006686002895236 296.3398746477504 C 47.37468600289524 294.46987464775043 46.11468600289523 291.5598746477504 44.314686002895236 291.7698746477504 C 42.47868600289524 291.9498746477504 38.086686002895235 296.8498746477504 35.42268600289523 297.5698746477504 C 32.57868600289524 298.1798746477504 29.950686002895235 297.4598746477504 28.222686002895237 295.4098746477504 C 26.494686002895236 293.2098746477504 25.558686002895236 289.6098746477504 25.558686002895236 285.0398746477504 C 25.486686002895237 280.3598746477504 26.386686002895235 272.3998746477504 27.970686002895235 267.9798746477504 C 29.446686002895238 263.5098746477504 32.290686002895235 259.9798746477504 34.702686002895234 258.3598746477504 C 37.07868600289524 256.5998746477504 39.92268600289523 257.0298746477504 42.406686002895235 257.8598746477504 C 44.78268600289523 258.6898746477504 47.482686002895235 262.71987464775043 49.138686002895234 263.1498746477504 C 50.64968600289524 263.3698746477504 52.23468600289524 261.2798746477504 51.802686002895236 259.7998746477504 z" id="imagebot_36"/>
  <path stroke="black" stroke-width="0.036" stroke-miterlimit="10" fill-rule="evenodd" d="M 427.2806860028952 250.07987464775042 C 428.47068600289526 245.2598746477504 430.67068600289525 241.6998746477504 434.0106860028952 239.2498746477504 C 437.29068600289526 236.7298746477504 441.61068600289525 235.4998746477504 446.97068600289526 235.4298746477504 C 452.30068600289525 235.3198746477504 460.5106860028952 235.1398746477504 465.7606860028952 238.7798746477504 C 470.9506860028952 242.3798746477504 474.98068600289525 248.7198746477504 478.00068600289524 256.8198746477504 C 480.92068600289525 264.8098746477504 483.5106860028952 276.6198746477504 483.30068600289525 286.4098746477504 C 482.9006860028952 296.1598746477504 480.88068600289523 307.5398746477504 475.8406860028952 314.5598746477504 C 470.66068600289526 321.46987464775043 458.7106860028952 325.8998746477504 452.7706860028952 327.2998746477504 C 446.72068600289526 328.4198746477504 443.12068600289524 325.3198746477504 440.0306860028952 321.7598746477504 C 436.82068600289523 318.1598746477504 434.91068600289526 312.8698746477504 434.0106860028952 305.8798746477504 L 427.2806860028952 250.07987464775042 z" id="imagebot_35"/>
  <path fill-rule="evenodd" fill="#ffd4aa" d="M 433.29068600289526 309.9898746477504 C 433.8306860028952 308.1498746477504 434.55068600289525 307.3998746477504 435.4506860028952 307.5798746477504 C 436.2106860028952 307.8298746477504 437.25068600289524 308.9798746477504 438.5906860028952 311.1798746477504 C 439.99068600289525 313.2998746477504 441.54068600289526 317.5798746477504 443.63068600289523 319.8498746477504 C 445.68068600289524 321.9398746477504 447.23068600289525 323.7398746477504 450.61068600289525 323.6998746477504 C 453.88068600289523 323.5198746477504 458.92068600289525 321.71987464775043 463.10068600289526 319.1298746477504 C 467.13068600289523 316.4298746477504 472.25068600289524 312.6898746477504 475.12068600289524 308.0398746477504 C 478.04068600289526 303.2598746477504 479.55068600289525 297.7098746477504 480.2006860028952 290.9798746477504 C 480.49068600289525 289.7598746477504 480.2706860028952 286.9498746477504 479.7006860028952 282.5598746477504 C 478.98068600289525 278.0198746477504 478.04068600289526 270.2398746477504 476.35068600289526 264.5198746477504 C 474.55068600289525 258.6198746477504 472.32068600289523 252.2398746477504 469.36068600289525 248.1798746477504 C 466.30068600289525 244.10987464775042 462.7806860028952 241.5498746477504 458.7806860028952 240.2198746477504 C 454.7106860028952 238.7098746477504 449.13068600289523 239.2498746477504 445.5306860028952 239.4998746477504 C 441.9006860028952 239.6798746477504 439.23068600289525 240.32987464775042 437.11068600289525 241.4398746477504 C 434.8406860028952 242.5198746477504 433.29068600289526 243.9598746477504 432.32068600289523 245.7598746477504 C 431.17068600289525 247.3798746477504 431.56068600289524 250.4098746477504 430.88068600289523 251.5198746477504 C 430.12068600289524 252.5698746477504 429.19068600289523 252.85987464775042 428.22068600289526 252.2398746477504 C 427.17068600289525 251.5198746477504 426.06068600289524 250.2598746477504 424.87068600289524 247.9198746477504 C 427.68068600289524 268.5898746477504 430.49068600289525 289.2898746477504 433.29068600289526 309.9898746477504 z" id="imagebot_34"/>
  <path stroke="black" stroke-width="0.036" stroke-miterlimit="10" fill-rule="evenodd" d="M 438.0806860028952 261.8898746477504 C 438.5106860028952 260.3798746477504 441.11068600289525 257.7898746477504 443.63068600289523 256.5998746477504 C 446.07068600289523 255.2698746477504 449.75068600289524 253.82987464775042 452.99068600289525 254.6598746477504 C 456.2606860028952 255.4498746477504 460.1506860028952 257.3598746477504 462.85068600289526 261.6398746477504 C 465.37068600289524 265.9198746477504 467.82068600289523 273.4498746477504 468.3906860028952 279.9298746477504 C 468.86068600289525 286.3398746477504 468.29068600289526 295.3698746477504 465.98068600289525 299.6598746477504 C 463.5306860028952 303.7598746477504 458.17068600289525 304.8398746477504 454.4606860028952 304.6998746477504 C 450.75068600289524 304.4098746477504 445.2806860028952 300.2298746477504 443.88068600289523 298.4298746477504 C 442.47068600289526 296.5598746477504 443.62068600289524 293.6398746477504 445.5306860028952 293.8598746477504 C 447.2606860028952 294.0398746477504 451.72068600289526 298.9398746477504 454.4606860028952 299.6598746477504 C 457.16068600289526 300.1998746477504 459.93068600289524 299.5098746477504 461.66068600289526 297.4598746477504 C 463.32068600289523 295.2298746477504 464.1406860028952 291.7398746477504 464.29068600289526 287.1298746477504 C 464.22068600289526 282.4498746477504 463.42068600289525 274.4898746477504 461.91068600289526 270.0598746477504 C 460.36068600289525 265.4898746477504 457.5206860028952 262.1398746477504 455.18068600289524 260.4198746477504 C 452.7006860028952 258.6198746477504 449.85068600289526 259.1598746477504 447.48068600289525 259.9498746477504 C 444.99068600289525 260.7798746477504 442.3306860028952 264.8098746477504 440.75068600289524 265.2398746477504 C 439.13068600289523 265.4598746477504 437.54068600289526 263.3698746477504 438.0806860028952 261.8898746477504 z" id="imagebot_33"/>
  <path stroke="black" stroke-width="0.036" stroke-miterlimit="10" fill-rule="evenodd" d="M 196.16068600289523 222.35987464775042 C 196.16068600289523 233.2398746477504 202.10068600289523 242.0898746477504 209.48068600289523 242.0898746477504 C 216.83068600289525 242.0898746477504 222.80068600289525 233.2398746477504 222.80068600289525 222.35987464775042 C 222.80068600289525 211.4598746477504 216.83068600289525 202.6398746477504 209.48068600289523 202.6398746477504 C 202.10068600289523 202.6398746477504 196.16068600289523 211.4598746477504 196.16068600289523 222.35987464775042 z" id="imagebot_32"/>
  <path fill-rule="evenodd" stroke="black" stroke-width="0.036" stroke-miterlimit="10" fill="white" d="M 202.86068600289525 212.4598746477504 C 202.86068600289525 214.4398746477504 204.48068600289523 216.0598746477504 206.49068600289525 216.0598746477504 C 208.51068600289523 216.0598746477504 210.13068600289523 214.4398746477504 210.13068600289523 212.4598746477504 C 210.13068600289523 210.4498746477504 208.51068600289523 208.82987464775042 206.49068600289525 208.82987464775042 C 204.48068600289523 208.82987464775042 202.86068600289525 210.4498746477504 202.86068600289525 212.4598746477504 z" id="imagebot_31"/>
  <path stroke="black" stroke-width="0.036" stroke-miterlimit="10" fill-rule="evenodd" d="M 183.49068600289525 187.8798746477504 C 185.97068600289523 185.5698746477504 191.48068600289523 181.9698746477504 195.73068600289523 179.8498746477504 C 199.94068600289523 177.57987464775042 205.20068600289522 175.8498746477504 208.73068600289523 175.1998746477504 C 212.11068600289525 174.5198746477504 215.53068600289524 175.2398746477504 216.21068600289524 176.2498746477504 C 216.65068600289524 177.2898746477504 215.03068600289524 180.0298746477504 212.18068600289524 181.3998746477504 C 209.37068600289524 182.6198746477504 203.51068600289523 182.32987464775042 199.58068600289525 183.9898746477504 C 195.59068600289524 185.4998746477504 191.37068600289524 188.9898746477504 188.60068600289523 190.9698746477504 C 185.83068600289525 192.9198746477504 184.21068600289524 195.4398746477504 182.91068600289523 195.8998746477504 C 181.44068600289523 196.2598746477504 180.50068600289524 194.5698746477504 180.54068600289523 193.3098746477504 C 180.54068600289523 191.9798746477504 180.97068600289523 190.0398746477504 183.49068600289525 187.8798746477504 z" id="imagebot_30"/>
  <path stroke="black" stroke-width="0.036" stroke-miterlimit="10" fill-rule="evenodd" d="M 292.82068600289523 226.35987464775042 C 292.82068600289523 237.2698746477504 286.88068600289523 246.1198746477504 279.50068600289524 246.1198746477504 C 272.16068600289526 246.1198746477504 266.18068600289524 237.2698746477504 266.18068600289524 226.35987464775042 C 266.18068600289524 215.4898746477504 272.16068600289526 206.6298746477504 279.50068600289524 206.6298746477504 C 286.88068600289523 206.6298746477504 292.82068600289523 215.4898746477504 292.82068600289523 226.35987464775042 z" id="imagebot_29"/>
  <path fill-rule="evenodd" stroke="black" stroke-width="0.036" stroke-miterlimit="10" fill="white" d="M 282.24068600289525 216.2098746477504 C 282.24068600289525 218.2198746477504 280.62068600289524 219.8398746477504 278.60068600289526 219.8398746477504 C 276.62068600289524 219.8398746477504 275.00068600289524 218.2198746477504 275.00068600289524 216.2098746477504 C 275.00068600289524 214.2298746477504 276.62068600289524 212.60987464775042 278.60068600289526 212.60987464775042 C 280.62068600289524 212.60987464775042 282.24068600289525 214.2298746477504 282.24068600289525 216.2098746477504 z" id="imagebot_28"/>
  <path stroke="black" stroke-width="0.036" stroke-miterlimit="10" fill-rule="evenodd" d="M 308.7706860028952 191.9098746477504 C 306.07068600289523 189.5998746477504 300.7806860028952 185.9998746477504 296.50068600289524 183.8798746477504 C 292.2106860028952 181.60987464775042 286.9606860028952 179.8798746477504 283.50068600289524 179.2398746477504 C 279.94068600289523 178.5898746477504 276.5906860028952 179.1998746477504 275.98068600289525 180.2398746477504 C 275.47068600289526 181.2898746477504 277.0906860028952 183.9898746477504 280.0106860028952 185.4298746477504 C 282.7806860028952 186.6498746477504 288.61068600289525 186.35987464775042 292.6406860028952 188.0198746477504 C 296.60068600289526 189.5298746477504 300.7806860028952 193.0198746477504 303.66068600289526 194.9998746477504 C 306.36068600289525 196.9498746477504 307.98068600289525 199.4998746477504 309.35068600289526 199.8998746477504 C 310.72068600289526 200.2198746477504 311.6506860028952 198.6798746477504 311.72068600289526 197.3398746477504 C 311.6506860028952 196.0098746477504 311.18068600289524 194.0698746477504 308.7706860028952 191.9098746477504 z" id="imagebot_27"/>
  <path stroke="black" stroke-width="0.036" stroke-miterlimit="10" fill-rule="evenodd" d="M 76.89468600289524 207.3898746477504 C 77.36268600289523 203.0698746477504 80.78268600289523 192.0198746477504 83.26668600289524 184.9198746477504 C 85.64268600289523 177.6498746477504 89.85468600289524 167.5698746477504 91.58268600289523 164.9398746477504 C 93.34668600289524 162.3898746477504 94.31868600289523 165.4798746477504 93.52668600289523 169.6598746477504 C 92.51868600289524 173.7298746477504 88.30668600289523 182.5098746477504 86.03868600289523 189.3498746477504 C 83.73468600289523 196.1598746477504 81.43068600289524 207.0298746477504 79.95468600289523 210.1598746477504 C 78.37068600289524 212.9998746477504 76.28268600289523 211.7098746477504 76.89468600289524 207.3898746477504 z" id="imagebot_26"/>
  <path stroke="black" stroke-width="0.036" stroke-miterlimit="10" fill-rule="evenodd" d="M 76.06568600289523 215.6998746477504 C 75.41768600289524 216.8898746477504 74.30168600289524 221.9298746477504 74.66168600289524 223.1898746477504 C 75.09368600289524 224.2698746477504 77.54168600289523 224.1298746477504 78.26168600289523 222.8998746477504 C 78.76568600289524 221.60987464775042 78.62168600289523 217.1798746477504 78.26168600289523 215.9898746477504 C 77.72268600289523 214.6998746477504 76.71468600289523 214.5498746477504 76.06568600289523 215.6998746477504 z" id="imagebot_25"/>
  <path stroke="black" stroke-width="0.036" stroke-miterlimit="10" fill-rule="evenodd" d="M 96.47868600289523 154.3998746477504 C 95.50668600289524 155.4398746477504 93.05868600289524 159.8698746477504 93.16668600289523 161.2698746477504 C 93.23868600289524 162.4998746477504 95.72268600289523 162.85987464775042 96.73068600289524 161.9198746477504 C 97.63068600289523 160.8798746477504 98.45868600289523 156.4798746477504 98.53068600289524 155.2598746477504 C 98.45868600289523 153.8498746477504 97.30668600289523 153.4198746477504 96.47868600289523 154.3998746477504 z" id="imagebot_24"/>
  <path fill-rule="evenodd" stroke="black" stroke-width="0.036" stroke-miterlimit="10" fill="#7f3f00" d="M 218.84818600289523 40.584874647750404 C 221.47818600289523 43.644874647750406 223.45818600289525 46.4888746477504 224.39818600289524 51.6368746477504 C 225.29818600289525 56.7848746477504 226.73818600289525 65.60487464775039 224.39818600289524 71.7248746477504 C 221.94818600289523 77.7728746477504 216.11818600289524 82.9568746477504 209.81818600289523 87.8178746477504 C 203.25818600289523 92.5698746477504 193.25818600289523 95.0888746477504 186.19818600289523 100.3808746477504 C 179.13818600289522 105.5288746477504 174.78818600289523 110.5698746477504 168.12818600289523 118.9598746477504 C 161.42818600289525 127.3498746477504 155.41818600289523 137.7898746477504 146.48818600289525 150.1298746477504 C 137.30818600289524 162.3698746477504 125.24818600289524 179.5098746477504 114.33818600289524 191.8198746477504 C 103.39818600289523 203.9498746477504 90.11418600289524 215.4698746477504 81.69018600289523 222.4898746477504 C 73.26618600289524 229.2998746477504 70.45818600289522 230.5898746477504 64.08618600289523 233.0398746477504 C 57.46218600289524 235.4898746477504 49.36218600289524 238.2598746477504 42.99018600289523 237.0698746477504 C 36.61818600289524 235.7398746477504 30.894186002895225 229.4398746477504 26.394186002895225 225.5198746477504 C 21.714186002895246 221.5198746477504 18.474186002895237 217.3098746477504 15.846186002895223 213.4598746477504 C 13.110186002895233 209.5298746477504 10.914186002895235 206.07987464775042 10.806186002895231 202.4098746477504 C 10.554186002895221 198.6298746477504 11.922186002895245 195.0598746477504 15.342186002895232 191.3198746477504 C 18.83418600289525 187.3898746477504 25.170186002895235 184.6598746477504 31.434186002895245 179.7598746477504 C 37.59018600289522 174.8998746477504 46.446186002895246 169.82987464775042 52.02618600289523 162.1898746477504 C 57.49818600289524 154.2398746477504 60.414186002895235 144.5898746477504 64.08618600289523 133.53987464775042 C 67.50618600289522 122.4098746477504 70.09818600289523 107.86987464775041 73.12218600289523 96.8528746477504 C 76.00218600289523 85.7648746477504 77.08218600289524 77.0888746477504 82.19418600289524 68.19787464775041 C 87.30618600289523 59.2688746477504 95.01018600289524 51.2778746477504 103.79418600289523 44.077874647750406 C 112.43818600289524 36.73287464775041 122.51818600289523 28.705874647750402 134.42818600289525 24.997874647750404 C 146.45818600289525 21.217874647750403 162.61818600289524 20.677874647750404 175.14818600289524 21.973874647750403 C 187.52818600289524 23.198874647750404 200.84818600289523 29.353874647750402 208.29818600289525 32.5218746477504 C 215.53818600289523 35.580874647750406 216.18818600289524 37.3448746477504 218.84818600289523 40.584874647750404 z" id="imagebot_16"/>
  <path fill-rule="evenodd" stroke="black" stroke-width="0.036" stroke-miterlimit="10" fill="#7f3f00" d="M 288.84068600289515 11.979374647750403 C 278.7606860028952 12.626374647750403 275.2706860028952 14.427374647750403 267.24068600289525 17.5233746477504 C 259.0306860028952 20.547374647750402 247.37068600289524 26.199374647750403 240.60068600289526 30.591374647750403 C 233.7906860028952 34.9103746477504 230.52068600289522 38.9433746477504 227.0306860028952 43.658374647750406 C 223.43068600289524 48.158374647750406 220.2906860028952 52.9103746477504 219.97068600289526 58.2023746477504 C 219.75068600289524 63.5663746477504 221.37068600289524 71.6313746477504 225.51068600289523 75.3033746477504 C 229.55068600289525 78.7943746477504 239.27068600289522 78.47137464775041 244.13068600289523 79.33437464775041 C 248.84068600289527 80.0913746477504 247.6506860028952 78.43537464775041 254.17068600289525 80.34337464775041 C 260.61068600289525 82.21537464775041 269.18068600289524 84.6623746477504 282.7906860028952 90.8913746477504 C 296.4006860028952 97.0473746477504 319.98068600289525 107.9223746477504 335.0606860028952 117.5323746477504 C 349.86068600289525 127.18237464775041 361.1606860028953 138.4123746477504 371.75068600289524 148.17237464775042 C 382.22068600289526 157.6323746477504 391.4006860028952 165.5923746477504 397.88068600289523 174.8123746477504 C 404.22068600289526 184.0223746477504 406.49068600289525 193.3523746477504 409.9406860028953 203.4623746477504 C 413.36068600289525 213.6123746477504 415.7006860028953 226.1123746477504 418.48068600289525 235.1123746477504 C 421.0706860028952 243.9623746477504 422.1506860028952 251.2723746477504 426.0406860028952 256.2023746477504 C 429.8906860028952 261.03237464775043 435.72068600289526 263.8723746477504 441.59068600289515 263.7623746477504 C 447.35068600289526 263.2923746477504 455.1606860028953 258.65237464775043 460.7006860028953 254.6923746477504 C 466.1406860028952 250.7323746477504 470.5306860028952 247.9923746477504 474.2806860028952 240.6523746477504 C 477.9506860028953 233.1623746477504 483.24068600289525 217.9723746477504 482.8106860028952 210.4823746477504 C 482.1606860028953 202.9623746477504 476.87068600289524 201.9923746477504 471.25068600289524 195.9023746477504 C 465.60068600289526 189.7123746477504 455.2706860028952 182.7623746477504 449.1506860028952 173.8023746477504 C 442.9506860028953 164.6223746477504 439.0706860028952 153.42237464775042 434.5706860028952 142.1523746477504 C 429.99068600289525 130.7823746477504 427.2906860028952 118.8623746477504 422.00068600289524 106.94737464775041 C 416.60068600289526 94.9243746477504 411.24068600289525 83.9073746477504 402.4206860028953 71.2713746477504 C 393.38068600289523 58.5633746477504 381.3206860028952 41.3553746477504 368.72068600289526 31.599374647750402 C 355.9406860028953 21.771374647750402 340.4306860028953 16.263374647750403 327.0406860028952 12.987374647750404 C 313.5706860028952 9.675374647750402 298.85068600289526 11.151374647750403 288.84068600289515 11.979374647750403 z" id="imagebot_15"/>
  <path stroke="black" stroke-width="0.036" stroke-miterlimit="10" fill-rule="evenodd" d="M 211.17068600289522 56.9428746477504 C 205.02068600289525 54.385874647750406 192.81068600289524 44.9908746477504 180.00068600289524 42.3628746477504 C 167.11068600289525 39.7348746477504 147.13068600289523 35.809874647750405 134.78068600289524 41.858874647750405 C 122.29068600289524 47.9068746477504 114.59068600289524 62.3058746477504 106.13068600289523 78.54287464775041 C 97.66668600289523 94.7428746477504 95.47068600289523 120.5598746477504 84.52668600289523 138.3398746477504 C 73.43868600289524 156.0498746477504 51.15468600289524 174.1598746477504 40.318686002895234 184.0598746477504 C 29.410686002895236 193.6698746477504 23.362686002895234 195.3998746477504 19.690686002895237 196.6198746477504 C 15.982686002895235 197.7398746477504 14.974686002895236 194.6798746477504 18.178686002895237 191.6198746477504 C 21.310686002895235 188.5198746477504 30.058686002895236 185.3198746477504 38.302686002895236 178.5498746477504 C 46.510686002895234 171.6398746477504 58.82268600289524 159.82987464775042 66.92268600289523 150.8998746477504 C 74.84268600289523 141.9798746477504 80.67468600289524 135.8898746477504 85.53468600289524 125.2698746477504 C 90.32268600289524 114.39987464775041 91.54668600289524 98.2358746477504 95.57868600289524 87.0758746477504 S 104.00068600289524 66.5918746477504 109.15068600289524 58.959874647750404 C 114.05068600289523 51.291874647750404 118.76068600289524 45.5678746477504 125.24068600289523 41.355874647750404 C 131.69068600289523 37.0368746477504 138.20068600289522 33.7598746477504 147.85068600289523 33.3288746477504 C 157.50068600289524 32.824874647750406 173.09068600289524 36.208874647750406 182.52068600289525 38.3328746477504 C 191.73068600289523 40.2408746477504 197.35068600289523 42.364874647750405 203.11068600289525 45.388874647750406 C 208.73068600289523 48.449874647750406 214.70068600289522 54.352874647750404 216.18068600289524 56.440874647750405 C 217.47068600289523 58.273874647750404 217.15068600289524 59.282874647750404 211.17068600289522 56.9428746477504 z" id="imagebot_14"/>
  <path stroke="black" stroke-width="0.036" stroke-miterlimit="10" fill-rule="evenodd" d="M 206.64068600289522 65.9788746477504 C 201.89068600289522 65.04287464775041 188.13068600289523 64.7188746477504 178.99068600289525 65.9788746477504 C 169.88068600289523 67.0588746477504 162.07068600289523 66.6268746477504 152.35068600289523 73.0358746477504 C 142.52068600289525 79.55187464775041 128.91068600289523 93.0148746477504 120.71068600289523 104.67987464775041 C 112.50068600289524 116.1998746477504 109.83068600289523 129.8398746477504 103.14068600289524 141.8698746477504 C 96.22668600289524 153.7798746477504 88.88268600289524 164.7998746477504 79.99068600289523 176.0298746477504 C 70.95468600289523 187.2298746477504 54.574686002895234 202.0998746477504 49.85868600289523 208.6798746477504 C 45.17868600289523 214.9798746477504 48.49068600289524 216.85987464775042 51.87468600289524 214.7298746477504 C 55.186686002895236 212.5698746477504 62.53068600289524 203.7898746477504 69.44268600289523 196.1598746477504 C 76.21068600289523 188.4498746477504 85.67868600289523 178.1598746477504 92.55468600289524 169.0098746477504 C 99.21468600289523 159.82987464775042 104.90068600289524 151.2598746477504 110.16068600289523 141.35987464775042 C 115.41068600289523 131.3198746477504 117.14068600289524 119.5798746477504 124.23068600289524 109.2198746477504 C 131.22068600289523 98.6688746477504 142.05068600289525 85.2408746477504 151.88068600289523 79.04887464775041 C 161.71068600289524 72.9288746477504 173.27068600289525 73.7208746477504 182.52068600289525 72.5328746477504 C 191.63068600289523 71.30787464775041 201.96068600289524 72.4968746477504 206.13068600289523 71.5238746477504 C 210.17068600289522 70.4068746477504 211.03068600289524 66.8428746477504 206.64068600289522 65.9788746477504 z" id="imagebot_13"/>
  <path stroke="black" stroke-width="0.036" stroke-miterlimit="10" fill-rule="evenodd" d="M 251.85068600289523 34.334874647750404 C 255.38068600289523 31.490874647750402 265.10068600289526 25.802874647750404 275.47068600289526 22.273874647750404 C 285.80068600289525 18.746874647750403 300.7806860028952 12.877874647750403 313.16068600289526 13.706874647750404 C 325.29068600289526 14.534874647750403 336.74068600289525 20.078874647750403 348.3306860028952 27.278874647750403 C 359.85068600289526 34.370874647750405 372.38068600289523 43.6228746477504 382.0306860028952 56.437874647750405 C 391.5306860028952 69.25387464775041 398.12068600289524 86.89387464775041 405.1406860028952 103.6698746477504 C 412.0206860028952 120.4098746477504 415.22068600289526 141.7198746477504 423.2106860028952 155.9398746477504 C 431.17068600289525 169.8698746477504 442.8306860028952 178.2598746477504 452.37068600289524 187.07987464775042 C 461.73068600289525 195.82987464775042 475.0206860028952 203.7498746477504 479.0106860028952 208.2098746477504 C 482.79068600289526 212.4998746477504 481.8906860028952 217.35987464775042 475.48068600289525 213.2198746477504 C 468.75068600289524 208.85987464775042 449.85068600289526 192.0098746477504 440.31068600289524 183.07987464775042 C 430.8406860028952 174.1198746477504 425.30068600289525 171.7798746477504 419.22068600289526 159.9398746477504 C 413.0206860028952 147.8398746477504 409.17068600289525 127.0698746477504 403.63068600289523 112.1998746477504 C 398.0106860028952 97.3338746477504 392.61068600289525 83.6178746477504 386.0206860028952 72.0258746477504 C 379.3306860028952 60.577874647750406 373.5306860028952 51.541874647750404 363.92068600289525 43.3698746477504 C 354.16068600289526 34.980874647750404 340.05068600289525 26.0538746477504 328.24068600289525 22.272874647750402 C 316.22068600289526 18.384874647750404 305.42068600289525 18.060874647750403 293.07068600289523 20.760874647750402 C 280.6506860028952 23.532874647750404 261.86068600289525 35.916874647750404 254.88068600289523 38.3288746477504 C 248.00068600289524 40.4908746477504 248.29068600289523 37.0348746477504 251.85068600289523 34.334874647750404 z" id="imagebot_12"/>
  <path stroke="black" stroke-width="0.036" stroke-miterlimit="10" fill-rule="evenodd" d="M 246.85068600289523 57.9508746477504 C 252.83068600289525 57.3028746477504 271.0106860028952 56.870874647750405 282.5306860028952 58.4548746477504 C 293.8306860028952 60.0028746477504 301.17068600289525 60.794874647750405 314.67068600289525 67.4908746477504 C 328.25068600289524 74.3308746477504 348.2606860028952 85.3098746477504 362.91068600289526 98.6308746477504 C 377.42068600289525 111.8398746477504 390.67068600289525 131.85987464775042 401.11068600289525 145.8998746477504 C 411.3306860028952 159.82987464775042 416.91068600289526 171.4998746477504 424.22068600289526 181.57987464775042 C 431.4606860028952 191.4398746477504 436.9606860028952 198.9298746477504 444.3406860028952 205.6998746477504 C 451.62068600289524 212.4298746477504 465.04068600289526 219.1998746477504 467.9606860028952 222.2598746477504 C 470.62068600289524 225.2798746477504 466.4506860028952 226.2498746477504 461.41068600289526 223.7698746477504 C 456.3306860028952 221.0298746477504 445.86068600289525 214.5198746477504 438.30068600289525 206.6998746477504 C 430.74068600289525 198.85987464775042 423.97068600289526 188.2698746477504 416.19068600289523 177.0398746477504 C 408.13068600289523 165.5898746477504 399.7006860028952 151.07987464775042 391.06068600289524 139.3498746477504 C 382.3906860028952 127.53987464775041 374.97068600289526 116.9198746477504 364.93068600289524 107.1998746477504 C 354.88068600289523 97.4438746477504 343.94068600289523 88.8038746477504 331.2706860028952 81.5678746477504 C 318.4506860028952 74.2588746477504 303.0806860028952 67.27487464775041 289.04068600289526 63.9638746477504 C 274.86068600289525 60.687874647750405 254.48068600289523 62.8838746477504 247.35068600289523 61.9478746477504 C 240.30068600289525 60.9028746477504 240.91068600289523 58.4548746477504 246.85068600289523 57.9508746477504 z" id="imagebot_11"/>
  <path stroke="black" stroke-width="0.036" stroke-miterlimit="10" fill-rule="evenodd" d="M 171.03068600289524 360.0298746477504 C 176.90068600289524 366.71987464775043 183.67068600289522 372.5898746477504 191.73068600289523 377.7798746477504 C 199.80068600289525 382.9198746477504 207.50068600289524 387.4198746477504 218.88068600289523 390.8398746477504 C 230.18068600289524 394.0798746477504 245.91068600289523 397.4998746477504 258.98068600289525 397.3598746477504 C 271.94068600289523 397.0698746477504 286.0906860028952 392.6398746477504 296.13068600289523 389.7598746477504 C 305.8906860028952 386.7398746477504 311.54068600289526 384.3998746477504 317.81068600289524 379.96987464775043 C 324.11068600289525 375.5398746477504 329.25068600289524 370.0298746477504 333.6506860028952 363.2998746477504 L 329.11068600289525 360.7498746477504 C 324.61068600289525 367.0098746477504 318.60068600289526 372.2998746477504 310.68068600289524 377.0498746477504 C 302.6506860028952 381.6998746477504 292.1406860028952 386.1598746477504 281.91068600289526 388.6498746477504 C 271.55068600289525 390.9898746477504 260.93068600289524 391.8898746477504 249.91068600289523 391.1998746477504 C 238.86068600289525 390.2698746477504 225.86068600289525 386.8798746477504 216.61068600289525 383.96987464775043 C 207.39068600289522 380.9798746477504 201.67068600289522 377.9198746477504 194.97068600289523 373.8198746477504 C 188.17068600289522 369.6798746477504 182.01068600289523 364.8898746477504 176.22068600289523 359.3098746477504 C 174.49068600289525 359.5198746477504 172.76068600289523 359.7798746477504 171.03068600289524 360.0298746477504 z" id="imagebot_10"/>
  <path stroke="black" stroke-width="0.036" stroke-miterlimit="10" fill-rule="evenodd" d="M 145.51068600289523 323.4498746477504 C 142.81068600289524 323.1598746477504 140.11068600289525 323.8098746477504 137.12068600289524 325.2498746477504 C 134.13068600289523 326.6598746477504 131.00068600289524 328.9998746477504 127.73068600289524 332.1298746477504 C 123.23068600289524 333.2798746477504 119.70068600289524 334.6098746477504 116.75068600289524 336.1198746477504 C 113.79068600289524 337.6398746477504 111.63068600289523 339.3298746477504 110.27068600289523 341.1998746477504 C 105.33068600289523 341.8798746477504 101.48068600289524 343.9398746477504 98.31468600289523 347.3598746477504 C 95.11068600289524 350.8098746477504 92.01468600289523 356.8198746477504 91.54668600289524 361.4998746477504 C 91.07868600289524 366.0398746477504 91.94268600289523 371.0798746477504 95.39868600289523 374.5298746477504 C 98.81868600289523 377.8498746477504 105.08068600289523 380.8298746477504 111.56068600289524 381.4098746477504 C 117.90068600289524 381.8798746477504 125.03068600289524 380.5498746477504 133.23068600289523 377.4098746477504 C 139.68068600289524 377.9498746477504 145.29068600289523 377.5898746477504 150.37068600289524 376.3298746477504 C 155.41068600289523 374.9998746477504 159.62068600289524 372.8798746477504 163.29068600289523 369.8198746477504 C 172.80068600289525 368.6698746477504 179.71068600289524 367.2598746477504 184.61068600289525 365.4598746477504 C 189.39068600289522 363.5898746477504 191.88068600289523 361.46987464775043 192.06068600289524 358.9498746477504 C 198.29068600289523 357.9398746477504 202.50068600289524 356.8598746477504 204.98068600289523 355.7098746477504 C 207.39068600289522 354.4498746477504 207.93068600289524 353.1098746477504 206.60068600289523 351.7098746477504 C 213.69068600289523 351.1298746477504 218.77068600289525 350.1598746477504 222.12068600289524 348.7898746477504 C 225.39068600289522 347.3598746477504 226.80068600289525 345.5898746477504 226.33068600289525 343.3598746477504 C 232.20068600289522 344.6898746477504 236.59068600289524 344.2598746477504 239.90068600289524 341.9198746477504 C 243.07068600289523 339.46987464775043 245.66068600289523 333.8198746477504 245.73068600289523 329.2498746477504 C 245.77068600289525 324.5298746477504 242.64068600289522 317.1098746477504 240.23068600289523 314.3798746477504 C 237.71068600289524 311.6098746477504 234.57068600289523 311.1698746477504 230.83068600289525 312.9398746477504 C 225.07068600289523 309.7698746477504 219.35068600289523 308.0798746477504 213.08068600289525 307.8598746477504 C 206.82068600289523 307.6498746477504 200.45068600289522 308.7598746477504 193.68068600289524 311.4998746477504 C 187.09068600289524 311.0698746477504 182.01068600289523 311.2798746477504 178.16068600289523 311.8598746477504 S 171.83068600289525 313.5098746477504 170.71068600289524 315.0998746477504 C 163.04068600289523 315.4598746477504 157.17068600289522 316.1798746477504 152.96068600289524 317.6598746477504 C 148.71068600289524 319.0998746477504 146.23068600289523 320.8998746477504 145.51068600289523 323.4498746477504 z" id="imagebot_9"/>
  <path fill-rule="evenodd" fill="#7f3f00" d="M 147.13068600289523 326.3298746477504 C 144.43068600289524 326.0398746477504 141.73068600289523 326.6598746477504 138.74068600289525 328.1698746477504 C 135.75068600289524 329.5698746477504 132.62068600289524 331.9098746477504 129.34068600289524 335.0398746477504 C 124.84068600289524 336.0198746477504 121.32068600289523 337.1698746477504 118.36068600289524 338.6398746477504 C 115.41068600289523 340.1598746477504 113.25068600289524 341.6698746477504 111.88068600289523 343.71987464775043 C 106.84068600289524 344.4798746477504 102.99068600289523 346.7098746477504 99.93368600289524 350.2698746477504 C 96.76568600289524 353.9098746477504 93.74168600289524 360.8898746477504 93.77768600289524 365.0998746477504 C 93.84968600289524 369.2098746477504 97.30568600289524 372.2998746477504 100.26068600289524 374.5398746477504 C 103.10068600289523 376.6198746477504 105.12068600289524 377.8498746477504 110.59068600289524 377.8098746477504 C 115.95068600289524 377.5998746477504 123.08068600289523 376.4098746477504 132.26068600289523 373.8198746477504 C 138.70068600289522 374.3598746477504 144.32068600289523 373.9998746477504 149.40068600289524 372.7398746477504 C 154.44068600289523 371.3998746477504 158.65068600289524 369.3198746477504 162.32068600289523 366.1798746477504 C 171.79068600289523 365.0998746477504 178.81068600289524 363.6598746477504 183.67068600289522 361.8598746477504 C 188.49068600289525 359.9898746477504 190.87068600289524 357.8998746477504 191.08068600289525 355.3098746477504 C 197.31068600289524 354.2998746477504 201.52068600289525 353.21987464775043 204.01068600289523 352.0698746477504 C 206.42068600289522 350.8098746477504 206.96068600289524 349.4798746477504 205.63068600289523 348.0798746477504 C 212.72068600289523 347.4598746477504 217.80068600289525 346.6398746477504 221.14068600289522 345.1998746477504 C 224.42068600289522 343.7598746477504 225.82068600289523 341.9898746477504 225.36068600289525 339.7598746477504 C 229.53068600289524 341.6698746477504 232.99068600289525 341.9598746477504 236.01068600289523 340.4798746477504 C 239.00068600289524 338.9298746477504 242.53068600289524 335.0398746477504 243.14068600289522 331.0498746477504 C 243.54068600289523 326.9098746477504 240.69068600289523 319.1698746477504 238.93068600289524 316.5798746477504 C 237.13068600289523 314.0198746477504 234.97068600289523 313.7698746477504 232.45068600289522 315.8198746477504 C 226.72068600289523 312.71987464775043 220.89068600289522 310.9998746477504 214.66068600289523 310.7798746477504 C 208.36068600289525 310.5598746477504 202.10068600289523 311.71987464775043 195.30068600289525 314.3798746477504 C 188.71068600289524 313.9498746477504 183.63068600289523 314.1598746477504 179.78068600289524 314.7398746477504 C 175.93068600289524 315.2798746477504 173.44068600289523 316.46987464775043 172.33068600289525 318.0098746477504 C 164.59068600289524 318.2298746477504 158.79068600289523 319.1998746477504 154.54068600289523 320.5398746477504 C 150.26068600289523 321.9798746477504 147.92068600289522 323.7798746477504 147.13068600289523 326.3298746477504 z" id="imagebot_8"/>
  <path stroke="black" stroke-width="0.036" stroke-miterlimit="10" fill-rule="evenodd" d="M 338.69068600289523 326.9798746477504 C 340.9606860028952 326.7598746477504 343.44068600289523 327.4498746477504 346.00068600289524 329.0298746477504 C 348.5206860028952 330.5098746477504 351.25068600289524 332.8798746477504 354.06068600289524 336.1598746477504 C 357.87068600289524 337.4598746477504 361.12068600289524 338.7898746477504 363.63068600289523 340.4398746477504 C 366.16068600289526 342.0598746477504 367.9506860028952 343.71987464775043 369.18068600289524 345.6998746477504 C 373.36068600289525 346.5298746477504 376.85068600289526 348.6898746477504 379.5106860028952 352.1798746477504 C 382.17068600289525 355.7098746477504 384.7006860028952 361.8298746477504 385.13068600289523 366.5098746477504 C 385.38068600289523 371.0798746477504 384.37068600289524 376.0798746477504 381.42068600289525 379.4298746477504 C 378.32068600289523 382.6298746477504 372.56068600289524 385.4798746477504 367.05068600289525 385.8698746477504 C 361.37068600289524 386.2298746477504 355.2806860028952 384.5798746477504 348.12068600289524 381.2998746477504 C 342.43068600289524 381.6598746477504 337.43068600289524 381.0898746477504 333.11068600289525 379.71987464775043 C 328.6406860028952 378.3198746477504 325.04068600289526 375.9798746477504 321.91068600289526 372.8398746477504 C 313.63068600289523 371.5098746477504 307.47068600289526 369.8198746477504 303.30068600289525 367.9098746477504 C 299.0906860028952 365.9298746477504 296.9606860028952 363.7298746477504 296.93068600289524 361.1798746477504 C 291.49068600289525 360.0298746477504 287.7806860028952 358.8698746477504 285.66068600289526 357.5798746477504 C 283.5306860028952 356.2798746477504 283.1406860028952 354.9898746477504 284.3306860028952 353.5498746477504 C 278.06068600289524 352.7498746477504 273.63068600289523 351.7498746477504 270.75068600289524 350.2298746477504 C 267.8406860028952 348.6898746477504 266.7606860028952 346.8798746477504 267.23068600289525 344.6898746477504 C 262.04068600289526 345.8798746477504 258.0806860028952 345.2598746477504 255.35068600289523 342.8498746477504 C 252.36068600289525 340.2998746477504 250.56068600289524 334.6798746477504 250.52068600289525 330.0398746477504 C 250.56068600289524 325.3898746477504 253.40068600289524 317.9398746477504 255.74068600289525 315.3098746477504 C 257.98068600289525 312.6098746477504 260.68068600289524 312.21987464775043 263.99068600289525 314.1298746477504 C 269.10068600289526 311.1398746477504 274.2106860028952 309.6598746477504 279.7606860028952 309.5498746477504 C 285.23068600289525 309.4098746477504 290.74068600289525 310.8898746477504 296.68068600289524 313.6998746477504 C 302.36068600289525 313.5098746477504 306.9006860028952 313.7298746477504 310.2806860028952 314.4898746477504 C 313.60068600289526 315.1698746477504 315.7606860028952 316.3198746477504 316.7606860028952 317.9398746477504 C 323.49068600289525 318.4498746477504 328.5306860028952 319.4598746477504 332.2806860028952 320.96987464775043 C 335.9506860028952 322.5198746477504 338.04068600289526 324.4198746477504 338.69068600289523 326.9798746477504 z" id="imagebot_7"/>
  <path fill-rule="evenodd" fill="#7f3f00" d="M 337.17068600289525 329.8198746477504 C 339.48068600289525 329.6098746477504 341.93068600289524 330.2898746477504 344.5206860028952 331.8798746477504 C 347.1506860028952 333.3498746477504 349.7006860028952 335.7298746477504 352.5806860028952 338.9998746477504 C 356.4006860028952 340.0798746477504 359.6406860028952 341.3398746477504 362.16068600289526 342.9298746477504 C 364.68068600289524 344.5098746477504 366.48068600289525 346.1298746477504 367.7006860028952 348.1798746477504 C 371.99068600289525 349.0798746477504 375.48068600289525 351.3198746477504 378.0306860028952 355.0198746477504 C 380.55068600289525 358.6598746477504 383.1506860028952 365.8998746477504 383.04068600289526 370.0698746477504 C 382.79068600289526 374.1398746477504 379.62068600289524 377.1598746477504 377.13068600289523 379.2898746477504 C 374.5106860028952 381.2998746477504 372.7106860028952 382.4898746477504 367.99068600289525 382.2798746477504 C 363.2706860028952 381.9898746477504 357.0106860028952 380.5098746477504 349.05068600289525 377.6998746477504 C 343.36068600289525 378.0598746477504 338.36068600289525 377.4898746477504 334.04068600289526 376.1198746477504 C 329.5806860028952 374.71987464775043 325.98068600289525 372.3798746477504 322.8406860028952 369.2398746477504 C 314.57068600289523 367.9098746477504 308.41068600289526 366.21987464775043 304.23068600289525 364.3098746477504 C 300.0206860028952 362.2598746477504 297.9006860028952 360.2098746477504 297.86068600289525 357.6198746477504 C 292.42068600289525 356.3898746477504 288.72068600289526 355.2798746477504 286.5906860028952 353.9798746477504 C 284.47068600289526 352.6798746477504 284.07068600289523 351.3898746477504 285.2606860028952 349.9498746477504 C 279.07068600289523 349.1598746477504 274.61068600289525 348.1498746477504 271.73068600289525 346.6398746477504 C 268.8406860028952 345.0898746477504 267.66068600289526 343.2898746477504 268.16068600289526 341.0898746477504 C 264.35068600289526 342.8898746477504 261.3906860028952 343.0398746477504 258.7706860028952 341.5198746477504 C 256.10068600289526 339.8998746477504 253.08068600289525 335.9098746477504 252.75068600289524 331.9098746477504 C 252.43068600289524 327.6998746477504 255.13068600289523 320.1398746477504 256.82068600289523 317.5498746477504 C 258.48068600289525 315.0298746477504 260.2806860028952 314.8798746477504 262.5106860028952 316.96987464775043 C 267.5906860028952 314.0198746477504 272.7006860028952 312.3998746477504 278.24068600289525 312.3998746477504 C 283.75068600289524 312.3598746477504 289.2606860028952 313.6598746477504 295.2006860028952 316.5798746477504 C 300.8906860028952 316.3598746477504 305.42068600289525 316.6098746477504 308.80068600289525 317.3298746477504 C 312.19068600289523 318.0498746477504 314.2006860028952 319.1698746477504 315.25068600289524 320.8198746477504 C 322.0206860028952 321.3298746477504 327.06068600289524 322.3398746477504 330.80068600289525 323.8498746477504 C 334.4006860028952 325.3198746477504 336.5306860028952 327.2698746477504 337.17068600289525 329.8198746477504 z" id="imagebot_6"/>
  <title>imagebot_2</title>
  <path id="imagebot_41" transform="rotate(65.4346 255.384 464.539) translate(-62.5 117.188)" fill-rule="evenodd" fill="#7f3f00" d="M337.17069,329.81987C339.48069,329.60987 341.93069,330.28987 344.52069,331.87987C347.15069,333.34987 349.70069,335.72987 352.58069,338.99987C356.40069,340.07987 359.64069,341.33987 362.16069,342.92987C364.68069,344.50987 366.48069,346.12987 367.70069,348.17987C371.99069,349.07987 375.48069,351.31987 378.03069,355.01987C380.55069,358.65987 383.15069,365.89987 383.04069,370.06987C382.79069,374.13987 379.62069,377.15987 377.13069,379.28987C374.51069,381.29987 372.71069,382.48987 367.99069,382.27987C363.27069,381.98987 357.01069,380.50987 349.05069,377.69987C343.36069,378.05987 338.36069,377.48987 334.04069,376.11987C329.58069,374.71987 325.98069,372.37987 322.84069,369.23987C314.57069,367.90987 308.41069,366.21987 304.23069,364.30987C300.02069,362.25987 297.90069,360.20987 297.86069,357.61987C292.42069,356.38987 288.72069,355.27987 286.59069,353.97987C284.47069,352.67987 284.07069,351.38987 285.26069,349.94987C279.07069,349.15987 274.61069,348.14987 271.73069,346.63987C268.84069,345.08987 267.66069,343.28987 268.16069,341.08987C264.35069,342.88987 261.39069,343.03987 258.77069,341.51987C256.10069,339.89987 253.08069,335.90987 252.75069,331.90987C252.43069,327.69987 255.13069,320.13987 256.82069,317.54987C258.48069,315.02987 260.28069,314.87987 262.51069,316.96987C267.59069,314.01987 272.70069,312.39987 278.24069,312.39987C283.75069,312.35987 289.26069,313.65987 295.20069,316.57987C300.89069,316.35987 305.42069,316.60987 308.80069,317.32987C312.19069,318.04987 314.20069,319.16987 315.25069,320.81987C322.02069,321.32987 327.06069,322.33987 330.80069,323.84987C334.40069,325.31987 336.53069,327.26987 337.17069,329.81987z"/>
 </g>
 <metadata>image/svg+xmlOpenclipartMan Face Cartoon2006-10-18T10:31:21Uploaded by "World Label" for conversion to SVG and publication on OCAL.https://openclipart.org/detail/730/man-face-cartoon-by-gerald_g-730Gerald_Gcartoonexternalsourcefacemanpeopleremixworldlabel</metadata>
</svg>