<?xml version="1.0" encoding="UTF-8"?>
<!DOCTYPE svg PUBLIC "-//W3C//DTD SVG 1.1//EN" "http://www.w3.org/Graphics/SVG/1.1/DTD/svg11.dtd">
<svg version="1.2" width="57.16mm" height="57.16mm" viewBox="154 250 5716 5716" preserveAspectRatio="xMidYMid" fill-rule="evenodd" stroke-width="28.222" stroke-linejoin="round" xmlns="http://www.w3.org/2000/svg" xmlns:ooo="http://xml.openoffice.org/svg/export" xmlns:xlink="http://www.w3.org/1999/xlink" xmlns:presentation="http://sun.com/xmlns/staroffice/presentation" xmlns:smil="http://www.w3.org/2001/SMIL20/" xmlns:anim="urn:oasis:names:tc:opendocument:xmlns:animation:1.0" xml:space="preserve">
 <defs class="ClipPathGroup">
  <clipPath id="presentation_clip_path" clipPathUnits="userSpaceOnUse">
   <rect x="154" y="250" width="5716" height="5716"/>
  </clipPath>
  <clipPath id="presentation_clip_path_shrink" clipPathUnits="userSpaceOnUse">
   <rect x="159" y="255" width="5705" height="5705"/>
  </clipPath>
 </defs>
 <defs class="TextShapeIndex">
  <g ooo:slide="id1" ooo:id-list="id3 id4 id5 id6"/>
 </defs>
 <defs class="EmbeddedBulletChars">
  <g id="bullet-char-template-57356" transform="scale(0.00048828125,-0.00048828125)">
   <path d="M 580,1141 L 1163,571 580,0 -4,571 580,1141 Z"/>
  </g>
  <g id="bullet-char-template-57354" transform="scale(0.00048828125,-0.00048828125)">
   <path d="M 8,1128 L 1137,1128 1137,0 8,0 8,1128 Z"/>
  </g>
  <g id="bullet-char-template-10146" transform="scale(0.00048828125,-0.00048828125)">
   <path d="M 174,0 L 602,739 174,1481 1456,739 174,0 Z M 1358,739 L 309,1346 659,739 1358,739 Z"/>
  </g>
  <g id="bullet-char-template-10132" transform="scale(0.00048828125,-0.00048828125)">
   <path d="M 2015,739 L 1276,0 717,0 1260,543 174,543 174,936 1260,936 717,1481 1274,1481 2015,739 Z"/>
  </g>
  <g id="bullet-char-template-10007" transform="scale(0.00048828125,-0.00048828125)">
   <path d="M 0,-2 C -7,14 -16,27 -25,37 L 356,567 C 262,823 215,952 215,954 215,979 228,992 255,992 264,992 276,990 289,987 310,991 331,999 354,1012 L 381,999 492,748 772,1049 836,1024 860,1049 C 881,1039 901,1025 922,1006 886,937 835,863 770,784 769,783 710,716 594,584 L 774,223 C 774,196 753,168 711,139 L 727,119 C 717,90 699,76 672,76 641,76 570,178 457,381 L 164,-76 C 142,-110 111,-127 72,-127 30,-127 9,-110 8,-76 1,-67 -2,-52 -2,-32 -2,-23 -1,-13 0,-2 Z"/>
  </g>
  <g id="bullet-char-template-10004" transform="scale(0.00048828125,-0.00048828125)">
   <path d="M 285,-33 C 182,-33 111,30 74,156 52,228 41,333 41,471 41,549 55,616 82,672 116,743 169,778 240,778 293,778 328,747 346,684 L 369,508 C 377,444 397,411 428,410 L 1163,1116 C 1174,1127 1196,1133 1229,1133 1271,1133 1292,1118 1292,1087 L 1292,965 C 1292,929 1282,901 1262,881 L 442,47 C 390,-6 338,-33 285,-33 Z"/>
  </g>
  <g id="bullet-char-template-9679" transform="scale(0.00048828125,-0.00048828125)">
   <path d="M 813,0 C 632,0 489,54 383,161 276,268 223,411 223,592 223,773 276,916 383,1023 489,1130 632,1184 813,1184 992,1184 1136,1130 1245,1023 1353,916 1407,772 1407,592 1407,412 1353,268 1245,161 1136,54 992,0 813,0 Z"/>
  </g>
  <g id="bullet-char-template-8226" transform="scale(0.00048828125,-0.00048828125)">
   <path d="M 346,457 C 273,457 209,483 155,535 101,586 74,649 74,723 74,796 101,859 155,911 209,963 273,989 346,989 419,989 480,963 531,910 582,859 608,796 608,723 608,648 583,586 532,535 482,483 420,457 346,457 Z"/>
  </g>
  <g id="bullet-char-template-8211" transform="scale(0.00048828125,-0.00048828125)">
   <path d="M -4,459 L 1135,459 1135,606 -4,606 -4,459 Z"/>
  </g>
  <g id="bullet-char-template-61548" transform="scale(0.00048828125,-0.00048828125)">
   <path d="M 173,740 C 173,903 231,1043 346,1159 462,1274 601,1332 765,1332 928,1332 1067,1274 1183,1159 1299,1043 1357,903 1357,740 1357,577 1299,437 1183,322 1067,206 928,148 765,148 601,148 462,206 346,322 231,437 173,577 173,740 Z"/>
  </g>
 </defs>
 <defs class="TextEmbeddedBitmaps"/>
 <g class="SlideGroup">
  <g>
   <g id="container-id1">
    <g id="id1" class="Slide" clip-path="url(#presentation_clip_path)">
     <g class="Page">
      <g class="com.sun.star.drawing.ClosedBezierShape">
       <g id="id3">
        <rect class="BoundingBox" stroke="none" fill="none" x="154" y="249" width="5717" height="5718"/>
        <path fill="rgb(0,144,176)" stroke="none" d="M 5870,3108 C 5870,4687 4591,5966 3012,5966 1433,5966 154,4687 154,3108 154,1529 1433,250 3012,250 4591,250 5870,1529 5870,3108 Z"/>
       </g>
      </g>
      <g class="com.sun.star.drawing.ClosedBezierShape">
       <g id="id4">
        <rect class="BoundingBox" stroke="none" fill="none" x="158" y="249" width="2860" height="5718"/>
        <path fill="rgb(0,165,203)" stroke="none" d="M 3017,5966 C 1439,5966 159,4687 159,3108 159,1529 1439,250 3017,250 L 3017,5966 Z"/>
       </g>
      </g>
      <g class="com.sun.star.drawing.ClosedBezierShape">
       <g id="id5">
        <rect class="BoundingBox" stroke="none" fill="none" x="2285" y="847" width="1554" height="786"/>
        <path fill="rgb(255,255,255)" stroke="none" d="M 2954,1035 C 2965,1007 2988,985 3016,973 3030,967 3046,963 3062,963 3127,963 3180,1016 3180,1081 3180,1146 3127,1200 3062,1200 3046,1200 3030,1197 3016,1191 2988,1179 2965,1155 2954,1127 2948,1113 2944,1098 2944,1081 2944,1065 2948,1050 2954,1035 Z M 2343,1632 L 3782,1632 C 3812,1632 3838,1607 3838,1576 L 3838,1280 C 3826,1259 3813,1239 3798,1220 3758,1170 3706,1132 3646,1109 3606,1094 3563,1086 3518,1086 L 3305,1086 C 3305,1080 3305,1074 3305,1068 3305,947 3207,848 3086,848 L 3074,848 3050,848 3038,848 C 2918,848 2819,947 2819,1068 2819,1074 2819,1080 2820,1086 L 2606,1086 C 2516,1086 2434,1119 2370,1175 2335,1205 2307,1244 2286,1286 L 2286,1576 C 2286,1607 2311,1632 2343,1632 Z"/>
       </g>
      </g>
      <g class="com.sun.star.drawing.ClosedBezierShape">
       <g id="id6">
        <rect class="BoundingBox" stroke="none" fill="none" x="1600" y="1392" width="2923" height="3630"/>
        <path fill="rgb(255,255,255)" stroke="none" d="M 3940,3619 C 3897,3619 3863,3584 3863,3542 3863,3499 3897,3465 3940,3465 3982,3465 4017,3499 4017,3542 4017,3584 3982,3619 3940,3619 Z M 3653,3619 C 3610,3619 3576,3584 3576,3542 3576,3499 3610,3465 3653,3465 3695,3465 3730,3499 3730,3542 3730,3584 3695,3619 3653,3619 Z M 3352,3619 C 3310,3619 3275,3584 3275,3542 3275,3499 3310,3465 3352,3465 3395,3465 3429,3499 3429,3542 3429,3584 3395,3619 3352,3619 Z M 3088,3570 L 2811,3570 2682,4361 2531,2900 2422,3754 2288,3537 1988,3537 C 1967,3537 1950,3520 1950,3499 1950,3478 1967,3461 1988,3461 L 2331,3461 2374,3531 2538,2240 2699,3787 2746,3494 3088,3494 C 3109,3494 3126,3511 3126,3532 3126,3553 3109,3570 3088,3570 Z M 4511,1725 C 4505,1698 4497,1673 4486,1649 4461,1592 4424,1542 4377,1501 4373,1498 4368,1494 4364,1491 4344,1475 4324,1461 4302,1448 4295,1444 4288,1440 4280,1437 4259,1426 4237,1418 4215,1411 4206,1409 4198,1406 4190,1404 4159,1396 4127,1392 4094,1392 L 3912,1392 3912,1575 C 3912,1648 3853,1707 3781,1707 L 2342,1707 C 2269,1707 2210,1648 2210,1575 L 2210,1392 2028,1392 C 1995,1392 1963,1396 1932,1404 1924,1406 1916,1409 1908,1411 1885,1418 1863,1426 1842,1437 1834,1440 1827,1444 1820,1448 1798,1461 1778,1475 1758,1491 1754,1494 1750,1498 1745,1502 1658,1580 1601,1693 1601,1820 L 1601,1935 1601,2022 1601,2833 1601,4593 C 1601,4770 1709,4922 1862,4987 1913,5009 1969,5021 2028,5021 L 4094,5021 C 4153,5021 4209,5009 4260,4987 4286,4976 4310,4963 4333,4948 4378,4917 4418,4877 4449,4832 4495,4764 4522,4682 4522,4593 L 4522,2833 4522,2022 4522,1935 4522,1820 C 4522,1787 4518,1756 4511,1725 Z"/>
       </g>
      </g>
     </g>
    </g>
   </g>
  </g>
 </g>
</svg>