<?xml version="1.0" encoding="UTF-8" standalone="no"?>
<!-- Created with Inkscape (http://www.inkscape.org/) -->

<svg
   xmlns:dc="http://purl.org/dc/elements/1.1/"
   xmlns:cc="http://creativecommons.org/ns#"
   xmlns:rdf="http://www.w3.org/1999/02/22-rdf-syntax-ns#"
   xmlns:svg="http://www.w3.org/2000/svg"
   xmlns="http://www.w3.org/2000/svg"
   xmlns:sodipodi="http://sodipodi.sourceforge.net/DTD/sodipodi-0.dtd"
   xmlns:inkscape="http://www.inkscape.org/namespaces/inkscape"
   version="1.1"
   id="svg2"
   xml:space="preserve"
   width="2666.6667"
   height="2666.6667"
   viewBox="0 0 2666.6667 2666.6667"
   sodipodi:docname="icons-1337908.ai.svg"
   inkscape:version="0.92.4 (ca053d0, 2019-01-16)"><metadata
     id="metadata8"><rdf:RDF><cc:Work
         rdf:about=""><dc:format>image/svg+xml</dc:format><dc:type
           rdf:resource="http://purl.org/dc/dcmitype/StillImage" /><dc:title></dc:title></cc:Work></rdf:RDF></metadata><defs
     id="defs6"><clipPath
       clipPathUnits="userSpaceOnUse"
       id="clipPath34"><path
         d="M 0,2000 H 2000 V 0 H 0 Z"
         id="path32"
         inkscape:connector-curvature="0" /></clipPath></defs><sodipodi:namedview
     pagecolor="#ffffff"
     bordercolor="#666666"
     borderopacity="1"
     objecttolerance="10"
     gridtolerance="10"
     guidetolerance="10"
     inkscape:pageopacity="0"
     inkscape:pageshadow="2"
     inkscape:window-width="1853"
     inkscape:window-height="1025"
     id="namedview4"
     showgrid="false"
     inkscape:zoom="0.25031579"
     inkscape:cx="1175.2123"
     inkscape:cy="1123.7747"
     inkscape:window-x="67"
     inkscape:window-y="27"
     inkscape:window-maximized="1"
     inkscape:current-layer="g10" /><g
     id="g10"
     inkscape:groupmode="layer"
     inkscape:label="icons-1337908"
     transform="matrix(1.3333333,0,0,-1.3333333,0,2666.6667)"><g
       id="g12"
       transform="translate(1811.9336,1685.7739)"><path
         d="m 0,0 -76.477,27.634 -2,26.794 h 8 V 31.846 L -2.063,6.402 71.031,33.655 v 23.859 h 6 V 29.529 Z"
         style="fill:#000000;fill-opacity:1;fill-rule:nonzero;stroke:none"
         id="path14"
         inkscape:connector-curvature="0" /></g><g
       id="g16"
       transform="translate(1812.9023,1688.9751)"><path
         d="m 0,0 h -6 l 2,54.313 h 6 z"
         style="fill:#000000;fill-opacity:1;fill-rule:nonzero;stroke:none"
         id="path18"
         inkscape:connector-curvature="0" /></g><g
       id="g20"
       transform="translate(1701.4736,1785.1616)"><path
         d="m 0,0 148.63,-54.695 68.257,28.624 -144.112,50.76 z M 148.759,-61.147 -17.674,0.189 72.785,31.047 233.564,-25.583 Z"
         style="fill:#000000;fill-opacity:1;fill-rule:nonzero;stroke:none"
         id="path22"
         inkscape:connector-curvature="0" /></g><g
       id="g24"
       transform="translate(1701.374,1756.1685)"><path
         d="M 0,0 70.427,-25.729 219.198,28.529 153.079,53.665 Z M 70.396,-32.127 -17.475,0.16 153.149,60.058 236.39,28.413 Z"
         style="fill:#000000;fill-opacity:1;fill-rule:nonzero;stroke:none"
         id="path26"
         inkscape:connector-curvature="0" /></g><g
       id="g28"><g
         id="g30"
         clip-path="url(#clipPath34)"><g
           id="g36"
           transform="translate(1128.6025,1779.3774)"><path
             d="m 0,0 68.742,-63.78 c 1.071,7.36 2.303,21.325 -0.922,34.735 l -0.399,1.662 33.24,32.304 1.538,-0.298 c 9.49,-1.84 23.395,-3.294 30.369,-1.943 L 74.141,58.863 C 74.137,51.51 74.553,39.529 76.902,29.981 l 0.437,-1.774 -38.26,-33.414 -2.055,0.996 C 36.841,-4.124 19.7,3.373 0,0 m 72.493,-75.445 -84.685,78.573 5.169,1.44 C 13.35,10.242 31.873,3.9 37.676,1.534 L 70.66,30.341 c -2.348,10.761 -2.597,23.428 -2.519,30.384 0.037,3.314 1.189,6.51 3.262,9.095 v 0 l 71.07,-68.341 -2.652,-2.137 c -7.136,-5.753 -29.738,-2.255 -37.217,-0.899 L 74.037,-29.32 C 78.386,-49.501 73.86,-69.534 73.66,-70.399 Z"
             style="fill:#000000;fill-opacity:1;fill-rule:nonzero;stroke:none"
             id="path38"
             inkscape:connector-curvature="0" /></g><g
           id="g40"
           transform="translate(1104.7734,1687.0728)"><path
             d="m 0,0 -4.196,4.29 56.262,55.022 4.196,-4.289 z"
             style="fill:#000000;fill-opacity:1;fill-rule:nonzero;stroke:none"
             id="path42"
             inkscape:connector-curvature="0" /></g><g
           id="g44"
           transform="translate(1197.0594,1747.3839)"><path
             d="M 0,0 -31.433,28.545 -28.347,32.35 2.669,4.129 Z"
             style="fill:#000000;fill-opacity:1;fill-rule:nonzero;stroke:none"
             id="path46"
             inkscape:connector-curvature="0" /></g><g
           id="g48"
           transform="translate(1228.1113,1778.9316)"><path
             d="M 0,0 -27.639,27.587 -23.4,31.834 4.238,4.247 Z"
             style="fill:#000000;fill-opacity:1;fill-rule:nonzero;stroke:none"
             id="path50"
             inkscape:connector-curvature="0" /></g><path
           d="m 888.879,1673.922 h -68.375 v 6 h 68.375 z"
           style="fill:#000000;fill-opacity:1;fill-rule:nonzero;stroke:none"
           id="path52"
           inkscape:connector-curvature="0" /><g
           id="g54"
           transform="translate(849.9111,1676.9219)"><path
             d="M 0,0 V 59.116 H 6 V 0 Z"
             style="fill:#000000;fill-opacity:1;fill-rule:nonzero;stroke:none"
             id="path56"
             inkscape:connector-curvature="0" /></g><g
           id="g58"
           transform="translate(889.2324,1788.3867)"><path
             d="m 0,0 -0.707,5.958 c 24.552,2.913 30.538,24.573 31.936,32.89 H -0.354 v 6 h 38.179 l -0.202,-3.19 C 37.599,41.283 34.84,4.133 0,0"
             style="fill:#000000;fill-opacity:1;fill-rule:nonzero;stroke:none"
             id="path60"
             inkscape:connector-curvature="0" /></g><g
           id="g62"
           transform="translate(814.021,1788.3867)"><path
             d="m 0,0 c -34.84,4.133 -37.598,41.283 -37.622,41.658 l -0.202,3.19 H 0.354 v -6 h -31.583 c 1.398,-8.313 7.382,-29.977 31.936,-32.89 z"
             style="fill:#000000;fill-opacity:1;fill-rule:nonzero;stroke:none"
             id="path64"
             inkscape:connector-curvature="0" /></g><path
           d="m 1416.191,1711.235 h 145.358 v 83.789 h -145.358 z m 151.359,-6 h -157.358 v 95.789 h 157.358 z"
           style="fill:#000000;fill-opacity:1;fill-rule:nonzero;stroke:none"
           id="path66"
           inkscape:connector-curvature="0" /><path
           d="m 1564.55,1772.577 h -151.358 v 6 h 151.358 z"
           style="fill:#000000;fill-opacity:1;fill-rule:nonzero;stroke:none"
           id="path68"
           inkscape:connector-curvature="0" /><path
           d="m 1530.352,1786.479 h -6 v 28.861 h 6 z"
           style="fill:#000000;fill-opacity:1;fill-rule:nonzero;stroke:none"
           id="path70"
           inkscape:connector-curvature="0" /><path
           d="m 1455.955,1786.479 h -6 v 28.861 h 6 z"
           style="fill:#000000;fill-opacity:1;fill-rule:nonzero;stroke:none"
           id="path72"
           inkscape:connector-curvature="0" /><g
           id="g74"
           transform="translate(1490.2256,1751.7543)"><path
             d="m 0,0 h -0.113 l -6.52,-3.518 -0.981,3.866 8.192,4.385 H 4.904 V -32.766 H 0 Z"
             style="fill:#000000;fill-opacity:1;fill-rule:nonzero;stroke:none"
             id="path76"
             inkscape:connector-curvature="0" /></g><g
           id="g78"
           transform="translate(568.5249,1769.083)"><path
             d="m 0,0 -88.337,32.69 2.082,5.627 88.337,-32.69 z"
             style="fill:#000000;fill-opacity:1;fill-rule:nonzero;stroke:none"
             id="path80"
             inkscape:connector-curvature="0" /></g><g
           id="g82"
           transform="translate(437.4795,1729.374)"><path
             d="m 0,0 83.96,-34.445 92.629,30.158 V 56.012 L 88.294,88.315 0,56.012 Z M 83.722,-40.833 -6,-4.023 V 60.206 L 88.294,94.704 182.589,60.206 V -8.643 Z"
             style="fill:#000000;fill-opacity:1;fill-rule:nonzero;stroke:none"
             id="path84"
             inkscape:connector-curvature="0" /></g><g
           id="g86"
           transform="translate(522.0234,1753.1392)"><path
             d="M 0,0 -88.55,31.518 -86.538,37.17 0.079,6.341 94.109,37.194 95.98,31.493 Z"
             style="fill:#000000;fill-opacity:1;fill-rule:nonzero;stroke:none"
             id="path88"
             inkscape:connector-curvature="0" /></g><g
           id="g90"
           transform="translate(524.3208,1691.7007)"><path
             d="m 0,0 -6,0.069 0.742,64.575 6,-0.07 z"
             style="fill:#000000;fill-opacity:1;fill-rule:nonzero;stroke:none"
             id="path92"
             inkscape:connector-curvature="0" /></g><g
           id="g94"
           transform="translate(1104.8069,1687.0941)"><path
             d="m 0,0 -10.932,-5.435 6.71,9.71 z"
             style="fill:#000000;fill-opacity:1;fill-rule:nonzero;stroke:none"
             id="path96"
             inkscape:connector-curvature="0" /></g><g
           id="g98"
           transform="translate(817.3745,1830)"><path
             d="m 0,0 v -61.791 c 0,-16.085 13.086,-29.171 29.172,-29.171 h 7.609 c 16.587,0 30.082,13.495 30.082,30.083 V 0 Z M 36.781,-96.962 H 29.172 C 9.778,-96.962 -6,-81.185 -6,-61.791 V 6 h 78.863 v -66.879 c 0,-19.896 -16.186,-36.083 -36.082,-36.083"
             style="fill:#000000;fill-opacity:1;fill-rule:nonzero;stroke:none"
             id="path100"
             inkscape:connector-curvature="0" /></g><g
           id="g102"
           transform="translate(474.7383,1466.9365)"><path
             d="m 0,0 54.396,-3.945 -5.055,-41.308 52.242,66.257 z m 40.782,-65.799 6.893,56.326 -85.934,7.689 154.742,31.996 z"
             style="fill:#000000;fill-opacity:1;fill-rule:nonzero;stroke:none"
             id="path104"
             inkscape:connector-curvature="0" /></g><g
           id="g106"
           transform="translate(121.5337,1463.9233)"><path
             d="M 0,0 H 165.19 C 163.729,37.88 127.24,68.312 82.595,68.312 37.95,68.312 1.46,37.88 0,0 M 171.183,-6 H -6 l -0.034,3.176 c -0.006,0.154 -0.011,0.308 -0.011,0.465 0,42.276 39.763,76.671 88.64,76.671 48.876,0 88.64,-34.395 88.64,-76.671 0,-0.159 -0.006,-0.316 -0.012,-0.473 l -0.007,-0.202 z"
             style="fill:#000000;fill-opacity:1;fill-rule:nonzero;stroke:none"
             id="path108"
             inkscape:connector-curvature="0" /></g><g
           id="g110"
           transform="translate(191.5151,1395.8555)"><path
             d="m 0,0 c -11.178,0 -19.838,8.287 -20.208,8.646 l 4.175,4.309 c 0.075,-0.073 7.6,-7.236 16.57,-6.946 4.461,0.145 8.63,2.158 12.404,5.985 v 53.074 h 6 V 9.636 L 18.158,8.777 C 13.033,3.156 7.153,0.207 0.682,0.01 0.454,0.003 0.226,0 0,0"
             style="fill:#000000;fill-opacity:1;fill-rule:nonzero;stroke:none"
             id="path112"
             inkscape:connector-curvature="0" /></g><g
           id="g114"
           transform="translate(297.5054,1700.668)"><path
             d="m 0,0 h -77.494 v 35.829 h -23.789 V 0 h -76.301 v 67.411 h 6 V 6 h 64.301 v 35.829 h 35.789 V 6 H -6 v 61.411 h 6 z"
             style="fill:#000000;fill-opacity:1;fill-rule:nonzero;stroke:none"
             id="path116"
             inkscape:connector-curvature="0" /></g><g
           id="g118"
           transform="translate(318.0732,1765.4546)"><path
             d="M 0,0 -108.144,59.949 -212.726,0.021 -215.709,5.227 -108.193,66.837 2.909,5.248 Z"
             style="fill:#000000;fill-opacity:1;fill-rule:nonzero;stroke:none"
             id="path120"
             inkscape:connector-curvature="0" /></g><g
           id="g122"
           transform="translate(280.5254,1793.1294)"><path
             d="M 0,0 9.192,-5.096 V 28.25 L 0,28.25 Z M 15.192,-15.282 -6,-3.534 V 34.25 h 21.192 z"
             style="fill:#000000;fill-opacity:1;fill-rule:nonzero;stroke:none"
             id="path124"
             inkscape:connector-curvature="0" /></g><path
           d="m 1404.855,1415.236 h 135.949 v 79.841 h -135.949 z m 141.95,-6 h -147.949 v 91.841 h 147.949 z"
           style="fill:#000000;fill-opacity:1;fill-rule:nonzero;stroke:none"
           id="path126"
           inkscape:connector-curvature="0" /><g
           id="g128"
           transform="translate(1479.0195,1426.9448)"><path
             d="m 0,0 -40.875,25.671 3.191,5.081 37.774,-23.724 107.764,63.886 3.061,-5.162 z"
             style="fill:#000000;fill-opacity:1;fill-rule:nonzero;stroke:none"
             id="path130"
             inkscape:connector-curvature="0" /></g><path
           d="m 1715.708,1412.497 h 184.706 v 84.491 h -184.706 z m 190.706,-6 h -196.706 v 96.491 h 196.706 z"
           style="fill:#000000;fill-opacity:1;fill-rule:nonzero;stroke:none"
           id="path132"
           inkscape:connector-curvature="0" /><g
           id="g134"
           transform="translate(1737.5117,1430.1548)"><path
             d="m 0,0 -3.238,5.051 36.754,23.571 8.292,-11.119 40.787,23.915 13.59,-13.212 25.03,12.167 2.623,-5.396 L 95.021,20.969 81.688,33.931 40.21,9.61 32.049,20.553 Z"
             style="fill:#000000;fill-opacity:1;fill-rule:nonzero;stroke:none"
             id="path136"
             inkscape:connector-curvature="0" /></g><g
           id="g138"
           transform="translate(1848.8197,1475.043)"><path
             d="M 0,0 H 25.828 L 12.914,-21.049 Z"
             style="fill:#000000;fill-opacity:1;fill-rule:nonzero;stroke:none"
             id="path140"
             inkscape:connector-curvature="0" /></g><g
           id="g142"
           transform="translate(1775.8291,1381.6655)"><path
             d="M 0,0 -3.592,4.807 32.391,31.694 63.011,4.652 59.038,0.155 32.074,23.968 Z"
             style="fill:#000000;fill-opacity:1;fill-rule:nonzero;stroke:none"
             id="path144"
             inkscape:connector-curvature="0" /></g><g
           id="g146"
           transform="translate(1808.4326,1378.5786)"><path
             d="m 0,0 -5.979,0.511 2.619,30.662 5.978,-0.51 z"
             style="fill:#000000;fill-opacity:1;fill-rule:nonzero;stroke:none"
             id="path148"
             inkscape:connector-curvature="0" /></g><path
           d="m 1916.128,1509.702 h -213.142 v 6 h 213.142 z"
           style="fill:#000000;fill-opacity:1;fill-rule:nonzero;stroke:none"
           id="path150"
           inkscape:connector-curvature="0" /><path
           d="m 1829.375,1511.945 h -31.41 v 6 h 31.41 z"
           style="fill:#000000;fill-opacity:1;fill-rule:nonzero;stroke:none"
           id="path152"
           inkscape:connector-curvature="0" /><path
           d="m 110.762,1099.646 h 176.732 v 87.103 H 110.762 Z m 182.733,-6 H 104.763 v 99.103 h 188.732 z"
           style="fill:#000000;fill-opacity:1;fill-rule:nonzero;stroke:none"
           id="path154"
           inkscape:connector-curvature="0" /><path
           d="m 135.775,1110.762 h 13.454 v 23.876 h -13.454 z m 19.454,-6 h -25.454 v 35.876 h 25.454 z"
           style="fill:#000000;fill-opacity:1;fill-rule:nonzero;stroke:none"
           id="path156"
           inkscape:connector-curvature="0" /><path
           d="m 168.431,1110.762 h 19.013 v 40.254 h -19.013 z m 25.012,-6 H 162.43 v 52.254 h 31.013 z"
           style="fill:#000000;fill-opacity:1;fill-rule:nonzero;stroke:none"
           id="path158"
           inkscape:connector-curvature="0" /><path
           d="m 213.593,1110.762 h 13.455 v 30.477 h -13.455 z m 19.454,-6 h -25.455 v 42.477 h 25.455 z"
           style="fill:#000000;fill-opacity:1;fill-rule:nonzero;stroke:none"
           id="path160"
           inkscape:connector-curvature="0" /><path
           d="m 249.027,1110.762 h 19.708 v 58.616 h -19.708 z m 25.708,-6 h -31.708 v 70.616 h 31.708 z"
           style="fill:#000000;fill-opacity:1;fill-rule:nonzero;stroke:none"
           id="path162"
           inkscape:connector-curvature="0" /><g
           id="g164"
           transform="translate(457.1499,1120.8091)"><path
             d="M 0,0 -3.239,5.051 31.375,27.248 39.154,16.815 77.379,39.23 90.132,26.832 113.485,38.185 116.108,32.788 88.968,19.595 76.473,31.743 37.555,8.923 29.907,19.179 Z"
             style="fill:#000000;fill-opacity:1;fill-rule:nonzero;stroke:none"
             id="path166"
             inkscape:connector-curvature="0" /></g><g
           id="g168"
           transform="translate(561.4269,1163.0594)"><path
             d="M 0,0 H 24.22 L 12.11,-19.738 Z"
             style="fill:#000000;fill-opacity:1;fill-rule:nonzero;stroke:none"
             id="path170"
             inkscape:connector-curvature="0" /></g><path
           d="m 429.615,1099.911 h 180.896 v 86.572 H 429.615 Z m 186.896,-6 H 423.615 v 98.572 h 192.896 z"
           style="fill:#000000;fill-opacity:1;fill-rule:nonzero;stroke:none"
           id="path172"
           inkscape:connector-curvature="0" /><g
           id="g174"
           transform="translate(858.5415,1129.0381)"><path
             d="m 0,0 -39.282,23.034 -7.99,-10.716 -35.498,22.764 3.24,5.051 30.79,-19.746 7.86,10.539 L -0.906,7.487 11.934,19.971 39.766,6.442 37.143,1.045 13.098,12.734 Z"
             style="fill:#000000;fill-opacity:1;fill-rule:nonzero;stroke:none"
             id="path176"
             inkscape:connector-curvature="0" /></g><g
           id="g178"
           transform="translate(886.1884,1125.8325)"><path
             d="M 0,0 H 24.884 L 12.442,20.279 Z"
             style="fill:#000000;fill-opacity:1;fill-rule:nonzero;stroke:none"
             id="path180"
             inkscape:connector-curvature="0" /></g><path
           d="M 750.684,1101.686 H 936.7 v 89.107 H 750.684 Z m 192.015,-6 H 744.683 v 101.107 h 198.016 z"
           style="fill:#000000;fill-opacity:1;fill-rule:nonzero;stroke:none"
           id="path182"
           inkscape:connector-curvature="0" /><g
           id="g184"
           transform="translate(1108.2021,1083.7461)"><path
             d="M 0,0 H 119.272 V 95.972 L 82.489,126.986 H 0 Z M 125.272,-6 H -6 v 138.986 h 90.681 l 40.591,-34.225 z"
             style="fill:#000000;fill-opacity:1;fill-rule:nonzero;stroke:none"
             id="path186"
             inkscape:connector-curvature="0" /></g><g
           id="g188"
           transform="translate(1230.4746,1173.9307)"><path
             d="m 0,0 h -42.302 v 39.801 h 6 V 6 H 0 Z"
             style="fill:#000000;fill-opacity:1;fill-rule:nonzero;stroke:none"
             id="path190"
             inkscape:connector-curvature="0" /></g><g
           id="g192"
           transform="translate(1559.9033,1098.6333)"><path
             d="M 0,0 H -38.482 V 6 H -6 v 93.633 l -33.091,30.16 h -74.011 V 99.161 h -6 v 36.632 h 82.335 L 0,102.282 Z"
             style="fill:#000000;fill-opacity:1;fill-rule:nonzero;stroke:none"
             id="path194"
             inkscape:connector-curvature="0" /></g><g
           id="g196"
           transform="translate(1556.9033,1192.5093)"><path
             d="m 0,0 h -38.482 v 38.917 h 6 V 6 H 0 Z"
             style="fill:#000000;fill-opacity:1;fill-rule:nonzero;stroke:none"
             id="path198"
             inkscape:connector-curvature="0" /></g><g
           id="g200"
           transform="translate(1411.3184,1071.0005)"><path
             d="M 0,0 H 107.103 V 93.633 L 74.012,123.794 H 0 Z M 113.103,-6 H -6 v 135.794 h 82.336 l 36.767,-33.512 z"
             style="fill:#000000;fill-opacity:1;fill-rule:nonzero;stroke:none"
             id="path202"
             inkscape:connector-curvature="0" /></g><g
           id="g204"
           transform="translate(1521.4209,1158.8765)"><path
             d="m 0,0 h -38.483 v 38.918 h 6 V 6 H 0 Z"
             style="fill:#000000;fill-opacity:1;fill-rule:nonzero;stroke:none"
             id="path206"
             inkscape:connector-curvature="0" /></g><path
           d="m 1822.913,1112.646 h -59.814 v 6 h 59.814 z"
           style="fill:#000000;fill-opacity:1;fill-rule:nonzero;stroke:none"
           id="path208"
           inkscape:connector-curvature="0" /><g
           id="g210"
           transform="translate(1747.8398,1086.4976)"><path
             d="M 0,0 H 122.442 V 104.324 L 84.635,137.988 H 0 Z M 128.442,-6 H -6 v 149.988 h 92.918 l 41.524,-36.972 z"
             style="fill:#000000;fill-opacity:1;fill-rule:nonzero;stroke:none"
             id="path212"
             inkscape:connector-curvature="0" /></g><g
           id="g214"
           transform="translate(1873.2822,1184.6396)"><path
             d="m 0,0 h -43.296 v 42.846 h 6 V 6 H 0 Z"
             style="fill:#000000;fill-opacity:1;fill-rule:nonzero;stroke:none"
             id="path216"
             inkscape:connector-curvature="0" /></g><path
           d="m 1809.062,1187.396 h -45.963 v 6 h 45.963 z"
           style="fill:#000000;fill-opacity:1;fill-rule:nonzero;stroke:none"
           id="path218"
           inkscape:connector-curvature="0" /><path
           d="m 1855.652,1169.245 h -92.554 v 6 h 92.554 z"
           style="fill:#000000;fill-opacity:1;fill-rule:nonzero;stroke:none"
           id="path220"
           inkscape:connector-curvature="0" /><path
           d="m 1855.338,1152.491 h -92.554 v 6 h 92.554 z"
           style="fill:#000000;fill-opacity:1;fill-rule:nonzero;stroke:none"
           id="path222"
           inkscape:connector-curvature="0" /><path
           d="m 1855.338,1135.738 h -92.554 v 6 h 92.554 z"
           style="fill:#000000;fill-opacity:1;fill-rule:nonzero;stroke:none"
           id="path224"
           inkscape:connector-curvature="0" /><g
           id="g226"
           transform="translate(234.9824,914.9336)"><path
             d="m 0,0 c -15.487,0 -28.087,-12.787 -28.087,-28.504 0,-15.717 12.6,-28.504 28.087,-28.504 15.487,0 28.087,12.787 28.087,28.504 C 28.087,-12.787 15.487,0 0,0 m 0,-63.008 c -18.795,0 -34.087,15.479 -34.087,34.504 C -34.087,-9.479 -18.795,6 0,6 18.795,6 34.087,-9.479 34.087,-28.504 34.087,-47.529 18.795,-63.008 0,-63.008"
             style="fill:#000000;fill-opacity:1;fill-rule:nonzero;stroke:none"
             id="path228"
             inkscape:connector-curvature="0" /></g><g
           id="g230"
           transform="translate(246.7505,775.9336)"><path
             d="m 0,0 h -119.563 v 122.794 h 76.708 v -6 h -70.708 V 6 H -6 v 75.371 h 6 z"
             style="fill:#000000;fill-opacity:1;fill-rule:nonzero;stroke:none"
             id="path232"
             inkscape:connector-curvature="0" /></g><path
           d="m 237.982,870.371 h -6 v 25.356 h 6 z"
           style="fill:#000000;fill-opacity:1;fill-rule:nonzero;stroke:none"
           id="path234"
           inkscape:connector-curvature="0" /><path
           d="m 248.346,880.05 h -28.227 v 6 h 28.227 z"
           style="fill:#000000;fill-opacity:1;fill-rule:nonzero;stroke:none"
           id="path236"
           inkscape:connector-curvature="0" /><g
           id="g238"
           transform="translate(555.5093,915.7715)"><path
             d="m 0,0 c -15.973,0 -28.968,-12.974 -28.968,-28.921 0,-15.946 12.995,-28.92 28.968,-28.92 15.973,0 28.967,12.974 28.967,28.92 C 28.967,-12.974 15.973,0 0,0 m 0,-63.841 c -19.281,0 -34.968,15.665 -34.968,34.92 C -34.968,-9.665 -19.281,6 0,6 19.281,6 34.967,-9.665 34.967,-28.921 34.967,-48.176 19.281,-63.841 0,-63.841"
             style="fill:#000000;fill-opacity:1;fill-rule:nonzero;stroke:none"
             id="path240"
             inkscape:connector-curvature="0" /></g><g
           id="g242"
           transform="translate(571.7803,774.9336)"><path
             d="m 0,0 h -122.78 v 124.339 h 74.542 v -6 H -116.78 V 6 H -6 v 76.896 h 6 z"
             style="fill:#000000;fill-opacity:1;fill-rule:nonzero;stroke:none"
             id="path244"
             inkscape:connector-curvature="0" /></g><path
           d="m 571.48,880.426 h -31.726 v 6 h 31.726 z"
           style="fill:#000000;fill-opacity:1;fill-rule:nonzero;stroke:none"
           id="path246"
           inkscape:connector-curvature="0" /><path
           d="m 770.701,788.358 h 115 v 106.088 h -115 z m 121,-6 h -127 v 118.088 h 127 z"
           style="fill:#000000;fill-opacity:1;fill-rule:nonzero;stroke:none"
           id="path248"
           inkscape:connector-curvature="0" /><path
           d="m 870.962,864.65 h -85.06 v 6 h 85.06 z"
           style="fill:#000000;fill-opacity:1;fill-rule:nonzero;stroke:none"
           id="path250"
           inkscape:connector-curvature="0" /><path
           d="m 870.962,847.802 h -85.06 v 6 h 85.06 z"
           style="fill:#000000;fill-opacity:1;fill-rule:nonzero;stroke:none"
           id="path252"
           inkscape:connector-curvature="0" /><path
           d="m 870.962,833.437 h -85.06 v 6 h 85.06 z"
           style="fill:#000000;fill-opacity:1;fill-rule:nonzero;stroke:none"
           id="path254"
           inkscape:connector-curvature="0" /><path
           d="m 870.962,819.071 h -85.06 v 6 h 85.06 z"
           style="fill:#000000;fill-opacity:1;fill-rule:nonzero;stroke:none"
           id="path256"
           inkscape:connector-curvature="0" /><path
           d="m 870.962,804.705 h -85.06 v 6 h 85.06 z"
           style="fill:#000000;fill-opacity:1;fill-rule:nonzero;stroke:none"
           id="path258"
           inkscape:connector-curvature="0" /><path
           d="m 794.685,884.854 h -6 v 23.943 h 6 z"
           style="fill:#000000;fill-opacity:1;fill-rule:nonzero;stroke:none"
           id="path260"
           inkscape:connector-curvature="0" /><path
           d="m 807.141,884.854 h -6 v 23.943 h 6 z"
           style="fill:#000000;fill-opacity:1;fill-rule:nonzero;stroke:none"
           id="path262"
           inkscape:connector-curvature="0" /><path
           d="m 819.597,884.854 h -6 v 23.943 h 6 z"
           style="fill:#000000;fill-opacity:1;fill-rule:nonzero;stroke:none"
           id="path264"
           inkscape:connector-curvature="0" /><path
           d="m 832.053,884.854 h -6 v 23.943 h 6 z"
           style="fill:#000000;fill-opacity:1;fill-rule:nonzero;stroke:none"
           id="path266"
           inkscape:connector-curvature="0" /><path
           d="m 844.509,884.854 h -6 v 23.943 h 6 z"
           style="fill:#000000;fill-opacity:1;fill-rule:nonzero;stroke:none"
           id="path268"
           inkscape:connector-curvature="0" /><path
           d="m 856.964,884.854 h -6 v 23.943 h 6 z"
           style="fill:#000000;fill-opacity:1;fill-rule:nonzero;stroke:none"
           id="path270"
           inkscape:connector-curvature="0" /><path
           d="m 869.42,884.854 h -6 v 23.943 h 6 z"
           style="fill:#000000;fill-opacity:1;fill-rule:nonzero;stroke:none"
           id="path272"
           inkscape:connector-curvature="0" /><g
           id="g274"
           transform="translate(1168.0117,911.3965)"><path
             d="m 0,0 v -65.544 l 9.891,10.711 9.889,-10.71 V 0 Z M 25.78,-80.887 9.891,-63.677 -6,-80.886 V 6 h 31.78 z"
             style="fill:#000000;fill-opacity:1;fill-rule:nonzero;stroke:none"
             id="path276"
             inkscape:connector-curvature="0" /></g><g
           id="g278"
           transform="translate(1216.2744,782.3584)"><path
             d="m 0,0 h -126.806 v 126.737 h 74.345 v -6 h -68.345 V 6 H -6 v 114.737 h -18.283 v 6 H 0 Z"
             style="fill:#000000;fill-opacity:1;fill-rule:nonzero;stroke:none"
             id="path280"
             inkscape:connector-curvature="0" /></g><g
           id="g282"
           transform="translate(1416.6943,788.3584)"><path
             d="M 0,0 H 119.306 V 93.295 L 82.535,123.471 H 0 Z M 125.306,-6 H -6 v 135.471 h 90.682 l 40.624,-33.338 z"
             style="fill:#000000;fill-opacity:1;fill-rule:nonzero;stroke:none"
             id="path284"
             inkscape:connector-curvature="0" /></g><g
           id="g286"
           transform="translate(1539,876.001)"><path
             d="m 0,0 h -42.312 v 38.828 h 6 V 6 H 0 Z"
             style="fill:#000000;fill-opacity:1;fill-rule:nonzero;stroke:none"
             id="path288"
             inkscape:connector-curvature="0" /></g><path
           d="m 1489.86,801.494 h -58.353 v 6 h 58.353 z"
           style="fill:#000000;fill-opacity:1;fill-rule:nonzero;stroke:none"
           id="path290"
           inkscape:connector-curvature="0" /><path
           d="M 1521.494,837.322 H 1431.2 v 6 h 90.294 z"
           style="fill:#000000;fill-opacity:1;fill-rule:nonzero;stroke:none"
           id="path292"
           inkscape:connector-curvature="0" /><path
           d="M 1521.494,822.259 H 1431.2 v 6 h 90.294 z"
           style="fill:#000000;fill-opacity:1;fill-rule:nonzero;stroke:none"
           id="path294"
           inkscape:connector-curvature="0" /><g
           id="g296"
           transform="translate(1457.959,893.915)"><path
             d="m 0,0 c -6.92,0 -12.549,-5.366 -12.549,-11.962 0,-6.597 5.629,-11.963 12.549,-11.963 6.919,0 12.548,5.366 12.548,11.963 C 12.548,-5.366 6.919,0 0,0 m 0,-29.925 c -10.228,0 -18.549,8.059 -18.549,17.963 C -18.549,-2.058 -10.228,6 0,6 10.228,6 18.548,-2.058 18.548,-11.962 18.548,-21.866 10.228,-29.925 0,-29.925"
             style="fill:#000000;fill-opacity:1;fill-rule:nonzero;stroke:none"
             id="path298"
             inkscape:connector-curvature="0" /></g><g
           id="g300"
           transform="translate(1478.4932,850.7705)"><path
             d="m 0,0 c -1.375,4.093 -6.441,14.765 -13.284,15 l 0.205,5.996 C -0.675,20.57 5.437,2.663 5.69,1.901 L -0.001,0.003 2.845,0.952 Z"
             style="fill:#000000;fill-opacity:1;fill-rule:nonzero;stroke:none"
             id="path302"
             inkscape:connector-curvature="0" /></g><g
           id="g304"
           transform="translate(1437.0029,850.9004)"><path
             d="m 0,0 -5.77,1.645 c 0.242,0.847 6.061,20.753 19.71,19.204 L 13.261,14.888 C 4.795,15.833 0.045,0.158 0,0"
             style="fill:#000000;fill-opacity:1;fill-rule:nonzero;stroke:none"
             id="path306"
             inkscape:connector-curvature="0" /></g><path
           d="m 1726.407,793.22 h 131.812 v 92.059 h -131.812 z m 137.813,-6 h -143.812 v 104.059 h 143.812 z"
           style="fill:#000000;fill-opacity:1;fill-rule:nonzero;stroke:none"
           id="path308"
           inkscape:connector-curvature="0" /><g
           id="g310"
           transform="translate(1882.1084,796.8457)"><path
             d="m 0,0 h -6 v 99.365 h -142.413 v -7.932 h -6 v 13.932 H 0 Z"
             style="fill:#000000;fill-opacity:1;fill-rule:nonzero;stroke:none"
             id="path312"
             inkscape:connector-curvature="0" /></g><path
           d="m 1831.404,867.058 h -77.52 v 6 h 77.52 z"
           style="fill:#000000;fill-opacity:1;fill-rule:nonzero;stroke:none"
           id="path314"
           inkscape:connector-curvature="0" /><path
           d="m 1815.503,851.823 h -40.416 v 6 h 40.416 z"
           style="fill:#000000;fill-opacity:1;fill-rule:nonzero;stroke:none"
           id="path316"
           inkscape:connector-curvature="0" /><g
           id="g318"
           transform="translate(118.5854,488.3281)"><path
             d="M 0,0 H 159.09 V 73.148 L 57.701,73.837 46.957,85.031 H 0 Z M 165.09,-6 H -6 V 91.031 H 49.514 L 60.275,79.819 165.09,79.107 Z"
             style="fill:#000000;fill-opacity:1;fill-rule:nonzero;stroke:none"
             id="path320"
             inkscape:connector-curvature="0" /></g><path
           d="m 280.676,546.05 h -165.09 v 6 h 165.09 z"
           style="fill:#000000;fill-opacity:1;fill-rule:nonzero;stroke:none"
           id="path322"
           inkscape:connector-curvature="0" /><g
           id="g324"
           transform="translate(1133.459,589.1592)"><path
             d="m 0,0 c -9.73,0 -18.232,-6.902 -20.216,-16.413 l -0.434,-2.085 -2.112,-0.277 c -17.095,-2.246 -29.987,-16.963 -29.987,-34.236 l 0.002,-0.318 c 0.141,-14.689 12.471,-26.623 27.486,-26.623 H 96.867 c 11.284,0 20.543,8.94 20.64,19.93 l 10e-4,0.244 c 0,13.36 -9.817,25.184 -23.872,28.753 l -2.393,0.608 0.136,2.464 c 0.018,0.338 0.017,0.676 0.017,1.033 0,18.443 -16.958,33.448 -37.8,33.448 -12.912,0 -24.801,-5.745 -31.803,-15.368 l -2.473,-3.399 -2.411,3.443 C 13.054,-3.288 6.732,0 0,0 M 96.867,-85.952 H -25.261 c -18.292,0 -33.313,14.6 -33.486,32.547 l -0.002,0.394 c 0,19.582 14.12,36.368 33.171,39.865 C -22.288,-1.936 -11.85,6 0,6 7.368,6 14.356,2.947 19.346,-2.317 c 8.276,9.357 20.801,14.845 34.25,14.845 23.756,0 43.156,-17.122 43.784,-38.383 15.498,-4.908 26.128,-18.553 26.128,-33.923 l -10e-4,-0.303 c -0.126,-14.263 -12.076,-25.871 -26.64,-25.871"
             style="fill:#000000;fill-opacity:1;fill-rule:nonzero;stroke:none"
             id="path326"
             inkscape:connector-curvature="0" /></g><g
           id="g328"
           transform="translate(1191.377,526.085)"><path
             d="M 0,0 -28.312,14.971 -52.119,0.107 -55.297,5.197 -28.56,21.889 2.805,5.305 Z"
             style="fill:#000000;fill-opacity:1;fill-rule:nonzero;stroke:none"
             id="path330"
             inkscape:connector-curvature="0" /></g><path
           d="m 1165.941,479.91 h -6 v 64.604 h 6 z"
           style="fill:#000000;fill-opacity:1;fill-rule:nonzero;stroke:none"
           id="path332"
           inkscape:connector-curvature="0" /><g
           id="g334"
           transform="translate(1448.5146,583.6172)"><path
             d="m 0,0 c -8.825,0 -16.535,-6.26 -18.333,-14.884 l -0.435,-2.085 -2.111,-0.277 c -15.583,-2.047 -27.335,-15.464 -27.335,-31.208 l 10e-4,-0.311 c 0.128,-13.339 11.346,-24.195 25.007,-24.195 H 88.986 c 10.234,0 18.629,8.105 18.716,18.066 l 0.001,0.223 c 0,12.161 -8.942,22.927 -21.746,26.179 l -2.397,0.608 0.14,2.47 c 0.018,0.304 0.016,0.607 0.016,0.929 0,16.807 -15.469,30.482 -34.482,30.482 -11.783,0 -22.63,-5.24 -29.017,-14.017 l -2.473,-3.399 -2.411,3.443 C 11.837,-2.981 6.105,0 0,0 M 88.986,-78.96 H -23.206 c -16.938,0 -30.847,13.521 -31.007,30.14 l -10e-4,0.366 c 0,18.056 12.985,33.54 30.525,36.834 C -20.59,-1.295 -10.943,6 0,6 6.747,6 13.148,3.242 17.765,-1.524 c 7.65,8.527 19.14,13.521 31.469,13.521 21.893,0 39.782,-15.741 40.461,-35.324 14.248,-4.585 24.008,-17.173 24.008,-31.344 l -0.001,-0.284 C 113.586,-68.188 102.499,-78.96 88.986,-78.96"
             style="fill:#000000;fill-opacity:1;fill-rule:nonzero;stroke:none"
             id="path336"
             inkscape:connector-curvature="0" /></g><g
           id="g338"
           transform="translate(1485.2422,474.5244)"><path
             d="m 0,0 -24.681,15.407 3.178,5.09 L 0.248,6.918 26.133,20.604 28.937,15.3 Z"
             style="fill:#000000;fill-opacity:1;fill-rule:nonzero;stroke:none"
             id="path340"
             inkscape:connector-curvature="0" /></g><path
           d="m 1488.366,477.983 h -6 v 59.348 h 6 z"
           style="fill:#000000;fill-opacity:1;fill-rule:nonzero;stroke:none"
           id="path342"
           inkscape:connector-curvature="0" /><g
           id="g344"
           transform="translate(585.2891,482.6055)"><path
             d="m 0,0 h -154.973 v 102.396 h 50.655 l 9.713,-11.876 39.391,-0.314 -0.048,-6 -42.206,0.337 -9.694,11.853 h -41.811 V 6 H -6 v 37.042 h 6 z"
             style="fill:#000000;fill-opacity:1;fill-rule:nonzero;stroke:none"
             id="path346"
             inkscape:connector-curvature="0" /></g><path
           d="m 530.378,550.083 h -97.062 v 6 h 97.062 z"
           style="fill:#000000;fill-opacity:1;fill-rule:nonzero;stroke:none"
           id="path348"
           inkscape:connector-curvature="0" /><g
           id="g350"
           transform="translate(567.2686,592.0869)"><path
             d="m 0,0 c -19.591,0 -35.53,-14.897 -35.53,-33.21 0,-18.312 15.939,-33.21 35.53,-33.21 19.591,0 35.53,14.898 35.53,33.21 C 35.53,-14.897 19.591,0 0,0 m 0,-72.42 c -22.899,0 -41.53,17.59 -41.53,39.21 C -41.53,-11.59 -22.899,6 0,6 22.899,6 41.53,-11.59 41.53,-33.21 41.53,-54.83 22.899,-72.42 0,-72.42"
             style="fill:#000000;fill-opacity:1;fill-rule:nonzero;stroke:none"
             id="path352"
             inkscape:connector-curvature="0" /></g><path
           d="m 570.269,538.003 h -6 v 39.618 h 6 z"
           style="fill:#000000;fill-opacity:1;fill-rule:nonzero;stroke:none"
           id="path354"
           inkscape:connector-curvature="0" /><path
           d="m 582.289,555.877 h -31.252 v 6 h 31.252 z"
           style="fill:#000000;fill-opacity:1;fill-rule:nonzero;stroke:none"
           id="path356"
           inkscape:connector-curvature="0" /><g
           id="g358"
           transform="translate(910.6748,485.416)"><path
             d="m 0,0 h -157.569 v 104.138 h 51.462 l 9.881,-12.091 40.101,-0.319 -0.047,-6 -42.918,0.342 -9.863,12.068 h -42.616 V 6 H -6 v 37.766 h 6 z"
             style="fill:#000000;fill-opacity:1;fill-rule:nonzero;stroke:none"
             id="path360"
             inkscape:connector-curvature="0" /></g><path
           d="m 854.859,554.112 h -98.753 v 6 h 98.753 z"
           style="fill:#000000;fill-opacity:1;fill-rule:nonzero;stroke:none"
           id="path362"
           inkscape:connector-curvature="0" /><g
           id="g364"
           transform="translate(892.3926,596.876)"><path
             d="m 0,0 c -19.961,0 -36.201,-15.191 -36.201,-33.864 0,-18.673 16.24,-33.865 36.201,-33.865 19.961,0 36.201,15.192 36.201,33.865 C 36.201,-15.191 19.961,0 0,0 m 0,-73.729 c -23.27,0 -42.201,17.883 -42.201,39.865 C -42.201,-11.883 -23.27,6 0,6 23.27,6 42.201,-11.883 42.201,-33.864 42.201,-55.846 23.27,-73.729 0,-73.729"
             style="fill:#000000;fill-opacity:1;fill-rule:nonzero;stroke:none"
             id="path366"
             inkscape:connector-curvature="0" /></g><path
           d="m 907.675,559.361 h -31.797 v 6 h 31.797 z"
           style="fill:#000000;fill-opacity:1;fill-rule:nonzero;stroke:none"
           id="path368"
           inkscape:connector-curvature="0" /><g
           id="g370"
           transform="translate(1853.5889,503.4463)"><path
             d="m 0,0 h -104.6 c -15.904,0 -28.963,14.595 -29.111,32.534 l -0.002,0.392 c 0,19.423 12.072,36.11 28.406,39.766 2.845,11.251 11.962,19.213 22.342,19.213 6.282,0 12.227,-2.893 16.55,-7.908 7.171,9.109 17.863,14.433 29.353,14.433 14.849,0 25.105,-5.647 31.354,-17.264 l -5.283,-2.842 c -5.178,9.623 -13.462,14.106 -26.071,14.106 -10.835,0 -20.843,-5.675 -26.77,-15.181 l -2.596,-4.162 -2.522,4.206 c -3.236,5.393 -8.475,8.612 -14.015,8.612 -8.09,0 -15.187,-6.863 -16.877,-16.318 l -0.377,-2.113 -2.122,-0.326 c -14.464,-2.216 -25.372,-16.929 -25.372,-34.222 l 0.002,-0.343 C -127.59,17.925 -117.223,6 -104.6,6 H 0 c 9.427,0 17.164,8.933 17.246,19.913 l 0.001,0.249 c 0,2.253 -0.232,4.496 -0.69,6.669 l 5.871,1.238 c 0.544,-2.579 0.819,-5.239 0.819,-7.907 L 23.246,25.858 C 23.139,11.604 12.711,0 0,0"
             style="fill:#000000;fill-opacity:1;fill-rule:nonzero;stroke:none"
             id="path372"
             inkscape:connector-curvature="0" /></g><g
           id="g374"
           transform="translate(1859.4902,583.1943)"><path
             d="m 0,0 c -15.071,0 -27.332,-10.141 -27.332,-22.605 0,-12.464 12.261,-22.605 27.332,-22.605 15.071,0 27.332,10.141 27.332,22.605 C 27.332,-10.141 15.071,0 0,0 m 0,-51.21 c -18.379,0 -33.332,12.832 -33.332,28.605 C -33.332,-6.832 -18.379,6 0,6 18.379,6 33.332,-6.832 33.332,-22.605 33.332,-38.378 18.379,-51.21 0,-51.21"
             style="fill:#000000;fill-opacity:1;fill-rule:nonzero;stroke:none"
             id="path376"
             inkscape:connector-curvature="0" /></g><path
           d="m 1871.314,557.589 h -24.603 v 6 h 24.603 z"
           style="fill:#000000;fill-opacity:1;fill-rule:nonzero;stroke:none"
           id="path378"
           inkscape:connector-curvature="0" /><path
           d="m 1873.38,557.589 h -24.603 v 6 h 24.603 z"
           style="fill:#000000;fill-opacity:1;fill-rule:nonzero;stroke:none"
           id="path380"
           inkscape:connector-curvature="0" /><path
           d="m 1864.079,546.234 h -6 v 28.71 h 6 z"
           style="fill:#000000;fill-opacity:1;fill-rule:nonzero;stroke:none"
           id="path382"
           inkscape:connector-curvature="0" /><g
           id="g384"
           transform="translate(254.9019,170.2129)"><path
             d="m 0,0 h -111.484 c -16.845,0 -30.675,16.874 -30.83,37.615 l -0.002,0.452 c 0,22.545 12.836,41.919 30.188,46.114 2.91,13.147 12.62,22.485 23.703,22.485 6.722,0 13.064,-3.396 17.642,-9.277 7.602,10.677 19.005,16.923 31.282,16.923 15.8,0 26.692,-6.562 33.296,-20.061 l -5.389,-2.637 c -5.574,11.392 -14.442,16.698 -27.907,16.698 -11.565,0 -22.27,-6.702 -28.636,-17.925 l -2.66,-4.692 -2.583,4.735 c -3.497,6.409 -9.121,10.236 -15.045,10.236 -8.695,0 -16.338,-8.201 -18.175,-19.501 l -0.344,-2.12 -2.118,-0.357 C -124.6,76.07 -136.316,58.607 -136.316,38.067 l 0.002,-0.409 C -136.184,20.203 -125.045,6 -111.484,6 H 0 c 10.154,0 18.489,10.696 18.579,23.845 l 10e-4,0.297 c 0,2.693 -0.252,5.377 -0.75,7.976 l 5.892,1.129 c 0.57,-2.971 0.858,-6.034 0.858,-9.105 L 24.579,29.811 C 24.466,13.37 13.44,0 0,0"
             style="fill:#000000;fill-opacity:1;fill-rule:nonzero;stroke:none"
             id="path386"
             inkscape:connector-curvature="0" /></g><g
           id="g388"
           transform="translate(261.1919,263.6641)"><path
             d="m 0,0 c -16.171,0 -29.328,-12.114 -29.328,-27.005 0,-14.891 13.157,-27.005 29.328,-27.005 16.171,0 29.328,12.114 29.328,27.005 C 29.328,-12.114 16.171,0 0,0 m 0,-60.01 c -19.48,0 -35.328,14.806 -35.328,33.005 C -35.328,-8.806 -19.48,6 0,6 19.48,6 35.328,-8.806 35.328,-27.005 35.328,-45.204 19.48,-60.01 0,-60.01"
             style="fill:#000000;fill-opacity:1;fill-rule:nonzero;stroke:none"
             id="path390"
             inkscape:connector-curvature="0" /></g><path
           d="m 273.795,233.659 h -26.222 v 6 h 26.222 z"
           style="fill:#000000;fill-opacity:1;fill-rule:nonzero;stroke:none"
           id="path392"
           inkscape:connector-curvature="0" /><path
           d="m 275.996,233.659 h -26.222 v 6 h 26.222 z"
           style="fill:#000000;fill-opacity:1;fill-rule:nonzero;stroke:none"
           id="path394"
           inkscape:connector-curvature="0" /><g
           id="g396"
           transform="translate(1807.667,177.0869)"><path
             d="m 0,0 c -28.14,0 -51.033,21.703 -51.033,48.381 0,23.699 17.862,43.762 42.472,47.704 l 0.95,-5.924 C -29.295,86.688 -45.033,69.116 -45.033,48.381 -45.033,25.012 -24.831,6 0,6 c 24.831,0 45.033,19.012 45.033,42.381 0,21.108 -16.731,39.163 -38.92,41.995 l 0.76,5.951 C 32.049,93.114 51.033,72.501 51.033,48.381 51.033,21.703 28.14,0 0,0"
             style="fill:#000000;fill-opacity:1;fill-rule:nonzero;stroke:none"
             id="path398"
             inkscape:connector-curvature="0" /></g><path
           d="m 1810.006,250.724 h -6 v 31.973 h 6 z"
           style="fill:#000000;fill-opacity:1;fill-rule:nonzero;stroke:none"
           id="path400"
           inkscape:connector-curvature="0" /><path
           d="m 441.758,177.476 h 159.265 v 75.05 H 441.758 Z m 165.264,-6 H 435.757 v 87.05 h 171.265 z"
           style="fill:#000000;fill-opacity:1;fill-rule:nonzero;stroke:none"
           id="path402"
           inkscape:connector-curvature="0" /><g
           id="g404"
           transform="translate(557.6328,227.6641)"><path
             d="m 0,0 h -6 v 27.861 c 0,17.2 -13.993,31.193 -31.192,31.193 -17.2,0 -31.193,-13.993 -31.193,-31.193 V 0 h -6 v 27.861 c 0,20.508 16.684,37.193 37.193,37.193 C -16.685,65.054 0,48.369 0,27.861 Z"
             style="fill:#000000;fill-opacity:1;fill-rule:nonzero;stroke:none"
             id="path406"
             inkscape:connector-curvature="0" /></g><path
           d="m 757.428,182.249 h 165.534 v 69.58 H 757.428 Z m 171.534,-6 H 751.428 v 81.58 h 177.534 z"
           style="fill:#000000;fill-opacity:1;fill-rule:nonzero;stroke:none"
           id="path408"
           inkscape:connector-curvature="0" /><g
           id="g410"
           transform="translate(869.4839,254.8291)"><path
             d="M 0,0 H -6 V 12.115 H -50.935 V 0 h -6 V 18.115 H 0 Z"
             style="fill:#000000;fill-opacity:1;fill-rule:nonzero;stroke:none"
             id="path412"
             inkscape:connector-curvature="0" /></g><path
           d="m 908.875,255.443 h -18.402 v 6 h 18.402 z"
           style="fill:#000000;fill-opacity:1;fill-rule:nonzero;stroke:none"
           id="path414"
           inkscape:connector-curvature="0" /><path
           d="m 792.547,255.443 h -18.402 v 6 h 18.402 z"
           style="fill:#000000;fill-opacity:1;fill-rule:nonzero;stroke:none"
           id="path416"
           inkscape:connector-curvature="0" /><path
           d="m 1084.326,182.134 h 160.693 v 40.421 h -160.693 z m 166.694,-6 h -172.693 v 52.421 h 172.693 z"
           style="fill:#000000;fill-opacity:1;fill-rule:nonzero;stroke:none"
           id="path418"
           inkscape:connector-curvature="0" /><path
           d="m 1070.5,228.555 h 188.235 v 28.464 H 1070.5 Z m 194.235,-6 H 1064.5 v 40.464 h 200.235 z"
           style="fill:#000000;fill-opacity:1;fill-rule:nonzero;stroke:none"
           id="path420"
           inkscape:connector-curvature="0" /><g
           id="g422"
           transform="translate(1194.9277,260.0186)"><path
             d="M 0,0 H -6 V 13.177 H -54.509 V 0 h -6 V 19.177 H 0 Z"
             style="fill:#000000;fill-opacity:1;fill-rule:nonzero;stroke:none"
             id="path424"
             inkscape:connector-curvature="0" /></g><path
           d="m 1127.582,213.949 h -6 v 23.21 h 6 z"
           style="fill:#000000;fill-opacity:1;fill-rule:nonzero;stroke:none"
           id="path426"
           inkscape:connector-curvature="0" /><path
           d="m 1214.622,213.949 h -6 v 23.21 h 6 z"
           style="fill:#000000;fill-opacity:1;fill-rule:nonzero;stroke:none"
           id="path428"
           inkscape:connector-curvature="0" /><path
           d="m 1392.431,183.087 h 188.066 v 79.508 h -188.066 z m 194.066,-6 h -200.066 v 91.508 h 200.066 z"
           style="fill:#000000;fill-opacity:1;fill-rule:nonzero;stroke:none"
           id="path430"
           inkscape:connector-curvature="0" /><g
           id="g432"
           transform="translate(1519.5771,265.5947)"><path
             d="M 0,0 H -6 V 14.102 H -57.625 V 0 h -6 V 20.102 H 0 Z"
             style="fill:#000000;fill-opacity:1;fill-rule:nonzero;stroke:none"
             id="path434"
             inkscape:connector-curvature="0" /></g><g
           id="g436"
           transform="translate(1477.4072,195.7266)"><path
             d="M 0,0 H 17.421 V 24.166 H 45.305 V 35.268 H 16.306 V 51.997 H 0 V 35.268 H -28.441 V 24.166 H 0 Z M 23.421,-6 H -6 V 18.166 H -34.441 V 41.268 H -6 V 57.997 H 22.306 V 41.268 H 51.305 V 18.166 H 23.421 Z"
             style="fill:#000000;fill-opacity:1;fill-rule:nonzero;stroke:none"
             id="path438"
             inkscape:connector-curvature="0" /></g><g
           id="g440"
           transform="translate(803.5376,1457.7114)"><path
             d="M 0,0 39.912,-68 78.814,2.054 c 7.708,12.578 9.754,28.133 5.613,42.675 C 80.693,57.837 72.52,68.133 61.413,73.722 54.608,77.145 47.33,78.881 39.78,78.881 39.186,78.881 38.594,78.87 38.004,78.848 22.848,78.291 9.403,69.749 1.116,55.413 -8.664,38.495 -9.089,17.268 0,0 M 40.056,-80.099 -5.275,-2.86 c -10.077,19.088 -9.619,42.567 1.196,61.276 9.342,16.16 24.6,25.793 41.863,26.428 0.663,0.025 1.328,0.037 1.996,0.037 8.495,0 16.68,-1.951 24.329,-5.799 12.625,-6.352 21.89,-17.969 26.088,-32.71 4.594,-16.13 2.322,-33.402 -6.233,-47.397 z"
             style="fill:#000000;fill-opacity:1;fill-rule:nonzero;stroke:none"
             id="path442"
             inkscape:connector-curvature="0" /></g><g
           id="g444"
           transform="translate(843.5215,1500.4365)"><path
             d="m 0,0 c -9.236,0 -16.75,-7.514 -16.75,-16.75 0,-9.236 7.514,-16.75 16.75,-16.75 9.236,0 16.75,7.514 16.75,16.75 C 16.75,-7.514 9.236,0 0,0 m 0,-39.5 c -12.544,0 -22.75,10.206 -22.75,22.75 C -22.75,-4.206 -12.544,6 0,6 12.544,6 22.75,-4.206 22.75,-16.75 22.75,-29.294 12.544,-39.5 0,-39.5"
             style="fill:#000000;fill-opacity:1;fill-rule:nonzero;stroke:none"
             id="path446"
             inkscape:connector-curvature="0" /></g><g
           id="g448"
           transform="translate(1191.2451,1370.2725)"><path
             d="m 0,0 -33.728,57.465 5.174,3.037 L -0.145,12.1 38.76,82.152 c 7.707,12.579 9.753,28.134 5.611,42.676 -3.733,13.108 -11.906,23.404 -23.015,28.992 -6.804,3.424 -14.082,5.159 -21.631,5.159 -0.594,0 -1.187,-0.011 -1.776,-0.032 l -0.988,-0.035 c -3.508,-0.122 -4.567,-0.16 -7.728,-1.195 l -1.867,5.702 c 3.969,1.3 5.666,1.359 9.386,1.489 l 0.977,0.035 c 0.663,0.024 1.328,0.036 1.996,0.036 8.494,0 16.679,-1.951 24.329,-5.798 12.625,-6.352 21.889,-17.969 26.088,-32.709 4.593,-16.13 2.321,-33.403 -6.233,-47.399 z"
             style="fill:#000000;fill-opacity:1;fill-rule:nonzero;stroke:none"
             id="path450"
             inkscape:connector-curvature="0" /></g><g
           id="g452"
           transform="translate(1203.0449,1491.5498)"><path
             d="m 0,0 c -2.826,2.437 -6.283,3.833 -9.997,4.038 l 0.33,5.991 C -4.618,9.75 0.079,7.854 3.918,4.545 Z"
             style="fill:#000000;fill-opacity:1;fill-rule:nonzero;stroke:none"
             id="path454"
             inkscape:connector-curvature="0" /></g><g
           id="g456"
           transform="translate(1192.0928,1456.1235)"><path
             d="m 0,0 c -5.263,0 -10.549,1.811 -14.839,5.509 l 3.918,4.545 c 3.389,-2.923 7.718,-4.348 12.174,-4.018 4.462,0.33 8.528,2.379 11.449,5.768 2.922,3.388 4.349,7.712 4.018,12.174 -0.33,4.461 -2.379,8.527 -5.768,11.448 l 3.918,4.545 c 4.603,-3.968 7.385,-9.49 7.833,-15.55 C 23.152,18.36 21.215,12.488 17.247,7.886 12.754,2.674 6.395,0 0,0"
             style="fill:#000000;fill-opacity:1;fill-rule:nonzero;stroke:none"
             id="path458"
             inkscape:connector-curvature="0" /></g><g
           id="g460"
           transform="translate(1101.668,1466.7749)"><path
             d="M 0,0 39.912,-68 78.815,2.054 c 4.956,8.088 7.615,17.524 7.689,27.29 C 86.649,48.56 76.801,65.979 61.412,73.722 54.608,77.145 47.33,78.88 39.78,78.88 39.187,78.88 38.596,78.87 38.007,78.848 22.849,78.29 9.403,69.749 1.116,55.413 -8.664,38.495 -9.089,17.268 0,0 M 40.057,-80.099 -5.275,-2.86 c -10.077,19.088 -9.619,42.567 1.197,61.276 9.342,16.16 24.599,25.792 41.862,26.428 0.661,0.025 1.328,0.036 1.996,0.036 8.495,0 16.681,-1.95 24.329,-5.798 C 81.521,70.321 92.667,50.78 92.504,29.298 92.422,18.464 89.47,7.98 83.965,-1.026 Z"
             style="fill:#000000;fill-opacity:1;fill-rule:nonzero;stroke:none"
             id="path462"
             inkscape:connector-curvature="0" /></g><g
           id="g464"
           transform="translate(1141.6523,1509.5)"><path
             d="m 0,0 c -9.236,0 -16.75,-7.514 -16.75,-16.75 0,-9.236 7.514,-16.75 16.75,-16.75 9.236,0 16.75,7.514 16.75,16.75 C 16.75,-7.514 9.236,0 0,0 m 0,-39.5 c -12.544,0 -22.75,10.206 -22.75,22.75 C -22.75,-4.206 -12.544,6 0,6 12.544,6 22.75,-4.206 22.75,-16.75 22.75,-29.294 12.544,-39.5 0,-39.5"
             style="fill:#000000;fill-opacity:1;fill-rule:nonzero;stroke:none"
             id="path466"
             inkscape:connector-curvature="0" /></g></g></g></g></svg>